<svg width="18" height="18" viewBox="0 0 18 18" fill="none" xmlns="http://www.w3.org/2000/svg">
<path d="M10.8389 0.259766C12.3362 0.564698 13.6852 1.38524 14.7761 2.43404C14.8007 2.45753 14.8253 2.48102 14.8507 2.50523C15.2018 2.84219 15.5215 3.18387 15.8014 3.58271C15.818 3.60615 15.8347 3.6296 15.8518 3.65376C16.6684 4.81455 17.1948 6.11446 17.4009 7.52101C17.4052 7.54995 17.4094 7.57889 17.4138 7.60871C17.4551 7.94576 17.4495 8.28596 17.4495 8.62498C17.4496 8.73254 17.4503 8.84008 17.4511 8.94763C17.4532 9.56461 17.4096 10.1648 17.2417 10.7616C17.2111 10.871 17.1814 10.9805 17.1526 11.0904C16.9777 11.7372 16.7307 12.3771 16.3879 12.954C16.3341 13.0471 16.2936 13.1184 16.2936 13.2275C16.3526 13.3396 16.4325 13.4132 16.5243 13.5003C16.6782 13.6494 16.8221 13.8012 16.961 13.9642C17.0391 14.0521 17.1218 14.1336 17.2061 14.2156C17.3763 14.3855 17.4735 14.4924 17.5009 14.7387C17.4932 14.9147 17.4366 15.0182 17.3189 15.1515C17.1386 15.2595 16.9965 15.2921 16.7877 15.3023C16.7603 15.3038 16.7328 15.3052 16.7045 15.3068C16.6139 15.3116 16.5232 15.3156 16.4325 15.3196C16.368 15.3228 16.3036 15.3261 16.2391 15.3295C16.0687 15.3382 15.8983 15.3463 15.7279 15.3543C15.5598 15.3622 15.3917 15.3707 15.2236 15.3791C15.1572 15.3824 15.0907 15.3858 15.0242 15.3891C14.9914 15.3907 14.9586 15.3924 14.9247 15.3941C14.8252 15.3991 14.7257 15.4039 14.6262 15.4088C14.1272 15.4333 13.6285 15.462 13.1298 15.4933C12.6671 15.5223 12.2045 15.5466 11.7412 15.5617C11.7056 15.5631 11.67 15.5645 11.6333 15.5659C11.5308 15.5697 11.4284 15.5723 11.3259 15.5745C11.296 15.5757 11.2661 15.577 11.2353 15.5782C11.0907 15.5799 11.0095 15.5657 10.8854 15.4891C10.698 15.2931 10.7042 15.1286 10.7084 14.8665C10.7213 14.5239 10.7576 14.1825 10.7902 13.8413C10.7971 13.7671 10.804 13.693 10.8108 13.6189C10.8565 13.1273 10.9056 12.636 10.9551 12.1448C10.9875 11.8226 11.0188 11.5003 11.0492 11.178C11.0694 10.9638 11.09 10.7498 11.1106 10.5357C11.121 10.4267 11.1313 10.3177 11.1414 10.2087C11.1562 10.0478 11.1719 9.88701 11.1875 9.72621C11.1919 9.67771 11.1962 9.62921 11.2007 9.57924C11.2603 8.98273 11.2603 8.98273 11.4849 8.79531C11.6447 8.69384 11.7192 8.6808 11.9052 8.7107C12.1114 8.83014 12.2699 8.9821 12.4358 9.15171C12.4611 9.17725 12.4864 9.20279 12.5124 9.2291C12.6657 9.38502 12.8139 9.54394 12.9552 9.71082C13.0378 9.80664 13.1268 9.89439 13.2176 9.98245C13.3103 9.74618 13.3871 9.50766 13.4597 9.26453C13.4886 9.1723 13.5197 9.08072 13.5536 8.99018C14.0098 7.75419 14.0896 6.22298 13.7918 4.9365C13.7804 4.88488 13.769 4.83327 13.7572 4.78009C13.7192 4.62529 13.6755 4.47314 13.6278 4.32114C13.6183 4.2905 13.6087 4.25986 13.599 4.22829C13.2613 3.1578 12.72 2.21419 11.9873 1.36741C11.966 1.3428 11.9447 1.31818 11.9228 1.29282C11.6822 1.01726 11.4354 0.770963 11.1454 0.546933C11.0353 0.457907 10.9374 0.361291 10.8389 0.259766Z" fill="#B1BAD3"/>
<path d="M0.742271 1.7306C0.805057 1.73007 0.805057 1.73007 0.869112 1.72953C0.93827 1.72927 0.93827 1.72927 1.00882 1.729C1.08145 1.7285 1.08145 1.7285 1.15555 1.72799C1.31636 1.72696 1.47717 1.72628 1.63799 1.7257C1.69336 1.72548 1.74874 1.72526 1.80411 1.72503C2.03448 1.72415 2.26486 1.72338 2.49523 1.72292C2.82529 1.72225 3.15532 1.72089 3.48537 1.71855C3.71748 1.71696 3.94958 1.71616 4.1817 1.71595C4.32031 1.7158 4.45889 1.7153 4.59749 1.71397C4.75224 1.71268 4.90694 1.71267 5.06169 1.71298C5.10746 1.7123 5.15323 1.71163 5.20039 1.71094C5.54693 1.71373 5.54693 1.71373 5.69847 1.83584C5.83523 1.98834 5.83523 1.98834 5.83308 2.13718C5.80739 2.49018 5.76047 2.83462 5.69886 3.18301C5.68028 3.29138 5.66175 3.39976 5.64327 3.50816C5.63632 3.54871 5.63632 3.54871 5.62922 3.59008C5.5842 3.85315 5.54214 4.11662 5.50149 4.3804C5.49479 4.42389 5.48808 4.46738 5.48117 4.51219C5.43149 4.8396 5.38952 5.1677 5.34865 5.49631C5.30916 5.8035 5.25503 6.10665 5.19318 6.41009C5.15394 6.60405 5.1257 6.79352 5.11252 6.99113C5.08488 7.12719 4.99681 7.19288 4.89143 7.27515C4.76228 7.33974 4.66504 7.33045 4.52232 7.31617C4.22721 7.13007 4.02487 6.81118 3.81341 6.53928C3.78428 6.50205 3.75515 6.46482 3.72514 6.42647C3.69897 6.39246 3.6728 6.35846 3.64584 6.32343C3.62379 6.29905 3.60175 6.27467 3.57903 6.24955C3.55196 6.24955 3.5249 6.24955 3.49701 6.24955C3.09389 7.36246 2.9215 8.45267 3.25093 9.61351C3.26412 9.66029 3.26412 9.66029 3.27757 9.708C3.61261 10.862 4.27283 11.8728 5.26054 12.5672C5.28341 12.5836 5.30629 12.6 5.32985 12.6169C5.89417 13.0166 6.51471 13.2777 7.18813 13.4287C7.18813 13.4423 7.18813 13.4558 7.18813 13.4698C6.83012 13.5727 6.47299 13.5663 6.10386 13.5646C6.07078 13.5646 6.03771 13.5645 6.00363 13.5644C5.52674 13.5626 5.06846 13.5478 4.60434 13.4287C4.57585 13.4215 4.54736 13.4142 4.51801 13.4067C4.31184 13.3531 4.10921 13.291 3.90713 13.2236C3.86607 13.2101 3.86607 13.2101 3.82419 13.1962C2.87689 12.8778 2.0571 12.3368 1.32335 11.6647C1.2653 11.6118 1.2653 11.6118 1.20608 11.5578C0.418779 10.8056 0.0290718 10.1173 0.00117574 9.02748C-0.0243914 7.23659 0.363739 5.31793 1.4874 3.87016C1.42475 3.72958 1.34208 3.62162 1.24389 3.50351C1.21105 3.4639 1.17822 3.42429 1.1444 3.38348C1.01303 3.22672 0.880374 3.07104 0.747921 2.91519C0.267634 2.34806 0.267634 2.34806 0.241643 2.15741C0.263058 1.97176 0.33258 1.91056 0.462085 1.77794C0.562916 1.72751 0.629483 1.73131 0.742271 1.7306Z" fill="#B1BAD3"/>
<path d="M0.789062 12.3613C1.0886 12.5846 1.0886 12.5846 1.23171 12.6993C2.84041 13.9781 4.89254 14.5953 6.94125 14.3904C8.08013 14.2573 8.96388 13.8729 9.82254 13.1139C9.93484 13.0177 9.93484 13.0177 9.97585 13.0177C9.9717 13.1024 9.96754 13.1871 9.96335 13.2719C9.95967 13.3461 9.95602 13.4204 9.95239 13.4947C9.94361 13.6721 9.93443 13.8495 9.92298 14.0268C9.91328 14.1774 9.90509 14.328 9.89827 14.4787C9.89515 14.5474 9.89174 14.616 9.8881 14.6846C9.86308 15.1969 9.85785 15.6135 10.2178 16.0179C10.4784 16.2642 10.7863 16.4276 11.1482 16.4281C11.1858 16.4282 11.2233 16.4283 11.262 16.4284C11.3028 16.4282 11.3436 16.428 11.3857 16.4278C11.4503 16.4277 11.4503 16.4277 11.5162 16.4276C11.9143 16.4255 12.3117 16.4113 12.7095 16.3964C13.2201 16.3781 13.7303 16.3774 14.2411 16.3817C13.6639 17.0218 12.1704 17.1326 11.3549 17.2765C11.321 17.2826 11.287 17.2886 11.2521 17.2948C10.4715 17.4324 9.70221 17.5047 8.90953 17.4996C8.85595 17.4994 8.85595 17.4994 8.8013 17.4992C8.02305 17.4959 7.28543 17.4421 6.53081 17.2432C6.49782 17.2345 6.46483 17.2258 6.43084 17.2169C5.92185 17.0801 5.44576 16.8998 4.97233 16.6688C4.9255 16.6463 4.9255 16.6463 4.87771 16.6234C3.07596 15.7492 1.65737 14.2391 0.789062 12.4434C0.789062 12.4163 0.789062 12.3892 0.789062 12.3613Z" fill="#B1BAD3"/>
<path d="M9.36295 0.34172C9.39054 0.356845 9.41814 0.371969 9.44657 0.387552C9.93723 0.658933 10.3792 0.987237 10.7912 1.3678C10.8628 1.43325 10.9351 1.49447 11.0111 1.55449C12.1318 2.52604 12.9095 4.16687 13.0541 5.63381C13.0594 5.78457 13.0594 5.93433 13.0541 6.08508C12.9626 5.97083 12.8903 5.85152 12.8203 5.72319C12.6637 5.43681 12.4898 5.18322 12.2748 4.9364C12.2457 4.9023 12.2166 4.86819 12.1866 4.83304C11.3185 3.83967 10.0674 3.19593 8.74776 3.09033C8.05756 3.0513 7.39161 3.09019 6.73334 3.31387C6.65612 3.33647 6.65612 3.33647 6.53309 3.33647C6.54586 3.22621 6.55868 3.11596 6.57154 3.00571C6.5751 2.97486 6.57867 2.944 6.58235 2.91221C6.59895 2.77017 6.61662 2.62867 6.63722 2.48715C6.69781 2.05366 6.663 1.73569 6.41005 1.36732C6.12548 1.04179 5.86272 0.92233 5.44121 0.89345C5.29938 0.885305 5.15761 0.879712 5.01562 0.875032C5.10321 0.77827 5.17932 0.726043 5.29983 0.676803C5.33199 0.663648 5.36415 0.650494 5.39728 0.63694C5.44944 0.616455 5.44944 0.616455 5.50265 0.595556C5.53908 0.581212 5.57552 0.566867 5.61306 0.552088C6.79695 0.0966572 8.19593 -0.314089 9.36295 0.34172Z" fill="#B1BAD3"/>
</svg>
