<svg xmlns="http://www.w3.org/2000/svg" width="20" height="20" viewBox="0 0 20 20" fill="none">
  <g clip-path="url(#clip0_40004_4035)">
    <path d="M16.3099 10.0002C16.3066 9.62077 16.2744 9.25188 16.2155 8.89188L16.221 8.93355L18.4877 7.26688L16.5099 3.84466L13.9394 4.97077C13.4099 4.53633 12.7972 4.17633 12.1333 3.91966L12.0877 3.90411L11.7766 1.11133H7.82104L7.50993 3.90411C6.80049 4.17633 6.18771 4.53633 5.64604 4.98022L5.65771 4.97077L3.08715 3.84466L1.10938 7.26688L3.37604 8.93355C3.32271 9.25188 3.29049 9.62077 3.28715 9.99688V10.0002C3.29049 10.3797 3.32271 10.7486 3.3816 11.1086L3.37604 11.0669L1.10938 12.7336L3.08715 16.1558L5.65771 15.0297C6.18715 15.4641 6.79993 15.8241 7.46382 16.0808L7.50938 16.0963L7.82049 18.8891H11.776L12.0872 16.0963C12.7966 15.8241 13.4094 15.4641 13.951 15.0202L13.9394 15.0297L16.5099 16.1558L18.4877 12.7336L16.221 11.0669C16.2744 10.7486 16.3066 10.3797 16.3099 10.0036V10.0002ZM9.79882 12.4074C8.46938 12.4074 7.3916 11.3297 7.3916 10.0002C7.3916 8.67077 8.46938 7.593 9.79882 7.593C11.1283 7.593 12.206 8.67077 12.206 10.0002C12.2016 11.328 11.1266 12.4036 9.79882 12.4074Z" fill="#B1BAD3"/>
  </g>
  <defs>
    <clipPath id="clip0_40004_4035">
      <rect width="20" height="20" fill="white"/>
    </clipPath>
  </defs>
</svg>
