<svg width="9" height="12" viewBox="0 0 9 12" fill="none" xmlns="http://www.w3.org/2000/svg">
<g clip-path="url(#clip0_43601_4009)">
<path d="M3.50218 11.8313L5.19935 -0.168701H5.97575L4.27858 11.8313H3.50218ZM0.566297 10.6313L1.92403 1.0313H5.80604C6.51931 1.0313 7.09943 1.13599 7.54639 1.34536C7.99335 1.55474 8.31046 1.84536 8.49773 2.21724C8.68544 2.58599 8.74527 3.01099 8.6772 3.49224C8.62417 3.86724 8.50179 4.19692 8.31008 4.4813C8.11881 4.76255 7.8778 4.9938 7.58706 5.17505C7.29991 5.35317 6.98218 5.47974 6.63387 5.55474L6.62061 5.64849C6.98766 5.66411 7.31867 5.76724 7.61363 5.95786C7.91175 6.14849 8.1375 6.41567 8.29087 6.75942C8.44469 7.10005 8.48822 7.5063 8.42149 7.97817C8.34945 8.48755 8.15732 8.94224 7.8451 9.34224C7.53648 9.73911 7.11807 10.0532 6.58985 10.2844C6.06164 10.5157 5.43458 10.6313 4.70868 10.6313H0.566297ZM2.85087 8.97192H4.52203C5.09328 8.97192 5.52513 8.86411 5.81758 8.64849C6.11048 8.42974 6.28256 8.13911 6.33383 7.77661C6.3714 7.51099 6.33984 7.27661 6.23917 7.07349C6.1385 6.87036 5.97641 6.71099 5.7529 6.59536C5.53254 6.47974 5.25825 6.42192 4.93002 6.42192H3.21152L2.85087 8.97192ZM3.40577 5.04849H4.92543C5.20632 5.04849 5.4625 5.00005 5.69397 4.90317C5.92904 4.80317 6.12252 4.66255 6.2744 4.4813C6.42943 4.30005 6.52485 4.08286 6.56065 3.82974C6.60971 3.48286 6.5246 3.20317 6.30532 2.99067C6.0892 2.77817 5.7539 2.67192 5.29942 2.67192H3.74188L3.40577 5.04849Z" fill="white"/>
</g>
<defs>
<clipPath id="clip0_43601_4009">
<rect width="9" height="12" fill="white"/>
</clipPath>
</defs>
</svg>
