<svg width="18" height="12" viewBox="0 0 18 12" fill="none" xmlns="http://www.w3.org/2000/svg">
<g clip-path="url(#clip0_43601_3989)">
<path d="M16.9252 7.36194C16.6937 8.99875 15.4454 10.1309 13.429 10.3628L13.2534 11.604H11.7244L11.8999 10.3628C10.4591 10.2264 9.47169 9.70804 8.79261 8.95783L10.295 7.19826C10.8636 7.85299 11.8058 8.39859 13.0593 8.39859C13.8721 8.39859 14.4162 8.05759 14.4779 7.6211C14.5512 7.10278 13.9878 6.89818 13.0387 6.69358C11.5659 6.39349 9.49856 6.01157 9.80334 3.85643C9.99817 2.47878 11.2443 1.26481 13.2175 1.04657L13.3988 -0.235596H14.9278L14.7446 1.06021C15.8273 1.19661 16.7455 1.61946 17.4243 2.27418L15.8922 3.95192C15.2095 3.32447 14.2483 3.01075 13.4356 3.01075C12.6504 3.01075 12.303 3.32447 12.2471 3.72003C12.1795 4.19744 12.7212 4.36112 13.7135 4.55208C15.1844 4.8658 17.2165 5.30229 16.9252 7.36194Z" fill="white"/>
<path d="M5.12479 10.24L4.01794 7.15737H2.80573L2.36977 10.24H0.000447499L1.28711 1.14209H5.888C7.92671 1.14209 8.89478 2.47882 8.65558 4.17019C8.43181 5.75244 7.33418 6.59813 6.43768 6.89821L7.83849 10.24H5.12479ZM6.24879 4.14291C6.33753 3.51547 5.87001 3.11991 5.25013 3.11991H3.37672L3.08737 5.16592H4.96078C5.58066 5.16592 6.16006 4.77036 6.24879 4.14291Z" fill="white"/>
</g>
<defs>
<clipPath id="clip0_43601_3989">
<rect width="18" height="12" fill="white"/>
</clipPath>
</defs>
</svg>
