<svg width="13" height="12" viewBox="0 0 13 12" fill="none" xmlns="http://www.w3.org/2000/svg">
<g clip-path="url(#clip0_43601_4013)">
<path d="M4.19288 5.83961H5.96223L5.58591 8.50042H3.81655L4.19288 5.83961ZM10.4675 -0.43042H12.2369L10.9291 8.81656H9.15973L10.4675 -0.43042ZM1.86568 10.1601H11.0184L10.8191 11.5696H1.66634L1.86568 10.1601ZM2.18052 7.93401H3.94988L3.58101 10.5421H1.81165L2.18052 7.93401ZM1.08518 6.36651L1.05649 4.97024C1.8116 4.96146 2.63322 4.95268 3.52135 4.94389C4.41073 4.92633 5.32033 4.8912 6.25016 4.83851C7.17998 4.78583 8.07805 4.70679 8.94437 4.60141L8.88712 5.85278C7.98798 6.00207 7.07607 6.11623 6.15139 6.19527C5.23682 6.26552 4.34815 6.30943 3.48538 6.32699C2.62261 6.34455 1.82254 6.35772 1.08518 6.36651ZM7.15046 6.6563H9.86436L9.69483 7.85498H6.98093L7.15046 6.6563ZM5.72512 -0.00890509C6.32821 -0.00890509 6.8473 0.0833015 7.28241 0.267714C7.71751 0.452127 8.04069 0.706792 8.25193 1.03171C8.47205 1.35663 8.55106 1.73862 8.48896 2.1777C8.4281 2.608 8.24104 2.99 7.92777 3.3237C7.62462 3.64861 7.23003 3.89889 6.74401 4.07452C6.25798 4.25015 5.71343 4.33797 5.11034 4.33797C4.50725 4.33797 3.9831 4.25015 3.53788 4.07452C3.10154 3.89889 2.77774 3.64861 2.56649 3.3237C2.35649 2.99 2.28192 2.608 2.34277 2.1777C2.40487 1.73862 2.5875 1.35663 2.89065 1.03171C3.1938 0.706792 3.58901 0.452127 4.07628 0.267714C4.57242 0.0833015 5.12203 -0.00890509 5.72512 -0.00890509ZM5.54441 1.26881C5.13644 1.26881 4.78886 1.34345 4.50168 1.49274C4.22337 1.64203 4.06247 1.87035 4.019 2.1777C3.97802 2.46749 4.07495 2.69142 4.30979 2.84949C4.55475 2.99878 4.88121 3.07342 5.28918 3.07342C5.70602 3.07342 6.04917 2.99878 6.31861 2.84949C6.59816 2.69142 6.75843 2.46749 6.79942 2.1777C6.82799 1.97573 6.79394 1.80888 6.69727 1.67715C6.6006 1.54543 6.45524 1.44444 6.26119 1.37419C6.06714 1.30394 5.82822 1.26881 5.54441 1.26881Z" fill="white"/>
</g>
<defs>
<clipPath id="clip0_43601_4013">
<rect width="13" height="12" fill="white"/>
</clipPath>
</defs>
</svg>
