<svg width="10" height="12" viewBox="0 0 10 12" fill="none" xmlns="http://www.w3.org/2000/svg">
<g clip-path="url(#clip0_43601_4008)">
<path d="M3.38458 9.72025C2.87728 9.72025 2.42883 9.58855 2.03921 9.32515C1.65268 9.06175 1.36895 8.66206 1.18802 8.12607C1.01018 7.59008 0.978866 6.91474 1.09409 6.10003C1.21451 5.24858 1.44542 4.55639 1.78681 4.02346C2.1313 3.49054 2.53297 3.10003 2.99184 2.85195C3.4538 2.60386 3.91986 2.47982 4.39004 2.47982C4.74267 2.47982 5.04334 2.54108 5.29203 2.66359C5.54116 2.78303 5.74113 2.94383 5.89195 3.14598C6.04321 3.34506 6.14834 3.56405 6.20735 3.80294H6.24447L6.75128 0.219482H9.3125L7.9818 9.62836H5.43913L5.60287 8.47063H5.54719C5.41442 8.70953 5.24181 8.92392 5.02936 9.11382C4.82043 9.30065 4.5767 9.44919 4.29818 9.55945C4.02319 9.66665 3.71865 9.72025 3.38458 9.72025ZM4.60662 7.77232C4.84171 7.77232 5.0523 7.70493 5.23839 7.57017C5.42802 7.43235 5.58522 7.23939 5.71002 6.99131C5.83833 6.74016 5.92675 6.44307 5.97527 6.10003C6.02465 5.75088 6.02048 5.45225 5.96277 5.20417C5.90859 4.95302 5.80574 4.7616 5.65424 4.6299C5.50626 4.49513 5.31473 4.42775 5.07964 4.42775C4.84455 4.42775 4.63396 4.49513 4.44787 4.6299C4.2653 4.7616 4.1114 4.95302 3.98617 5.20417C3.86448 5.45225 3.77894 5.75088 3.72955 6.10003C3.68017 6.44919 3.68103 6.74934 3.73212 7.00049C3.78674 7.24858 3.88649 7.44 4.03137 7.57477C4.17978 7.70647 4.37153 7.77232 4.60662 7.77232ZM4.71262 2.16741L4.90495 0.807538H9.89748L9.70515 2.16741H4.71262ZM7.48029 10.4186L7.22558 12.2195H0.785399L1.0401 10.4186H7.48029Z" fill="white"/>
</g>
<defs>
<clipPath id="clip0_43601_4008">
<rect width="10" height="12" fill="white"/>
</clipPath>
</defs>
</svg>
