<svg width="28" height="12" viewBox="0 0 28 12" fill="none" xmlns="http://www.w3.org/2000/svg">
<g clip-path="url(#clip0_43601_3995)">
<path d="M23.1598 12L24.3049 3.90405L20.0891 12H18.7082L16.8006 3.90405L15.6556 12H12.5304L14.2275 0H18.5702L20.134 6.8006L23.6396 0H27.9823L26.2851 12H23.1598Z" fill="white"/>
<path d="M7.27693 12L5.81694 7.93403H4.21797L3.64292 12H0.517674L2.21484 0H8.28364C10.9728 0 12.2497 1.76312 11.9342 3.994C11.6391 6.08096 10.1912 7.1964 9.0087 7.5922L10.8564 12H7.27693ZM8.75955 3.95802C8.87659 3.13043 8.25992 2.6087 7.44227 2.6087H4.97114L4.58947 5.30735H7.0606C7.87825 5.30735 8.6425 4.78561 8.75955 3.95802Z" fill="white"/>
</g>
<defs>
<clipPath id="clip0_43601_3995">
<rect width="28" height="12" fill="white"/>
</clipPath>
</defs>
</svg>
