<svg width="24" height="24" viewBox="0 0 24 24" fill="none" xmlns="http://www.w3.org/2000/svg">
<path d="M19 0C21.7614 0 24 2.23858 24 5V19C24 21.7614 21.7614 24 19 24H5C2.23858 24 0 21.7614 0 19V5C0 2.23858 2.23858 0 5 0H19ZM18.2588 6.04883C18.1016 5.94875 17.9004 6.00776 17.8096 6.18066L16.1191 9.39453C14.87 8.74536 13.4741 8.38086 12 8.38086C10.5256 8.38086 9.12919 8.74511 7.87988 9.39453L6.19043 6.18066C6.09961 6.00775 5.89799 5.94875 5.74121 6.04883C5.58473 6.1485 5.53059 6.36865 5.62109 6.54102L7.29492 9.72559C4.59141 11.3887 2.69299 14.4399 2.40039 18H21.5996C21.307 14.4396 19.408 11.3886 16.7041 9.72559L18.3789 6.54102C18.4691 6.36863 18.4157 6.14854 18.2588 6.04883ZM7.52832 13.2061C7.96992 13.2061 8.32812 13.5993 8.32812 14.084C8.32802 14.5685 7.96985 14.9609 7.52832 14.9609C7.08701 14.9607 6.7296 14.5684 6.72949 14.084C6.72949 13.5995 7.08694 13.2063 7.52832 13.2061ZM16.4717 13.2061C16.9131 13.2063 17.2705 13.5995 17.2705 14.084C17.2704 14.5684 16.913 14.9607 16.4717 14.9609C16.0301 14.9609 15.672 14.5685 15.6719 14.084C15.6719 13.5993 16.0301 13.2061 16.4717 13.2061Z" fill="black"/>
</svg>
