<svg xmlns="http://www.w3.org/2000/svg" width="80" height="80" viewBox="0 0 80 80" fill="none">
  <g clip-path="url(#clip0_3125_894)">
    <path d="M69.5306 21.2744H58.4106C57.7712 21.2749 57.1582 21.5293 56.7063 21.9816C56.2544 22.4339 56.0006 23.0471 56.0006 23.6864V77.5884C56.0006 78.2278 56.2544 78.841 56.7063 79.2932C57.1582 79.7455 57.7712 79.9999 58.4106 80.0004H69.5306C69.8473 80.0004 70.161 79.938 70.4536 79.8168C70.7463 79.6956 71.0122 79.5179 71.2361 79.294C71.4601 79.07 71.6378 78.8041 71.759 78.5114C71.8802 78.2188 71.9426 77.9052 71.9426 77.5884V23.6864C71.9426 23.3697 71.8802 23.056 71.759 22.7634C71.6378 22.4707 71.4601 22.2048 71.2361 21.9809C71.0122 21.7569 70.7463 21.5792 70.4536 21.458C70.161 21.3368 69.8473 21.2744 69.5306 21.2744ZM45.5626 36.9574H34.4426C33.8029 36.9574 33.1894 37.2115 32.7371 37.6639C32.2847 38.1162 32.0306 38.7297 32.0306 39.3694V77.5884C32.0306 77.9052 32.093 78.2188 32.2142 78.5114C32.3354 78.8041 32.5131 79.07 32.7371 79.294C32.961 79.5179 33.2269 79.6956 33.5196 79.8168C33.8122 79.938 34.1258 80.0004 34.4426 80.0004H45.5626C45.8793 80.0004 46.193 79.938 46.4856 79.8168C46.7783 79.6956 47.0442 79.5179 47.2681 79.294C47.4921 79.07 47.6698 78.8041 47.791 78.5114C47.9122 78.2188 47.9746 77.9052 47.9746 77.5884V39.3694C47.9746 38.7297 47.7205 38.1162 47.2681 37.6639C46.8158 37.2115 46.2023 36.9574 45.5626 36.9574ZM21.5906 52.2674H10.4706C9.83089 52.2674 9.21739 52.5215 8.76505 52.9739C8.31272 53.4262 8.05859 54.0397 8.05859 54.6794V77.5884C8.05859 77.9052 8.12098 78.2188 8.2422 78.5114C8.36341 78.8041 8.54108 79.07 8.76505 79.294C8.98903 79.5179 9.25492 79.6956 9.54756 79.8168C9.8402 79.938 10.1538 80.0004 10.4706 80.0004H21.5906C21.9073 80.0004 22.221 79.938 22.5136 79.8168C22.8063 79.6956 23.0722 79.5179 23.2961 79.294C23.5201 79.07 23.6978 78.8041 23.819 78.5114C23.9402 78.2188 24.0026 77.9052 24.0026 77.5884V54.6784C24.0025 54.3617 23.9399 54.048 23.8186 53.7555C23.6973 53.4629 23.5195 53.197 23.2954 52.9732C23.0714 52.7493 22.8054 52.5717 22.5127 52.4506C22.22 52.3295 21.9073 52.2673 21.5906 52.2674Z" fill="#EEEEEE"/>
    <path d="M21.8056 54.932C21.8157 54.1669 21.6737 53.4074 21.3879 52.6976C21.102 51.9878 20.6781 51.3419 20.1406 50.7973C19.6031 50.2527 18.9628 49.8203 18.2568 49.5251C17.5508 49.23 16.7933 49.078 16.0281 49.078C15.2629 49.078 14.5054 49.23 13.7994 49.5251C13.0935 49.8203 12.4532 50.2527 11.9157 50.7973C11.3782 51.3419 10.9542 51.9878 10.6684 52.6976C10.3826 53.4074 10.2406 54.1669 10.2506 54.932V71.249C10.2706 72.7681 10.8881 74.2183 11.9694 75.2854C13.0507 76.3526 14.5089 76.951 16.0281 76.951C17.5474 76.951 19.0055 76.3526 20.0868 75.2854C21.1681 74.2183 21.7856 72.7681 21.8056 71.249V54.932ZM45.7786 38.12C45.7786 36.5876 45.1699 35.1179 44.0863 34.0343C43.0027 32.9508 41.533 32.342 40.0006 32.342C38.4682 32.342 36.9985 32.9508 35.915 34.0343C34.8314 35.1179 34.2226 36.5876 34.2226 38.12V71.12C34.2226 72.6524 34.8314 74.1221 35.915 75.2057C36.9985 76.2893 38.4682 76.898 40.0006 76.898C41.533 76.898 43.0027 76.2893 44.0863 75.2057C45.1699 74.1221 45.7786 72.6524 45.7786 71.12V38.12ZM69.7466 21.948C69.7567 21.1829 69.6147 20.4234 69.3289 19.7136C69.043 19.0038 68.6191 18.3579 68.0816 17.8133C67.5441 17.2687 66.9038 16.8363 66.1978 16.5411C65.4918 16.246 64.7343 16.094 63.9691 16.094C63.2039 16.094 62.4464 16.246 61.7404 16.5411C61.0345 16.8363 60.3942 17.2687 59.8567 17.8133C59.3192 18.3579 58.8952 19.0038 58.6094 19.7136C58.3236 20.4234 58.1816 21.1829 58.1916 21.948V71.022C58.2116 72.5411 58.8291 73.9913 59.9104 75.0584C60.9917 76.1256 62.4499 76.724 63.9691 76.724C65.4884 76.724 66.9465 76.1256 68.0278 75.0584C69.1091 73.9913 69.7266 72.5411 69.7466 71.022V21.948Z" fill="#D6D6D6"/>
    <path d="M16.0267 46.3864C17.5774 46.3864 19.0646 45.7704 20.1611 44.6738C21.2577 43.5773 21.8737 42.0901 21.8737 40.5394C21.8737 38.9887 21.2577 37.5015 20.1611 36.4049C19.0646 35.3084 17.5774 34.6924 16.0267 34.6924C14.476 34.6924 12.9888 35.3084 11.8922 36.4049C10.7957 37.5015 10.1797 38.9887 10.1797 40.5394C10.1797 42.0901 10.7957 43.5773 11.8922 44.6738C12.9888 45.7704 14.476 46.3864 16.0267 46.3864Z" fill="#EEEEEE"/>
    <path d="M16.0262 42.0789C16.8537 42.0789 17.6473 41.7502 18.2324 41.165C18.8175 40.5799 19.1463 39.7863 19.1463 38.9589C19.1463 38.1314 18.8175 37.3378 18.2324 36.7527C17.6473 36.1676 16.8537 35.8389 16.0262 35.8389C15.1988 35.8389 14.4052 36.1676 13.8201 36.7527C13.235 37.3378 12.9062 38.1314 12.9062 38.9589C12.9062 39.7863 13.235 40.5799 13.8201 41.165C14.4052 41.7502 15.1988 42.0789 16.0262 42.0789Z" fill="#D6D6D6"/>
    <path d="M22.3324 32.342L17.1484 27.158L33.5904 10.716L39.9914 17.116L57.1084 0L62.2954 5.187L39.9914 27.487L33.5914 21.083L22.3324 32.342Z" fill="#D6D6D6"/>
  </g>
  <defs>
    <clipPath id="clip0_3125_894">
      <rect width="80" height="80" fill="white"/>
    </clipPath>
  </defs>
</svg>
