<svg width="24" height="24" viewBox="0 0 24 24" fill="none" xmlns="http://www.w3.org/2000/svg">
<g id="&#229;&#174;&#162;&#230;&#156;&#141; (1) 1" clip-path="url(#clip0_8623_15644)">
<path id="Vector" d="M12.1038 18.9358C12.2249 18.9358 12.3484 18.9286 12.472 18.9154C13.6607 18.7775 14.6706 17.9738 15.0424 16.8667C15.0557 16.8266 15.0533 16.7829 15.0357 16.7444C15.0181 16.7059 14.9867 16.6755 14.9477 16.6592C14.9082 16.642 14.8638 16.6396 14.8226 16.6524C14.7814 16.6651 14.7462 16.6923 14.7234 16.7288C14.7186 16.7348 14.246 17.4725 12.4084 17.7123C12.1325 17.7483 11.8651 17.7675 11.6108 17.7675C10.3226 17.7675 9.74801 17.2973 9.74322 17.2925C9.71107 17.2655 9.67051 17.2505 9.6285 17.25C9.58648 17.2496 9.54563 17.2638 9.51292 17.2901C9.48087 17.3161 9.45949 17.3529 9.45285 17.3936C9.44621 17.4343 9.45479 17.476 9.47694 17.5108C9.76169 17.9481 10.1511 18.3074 10.6097 18.5563C11.0684 18.8051 11.5819 18.9355 12.1038 18.9358ZM21.9909 7.91995C21.9741 7.91995 21.9597 7.92355 21.9441 7.92355C20.867 3.41358 16.7505 0.050293 11.8147 0.050293C6.74337 0.050293 2.53086 3.6007 1.59768 8.29538C0.690889 8.45371 0 9.22496 0 10.1569V13.8897C0 14.9356 0.86721 15.7836 1.93953 15.7836C2.54406 15.7836 3.07662 15.5077 3.43166 15.0843C4.28927 17.2769 6.03448 19.0437 8.24389 19.9769C8.27203 19.9233 8.30495 19.8723 8.34225 19.8246C8.37703 19.7814 8.41541 19.7454 8.449 19.7454C8.48248 19.7459 8.51506 19.7563 8.54256 19.7754C8.03159 19.4084 6.18442 17.5168 5.7838 14.8768C5.60868 13.7145 6.50947 12.5739 7.5578 12.3855C9.24064 12.0833 10.9151 11.7378 12.5979 11.4404C13.6678 11.2521 14.3995 10.6847 14.8469 9.73953C14.9513 9.51883 15.1024 9.07263 15.172 8.42852C15.1807 8.38088 15.2059 8.33783 15.2432 8.30691C15.2805 8.27599 15.3274 8.25917 15.3759 8.2594C15.4454 8.2594 15.5042 8.29298 15.5438 8.34336L15.5894 8.31457C16.2527 9.24656 17.5685 11.3072 17.758 13.4818C17.9739 15.9671 17.854 17.668 15.8857 19.4096C15.8695 19.4238 15.8565 19.4414 15.8476 19.461C15.8387 19.4807 15.8341 19.502 15.8341 19.5235C15.8341 19.5775 15.8629 19.6231 15.906 19.6507L15.954 19.6723C15.9684 19.6759 15.9804 19.6795 15.9936 19.6795C16.008 19.6795 16.0188 19.6759 16.0308 19.6723L16.1124 19.6279C18.1035 18.5676 19.6292 16.7972 20.3344 14.6693C20.6211 15.0795 21.0673 15.3746 21.5867 15.4778C20.7543 19.1397 17.3742 21.4331 13.1881 21.7809C13.053 21.4714 12.8296 21.2086 12.5458 21.0255C12.262 20.8424 11.9305 20.7472 11.5928 20.7518C10.6464 20.7518 9.87755 21.4763 9.87755 22.371C9.87755 23.2646 10.6464 23.9891 11.5928 23.9891C12.358 23.9891 12.9974 23.5153 13.2193 22.8628C18.0651 22.4826 21.9513 19.6975 22.7622 15.371C23.4782 15.0807 23.982 14.4018 23.982 13.6078V9.83309C23.982 8.77757 23.0908 7.92115 21.9909 7.92115V7.91995ZM20.2037 9.00546C18.9395 5.69495 15.6638 3.33082 11.8099 3.33082C7.97281 3.33082 4.70908 5.67576 3.43286 8.96348C3.37048 8.88912 3.29492 8.82435 3.22295 8.75957C3.94502 4.75218 7.51222 1.70555 11.8147 1.70555C16.0968 1.70555 19.652 4.72219 20.398 8.702C20.3249 8.79796 20.2565 8.89751 20.2025 9.00546H20.2037ZM8.24629 19.9769C8.24269 19.9829 8.24269 19.9841 8.24629 19.9769V19.9769Z" fill="currentcolor"/>
</g>
<defs>
<clipPath id="clip0_8623_15644">
<rect width="24" height="24" fill="currentcolor"/>
</clipPath>
</defs>
</svg>
