<svg width="18" height="18" viewBox="0 0 18 18" fill="none" xmlns="http://www.w3.org/2000/svg">
<path d="M11.1603 14.7457C10.3565 15.0786 9.495 15.25 8.625 15.25C6.86795 15.25 5.18285 14.552 3.94042 13.3096C2.69799 12.0671 2 10.3821 2 8.625C2 6.86795 2.69799 5.18285 3.94041 3.94041C5.18285 2.69799 6.86795 2 8.625 2C9.495 2 10.3565 2.17136 11.1603 2.5043C11.9641 2.83724 12.6944 3.32523 13.3096 3.94041C13.9247 4.5556 14.4127 5.28595 14.7457 6.0897C15.0786 6.8935 15.25 7.755 15.25 8.625C15.25 9.495 15.0786 10.3565 14.7457 11.1603C14.4127 11.9641 13.9247 12.6944 13.3096 13.3096C12.6944 13.9247 11.9641 14.4127 11.1603 14.7457ZM15.975 15.9993C15.9718 15.9993 15.9677 15.9986 15.9641 15.9971C15.9621 15.9963 15.9607 15.9953 15.9607 15.9953L14.5684 14.6031C14.5634 14.5976 14.5605 14.5905 14.5605 14.583C14.5605 14.576 14.563 14.5692 14.5675 14.5639C14.569 14.5627 14.5703 14.562 14.5716 14.5615C14.5736 14.5606 14.5767 14.5598 14.5809 14.5598C14.5887 14.5598 14.5976 14.5624 14.6063 14.5702L15.9965 15.9603C15.9974 15.9613 15.9981 15.9622 15.9987 15.963C15.9994 15.964 16.0002 15.9658 16.0002 15.9658C16.0011 15.9678 16.0019 15.971 16.0019 15.9752C16.0019 15.9804 16.0007 15.9861 15.9976 15.992C15.9878 15.9977 15.9794 15.9993 15.975 15.9993Z" stroke="#24EE89"/>
</svg>
