<svg width="80" height="80" viewBox="0 0 80 80" fill="none" xmlns="http://www.w3.org/2000/svg">
<g clip-path="url(#clip0_142_1012)">
<path d="M79.9975 17.7663H17.7688V79.995H25.4688C26.4688 76.11 29.9388 73.2875 34.0687 73.2875C36.034 73.2885 37.9432 73.9418 39.4972 75.1449C41.0511 76.3479 42.1618 78.0327 42.655 79.935L42.6675 79.9975H55.0988C56.0988 76.1125 59.5688 73.29 63.6988 73.29C67.8288 73.29 71.2988 76.115 72.2863 79.9375L72.2988 80H79.9975V17.7663ZM34.9325 64.0638L26.6663 55.6963L31.3975 50.965L35.065 54.6313L44.765 44.9313L49.3325 49.6637L34.9325 64.0638ZM71.0975 58.6637H57.0313V51.9963H71.0975V58.6637ZM71.0975 35.565H26.6688V28.9H71.0975V35.565ZM62.2313 0V8.9H8.9025V62.2288H0.00250244V0H62.2313Z" fill="#196E46"/>
</g>
<defs>
<clipPath id="clip0_142_1012">
<rect width="80" height="80" fill="white"/>
</clipPath>
</defs>
</svg>
