<svg width="80" height="80" viewBox="0 0 80 80" fill="none" xmlns="http://www.w3.org/2000/svg">
<g id="icon-navbar-user-bet" clip-path="url(#clip0_3008_354)">
<path id="Vector" d="M79.9974 17.7663H17.7687V79.995H25.4687C26.4687 76.11 29.9387 73.2875 34.0687 73.2875C36.0339 73.2885 37.9432 73.9418 39.4971 75.1449C41.051 76.3479 42.1617 78.0327 42.6549 79.935L42.6674 79.9975H55.0987C56.0987 76.1125 59.5687 73.29 63.6987 73.29C67.8287 73.29 71.2987 76.115 72.2862 79.9375L72.2987 80H79.9974V17.7663ZM34.9324 64.0638L26.6662 55.6963L31.3974 50.965L35.0649 54.6313L44.7649 44.9313L49.3324 49.6637L34.9324 64.0638ZM71.0974 58.6637H57.0312V51.9963H71.0974V58.6637ZM71.0974 35.565H26.6687V28.9H71.0974V35.565ZM62.2312 0V8.9H8.90244V62.2288H0.00244141V0H62.2312Z" fill="#225146"/>
</g>
<defs>
<clipPath id="clip0_3008_354">
<rect width="80" height="80" fill="white"/>
</clipPath>
</defs>
</svg>
