<svg width="12" height="13" viewBox="0 0 12 13" fill="none" xmlns="http://www.w3.org/2000/svg">
<g id="Frame" clip-path="url(#clip0_17010_2353)">
<g id="Clip path group">
<mask id="mask0_17010_2353" style="mask-type:luminance" maskUnits="userSpaceOnUse" x="0" y="0" width="12" height="13">
<g id="clip0_4435_2894">
<path id="Vector" d="M12 6.49995C12 3.16651 9.31371 0.464233 6 0.464233C2.68629 0.464233 0 3.16651 0 6.49995C0 9.83338 2.68629 12.5357 6 12.5357C9.31371 12.5357 12 9.83338 12 6.49995Z" fill="white"/>
</g>
</mask>
<g mask="url(#mask0_17010_2353)">
<g id="Group">
<path id="Vector_2" d="M12 6.49995C12 3.16651 9.31371 0.464233 6 0.464233C2.68629 0.464233 0 3.16651 0 6.49995C0 9.83338 2.68629 12.5357 6 12.5357C9.31371 12.5357 12 9.83338 12 6.49995Z" fill="#41B30F"/>
<path id="Vector_3" d="M6.6893 2.57458L6.61063 8.39925H5.69804L5.61937 2.57458H6.6893ZM6.15434 10.7418C5.96028 10.7418 5.79375 10.6719 5.65478 10.532C5.51579 10.3923 5.44629 10.2248 5.44629 10.0295C5.44629 9.83431 5.51579 9.6668 5.65478 9.52696C5.79375 9.38721 5.96028 9.31729 6.15434 9.31729C6.34839 9.31729 6.51491 9.38721 6.6539 9.52696C6.79288 9.6668 6.86237 9.83431 6.86237 10.0295C6.86237 10.1588 6.82959 10.2775 6.76404 10.3857C6.7011 10.4938 6.61587 10.5809 6.50835 10.6468C6.40346 10.7101 6.28545 10.7418 6.15434 10.7418Z" fill="white"/>
</g>
</g>
</g>
</g>
<defs>
<clipPath id="clip0_17010_2353">
<rect width="12" height="13" fill="white"/>
</clipPath>
</defs>
</svg>
