<svg width="15" height="15" viewBox="0 0 15 15" fill="none" xmlns="http://www.w3.org/2000/svg">
<g clip-path="url(#clip0_16341_3848)">
<path d="M6.41141 1.86462V9.18907H7.38056V1.80615L8.46931 2.89578L9.1532 2.21188L6.95622 0.0078125L4.67863 2.09672L5.31646 2.82402L6.41141 1.86462ZM11.4476 4.02528H8.99197V4.99709H10.9267C11.5832 4.99709 11.5708 5.04935 11.5708 5.64112V12.737C11.5708 13.1658 11.5841 13.3802 10.9267 13.3802H2.86434C2.11932 13.3802 2.2398 13.1064 2.21942 12.737V5.64112C2.21942 5.05024 2.20791 4.99709 2.86434 4.99709H4.79999V4.02528H2.34522C1.68878 4.02528 1.25293 4.40178 1.25293 4.99354V13.2756C1.25293 13.8683 1.78446 14.3467 2.44089 14.3467H11.3511C12.0066 14.3467 12.539 13.8683 12.539 13.2756V5.24248C12.539 4.65159 12.1032 4.02528 11.4476 4.02528Z" fill="#5794E7"/>
</g>
<defs>
<clipPath id="clip0_16341_3848">
<rect width="14.3468" height="14.3468" fill="white"/>
</clipPath>
</defs>
</svg>
