<svg width="17" height="18" viewBox="0 0 17 18" fill="none" xmlns="http://www.w3.org/2000/svg">
<path d="M9.03967 16.0963H6.19893C5.94933 16.0965 5.71004 16.1967 5.53354 16.3747C5.35705 16.5527 5.25778 16.7941 5.2575 17.0458V17.1429H9.9811V17.0458C9.98083 16.7941 9.88155 16.5527 9.70506 16.3747C9.52857 16.1967 9.28927 16.0965 9.03967 16.0963Z" fill="white"/>
<path d="M12.3096 2.85189C12.3096 2.78731 12.2841 2.72539 12.2388 2.67973C12.1935 2.63406 12.1322 2.60838 12.0681 2.60831H3.17035C3.1063 2.60834 3.04488 2.63401 2.99958 2.67968C2.95428 2.72535 2.92879 2.78729 2.92872 2.85189V3.3667H12.3096V2.85189Z" fill="white"/>
<path d="M9.79444 0.908506C9.50948 0.619475 9.1705 0.390349 8.79713 0.234402C8.42376 0.078455 8.02342 -0.00121283 7.6193 1.39553e-05C6.23561 1.39553e-05 5.02018 0.943529 4.65481 2.27151H10.5838C10.4421 1.7559 10.1701 1.28623 9.79444 0.908506Z" fill="white"/>
<path d="M14.8313 10.9662H0.407275C0.299301 10.9663 0.19579 11.0096 0.119441 11.0866C0.0430917 11.1637 0.000138162 11.2681 0 11.377V13.4036C0.000138162 13.5125 0.0430917 13.6169 0.119441 13.6939C0.19579 13.7709 0.299301 13.8142 0.407275 13.8144H14.8316C14.9396 13.8142 15.0431 13.7709 15.1194 13.6939C15.1958 13.6169 15.2387 13.5125 15.2389 13.4036V11.377C15.2387 11.268 15.1957 11.1636 15.1193 11.0866C15.0429 11.0095 14.9393 10.9662 14.8313 10.9662ZM2.04747 12.9593C1.93444 12.9593 1.82395 12.9255 1.72997 12.8622C1.63599 12.7988 1.56274 12.7088 1.51948 12.6035C1.47623 12.4982 1.46491 12.3823 1.48696 12.2704C1.50901 12.1586 1.56344 12.0559 1.64337 11.9753C1.72329 11.8947 1.82512 11.8398 1.93598 11.8175C2.04684 11.7953 2.16174 11.8067 2.26617 11.8503C2.3706 11.894 2.45985 11.9679 2.52265 12.0626C2.58544 12.1574 2.61896 12.2689 2.61896 12.3829C2.61896 12.5358 2.55875 12.6824 2.45157 12.7905C2.3444 12.8986 2.19904 12.9593 2.04747 12.9593ZM4.30484 12.9593C4.19181 12.9593 4.08132 12.9255 3.98734 12.8622C3.89336 12.7988 3.82011 12.7088 3.77685 12.6035C3.7336 12.4982 3.72228 12.3823 3.74433 12.2704C3.76638 12.1586 3.82081 12.0559 3.90074 11.9753C3.98066 11.8947 4.08249 11.8398 4.19335 11.8175C4.30421 11.7953 4.41912 11.8067 4.52354 11.8503C4.62797 11.894 4.71722 11.9679 4.78002 12.0626C4.84281 12.1574 4.87633 12.2689 4.87633 12.3829C4.87633 12.5358 4.81612 12.6824 4.70895 12.7905C4.60177 12.8986 4.45641 12.9593 4.30484 12.9593ZM13.7626 12.585H5.99059C5.93835 12.5837 5.8887 12.5618 5.85223 12.524C5.81575 12.4863 5.79533 12.4357 5.79533 12.383C5.79533 12.3303 5.81575 12.2796 5.85223 12.2419C5.8887 12.2041 5.93835 12.1823 5.99059 12.1809H13.7626C13.8149 12.1823 13.8645 12.2041 13.901 12.2419C13.9375 12.2796 13.9579 12.3303 13.9579 12.383C13.9579 12.4357 13.9375 12.4863 13.901 12.524C13.8645 12.5618 13.8149 12.5837 13.7626 12.585Z" fill="white"/>
<path d="M1.42873 16.7321C1.42883 16.841 1.47177 16.9454 1.54813 17.0224C1.62448 17.0995 1.72802 17.1428 1.836 17.1429H4.92359V17.0458C4.92397 16.7048 5.05845 16.3778 5.29755 16.1367C5.53664 15.8955 5.86081 15.7598 6.19893 15.7595H9.03967C9.3778 15.7598 9.70197 15.8955 9.94106 16.1367C10.1801 16.3778 10.3146 16.7048 10.315 17.0458V17.1429H13.4027C13.5107 17.1427 13.6142 17.0994 13.6906 17.0224C13.7669 16.9454 13.8099 16.841 13.81 16.7321V14.1514H1.42873V16.7321Z" fill="white"/>
<path d="M15.6895 1.63635H14.7376C14.6363 1.63635 14.5391 1.67694 14.4675 1.74918C14.3958 1.82143 14.3556 1.91942 14.3555 2.02161V2.61726C14.3557 2.71936 14.396 2.81721 14.4677 2.88935C14.5393 2.96148 14.6364 3.00199 14.7376 3.00199H14.939V6.15406C14.9387 6.42923 14.8302 6.69303 14.6373 6.88759C14.4444 7.08215 14.1828 7.19157 13.91 7.19185H13.8097V4.1143C13.8096 4.00537 13.7667 3.90093 13.6904 3.82389C13.614 3.74685 13.5105 3.70351 13.4025 3.70337H1.836C1.728 3.70351 1.62447 3.74685 1.54812 3.82389C1.47177 3.90093 1.42883 4.00537 1.42873 4.1143V10.6295H13.81V7.73497H14.1413C14.4984 7.73459 14.8407 7.59135 15.0932 7.33668C15.3457 7.08202 15.4877 6.73673 15.4881 6.37658V3.00199H15.6895C15.7908 3.00199 15.8879 2.9614 15.9596 2.88915C16.0312 2.8169 16.0714 2.71891 16.0714 2.61674V2.02161C16.0714 1.91943 16.0312 1.82144 15.9596 1.74919C15.8879 1.67694 15.7908 1.63635 15.6895 1.63635ZM5.79988 9.37829H2.96214V5.19646H5.79988V9.37829ZM9.03811 9.37829H6.2005V5.19646H9.03811V9.37829ZM12.2765 9.37829H9.43872V5.19646H12.2765V9.37829Z" fill="white"/>
<path d="M3.74197 8.52799H4.21125L5.05804 6.46519V6.05545H3.69889V6.52523H4.58602L3.74197 8.52799Z" fill="white"/>
<path d="M6.99155 8.52799H7.46083L8.30762 6.46519V6.05545H6.94847V6.52523H7.8356L6.99155 8.52799Z" fill="white"/>
<path d="M10.2187 8.52799H10.6878L11.5346 6.46519V6.05545H10.1755V6.52523H11.0627L10.2187 8.52799Z" fill="white"/>
</svg>
