<svg width="14" height="15" viewBox="0 0 14 15" fill="none" xmlns="http://www.w3.org/2000/svg">
<g clip-path="url(#clip0_8530_724)">
<path d="M7 0.5C3.13418 0.5 0 3.63418 0 7.5C0 11.3598 3.14058 14.5 7 14.5C10.8655 14.5 14 11.3655 14 7.5C14 3.64024 10.8598 0.5 7 0.5ZM10.6346 8.57692H6.59615C6.56045 8.57692 6.52621 8.56274 6.50097 8.5375C6.47572 8.51225 6.46154 8.47801 6.46154 8.44231V2.78846C6.46154 2.75276 6.47572 2.71852 6.50097 2.69327C6.52621 2.66803 6.56045 2.65385 6.59615 2.65385H7.40385C7.43955 2.65385 7.47379 2.66803 7.49903 2.69327C7.52428 2.71852 7.53846 2.75276 7.53846 2.78846V7.5H10.6346C10.6703 7.5 10.7046 7.51418 10.7298 7.53943C10.755 7.56467 10.7692 7.59891 10.7692 7.63462V8.44231C10.7692 8.47801 10.755 8.51225 10.7298 8.5375C10.7046 8.56274 10.6703 8.57692 10.6346 8.57692Z" fill="currentColor"/>
</g>
<defs>
<clipPath id="clip0_8530_724">
<rect width="14" height="14" fill="white" transform="translate(0 0.5)"/>
</clipPath>
</defs>
</svg>
