<svg xmlns="http://www.w3.org/2000/svg" width="18" height="18" viewBox="0 0 18 18" fill="none">
  <path d="M8.98217 0.0712891L9.4036 0.494503C9.41967 0.509682 11.2759 2.28647 15.4902 2.28647C15.6509 2.28647 15.8143 2.28468 15.9813 2.27933L16.5715 2.26057V10.3159C16.5715 12.4249 15.8063 15.5008 9.18753 17.8543L8.98217 17.9275L8.77681 17.8543C2.27413 15.5418 1.42145 12.5329 1.39288 10.4275V2.26057L1.98395 2.27843C6.58395 2.42307 8.54288 0.513253 8.56074 0.494503L8.98217 0.0712891ZM13.1286 4.08825C12.5402 4.08825 12.0947 4.23111 11.7929 4.51682C11.492 4.80254 11.3411 5.22397 11.3411 5.77932V11.6124C11.3411 12.1677 11.4929 12.5891 11.7929 12.8766C12.0947 13.1641 12.5393 13.3088 13.1286 13.3088C13.7143 13.3088 14.1581 13.1641 14.459 12.8766C14.7598 12.5891 14.9098 12.1677 14.9098 11.6124V9.67575H13.5241V11.6597C13.5241 11.8597 13.4938 11.999 13.4331 12.0793C13.3723 12.1597 13.2723 12.199 13.1295 12.199C12.9866 12.199 12.8848 12.1597 12.8223 12.0793C12.759 11.999 12.7277 11.8597 12.7277 11.6597V5.67129C12.7277 5.47486 12.759 5.33825 12.8223 5.26057C12.8848 5.1829 12.9875 5.1445 13.1286 5.1445C13.2715 5.1445 13.3723 5.1829 13.4331 5.26057C13.4938 5.33825 13.5241 5.47486 13.5241 5.67129V7.53557H14.909V5.77932C14.909 5.22397 14.7598 4.80343 14.459 4.51772C14.1581 4.232 13.7143 4.08915 13.1286 4.08915V4.08825ZM4.99735 4.26861H3.62503V13.1106H4.99913V8.657H5.05538L6.00181 13.1106H7.45717L6.32145 8.30879L7.27056 4.92754L8.46967 9.79629V13.1115H9.88753V9.79629L11.2982 4.2695H10L9.52413 6.24808C9.4527 6.53557 9.39467 6.832 9.35092 7.13825C9.30717 7.44361 9.27503 7.77218 9.25449 8.12397H9.20449C9.19199 7.74897 9.16521 7.39807 9.12503 7.07218C9.09187 6.78235 9.04057 6.49488 8.97145 6.21147L8.46967 4.2695H6.12056L5.05449 8.18825H4.99735V4.26861Z" fill="currentColor"/>
</svg>