<svg xmlns="http://www.w3.org/2000/svg" width="18" height="18" viewBox="0 0 18 18" fill="none">
  <path d="M2.57805 8.985C2.57783 8.5147 2.62914 8.04579 2.73108 7.58667C2.75797 7.46796 2.73886 7.34347 2.6776 7.23829C2.61635 7.1331 2.51749 7.05505 2.40097 7.01987L0.85097 6.55468C0.788458 6.53583 0.722755 6.52993 0.657885 6.53735C0.593014 6.54477 0.53034 6.56535 0.473701 6.59784C0.417062 6.63032 0.367649 6.67403 0.328487 6.72627C0.289325 6.77852 0.261239 6.83821 0.245948 6.90169C-0.0819828 8.28145 -0.0819828 9.71886 0.245948 11.0986C0.261243 11.1621 0.289329 11.2218 0.328487 11.2741C0.367645 11.3263 0.417052 11.37 0.473686 11.4025C0.53032 11.435 0.59299 11.4556 0.657861 11.4631C0.722733 11.4705 0.788442 11.4647 0.85097 11.4459L2.40721 10.9787C2.52389 10.9432 2.62277 10.8648 2.68395 10.7593C2.74513 10.6537 2.76405 10.529 2.73691 10.4101C2.63114 9.94251 2.57791 9.4646 2.57821 8.98523L2.57805 8.985ZM2.94352 12.2601L1.50903 13.0324C1.45147 13.0634 1.40083 13.1057 1.36022 13.1569C1.3196 13.2081 1.28986 13.2671 1.27282 13.3302C1.25578 13.3933 1.25179 13.4592 1.2611 13.5239C1.27042 13.5885 1.29283 13.6506 1.32698 13.7064C2.06965 14.9141 3.08577 15.9303 4.29338 16.6731C4.34911 16.7073 4.41121 16.7297 4.47589 16.739C4.54056 16.7483 4.60646 16.7443 4.66954 16.7272C4.73262 16.7102 4.79157 16.6805 4.84277 16.6399C4.89396 16.5993 4.93634 16.5486 4.96731 16.4911L5.74253 15.0518C5.79989 14.9443 5.81445 14.8191 5.78329 14.7014C5.75213 14.5836 5.67755 14.482 5.57455 14.417C4.77064 13.909 4.08894 13.2296 3.57823 12.4275C3.51333 12.3243 3.41169 12.2496 3.29386 12.2185C3.17602 12.1874 3.05077 12.2022 2.94341 12.2599L2.94352 12.2601ZM8.99971 15.4071C8.52625 15.4074 8.0542 15.3553 7.59215 15.252C7.47336 15.2251 7.3488 15.2442 7.2435 15.3054C7.13821 15.3666 7.05997 15.4654 7.0245 15.5819L6.55405 17.1492C6.53523 17.2118 6.52936 17.2775 6.53681 17.3424C6.54426 17.4072 6.56486 17.4699 6.59736 17.5266C6.62987 17.5832 6.67358 17.6327 6.72583 17.6718C6.77809 17.711 6.83779 17.7391 6.90128 17.7544C8.28097 18.0824 9.71831 18.0824 11.098 17.7544C11.1615 17.7391 11.2212 17.711 11.2734 17.6718C11.3257 17.6327 11.3694 17.5832 11.4019 17.5266C11.4344 17.4699 11.455 17.4072 11.4625 17.3424C11.4699 17.2775 11.464 17.2118 11.4452 17.1492L10.9748 15.5819C10.9393 15.4654 10.8611 15.3666 10.7558 15.3054C10.6505 15.2442 10.5259 15.2251 10.4071 15.252C9.94506 15.3553 9.47302 15.4074 8.99955 15.4071H8.99971ZM5.72996 2.92557L4.96731 1.50938C4.93636 1.45182 4.89399 1.40119 4.8428 1.36057C4.7916 1.31996 4.73265 1.29022 4.66956 1.27318C4.60647 1.25613 4.54057 1.25215 4.47588 1.26146C4.4112 1.27077 4.3491 1.29319 4.29338 1.32734C3.08582 2.06999 2.0697 3.08605 1.32698 4.29356C1.2928 4.34927 1.27036 4.41138 1.26103 4.47607C1.2517 4.54076 1.25567 4.60668 1.27272 4.66978C1.28976 4.73288 1.31951 4.79183 1.36015 4.84303C1.40078 4.89422 1.45144 4.93658 1.50903 4.96751L2.92947 5.73225C3.03693 5.78985 3.16224 5.8045 3.28009 5.77324C3.39793 5.74198 3.49951 5.66714 3.56429 5.56385C4.07366 4.75623 4.75587 4.07167 5.56173 3.55953C5.66484 3.49481 5.73956 3.39337 5.77078 3.2757C5.80201 3.15803 5.78742 3.0329 5.72996 2.92557ZM17.1489 6.55446L15.5986 7.01964C15.4823 7.05507 15.3836 7.13316 15.3224 7.23827C15.2611 7.34339 15.2419 7.46775 15.2685 7.58644C15.4747 8.51641 15.4727 9.48044 15.2629 10.4096C15.2357 10.5285 15.2547 10.6532 15.3158 10.7588C15.377 10.8643 15.4759 10.9427 15.5926 10.9782L17.149 11.4453C17.2116 11.4642 17.2773 11.47 17.3421 11.4626C17.407 11.4551 17.4697 11.4345 17.5263 11.402C17.5829 11.3695 17.6324 11.3258 17.6715 11.2735C17.7107 11.2213 17.7388 11.1616 17.7541 11.0981C18.082 9.71835 18.082 8.28094 17.7541 6.90118C17.7388 6.8377 17.7107 6.77801 17.6715 6.72576C17.6324 6.67352 17.5829 6.62981 17.5263 6.59733C17.4697 6.56485 17.407 6.54426 17.3421 6.53684C17.2772 6.52942 17.2115 6.53532 17.149 6.55417L17.1489 6.55446ZM12.2575 15.0518L13.0321 16.4907C13.063 16.5483 13.1053 16.5989 13.1565 16.6396C13.2077 16.6802 13.2666 16.71 13.3297 16.7271C13.3928 16.7442 13.4587 16.7482 13.5234 16.7389C13.5881 16.7296 13.6503 16.7073 13.706 16.6732C14.914 15.9305 15.9305 14.9142 16.6734 13.7064C16.7076 13.6506 16.73 13.5885 16.7393 13.5239C16.7486 13.4592 16.7446 13.3933 16.7276 13.3302C16.7105 13.2671 16.6808 13.2081 16.6402 13.1569C16.5996 13.1057 16.5489 13.0634 16.4914 13.0324L15.0559 12.2601C14.9487 12.2026 14.8237 12.1878 14.7061 12.2188C14.5885 12.2497 14.4869 12.3241 14.4219 12.4268C13.9112 13.229 13.2295 13.9084 12.4256 14.4163C12.3222 14.4812 12.2473 14.5829 12.216 14.7009C12.1848 14.8189 12.1996 14.9444 12.2575 15.0519V15.0518ZM15.0697 5.73225L16.4903 4.96751C16.548 4.93667 16.5988 4.89438 16.6395 4.84323C16.6803 4.79207 16.7101 4.73313 16.7273 4.67002C16.7444 4.60692 16.7485 4.54097 16.7392 4.47623C16.7299 4.4115 16.7076 4.34933 16.6734 4.29356C15.9304 3.08595 14.9139 2.0699 13.706 1.32739C13.6503 1.29324 13.5882 1.27082 13.5235 1.26151C13.4588 1.2522 13.3929 1.25618 13.3298 1.27323C13.2667 1.29027 13.2078 1.32001 13.1566 1.36063C13.1054 1.40125 13.063 1.45189 13.0321 1.50945L12.2697 2.92562C12.2122 3.03283 12.1974 3.15787 12.2285 3.27552C12.2595 3.39316 12.334 3.49467 12.4369 3.55955C13.243 4.07162 13.9255 4.75619 14.435 5.5639C14.4998 5.66719 14.6013 5.74204 14.7192 5.77329C14.837 5.80455 14.9623 5.78988 15.0697 5.73225ZM8.99971 2.56308C9.47593 2.56292 9.9507 2.61557 10.4153 2.72004C10.5341 2.74702 10.6588 2.72802 10.7642 2.66685C10.8696 2.60568 10.9479 2.50688 10.9834 2.39032L11.4455 0.85115C11.4643 0.788624 11.4702 0.722916 11.4627 0.658046C11.4553 0.593177 11.4347 0.530509 11.4022 0.473878C11.3697 0.417246 11.3259 0.36784 11.2737 0.328683C11.2214 0.289526 11.1617 0.261441 11.0983 0.246146C9.71861 -0.0820487 8.2812 -0.0820487 6.90154 0.246146C6.83807 0.261446 6.77838 0.289533 6.72613 0.32869C6.67389 0.367848 6.63018 0.417252 6.59768 0.473881C6.56518 0.530511 6.54457 0.593175 6.53712 0.65804C6.52967 0.722906 6.53553 0.78861 6.55435 0.851133L7.01663 2.39032C7.05215 2.50688 7.13047 2.60567 7.23586 2.66684C7.34124 2.728 7.46587 2.747 7.5847 2.72002C8.04919 2.61558 8.52382 2.56294 8.9999 2.56306L8.99971 2.56308Z" fill="currentColor"/>
  <path fill-rule="evenodd" clip-rule="evenodd" d="M5.46434 12.4937C4.52666 11.5606 3.99988 10.2951 3.99988 8.97551C3.99988 7.65592 4.52666 6.39038 5.46434 5.45729C6.40203 4.5242 7.6738 4 8.99988 4C10.326 4 11.5977 4.5242 12.5354 5.45729C13.4731 6.39038 13.9999 7.65592 13.9999 8.97551C13.9999 10.2951 13.4731 11.5606 12.5354 12.4937C11.5977 13.4268 10.326 13.951 8.99988 13.951C7.6738 13.951 6.40203 13.4268 5.46434 12.4937ZM8.99377 6.01187V5.99986C8.99377 5.99986 10.4925 7.02455 11.4931 8.27338C12.4798 9.53022 11.7212 10.1786 11.7212 10.1786C11.7212 10.1786 11.0323 11.2794 9.52901 10.5829L9.98979 11.9919H9.00308V11.9999H8.01171L8.47249 10.5909C6.96915 11.2874 6.28032 10.1867 6.28032 10.1867C6.28032 10.1867 5.51701 9.53422 6.50838 8.28138C7.45343 7.08387 8.86422 6.10203 8.98802 6.01588C8.99043 6.0142 8.99235 6.01286 8.99377 6.01187Z" fill="currentColor"/>
</svg>