<svg width="113" height="112" viewBox="0 0 113 112" fill="none" xmlns="http://www.w3.org/2000/svg">
<g clip-path="url(#clip0_7396_7519)">
<path d="M38.2956 39.4297H29.1602V35.1251C29.1602 33.5833 38.2956 33.5833 38.2956 35.1251V39.4297Z" fill="#F3F3F3"/>
<path d="M28.8959 38.4941H88.2148C93.393 38.4941 97.5892 42.6904 97.5892 47.8685V47.8648C97.5892 53.0429 93.393 57.2392 88.2148 57.2392H28.8959C23.7178 57.2392 19.5215 53.0429 19.5215 47.8648V47.8685C19.5215 42.6904 23.7178 38.4941 28.8959 38.4941Z" fill="#D6D6D6"/>
<path d="M28.8551 44.8711H88.2636C89.9212 44.8711 91.2652 46.2151 91.2652 47.8727C91.2652 49.5303 89.9212 50.8706 88.2636 50.8706H28.8551C27.1975 50.8706 25.8535 49.5266 25.8535 47.869C25.8535 46.2114 27.1975 44.8711 28.8551 44.8711Z" fill="#B0B0B0"/>
<path d="M87.9564 104.699V47.4746H29.1602V104.699C30.885 104.699 32.285 106.099 32.285 107.824H37.7954C37.7954 106.099 39.1954 104.699 40.9202 104.699C42.645 104.699 44.045 106.099 44.045 107.824H49.5554C49.5554 106.099 50.9554 104.699 52.6802 104.699C54.405 104.699 55.805 106.099 55.805 107.824H61.3154C61.3154 106.099 62.7154 104.699 64.4402 104.699C66.165 104.699 67.565 106.099 67.565 107.824H73.0754C73.0754 106.099 74.4754 104.699 76.2002 104.699C77.925 104.699 79.325 106.099 79.325 107.824H84.8354C84.8354 106.099 86.2354 104.699 87.9602 104.699H87.9564Z" fill="#EBEBEB"/>
<path d="M64.073 23.3207C64.073 31.702 57.2821 38.493 48.9008 38.493C40.5194 38.493 33.7285 31.702 33.7285 23.3207C33.7285 14.9431 40.5194 8.14844 48.9008 8.14844C57.2821 8.14844 64.073 14.9394 64.073 23.3207Z" fill="#D6D6D6"/>
<path d="M38.4555 12.3164C37.1526 13.5559 36.0624 15.0268 35.2598 16.6807L38.9931 13.8956L38.4592 12.3201L38.4555 12.3164Z" fill="#F3F3F3"/>
<path d="M45.2697 18.3375L43.123 25.2292L49.0217 29.3993L54.8084 25.0836L52.49 18.2441L45.2697 18.3337V18.3375Z" fill="#B0B0B0"/>
<path d="M62.7531 29.5098L61.0806 29.5284L59.6992 33.9674C60.9611 32.6906 62.0027 31.1898 62.7531 29.5098Z" fill="#F3F3F3"/>
<path d="M61.0332 21.7019L63.9751 21.6646C63.6466 18.6294 62.4034 15.8107 60.4919 13.5371L58.7148 14.8624L61.0332 21.7019Z" fill="#B0B0B0"/>
<path d="M52.4444 10.4273L52.9783 8.71001C52.4519 8.56068 51.918 8.44121 51.3617 8.35161C49.0358 7.97081 46.7473 8.13508 44.623 8.76228L45.2166 10.5169L52.4369 10.4273H52.4444Z" fill="#B0B0B0"/>
<path d="M35.9089 24.91L33.8145 24.9324C34.1206 27.7996 35.2369 30.4764 36.9691 32.6828L38.2273 31.7457L35.9089 24.91Z" fill="#F3F3F3"/>
<path d="M44.5077 36.1912L44.041 37.6882C44.8101 37.9458 45.6127 38.1512 46.4453 38.2893C48.4911 38.6253 50.5034 38.532 52.3999 38.084L51.7279 36.1016L44.5077 36.1912Z" fill="#F3F3F3"/>
<path d="M76.1403 31.7011C76.1403 33.6014 75.36 35.3187 74.1056 36.547C73.8032 36.8494 73.4747 37.1144 73.12 37.3496C72.0411 38.0702 70.7456 38.492 69.3494 38.492C67.1243 38.492 65.1456 37.4206 63.9099 35.7667C63.7083 35.5054 63.5328 35.2328 63.3797 34.9454C62.8496 33.9784 62.5547 32.8771 62.5547 31.7011C62.5547 30.5251 62.8496 29.42 63.3797 28.4568C63.5328 28.1694 63.7083 27.8968 63.9099 27.6355C65.1419 25.9816 67.1206 24.9102 69.3494 24.9102C70.7456 24.9102 72.0411 25.332 73.12 26.0526C73.4747 26.2878 73.8032 26.5528 74.1056 26.8552C75.3638 28.0835 76.1403 29.7971 76.1403 31.7011Z" fill="#D6D6D6"/>
<path d="M70.2419 33.9711H70.4249V33.0154H69.8649C69.7902 32.7429 69.7305 32.4666 69.7006 32.1791H70.227V31.2234H69.7006C69.7305 30.9359 69.7865 30.6597 69.8649 30.3871H70.4249V29.4314H70.2419C70.9923 28.0127 72.4297 27.0047 74.1097 26.8554C73.8073 26.553 73.4787 26.2879 73.1241 26.0527C71.347 26.5007 69.8873 27.7701 69.1817 29.4314H68.3753V30.3871H68.8755C68.8121 30.6597 68.771 30.9359 68.7449 31.2234H68.1699V32.1791H68.7449C68.7673 32.4666 68.8121 32.7429 68.8755 33.0154H68.3753V33.9711H69.1817C69.8873 35.6325 71.347 36.9018 73.1241 37.3498C73.4787 37.1146 73.8073 36.8495 74.1097 36.5471C72.4334 36.3978 70.9923 35.3898 70.2419 33.9711Z" fill="#B0B0B0"/>
<path d="M66.039 32.1782V31.2225H65.5574C65.535 30.935 65.4865 30.6588 65.423 30.3862H65.8374V29.4305H65.1169C64.8294 28.7585 64.4187 28.1462 63.911 27.6348C63.7094 27.8961 63.5339 28.1686 63.3809 28.4561C63.6422 28.7473 63.8737 29.0758 64.0603 29.4305H63.7878V30.3862H64.4374C64.5121 30.6588 64.5718 30.935 64.6017 31.2225H63.9894V32.1782H64.6017C64.5718 32.4657 64.5158 32.742 64.4374 33.0145H63.7878V33.9702H64.0603C63.8737 34.3249 63.6459 34.6534 63.3809 34.9446C63.5339 35.2321 63.7094 35.5046 63.911 35.766C64.4187 35.2545 64.8294 34.6422 65.1169 33.9702H65.8374V33.0145H65.423C65.4865 32.742 65.5313 32.4657 65.5574 32.1782H66.039Z" fill="#B0B0B0"/>
</g>
<defs>
<clipPath id="clip0_7396_7519">
<rect width="112" height="112" fill="white" transform="translate(0.855469)"/>
</clipPath>
</defs>
</svg>
