<svg width="12" height="14" viewBox="0 0 12 14" fill="none" xmlns="http://www.w3.org/2000/svg">
<path d="M10.6361 13.5C10.6361 12.881 10.1481 12.38 9.54606 12.38C8.94306 12.38 8.45506 12.881 8.45506 13.5H7.09006C7.09006 12.881 6.60106 12.38 5.99906 12.38C5.39706 12.38 4.90906 12.881 4.90906 13.5H3.54406C3.54406 12.881 3.05606 12.38 2.45406 12.38C1.85106 12.38 1.36306 12.881 1.36306 13.5H0.786064C0.574765 13.4968 0.373347 13.41 0.225995 13.2585C0.078644 13.107 -0.00260793 12.9033 6.38666e-05 12.692V1.308C6.38666e-05 0.862 0.352064 0.5 0.787064 0.5H11.2131C11.6481 0.5 12.0001 0.862 12.0001 1.308V12.692C12.0027 12.9035 11.9213 13.1074 11.7738 13.2589C11.6262 13.4104 11.4245 13.4971 11.2131 13.5H10.6361ZM2.65806 3.52C2.58887 3.52006 2.5204 3.53399 2.45668 3.56096C2.39296 3.58792 2.33528 3.62738 2.28706 3.677C2.18807 3.7791 2.13282 3.91579 2.13306 4.058V4.079C2.13306 4.377 2.36806 4.618 2.65806 4.618H9.34206C9.63206 4.618 9.86706 4.377 9.86706 4.079V4.058C9.86705 3.91614 9.81181 3.77985 9.71306 3.678C9.66505 3.62832 9.60757 3.58875 9.54403 3.56161C9.48049 3.53448 9.41216 3.52033 9.34306 3.52H2.65706H2.65806ZM2.65806 6.814C2.51714 6.81585 2.38271 6.87353 2.28428 6.9744C2.18585 7.07527 2.13146 7.21107 2.13306 7.352V7.373C2.13306 7.671 2.36806 7.912 2.65806 7.912H5.87606C6.16606 7.912 6.40006 7.671 6.40006 7.373V7.353C6.40112 7.28313 6.38841 7.21374 6.36265 7.14879C6.33688 7.08384 6.29858 7.0246 6.24992 6.97446C6.20126 6.92431 6.1432 6.88424 6.07905 6.85654C6.01491 6.82884 5.94593 6.81404 5.87606 6.813H2.65806V6.814Z" fill="white"/>
</svg>
