<svg width="18" height="19" viewBox="0 0 18 19" fill="none" xmlns="http://www.w3.org/2000/svg">
<path fill-rule="evenodd" clip-rule="evenodd" d="M3.75 4C3.6837 4 3.62011 4.02634 3.57322 4.07322C3.52634 4.12011 3.5 4.1837 3.5 4.25V5.75C3.5 6.16421 3.16421 6.5 2.75 6.5C2.33579 6.5 2 6.16421 2 5.75V4.25C2 3.78587 2.18437 3.34075 2.51256 3.01256C2.84075 2.68437 3.28587 2.5 3.75 2.5H5.25C5.66421 2.5 6 2.83579 6 3.25C6 3.66421 5.66421 4 5.25 4H3.75ZM9.75 7C9.75 6.58579 9.41421 6.25 9 6.25C8.58579 6.25 8.25 6.58579 8.25 7V9.75H7.5C7.08579 9.75 6.75 10.0858 6.75 10.5C6.75 10.9142 7.08579 11.25 7.5 11.25H9C9.41421 11.25 9.75 10.9142 9.75 10.5V7ZM16 13.25C16 12.8358 15.6642 12.5 15.25 12.5C14.8358 12.5 14.5 12.8358 14.5 13.25V14.75C14.5 14.8163 14.4737 14.8799 14.4268 14.9268C14.3799 14.9737 14.3163 15 14.25 15H12.75C12.3358 15 12 15.3358 12 15.75C12 16.1642 12.3358 16.5 12.75 16.5H14.25C14.7141 16.5 15.1592 16.3156 15.4874 15.9874C15.8156 15.6592 16 15.2141 16 14.75V13.25ZM3.5 13.25C3.5 12.8358 3.16421 12.5 2.75 12.5C2.33579 12.5 2 12.8358 2 13.25V14.75C2 15.2141 2.18437 15.6592 2.51256 15.9874C2.84075 16.3156 3.28587 16.5 3.75 16.5H5.25C5.66421 16.5 6 16.1642 6 15.75C6 15.3358 5.66421 15 5.25 15H3.75C3.6837 15 3.62011 14.9737 3.57322 14.9268C3.52634 14.8799 3.5 14.8163 3.5 14.75V13.25ZM12 3.25C12 2.83579 12.3358 2.5 12.75 2.5H14.25C14.7141 2.5 15.1592 2.68437 15.4874 3.01256C15.8156 3.34075 16 3.78587 16 4.25V5.75C16 6.16421 15.6642 6.5 15.25 6.5C14.8358 6.5 14.5 6.16421 14.5 5.75V4.25C14.5 4.1837 14.4737 4.12011 14.4268 4.07322C14.3799 4.02634 14.3163 4 14.25 4H12.75C12.3358 4 12 3.66421 12 3.25ZM7.01653 11.9562C6.71621 11.6709 6.24149 11.6832 5.95622 11.9835C5.67095 12.2838 5.68315 12.7585 5.98347 13.0438C6.79747 13.817 7.8773 14.2481 9 14.2481C10.1227 14.2481 11.2025 13.817 12.0165 13.0438C12.3169 12.7585 12.3291 12.2838 12.0438 11.9835C11.7585 11.6832 11.2838 11.6709 10.9835 11.9562C10.4482 12.4646 9.73821 12.7481 9 12.7481C8.26179 12.7481 7.55176 12.4646 7.01653 11.9562ZM7 7C7 7.55228 6.55228 8 6 8C5.44772 8 5 7.55228 5 7C5 6.44772 5.44772 6 6 6C6.55228 6 7 6.44772 7 7ZM12 8C12.5523 8 13 7.55228 13 7C13 6.44772 12.5523 6 12 6C11.4477 6 11 6.44772 11 7C11 7.55228 11.4477 8 12 8Z" fill="currentColor"/>
</svg>
