<svg width="57" height="56" viewBox="0 0 57 56" fill="none" xmlns="http://www.w3.org/2000/svg">
<g clip-path="url(#clip0_92_14288)">
<path d="M0.988281 10.6883C0.988281 9.10872 2.26888 7.82812 3.8485 7.82812H40.8808C42.4603 7.82812 43.741 9.10872 43.741 10.6883V16.9409C42.2923 16.5932 40.7802 16.4088 39.2248 16.4088C34.7617 16.4088 30.6529 17.9262 27.3863 20.4733H3.8485C2.26888 20.4733 0.988281 19.1927 0.988281 17.6131V10.6883Z" fill="currentColor"/>
<path d="M25.3761 22.2793H3.8485C2.26888 22.2793 0.988281 23.5599 0.988281 25.1395V32.0642C0.988281 33.6438 2.26888 34.9245 3.8485 34.9245H19.9705C20.1589 30.0163 22.1832 25.5789 25.3761 22.2793Z" fill="currentColor"/>
<path d="M19.9843 36.7314H3.8485C2.26888 36.7314 0.988281 38.0121 0.988281 39.5917V46.5164C0.988281 48.096 2.26888 49.3766 3.8485 49.3766H25.6739C22.3764 46.1145 20.2506 41.6701 19.9843 36.7314Z" fill="currentColor"/>
<path fill-rule="evenodd" clip-rule="evenodd" d="M39.3005 53.4408C49.0695 53.4408 56.9886 45.5216 56.9886 35.7526C56.9886 25.9836 49.0695 18.0645 39.3005 18.0645C29.5315 18.0645 21.6123 25.9836 21.6123 35.7526C21.6123 45.5216 29.5315 53.4408 39.3005 53.4408ZM37.4182 43.3071L29.5488 36.8726C28.9533 36.385 28.9533 35.4746 29.5518 34.9903L37.4213 28.5557C37.7823 28.2596 38.3253 28.5157 38.3253 28.9848V33.3392C38.6217 33.3546 39.1402 33.3639 40.1123 33.3639C44.0721 33.3639 46.153 30.407 47.5004 28.4923C47.6672 28.2552 47.8227 28.0343 47.9692 27.8368C48.1667 27.5714 48.5896 27.7442 48.5494 28.0714L48.5283 28.2477C48.1574 31.3462 47.2823 38.6554 38.3223 39.0822V42.878C38.3223 43.3441 37.7793 43.6032 37.4182 43.3071Z" fill="currentColor"/>
</g>
<defs>
<clipPath id="clip0_92_14288">
<rect width="56" height="56" fill="white" transform="translate(0.988281)"/>
</clipPath>
</defs>
</svg>
