<svg width="14" height="14" viewBox="0 0 14 14" fill="none" xmlns="http://www.w3.org/2000/svg">
<g clip-path="url(#clip0_12470_17564)">
<path d="M13.8277 6.9569C13.9352 6.9569 13.9719 6.97482 13.9686 7.09377C13.8953 9.10611 13.1246 10.7934 11.6279 12.1393C10.5867 13.0762 9.35734 13.6245 7.97315 13.8217C7.84279 13.8396 7.70674 13.8331 7.58372 13.8828H6.79752C6.7079 13.8469 6.61421 13.8868 6.52459 13.8616C5.15751 13.7638 3.93544 13.2896 2.84617 12.4668C2.62576 12.3032 2.41872 12.1223 2.22699 11.9258C2.17322 11.8688 2.13738 11.8647 2.07953 11.9258C1.89541 12.1165 1.70395 12.3047 1.51738 12.492C1.47339 12.536 1.4408 12.5857 1.3577 12.5605C1.27623 12.5311 1.27867 12.4741 1.27623 12.413C1.23549 11.8101 1.19231 11.2081 1.15239 10.606C1.1361 10.3208 1.11247 10.0398 1.09862 9.75543C1.09047 9.61041 1.13773 9.56805 1.27867 9.57864L3.66496 10.008C3.73421 10.0112 3.79124 10.0112 3.82301 10.0976C3.8556 10.1848 3.79857 10.2141 3.75784 10.254C3.57127 10.4406 3.38796 10.6321 3.19324 10.8162C3.13214 10.8732 3.1354 10.9058 3.19324 10.9628C3.79124 11.5413 5.03286 12.2965 6.06102 12.4668C7.90634 12.7731 9.64738 12.1719 10.942 10.8162C11.7599 9.95829 12.441 8.59773 12.5461 7.41151C12.5543 7.33574 12.5608 7.25997 12.564 7.18339C12.564 6.98297 12.564 6.96342 12.7302 6.96097H13.1156C13.3437 6.96179 13.501 6.9626 13.8277 6.95771V6.9569ZM10.4808 4.38241L10.5835 4.53721C11.0454 5.2786 11.2703 6.09005 11.2784 6.79966C11.2744 8.83236 10.1069 10.5253 8.41391 11.116C6.52704 11.7743 4.49515 11.0142 3.44091 9.2552C2.29543 7.3504 2.74841 4.83865 4.48782 3.45364C6.3698 1.94806 9.1113 2.39208 10.4808 4.38241ZM7.05904 4.07119C6.91158 4.07119 6.73071 4.01905 6.62317 4.08749C6.54333 4.13637 6.60362 4.34005 6.60362 4.47203C6.60362 4.56491 6.58244 4.59994 6.47897 4.62438C6.17111 4.69251 5.89492 4.86172 5.69441 5.10505C5.4939 5.34838 5.38061 5.65183 5.37259 5.96703C5.36766 6.28221 5.46781 6.59006 5.65722 6.84202C5.84663 7.09398 6.11454 7.27571 6.41868 7.35855C6.71523 7.44165 7.01505 7.39766 7.31649 7.40988C7.45023 7.41135 7.57811 7.46496 7.67291 7.55931C7.76771 7.65365 7.82194 7.78127 7.82406 7.915C7.82452 8.04902 7.77237 8.17788 7.67883 8.27386C7.58528 8.36984 7.45781 8.42528 7.32382 8.42827C7.1397 8.43641 6.95231 8.43153 6.76738 8.42827C6.65556 8.42842 6.54727 8.38913 6.46158 8.31729C6.37589 8.24546 6.31829 8.1457 6.29892 8.03558C6.28262 7.95085 6.24678 7.93537 6.17019 7.93537C5.95022 7.93944 5.73025 7.94351 5.50865 7.93537C5.39622 7.92722 5.38074 7.97121 5.38889 8.07061C5.43288 8.6572 5.89401 9.16965 6.49526 9.29756C6.5637 9.31386 6.59873 9.322 6.59873 9.40592C6.6028 9.5542 6.53192 9.76276 6.62806 9.83527C6.71035 9.89882 6.86025 9.86949 6.99875 9.85808L7.08022 9.85482H7.09652C7.1188 9.85434 7.14109 9.85489 7.16332 9.85645L7.30508 9.86705C7.37434 9.87112 7.43625 9.86705 7.4721 9.83446C7.55683 9.7595 7.49654 9.57864 7.49654 9.44666C7.49654 9.35459 7.50876 9.31386 7.6163 9.28942C8.2697 9.14929 8.74305 8.54396 8.72187 7.89871C8.7155 7.57058 8.59482 7.25496 8.38065 7.00628C8.16648 6.7576 7.87224 6.59146 7.54868 6.53651C7.29286 6.49251 7.03949 6.52022 6.78286 6.51207C6.64898 6.50982 6.52112 6.45608 6.42584 6.36201C6.33055 6.26794 6.27518 6.14078 6.27122 6.00695C6.27076 5.87292 6.3229 5.74407 6.41645 5.64809C6.50999 5.55211 6.63746 5.49667 6.77145 5.49368C6.95069 5.48553 7.13155 5.48553 7.3116 5.49368C7.42746 5.49518 7.53909 5.53739 7.62697 5.6129C7.71484 5.68841 7.77336 5.79243 7.79228 5.90674C7.80858 5.98332 7.83302 6.00287 7.90553 6.00287C8.13446 5.99717 8.36421 5.99717 8.59396 6.00287C8.69905 6.00776 8.70639 5.9711 8.70231 5.8823C8.67461 5.29733 8.21756 4.76451 7.60897 4.62438C7.5275 4.60809 7.49247 4.58854 7.49654 4.49566C7.50469 4.36042 7.54868 4.1714 7.47617 4.09156C7.39226 4.00357 7.20406 4.07527 7.05986 4.07119H7.05904ZM7.29042 0.0318604C7.38004 0.0677076 7.47373 0.0277868 7.56335 0.0530428C8.93043 0.150808 10.1525 0.62497 11.2418 1.44783C11.4609 1.61321 11.6703 1.79001 11.8609 1.98879C11.9147 2.04582 11.9506 2.0499 12.0084 1.98879C12.1925 1.79815 12.384 1.60995 12.5706 1.42257C12.6146 1.37858 12.6471 1.32888 12.7302 1.35414C12.8117 1.38347 12.8093 1.44049 12.8117 1.5016C12.8524 2.10448 12.8956 2.70655 12.9355 3.30863C12.9518 3.59377 12.9755 3.87485 12.9893 4.15918C12.9975 4.3042 12.9502 4.34657 12.8093 4.33598L10.423 3.90662C10.3537 3.90336 10.2967 3.90336 10.2649 3.81701C10.2323 3.73065 10.2894 3.7005 10.3301 3.6614C10.5167 3.47401 10.7 3.28256 10.8947 3.09925C10.9558 3.0414 10.9525 3.00881 10.8947 2.95178C10.2967 2.37334 9.05508 1.6181 8.02692 1.44783C6.1816 1.1415 4.44056 1.74275 3.14599 3.09843C2.32802 3.95632 1.64692 5.31689 1.54182 6.50311C1.53368 6.57887 1.52716 6.65464 1.5239 6.73123C1.5239 6.93164 1.5239 6.9512 1.3577 6.95364H0.97234C0.744221 6.95283 0.586982 6.95201 0.260283 6.95771C0.152741 6.95771 0.116079 6.93979 0.119338 6.82084C0.192662 4.80851 0.963378 3.12124 2.46 1.77534C3.49957 0.838424 4.72978 0.290124 6.11398 0.0929636C6.24433 0.07504 6.38039 0.0815577 6.50341 0.0318604H7.28961H7.29042Z" fill="currentColor"/>
</g>
<defs>
<clipPath id="clip0_12470_17564">
<rect width="14" height="14" fill="white"/>
</clipPath>
</defs>
</svg>
