<svg width="16" height="17" viewBox="0 0 16 17" fill="none" xmlns="http://www.w3.org/2000/svg">
<path d="M14.3545 8.5C14.3531 8.01515 14.2952 7.53203 14.1819 7.06L16 6.03777L14.1819 2.95333L12.3636 3.98444C11.6456 3.30968 10.7728 2.81287 9.81817 2.53555V0.5H6.18183V2.53555C5.22915 2.81723 4.35727 3.31349 3.63635 3.98444L1.81817 2.95333L0 6.03777L1.81817 7.06C1.57573 8.00236 1.57573 8.98876 1.81817 9.93111L0 10.9533L1.81817 14.0377L3.63635 13.0156C4.36 13.6809 5.2312 14.1737 6.18183 14.4556V16.5H9.81817V14.4556C10.77 14.1764 11.6417 13.6833 12.3636 13.0156L14.1819 14.0377L16 10.9533L14.1819 9.93111C14.2947 9.46201 14.3525 8.98189 14.3545 8.5ZM7.99089 12.0556C7.27169 12.0556 6.56864 11.8471 5.97065 11.4564C5.37265 11.0657 4.90655 10.5103 4.63132 9.86065C4.35609 9.21096 4.28416 8.49605 4.42447 7.80635C4.56477 7.11663 4.91112 6.48309 5.41967 5.98584C5.92823 5.48859 6.57607 5.14996 7.28145 5.01276C7.98684 4.87557 8.71804 4.94599 9.38249 5.21511C10.0469 5.48421 10.6149 5.93993 11.0144 6.52464C11.414 7.10935 11.6272 7.79677 11.6272 8.5C11.6272 9.44299 11.2441 10.3474 10.5622 11.0142C9.88029 11.6809 8.95532 12.0556 7.99089 12.0556Z" fill="#B1BAD3"/>
</svg>
