<svg width="112" height="112" viewBox="0 0 112 112" fill="none" xmlns="http://www.w3.org/2000/svg">
<path d="M37.4402 39.4311H28.3047V35.1266C28.3047 33.5847 37.4402 33.5847 37.4402 35.1266V39.4311Z" fill="#23AA7D"/>
<path d="M28.0404 38.4939H87.3594C92.5375 38.4939 96.7337 42.6902 96.7337 47.8683V47.8646C96.7337 53.0427 92.5375 57.239 87.3594 57.239H28.0404C22.8623 57.239 18.666 53.0427 18.666 47.8646V47.8683C18.666 42.6902 22.8623 38.4939 28.0404 38.4939Z" fill="#187D4E"/>
<path d="M27.9996 44.8716H87.4082C89.0658 44.8716 90.4098 46.2156 90.4098 47.8732C90.4098 49.5308 89.0658 50.8711 87.4082 50.8711H27.9996C26.342 50.8711 24.998 49.5271 24.998 47.8695C24.998 46.2119 26.342 44.8716 27.9996 44.8716Z" fill="#04553A"/>
<path d="M87.101 104.699V47.4749H28.3047V104.699C30.0295 104.699 31.4295 106.099 31.4295 107.824H36.9399C36.9399 106.099 38.3399 104.699 40.0647 104.699C41.7895 104.699 43.1895 106.099 43.1895 107.824H48.6999C48.6999 106.099 50.0999 104.699 51.8247 104.699C53.5495 104.699 54.9495 106.099 54.9495 107.824H60.4599C60.4599 106.099 61.8599 104.699 63.5847 104.699C65.3095 104.699 66.7095 106.099 66.7095 107.824H72.2199C72.2199 106.099 73.6199 104.699 75.3447 104.699C77.0695 104.699 78.4695 106.099 78.4695 107.824H83.9799C83.9799 106.099 85.3799 104.699 87.1047 104.699H87.101Z" fill="#138057"/>
<path d="M63.2176 23.3207C63.2176 31.702 56.4266 38.493 48.0453 38.493C39.664 38.493 32.873 31.702 32.873 23.3207C32.873 14.9431 39.664 8.14844 48.0453 8.14844C56.4266 8.14844 63.2176 14.9394 63.2176 23.3207Z" fill="#187D4E"/>
<path d="M37.6 12.3169C36.2971 13.5564 35.207 15.0273 34.4043 16.6812L38.1376 13.8961L37.6038 12.3206L37.6 12.3169Z" fill="#23AA7D"/>
<path d="M44.4142 18.3377L42.2676 25.2295L48.1662 29.3996L53.9529 25.0839L51.6345 18.2444L44.4142 18.334V18.3377Z" fill="#04553A"/>
<path d="M61.8976 29.51L60.2251 29.5287L58.8438 33.9676C60.1056 32.6908 61.1472 31.19 61.8976 29.51Z" fill="#04553A"/>
<path d="M60.1778 21.7026L63.1196 21.6653C62.7911 18.6301 61.5479 15.8114 59.6364 13.5378L57.8594 14.8632L60.1778 21.7026Z" fill="#04553A"/>
<path d="M51.5889 10.4273L52.1228 8.71001C51.5964 8.56068 51.0625 8.44121 50.5062 8.35161C48.1804 7.97081 45.8918 8.13508 43.7676 8.76228L44.3612 10.5169L51.5814 10.4273H51.5889Z" fill="#04553A"/>
<path d="M35.0534 24.911L32.959 24.9334C33.2651 27.8006 34.3814 30.4774 36.1137 32.6838L37.3718 31.7467L35.0534 24.911Z" fill="#23AA7D"/>
<path d="M43.6522 36.1926L43.1855 37.6897C43.9546 37.9473 44.7573 38.1526 45.5898 38.2908C47.6357 38.6268 49.6479 38.5334 51.5445 38.0854L50.8725 36.103L43.6522 36.1926Z" fill="#23AA7D"/>
<path d="M75.2848 31.7011C75.2848 33.6014 74.5046 35.3187 73.2502 36.547C72.9478 36.8494 72.6192 37.1144 72.2646 37.3496C71.1856 38.0702 69.8902 38.492 68.4939 38.492C66.2688 38.492 64.2901 37.4206 63.0544 35.7667C62.8528 35.5054 62.6773 35.2328 62.5243 34.9454C61.9941 33.9784 61.6992 32.8771 61.6992 31.7011C61.6992 30.5251 61.9941 29.42 62.5243 28.4568C62.6773 28.1694 62.8528 27.8968 63.0544 27.6355C64.2864 25.9816 66.2651 24.9102 68.4939 24.9102C69.8902 24.9102 71.1856 25.332 72.2646 26.0526C72.6192 26.2878 72.9478 26.5528 73.2502 26.8552C74.5083 28.0835 75.2848 29.7971 75.2848 31.7011Z" fill="#187D4E"/>
<path d="M69.3865 33.9709H69.5694V33.0152H69.0094C68.9347 32.7426 68.875 32.4664 68.8451 32.1789H69.3715V31.2232H68.8451C68.875 30.9357 68.931 30.6594 69.0094 30.3869H69.5694V29.4312H69.3865C70.1369 28.0125 71.5742 27.0045 73.2542 26.8552C72.9518 26.5528 72.6233 26.2877 72.2686 26.0525C70.4915 26.5005 69.0318 27.7698 68.3262 29.4312H67.5198V30.3869H68.02C67.9566 30.6594 67.9155 30.9357 67.8894 31.2232H67.3145V32.1789H67.8894C67.9118 32.4664 67.9566 32.7426 68.02 33.0152H67.5198V33.9709H68.3262C69.0318 35.6322 70.4915 36.9016 72.2686 37.3496C72.6233 37.1144 72.9518 36.8493 73.2542 36.5469C71.5779 36.3976 70.1369 35.3896 69.3865 33.9709Z" fill="#04553A"/>
<path d="M65.1835 32.1782V31.2225H64.7019C64.6795 30.935 64.631 30.6588 64.5675 30.3862H64.9819V29.4305H64.2614C63.9739 28.7585 63.5633 28.1462 63.0555 27.6348C62.8539 27.8961 62.6785 28.1686 62.5254 28.4561C62.7867 28.7473 63.0182 29.0758 63.2049 29.4305H62.9323V30.3862H63.5819C63.6566 30.6588 63.7163 30.935 63.7462 31.2225H63.1339V32.1782H63.7462C63.7163 32.4657 63.6603 32.742 63.5819 33.0145H62.9323V33.9702H63.2049C63.0182 34.3249 62.7905 34.6534 62.5254 34.9446C62.6785 35.2321 62.8539 35.5046 63.0555 35.766C63.5633 35.2545 63.9739 34.6422 64.2614 33.9702H64.9819V33.0145H64.5675C64.631 32.742 64.6758 32.4657 64.7019 32.1782H65.1835Z" fill="#04553A"/>
</svg>
