<svg width="28" height="28" viewBox="0 0 28 28" fill="none" xmlns="http://www.w3.org/2000/svg">
<path d="M21.684 28H6.31596C2.82903 28 0 25.171 0 21.684V6.31596C0 2.82903 2.82903 0 6.31596 0H21.684C25.171 0 28 2.82903 28 6.31596V21.684C28 25.171 25.171 28 21.684 28Z" fill="url(#paint0_linear_7_14238)"/>
<path d="M13.9981 5.52246C11.8038 5.52246 9.77197 6.1378 8.14654 7.17111C6.50563 8.21216 5.28656 9.68666 4.71766 11.3818C4.48932 12.0629 4.36548 12.7866 4.36548 13.5296C4.36548 16.3161 6.07218 18.7581 8.66513 20.1978C8.89734 20.3255 9.01731 20.6041 8.91669 20.8518C8.72318 21.324 8.4755 21.7768 8.18137 22.2025C8.08849 22.3341 8.20459 22.516 8.36327 22.4734C9.25338 22.2373 10.0855 21.8968 10.8401 21.4672C11.1149 21.3085 11.4284 21.2582 11.738 21.3201C12.4617 21.4633 13.2202 21.5407 14.002 21.5407C19.3233 21.5407 23.6346 17.9531 23.6346 13.5335C23.6346 9.11002 19.3195 5.52246 13.9981 5.52246Z" fill="white"/>
<defs>
<linearGradient id="paint0_linear_7_14238" x1="14" y1="0" x2="14" y2="28" gradientUnits="userSpaceOnUse">
<stop stop-color="#58D7FF"/>
<stop offset="1" stop-color="#0081F8"/>
</linearGradient>
</defs>
</svg>
