<svg width="57" height="56" viewBox="0 0 57 56" fill="none" xmlns="http://www.w3.org/2000/svg">
<g clip-path="url(#clip0_1032_31)">
<path d="M28.9225 0.0078125C13.4699 0.0078125 0.941406 12.5363 0.941406 27.9889C0.941406 43.4413 13.4696 55.9698 28.9225 55.9698C44.3749 55.9698 56.9034 43.4416 56.9034 27.9889C56.9088 12.536 44.3807 0.0078125 28.9225 0.0078125ZM31.5135 31.7552L28.7749 34.5318C27.9453 35.3401 27.1236 36.1564 26.3097 36.9806C25.5771 37.7238 24.9761 38.3307 24.4949 38.8119C24.0137 39.293 23.7295 39.5663 23.6366 39.6318C23.4071 39.8396 23.1448 40.0524 22.8496 40.2825C22.566 40.5029 22.2556 40.6866 21.9259 40.8291C21.6088 40.9876 21.1388 41.1842 20.521 41.4082C19.8807 41.6439 19.2355 41.8662 18.586 42.0751C17.9137 42.2936 17.2742 42.4795 16.6677 42.6381C16.0608 42.7967 15.6125 42.9005 15.3173 42.944C14.6998 43.0152 14.2895 42.9224 14.0874 42.671C13.8795 42.4196 13.8251 41.9987 13.9179 41.4028C13.9617 41.0859 14.071 40.6212 14.2457 40.0143C14.4152 39.4078 14.6011 38.7845 14.7923 38.1341C14.9702 37.5316 15.158 36.932 15.3556 36.3357C15.5413 35.7891 15.6892 35.412 15.7984 35.2041C15.9253 34.8986 16.0807 34.6057 16.2626 34.3294C16.4324 34.0674 16.678 33.7773 17.0006 33.455C17.1373 33.3184 17.4602 32.9958 17.9575 32.482C18.46 31.9683 19.0891 31.3343 19.8378 30.5799L32.4755 17.9424L38.8759 24.3922L31.5135 31.7552ZM43.8064 19.221C43.6916 19.5162 43.5111 19.8005 43.2598 20.0796C42.9865 20.3529 42.7408 20.5933 42.5217 20.8009C42.3317 20.9807 42.144 21.1629 41.9587 21.3475C41.7932 21.5139 41.6219 21.6744 41.4449 21.8286L35.0384 15.4224C35.3114 15.171 35.6398 14.8703 36.0169 14.5149C36.394 14.1597 36.7056 13.8809 36.957 13.6785C37.2744 13.4271 37.6077 13.2524 37.9522 13.1483C38.2794 13.0475 38.621 13.0013 38.9633 13.0117C39.2965 13.0226 39.614 13.0774 39.9198 13.1648C40.2263 13.2579 40.4938 13.3559 40.7233 13.4709C41.2045 13.7223 41.7347 14.1597 42.3144 14.7885C42.8991 15.4169 43.3477 16.0731 43.6645 16.7564C43.7577 16.9639 43.8286 17.1992 43.8885 17.4777C43.9433 17.751 43.9762 18.0352 43.9762 18.3356C43.9762 18.6309 43.9211 18.9261 43.8064 19.221Z" fill="currentColor"/>
</g>
<defs>
<clipPath id="clip0_1032_31">
<rect width="56" height="56" fill="white" transform="translate(0.988281)"/>
</clipPath>
</defs>
</svg>
