<svg width="57" height="56" viewBox="0 0 57 56" fill="none" xmlns="http://www.w3.org/2000/svg">
<path fill-rule="evenodd" clip-rule="evenodd" d="M16.9883 0C12.5703 0 8.98828 3.58179 8.98828 8V48C8.98828 52.4184 12.5703 56 16.9883 56H40.9883C45.4063 56 48.9883 52.4184 48.9883 48V8C48.9883 3.58179 45.4063 0 40.9883 0H16.9883ZM16.9883 4C14.7793 4 12.9883 5.79076 12.9883 8V48C12.9883 50.2092 14.7793 52 16.9883 52H40.9883C43.1971 52 44.9883 50.2092 44.9883 48V8C44.9883 5.79076 43.1971 4 40.9883 4H16.9883Z" fill="currentColor"/>
<path d="M20.9883 4H36.9883V6C36.9883 7.10456 36.0928 8 34.9883 8H22.9883C21.8837 8 20.9883 7.10456 20.9883 6V4Z" fill="currentColor"/>
<path d="M39.5714 30.1873C37.7864 29.4283 35.9348 28.8367 34.0404 28.42C34.7614 27.9605 35.3551 27.327 35.7669 26.5777C36.1787 25.8285 36.3953 24.9877 36.3968 24.1328V21.0891C36.3968 19.7394 35.8606 18.445 34.9062 17.4906C33.9518 16.5362 32.6574 16 31.3077 16C29.958 16 28.6636 16.5362 27.7092 17.4906C26.7548 18.445 26.2186 19.7394 26.2186 21.0891V24.1218C26.2241 24.937 26.4251 25.7389 26.8048 26.4602C27.1844 27.1816 27.7316 27.8013 28.4004 28.2673C26.2582 28.674 24.1662 29.3104 22.1604 30.1655C21.7349 30.3555 21.3707 30.6603 21.1086 31.0456C20.8466 31.431 20.697 31.8817 20.6768 32.3473V36.0455C20.7374 36.5006 20.961 36.9182 21.306 37.2211C21.651 37.524 22.094 37.6915 22.5531 37.6928H39.135C39.5469 37.6903 39.9477 37.5584 40.2805 37.3156C40.6133 37.0728 40.8614 36.7316 40.9895 36.34V32.38C40.9747 31.9174 40.831 31.468 40.5747 31.0826C40.3184 30.6971 39.9595 30.3908 39.5386 30.1982" fill="currentColor"/>
<path d="M23.5338 28.0814C24.5483 27.765 25.0283 27.5905 25.0283 27.5905C25.0283 27.5905 25.6828 27.3068 25.5083 26.7178C24.9189 25.6034 24.6758 24.3384 24.8101 23.085V20.1723C24.8101 20.1723 24.9847 18.7432 25.5301 18.6123C25.5464 18.5821 25.5548 18.5484 25.5548 18.5141C25.5548 18.4798 25.5464 18.4461 25.5301 18.4159C25.4595 18.2484 25.3412 18.1052 25.1899 18.0044C25.0386 17.9035 24.861 17.8494 24.6792 17.8486C23.6608 17.8486 22.684 18.2532 21.9639 18.9734C21.2438 19.6935 20.8392 20.6702 20.8392 21.6886V24.1323C20.8425 25.042 21.1714 25.9205 21.7665 26.6087C20.4866 27.018 19.2513 27.5552 18.0792 28.2123C17.7516 28.3885 17.4774 28.6496 17.2855 28.9682C17.0936 29.2868 16.9909 29.6512 16.9883 30.0232V32.685C16.9883 32.931 17.086 33.1668 17.2599 33.3407C17.4338 33.5146 17.6696 33.6123 17.9156 33.6123C18.1498 33.5792 18.3668 33.4708 18.5341 33.3036C18.7013 33.1363 18.8097 32.9192 18.8428 32.685V32.2596C18.8548 31.6202 19.0219 30.9932 19.3297 30.4326C19.6376 29.872 20.077 29.3946 20.6101 29.0414L21.2646 28.7687C21.9919 28.5578 22.7519 28.3323 23.5446 28.0923" fill="currentColor"/>
</svg>
