<svg width="56" height="56" viewBox="0 0 56 56" fill="none" xmlns="http://www.w3.org/2000/svg">
<path d="M0 46.7741C0 37.0818 7.71755 30.4073 18.0518 30.4073H30.552C30.5992 30.4073 30.6463 30.4075 30.6934 30.4077C28.0398 33.2443 26.4151 37.0572 26.4151 41.25C26.4151 45.8464 28.3677 49.9863 31.4879 52.8838C30.9509 52.8846 30.4087 52.8846 29.8624 52.8846H18.7414C8.27007 52.8846 0 52.8846 0 47.8182V46.7741Z" fill="currentColor"/>
<path d="M38.5922 13.926C38.5922 21.6094 31.931 27.8565 23.7449 27.8565C15.5633 27.8565 8.90215 21.6094 8.90215 13.926C8.90215 6.24712 15.5633 0 23.7449 0C31.931 0 38.5922 6.24712 38.5922 13.926Z" fill="currentColor"/>
<path d="M42.2642 27.5C34.6792 27.5 28.5283 33.6572 28.5283 41.25C28.5283 48.8427 34.6792 55 42.2642 55C49.8491 55 56 48.8427 56 41.25C56 33.6572 49.8491 27.5 42.2642 27.5ZM42.9482 47.916L42.9537 48.8895C42.9537 49.0243 42.8438 49.137 42.7092 49.137H41.8383C41.7735 49.1366 41.7114 49.1108 41.6654 49.065C41.6194 49.0192 41.5932 48.9572 41.5925 48.8922V47.9297C38.87 47.7262 37.5885 46.1725 37.4511 44.4854C37.4483 44.4515 37.4525 44.4174 37.4635 44.3852C37.4744 44.353 37.492 44.3234 37.5149 44.2983C37.5379 44.2733 37.5658 44.2533 37.5969 44.2395C37.628 44.2258 37.6616 44.2187 37.6956 44.2186H39.1118C39.2313 44.2186 39.3357 44.3039 39.3549 44.4207C39.5115 45.3929 40.2683 46.1202 41.6268 46.3017V41.9238L40.8686 41.7312C39.2656 41.3462 37.7382 40.3466 37.7382 38.2717C37.7382 36.0332 39.4373 34.8301 41.6076 34.6184V33.605C41.6079 33.5398 41.634 33.4774 41.68 33.4314C41.726 33.3853 41.7884 33.3592 41.8535 33.3589H42.7147C42.7798 33.3592 42.8421 33.3853 42.8881 33.4314C42.9342 33.4774 42.9602 33.5398 42.9606 33.605V34.6088C45.0608 34.8205 46.6363 36.0484 46.8203 37.9596C46.824 37.994 46.8204 38.0288 46.8097 38.0617C46.799 38.0945 46.7814 38.1248 46.7582 38.1504C46.735 38.1759 46.7066 38.1963 46.6749 38.2101C46.6432 38.224 46.609 38.2309 46.5745 38.2305H45.1981C45.1391 38.2304 45.0821 38.2089 45.0376 38.1699C44.9932 38.131 44.9643 38.0773 44.9564 38.0187C44.8328 37.1222 44.1157 36.3921 42.9482 36.2313V40.3535L43.727 40.535C45.7132 41.0259 47.0648 41.9774 47.0648 44.1073C47.0648 46.4173 45.3478 47.707 42.9482 47.916ZM39.6461 38.1287C39.6461 38.9084 40.1269 39.5134 41.1639 39.8874C41.3081 39.9451 41.4524 39.9919 41.6227 40.0414V36.2354C40.4922 36.3797 39.6447 37.015 39.6447 38.1287H39.6461ZM43.2174 42.2785C43.127 42.2585 43.0372 42.2356 42.9482 42.2098V46.3141C44.2531 46.1972 45.1555 45.4795 45.1555 44.2764C45.1555 43.3345 44.6679 42.7199 43.2188 42.2785H43.2174Z" fill="currentColor"/>
</svg>
