<svg width="75" height="94" viewBox="0 0 75 94" fill="none" xmlns="http://www.w3.org/2000/svg">
<path d="M18.2962 29.5035H9.63672V25.4441C9.63672 23.99 18.2962 23.99 18.2962 25.4441V29.5035Z" fill="#4AE38A"/>
<path d="M9.38595 28.6201H65.6141C70.5224 28.6201 74.5 32.5774 74.5 37.4607V37.4571C74.5 42.3404 70.5224 46.2977 65.6141 46.2977H9.38595C4.47762 46.2977 0.5 42.3404 0.5 37.4571V37.4607C0.5 32.5774 4.47762 28.6201 9.38595 28.6201Z" fill="#1A794C"/>
<path d="M9.34715 34.6338H65.6602C67.2314 34.6338 68.5054 35.9013 68.5054 37.4645C68.5054 39.0277 67.2314 40.2916 65.6602 40.2916H9.34715C7.77592 40.2916 6.50195 39.0241 6.50195 37.4609C6.50195 35.8977 7.77592 34.6338 9.34715 34.6338Z" fill="#10432F"/>
<path d="M65.3694 91.0536V37.0879H9.63672V91.0536C11.2716 91.0536 12.5987 92.3738 12.5987 94.0004H17.822C17.822 92.3738 19.149 91.0536 20.784 91.0536C22.4189 91.0536 23.7459 92.3738 23.7459 94.0004H28.9692C28.9692 92.3738 30.2963 91.0536 31.9312 91.0536C33.5661 91.0536 34.8932 92.3738 34.8932 94.0004H40.1165C40.1165 92.3738 41.4435 91.0536 43.0784 91.0536C44.7134 91.0536 46.0404 92.3738 46.0404 94.0004H51.2637C51.2637 92.3738 52.5908 91.0536 54.2257 91.0536C55.8606 91.0536 57.1877 92.3738 57.1877 94.0004H62.4109C62.4109 92.3738 63.7345 91.0536 65.3694 91.0536Z" fill="#297E4F"/>
<path d="M42.7283 14.3082C42.7283 22.2123 36.2912 28.6165 28.3466 28.6165C20.4019 28.6165 13.9648 22.2123 13.9648 14.3082C13.9648 6.40772 20.4019 0 28.3466 0C36.2912 0 42.7283 6.4042 42.7283 14.3082Z" fill="#1A794C"/>
<path d="M18.4491 3.93262C17.2141 5.1015 16.1808 6.48866 15.4199 8.04835L18.9587 5.42188L18.4527 3.93614L18.4491 3.93262Z" fill="#4AE38A"/>
<path d="M24.904 9.61146L22.8691 16.1107L28.4605 20.0434L33.9456 15.9734L31.748 9.52344L24.904 9.61146Z" fill="#10432F"/>
<path d="M41.4787 20.1455L39.8933 20.1631L38.584 24.3493C39.7801 23.1452 40.7674 21.7298 41.4787 20.1455Z" fill="#10432F"/>
<path d="M39.8479 12.7839L42.6364 12.7487C42.325 9.88638 41.1466 7.22823 39.3347 5.08411L37.6503 6.33396L39.8479 12.7839Z" fill="#10432F"/>
<path d="M31.7048 2.15108L32.2109 0.531548C31.7119 0.390719 31.2058 0.278056 30.6786 0.193558C28.4739 -0.165556 26.3046 -0.0106439 24.291 0.580838L24.8537 2.23558L31.6977 2.15108H31.7048Z" fill="#10432F"/>
<path d="M16.0321 15.8082L14.0469 15.8293C14.3371 18.5332 15.3952 21.0576 17.0372 23.1384L18.2297 22.2547L16.0321 15.8082Z" fill="#4AE38A"/>
<path d="M24.1826 26.4478L23.7402 27.8596C24.4692 28.1025 25.2301 28.2962 26.0192 28.4264C27.9585 28.7433 29.8659 28.6553 31.6636 28.2328L31.0266 26.3633L24.1826 26.4478Z" fill="#4AE38A"/>
<path d="M54.1687 22.2118C54.1687 24.0039 53.4291 25.6234 52.2401 26.7817C51.9534 27.0669 51.642 27.3169 51.3058 27.5387C50.2831 28.2182 49.0552 28.616 47.7317 28.616C45.6225 28.616 43.747 27.6056 42.5756 26.0459C42.3845 25.7994 42.2182 25.5424 42.0731 25.2713C41.5706 24.3595 41.291 23.3208 41.291 22.2118C41.291 21.1028 41.5706 20.0607 42.0731 19.1523C42.2182 18.8812 42.3845 18.6242 42.5756 18.3777C43.7434 16.8181 45.619 15.8076 47.7317 15.8076C49.0552 15.8076 50.2831 16.2055 51.3058 16.885C51.642 17.1068 51.9534 17.3567 52.2401 17.6419C53.4327 18.8002 54.1687 20.4162 54.1687 22.2118Z" fill="#297E4F"/>
<path d="M48.5773 24.3532H48.7507V23.4519H48.2199C48.1491 23.1949 48.0925 22.9343 48.0642 22.6633H48.5632V21.7619H48.0642C48.0925 21.4909 48.1456 21.2303 48.2199 20.9733H48.7507V20.072H48.5773C49.2886 18.7341 50.6511 17.7835 52.2435 17.6427C51.9569 17.3575 51.6455 17.1075 51.3093 16.8857C49.6248 17.3082 48.2411 18.5053 47.5723 20.072H46.8079V20.9733H47.2821C47.222 21.2303 47.183 21.4909 47.1583 21.7619H46.6133V22.6633H47.1583C47.1795 22.9343 47.222 23.1949 47.2821 23.4519H46.8079V24.3532H47.5723C48.2411 25.9199 49.6248 27.117 51.3093 27.5395C51.6455 27.3177 51.9569 27.0677 52.2435 26.7825C50.6546 26.6417 49.2886 25.6911 48.5773 24.3532Z" fill="#10432F"/>
<path d="M44.5938 22.6627V21.7613H44.1373C44.1161 21.4903 44.0701 21.2297 44.0099 20.9727H44.4028V20.0714H43.7198C43.4473 19.4377 43.058 18.8603 42.5767 18.3779C42.3856 18.6244 42.2193 18.8814 42.0742 19.1525C42.3219 19.4271 42.5413 19.7369 42.7183 20.0714H42.4599V20.9727H43.0757C43.1465 21.2297 43.2031 21.4903 43.2314 21.7613H42.651V22.6627H43.2314C43.2031 22.9337 43.15 23.1943 43.0757 23.4513H42.4599V24.3526H42.7183C42.5413 24.6871 42.3255 24.9969 42.0742 25.2715C42.2193 25.5426 42.3856 25.7996 42.5767 26.0461C43.058 25.5637 43.4473 24.9863 43.7198 24.3526H44.4028V23.4513H44.0099C44.0701 23.1943 44.1126 22.9337 44.1373 22.6627H44.5938Z" fill="#10432F"/>
</svg>
