<svg width="56" height="56" viewBox="0 0 56 56" fill="none" xmlns="http://www.w3.org/2000/svg">
<rect width="56" height="56" rx="28" fill="url(#paint0_linear_14658_10478)"/>
<path d="M42.322 26.9738C42.322 28.3789 42.3338 29.7841 42.322 31.1892C42.3288 31.5467 42.2714 31.9024 42.1525 32.2396C40.1088 37.405 36.3644 40.5976 30.9625 41.8057C30.6393 41.8786 30.2708 41.7604 29.9259 41.721C28.9661 41.6126 28.0064 41.3879 27.0525 41.4135C25.9784 41.4451 25.2788 42.1683 24.8847 43.1419C24.461 44.1549 24.6994 45.0791 25.3695 45.8872C26.7135 47.5051 29.9219 47.1819 31.0039 45.3807C31.2447 44.9893 31.616 44.6954 32.0523 44.551C38.2464 42.931 42.523 39.1728 44.8978 33.2211C45.1037 32.8117 45.4552 32.494 45.8831 32.3303C47.8224 31.5893 48.9437 30.0895 48.9812 28.0084C48.9989 26.8969 49.0127 25.7834 48.9812 24.6739C48.9023 22.644 47.5228 20.8959 45.5836 20.5156C44.8938 20.3796 44.6278 20.0386 44.3459 19.4809C40.9681 12.8217 35.5898 9.10091 28.1049 9.06544C20.4977 9.02996 15.0328 12.7547 11.6037 19.5243C11.4066 19.8987 11.0125 20.3126 10.6321 20.417C8.46033 20.9649 7.07095 22.5947 7.0138 24.8315C7 25.7499 7 26.6643 7 27.5906C7.01577 30.7438 8.8604 32.5628 12.0215 32.5175C13.3045 32.5017 13.6494 32.1647 13.6533 30.8798C13.6533 28.5917 13.7459 26.2998 13.6257 24.0176C13.5331 22.2144 14.1204 20.6811 15.0249 19.2208C20.2258 10.8391 31.3842 9.3512 38.5145 16.1838C40.9523 18.5251 42.7358 21.2645 42.3338 24.9143C42.2589 25.5922 42.3239 26.286 42.322 26.9738ZM25.0266 24.9813C25.0266 24.1654 25.0601 23.3475 25.0266 22.5336C25.0216 21.9325 24.7781 21.3581 24.3495 20.9365C23.921 20.515 23.3425 20.281 22.7415 20.286C22.1404 20.2909 21.5659 20.5345 21.1444 20.963C20.7229 21.3916 20.4888 21.97 20.4938 22.5711C20.4636 24.1674 20.4636 25.7657 20.4938 27.3659C20.4857 27.967 20.7167 28.5467 21.136 28.9774C21.5553 29.4082 22.1286 29.6548 22.7296 29.6629C23.3307 29.671 23.9104 29.4399 24.3412 29.0207C24.7719 28.6014 25.0185 28.0281 25.0266 27.427C25.066 26.6151 25.0266 25.7972 25.0266 24.9813ZM31.8907 24.9025C31.8907 25.7184 31.8671 26.5323 31.8907 27.3462C31.9341 28.6489 32.8761 29.5673 34.1315 29.5614C34.4257 29.568 34.7183 29.5153 34.9917 29.4064C35.2652 29.2975 35.5139 29.1347 35.723 28.9276C35.9321 28.7205 36.0974 28.4734 36.2089 28.201C36.3205 27.9286 36.376 27.6366 36.3722 27.3423C36.4025 25.746 36.4025 24.1496 36.3722 22.5533C36.3758 22.2591 36.3199 21.9672 36.2077 21.6952C36.0956 21.4232 35.9296 21.1767 35.7197 20.9705C35.5098 20.7643 35.2604 20.6027 34.9865 20.4954C34.7125 20.3881 34.4197 20.3373 34.1256 20.3461C32.8525 20.3461 31.938 21.2349 31.8888 22.5573C31.8671 23.3397 31.8907 24.1221 31.8907 24.9025Z" fill="black"/>
<path d="M42.3239 26.9738C42.3239 26.286 42.2589 25.5942 42.3239 24.9143C42.7181 21.2645 40.9444 18.5212 38.5046 16.1838C31.3842 9.3512 20.2258 10.8391 15.0249 19.2287C14.1204 20.689 13.5331 22.2222 13.6257 24.0255C13.7459 26.3076 13.6592 28.5996 13.6533 30.8877C13.6533 32.1726 13.3045 32.5096 12.0215 32.5254C8.8604 32.5628 7.01577 30.7438 7 27.5906C7 26.6643 7 25.7499 7.0138 24.8315C7.07095 22.5947 8.46033 20.9649 10.6321 20.417C11.0125 20.3224 11.4204 19.8987 11.6037 19.5243C15.0328 12.7547 20.4977 9.02996 28.1049 9.06544C35.5938 9.10091 40.9681 12.8217 44.3223 19.4809C44.6041 20.0386 44.8702 20.3796 45.5599 20.5156C47.4992 20.89 48.8787 22.644 48.9575 24.6739C48.9989 25.7834 48.9851 26.8969 48.9575 28.0084C48.9201 30.0895 47.7987 31.5893 45.8595 32.3303C45.4315 32.494 45.0801 32.8117 44.8741 33.2211C42.4993 39.1728 38.2228 42.931 32.0287 44.551C31.5924 44.6954 31.2211 44.9893 30.9802 45.3807C29.8983 47.1819 26.6899 47.5051 25.3458 45.8872C24.6758 45.0791 24.4373 44.1549 24.861 43.1419C25.267 42.1683 25.9646 41.4451 27.0289 41.4135C27.9827 41.3879 28.9425 41.6106 29.9022 41.721C30.2471 41.7604 30.6156 41.8786 30.9388 41.8057C36.3644 40.5976 40.1088 37.405 42.1446 32.2396C42.2635 31.9024 42.3209 31.5467 42.3141 31.1892C42.3338 29.7841 42.322 28.3789 42.3239 26.9738Z" fill="white"/>
<path d="M25.0281 24.9813C25.0281 25.7972 25.0675 26.6151 25.0281 27.427C25.02 28.0281 24.7734 28.6013 24.3427 29.0206C23.9119 29.4399 23.3322 29.671 22.7312 29.6629C22.1301 29.6547 21.5568 29.4082 21.1375 28.9774C20.7182 28.5467 20.4872 27.967 20.4953 27.3659C20.4625 25.767 20.4625 24.1687 20.4953 22.5711C20.4904 21.97 20.7244 21.3916 21.1459 20.963C21.5674 20.5345 22.1419 20.2909 22.743 20.286C23.3441 20.281 23.9225 20.515 24.351 20.9365C24.7796 21.3581 25.0231 21.9325 25.0281 22.5336C25.0695 23.3475 25.0281 24.1654 25.0281 24.9813Z" fill="white"/>
<path d="M31.8894 24.9025C31.8894 24.1142 31.8658 23.3397 31.8894 22.5573C31.9387 21.2349 32.8531 20.3461 34.1262 20.3461C34.4203 20.3373 34.7132 20.3881 34.9871 20.4954C35.2611 20.6027 35.5105 20.7643 35.7204 20.9705C35.9302 21.1767 36.0962 21.4232 36.2084 21.6952C36.3205 21.9672 36.3765 22.2591 36.3729 22.5533C36.3979 24.1496 36.3979 25.746 36.3729 27.3423C36.3767 27.6364 36.3212 27.9283 36.2098 28.2005C36.0983 28.4727 35.9333 28.7198 35.7243 28.9268C35.5154 29.1339 35.267 29.2968 34.9938 29.4058C34.7206 29.5148 34.4282 29.5677 34.1341 29.5613C32.8827 29.5613 31.9367 28.6489 31.8934 27.3462C31.8658 26.5323 31.8894 25.7184 31.8894 24.9025Z" fill="white"/>
<defs>
<linearGradient id="paint0_linear_14658_10478" x1="13.5" y1="4" x2="45" y2="53.5" gradientUnits="userSpaceOnUse">
<stop stop-color="#5BD81E"/>
<stop offset="1" stop-color="#289100"/>
</linearGradient>
</defs>
</svg>
