<svg width="56" height="56" viewBox="0 0 56 56" fill="none" xmlns="http://www.w3.org/2000/svg">
<path fill-rule="evenodd" clip-rule="evenodd" d="M9.84269 45.6147H46.0579C48.9656 45.6147 51.4183 43.4677 51.8093 40.5955L55.6626 11.6604C56.0892 8.43269 52.2359 6.44918 49.8471 8.66019L43.3705 14.6534C41.9202 16.0042 39.631 15.862 38.3513 14.3548L30.6092 5.22637C29.2157 3.59121 26.6848 3.59121 25.2985 5.22637L17.5564 14.3548C16.2767 15.862 13.9875 15.9971 12.5371 14.6534L6.06051 8.66019C3.67176 6.44918 -0.181525 8.4398 0.245037 11.6604L4.09832 40.5955C4.48223 43.4677 6.93496 45.6147 9.84269 45.6147ZM34.7188 16.6877C32.9664 15.1258 30.6427 14.3639 27.7475 14.3639C24.8143 14.3639 22.4905 15.1258 20.7763 16.6877C19.2144 18.0591 18.4525 19.7733 18.4525 21.8304C18.4525 23.2018 18.7572 24.3827 19.3668 25.3351C20.0144 26.3255 21.0048 27.1255 22.3762 27.6588V27.735C21.081 28.0779 20.0144 28.8398 19.1001 30.0207C18.0335 31.3159 17.5382 32.8016 17.5382 34.4777C17.5382 36.9158 18.4144 38.8586 20.2048 40.3824C21.9572 41.868 24.4714 42.6299 27.7475 42.6299C30.9855 42.6299 33.4998 41.868 35.2902 40.3824C37.0425 38.8586 37.9568 36.9158 37.9568 34.4777C37.9568 32.8016 37.4235 31.3159 36.3949 30.0207C35.4807 28.8398 34.3759 28.0779 33.1188 27.735V27.6588C34.4521 27.1255 35.4426 26.3255 36.1283 25.3351C36.7378 24.3827 37.0425 23.2018 37.0425 21.8304C37.0425 19.7733 36.2426 18.0591 34.7188 16.6877ZM23.9 19.2019C24.8523 18.3257 26.1476 17.9067 27.7475 17.9067C29.3475 17.9067 30.6046 18.3257 31.595 19.2019C32.4331 19.9638 32.8522 20.878 32.8522 21.9828C32.8522 23.2399 32.5093 24.2303 31.8236 24.9541C30.9855 25.8303 29.6141 26.2874 27.7475 26.2874C25.8428 26.2874 24.5095 25.8303 23.6714 24.9541C22.9857 24.2303 22.6429 23.2399 22.6429 21.9828C22.6429 20.878 23.0619 19.9638 23.9 19.2019ZM23.4048 30.973C24.3952 30.0588 25.8428 29.6017 27.7475 29.6017C29.6522 29.6017 31.0998 30.0588 32.1284 31.0111C33.0426 31.8492 33.5379 33.0301 33.5379 34.4777C33.5379 35.8491 33.0426 36.9158 32.0903 37.7538C31.0236 38.5919 29.576 39.0491 27.7475 39.0491C25.8809 39.0491 24.4714 38.63 23.481 37.7919C22.4524 36.9539 21.9572 35.8491 21.9572 34.4777C21.9572 33.0301 22.4143 31.8492 23.4048 30.973Z" fill="currentColor"/>
<rect x="7" y="48" width="42" height="5" rx="2.5" fill="currentColor"/>
</svg>
