<svg xmlns="http://www.w3.org/2000/svg" width="15" height="14" viewBox="0 0 15 14" fill="none">
<path fill-rule="evenodd" clip-rule="evenodd" d="M7.17469 0.195312C11.0218 0.195312 14.1513 2.76559 14.1513 5.92501C14.1513 7.18943 13.6673 8.32818 12.6563 9.45027C11.1926 11.1553 7.91944 13.2319 7.17469 13.5495C6.45113 13.8582 6.53468 13.3757 6.56782 13.1846C6.56878 13.1791 6.56965 13.1738 6.57052 13.1689C6.58814 13.0627 6.67002 12.5645 6.67002 12.5645C6.69357 12.3843 6.7179 12.1046 6.64753 11.9261C6.5693 11.7295 6.26006 11.6275 6.03289 11.5779C2.68022 11.1294 0.198242 8.75741 0.198242 5.92501C0.198242 2.76559 3.32816 0.195312 7.17469 0.195312ZM3.24802 6.97098H4.57775C4.65275 6.97098 4.71336 7.03246 4.71336 7.10833V7.60296C4.71336 7.67884 4.65275 7.74049 4.57775 7.74049H2.62266C2.54749 7.74049 2.48696 7.67761 2.48696 7.60296V4.53057C2.48696 4.45479 2.54775 4.39322 2.62283 4.39322H3.11233C3.18724 4.39322 3.24802 4.45479 3.24802 4.53057V6.97098ZM5.75723 4.3934H5.26791C5.19282 4.3934 5.13187 4.45488 5.13187 4.53049V7.6034C5.13187 7.6791 5.19282 7.74049 5.26791 7.74049H5.75723C5.83223 7.74049 5.8931 7.6791 5.8931 7.6034V4.53049C5.8931 4.45488 5.83223 4.3934 5.75723 4.3934ZM9.1256 4.3934H8.63619C8.5612 4.3934 8.50033 4.45488 8.50033 4.53049V6.35608L7.10728 4.45435C7.08155 4.41529 7.03978 4.39593 6.99417 4.3934H6.50494C6.42994 4.3934 6.3689 4.45488 6.3689 4.53049V7.6034C6.3689 7.6791 6.42994 7.74049 6.50494 7.74049H6.99417C7.06934 7.74049 7.13013 7.6791 7.13013 7.6034V5.77833L8.525 7.6825C8.55003 7.71834 8.5925 7.74049 8.63619 7.74049H9.1256C9.20077 7.74049 9.26147 7.6791 9.26147 7.6034V4.53049C9.26147 4.45488 9.20077 4.3934 9.1256 4.3934ZM11.8281 5.16274C11.9031 5.16274 11.9637 5.10134 11.9637 5.02539V4.53075C11.9637 4.45488 11.9031 4.39322 11.8281 4.39322H9.87314C9.79805 4.39322 9.73727 4.45601 9.73727 4.53057V7.60314C9.73727 7.67753 9.79788 7.74049 9.87288 7.74049H11.8281C11.9031 7.74049 11.9637 7.67884 11.9637 7.60314V7.10833C11.9637 7.03263 11.9031 6.97098 11.8281 6.97098H10.4985V6.45157H11.8281C11.9031 6.45157 11.9637 6.39009 11.9637 6.31422V5.81949C11.9637 5.74371 11.9031 5.68206 11.8281 5.68206H10.4985V5.16274H11.8281Z" fill="#B3BEC1"/>
</svg>