<svg width="14" height="14" viewBox="0 0 14 14" fill="none" xmlns="http://www.w3.org/2000/svg">
<path d="M9.18624 6.73516C10.1894 6.06021 10.8476 4.95723 10.8476 3.70403C10.8476 1.65653 9.10793 0 6.95132 0C4.79682 0 3.05503 1.65653 3.05503 3.69374C3.05503 4.95723 3.72381 6.07873 4.73757 6.7434C2.70159 7.65088 1 10.0071 1 11.6718C1 14.7667 13 14.7667 13 11.7274C13.0021 9.78276 11.2518 7.61384 9.18624 6.73516ZM6.18095 4.81524H7.8254C7.88677 4.81524 7.93968 4.86669 7.93333 4.92636C7.87619 5.37702 7.48254 5.72684 7.00423 5.72684C6.52593 5.72684 6.13016 5.37702 6.07513 4.92636C6.06455 4.86669 6.11958 4.81524 6.18095 4.81524ZM8.4709 11.1779H7.60529V12.0196C7.60529 12.3427 7.33651 12.604 7.00423 12.604C6.67196 12.604 6.40317 12.3427 6.40317 12.0196V11.1779H5.53545C5.20317 11.1779 4.93439 10.9166 4.93439 10.5935C4.93439 10.2705 5.20317 10.0091 5.53545 10.0091H6.40106V9.16748C6.40106 8.8444 6.66984 8.58306 7.00211 8.58306C7.33439 8.58306 7.60317 8.8444 7.60317 9.16748V10.0091H8.46878C8.80106 10.0091 9.06984 10.2705 9.06984 10.5935C9.07196 10.9166 8.80317 11.1779 8.4709 11.1779Z" fill="currentColor"/>
</svg>
