<svg width="16" height="17" viewBox="0 0 16 17" fill="none" xmlns="http://www.w3.org/2000/svg">
<path d="M13.568 2.9348C12.0808 1.44852 10.1033 0.629974 8 0.629974C5.89667 0.629974 3.91915 1.44853 2.43209 2.93482C0.944932 4.42103 0.125 6.39737 0.125 8.49945C0.125 10.6007 0.943947 12.578 2.43209 14.0643C3.92021 15.5505 5.89667 16.37 8 16.37C10.1033 16.37 12.0808 15.5516 13.5689 14.0643C15.055 12.578 15.875 10.6007 15.875 8.49945C15.875 6.39737 15.0551 4.42103 13.568 2.9348ZM12.8998 13.3975L9.81367 10.3122C9.48308 10.6416 9.08466 10.8632 8.66417 10.975L9.79473 15.1923C9.21648 15.3459 8.61423 15.4259 7.99998 15.4259C7.38579 15.4259 6.78359 15.3459 6.20533 15.1923L7.33585 10.975C6.91541 10.8632 6.5169 10.6416 6.18738 10.3122L3.10026 13.3975C2.20746 12.5072 1.61011 11.4301 1.30651 10.2912L5.52219 9.16329C5.40631 8.72815 5.40631 8.26999 5.52219 7.83674L1.30651 6.70786C1.61011 5.56901 2.20746 4.49294 3.09924 3.60156L6.18639 6.68682C6.51697 6.35747 6.91546 6.13592 7.33592 6.02409L6.2054 1.80678C6.78365 1.65313 7.38586 1.57325 8.00005 1.57325C8.6143 1.57325 9.21651 1.65314 9.7948 1.80678L8.66424 6.02409C9.08473 6.13683 9.48315 6.35749 9.81375 6.68785L12.8998 3.60245C13.7757 4.47688 14.386 5.54297 14.6975 6.70686L10.4769 7.83671C10.5927 8.27101 10.5927 8.72917 10.4769 9.16326L14.6975 10.2932C14.387 11.4571 13.7756 12.5232 12.8998 13.3975ZM8.41644 6.37048L8 4.34015L7.61448 6.36445C7.19406 6.4403 6.79052 6.63992 6.46601 6.96538C5.61804 7.81275 5.61804 9.1863 6.46601 10.0337C7.31391 10.8802 8.68822 10.8802 9.53608 10.0337C10.384 9.1863 10.384 7.81275 9.53608 6.96538C9.21744 6.64885 8.82598 6.45027 8.41644 6.37048Z" fill="currentColor"/>
</svg>
