<svg width="56" height="56" viewBox="0 0 56 56" fill="none" xmlns="http://www.w3.org/2000/svg">
<path d="M53.2279 42.308C51.7439 43.204 49.7559 43.904 47.2359 44.408C44.7159 44.912 41.9719 45.192 38.9759 45.192C36.0079 45.192 33.2639 44.94 30.7159 44.408C28.1959 43.876 26.1799 43.176 24.7239 42.308C23.2399 41.412 22.5119 40.46 22.5119 39.424V35.588C24.2199 36.848 26.5439 37.8 29.4839 38.444C32.4239 39.088 35.5879 39.424 38.9759 39.424C42.3639 39.424 45.5279 39.088 48.4679 38.444C51.4079 37.8 53.7319 36.848 55.4399 35.588V39.424C55.4119 40.488 54.6839 41.44 53.2279 42.308ZM53.2279 33.684C51.7439 34.58 49.7559 35.28 47.2359 35.784C44.7159 36.288 41.9719 36.568 38.9759 36.568C36.0079 36.568 33.2639 36.316 30.7159 35.784C28.1959 35.252 26.1799 34.552 24.7239 33.684C23.2399 32.788 22.5119 31.836 22.5119 30.8V26.964C24.2199 28.224 26.5439 29.176 29.4839 29.82C32.4239 30.464 35.5879 30.8 38.9759 30.8C42.3639 30.8 45.5279 30.464 48.4679 29.82C51.4079 29.176 53.7319 28.224 55.4399 26.964V30.8C55.4119 31.836 54.6839 32.788 53.2279 33.684ZM53.2279 25.032C51.7439 25.928 49.7559 26.628 47.2359 27.132C44.7159 27.664 41.9719 27.916 38.9759 27.916C36.0079 27.916 33.2639 27.664 30.7159 27.132C28.1959 26.628 26.1799 25.928 24.7239 25.032C23.2399 24.136 22.5119 23.184 22.5119 22.148V19.264C22.5119 18.228 23.2399 17.276 24.7239 16.38C26.2079 15.484 28.1959 14.784 30.7159 14.28C33.2359 13.776 36.0079 13.496 38.9759 13.496C41.9439 13.496 44.6879 13.748 47.2359 14.28C49.7559 14.812 51.7719 15.512 53.2279 16.38C54.7119 17.276 55.4399 18.228 55.4399 19.264V22.148C55.4119 23.184 54.6839 24.136 53.2279 25.032ZM19.4879 18.508C16.1279 18.48 13.0199 18.2 10.1639 17.64C7.22389 17.052 4.87189 16.268 3.16389 15.26C1.42789 14.252 0.587891 13.16 0.587891 11.984V8.70801C0.587891 7.53201 1.45589 6.44001 3.16389 5.43201C4.87189 4.42401 7.22389 3.64001 10.1639 3.05201C13.1039 2.46401 16.3239 2.15601 19.7959 2.15601C23.2679 2.15601 26.4599 2.46401 29.4279 3.05201C32.3679 3.64001 34.7199 4.45201 36.4279 5.43201C38.1359 6.44001 39.0039 7.53201 39.0039 8.70801V9.99601L32.7599 10.5C27.8599 10.5 19.2639 13.496 19.4879 18.508ZM19.4039 21.784V28.336C16.0999 28.308 12.9919 28.028 10.1639 27.468C7.22389 26.88 4.87189 26.068 3.16389 25.088C1.42789 24.08 0.587891 22.988 0.587891 21.812V17.444C2.57589 18.872 5.26389 19.964 8.70789 20.692C12.0119 21.42 15.5959 21.784 19.4039 21.784ZM19.4039 31.64V38.192C16.0999 38.164 12.9919 37.884 10.1639 37.324C7.22389 36.736 4.87189 35.924 3.16389 34.916C1.45589 33.908 0.587891 32.816 0.587891 31.64V27.272C2.57589 28.7 5.26389 29.792 8.70789 30.52C12.0119 31.248 15.5959 31.612 19.4039 31.64ZM19.4039 41.44V47.6C19.4039 47.74 19.4319 47.88 19.4599 48.02C16.1279 47.992 13.0199 47.712 10.1639 47.152C7.22389 46.564 4.87189 45.752 3.16389 44.772C1.45589 43.764 0.587891 42.672 0.587891 41.496V37.156C2.57589 38.584 5.26389 39.676 8.70789 40.404C12.0119 41.076 15.5959 41.44 19.4039 41.44ZM38.9759 48.076C42.3639 48.076 45.5279 47.74 48.4679 47.096C51.4079 46.452 53.7319 45.5 55.4399 44.24V48.076C55.4399 49.112 54.7119 50.064 53.2279 50.96C51.7439 51.856 49.7559 52.556 47.2359 53.06C44.7159 53.564 41.9719 53.844 38.9759 53.844C36.0079 53.844 33.2639 53.592 30.7159 53.06C28.1959 52.528 26.1799 51.828 24.7239 50.96C23.2399 50.064 22.5119 49.112 22.5119 48.076V44.24C24.2199 45.5 26.5439 46.452 29.4839 47.096C32.4239 47.768 35.5879 48.076 38.9759 48.076Z" fill="currentColor"/>
</svg>
