<svg fill="#00e701" viewBox="0 0 64 64" class="svg-icon" style=""> <title></title> <path d="M17.455 25.818H13.09V21.28c0-4.713 3.84-8.553 8.553-8.553h20.712c3.2 0 5.935 1.775 7.419 4.364h9.338C57.222 9.585 50.443 4 42.356 4H21.644c-9.513 0-17.28 7.738-17.28 17.28v4.538H0l8.727 14.546 8.728-14.546ZM64 40.364l-8.727-14.546-8.728 14.546h4.364v1.629c0 4.712-3.84 8.552-8.553 8.552H21.644c-3.2 0-5.935-1.774-7.419-4.363H4.887c1.891 7.505 8.67 13.09 16.757 13.09h20.712c9.513 0 17.28-7.737 17.28-17.28v-1.628H64Z"></path><path d="M26.618 17.09 16.96 43.274h8.61l1.02-3.375h10.035l1.019 3.375h8.61L36.596 17.09h-9.978Zm2.007 16.205 2.997-9.222 2.996 9.222h-5.993Z"></path></svg>
