<svg width="56" height="56" viewBox="0 0 56 56" fill="none" xmlns="http://www.w3.org/2000/svg">
<g clip-path="url(#clip0_19768_48)">
<g clip-path="url(#clip1_19768_48)">
<path fill-rule="evenodd" clip-rule="evenodd" d="M9.70896 5.72131C9.70896 4.38147 10.7964 3.29407 12.1362 3.29407C13.476 3.29407 14.5634 4.38147 14.5634 5.72131H29.1269C29.1269 4.38147 30.2143 3.29407 31.5541 3.29407C32.894 3.29407 33.9814 4.38147 33.9814 5.72131C39.3431 5.72131 43.6903 10.0685 43.6903 15.4303V16.9093C42.3488 16.6218 40.9568 16.4705 39.5294 16.4705C36.9177 16.4705 34.4243 16.9771 32.1421 17.8973L0 18.0081V15.4303C0 10.0685 4.34719 5.72131 9.70896 5.72131ZM25.1152 22.712H0V39.7027C0 45.0645 4.34719 49.4117 9.70896 49.4117H24.7974C21.6678 45.915 19.7647 41.2973 19.7647 36.2352C19.7647 31.004 21.797 26.2474 25.1152 22.712Z" fill="currentColor"/>
<path fill-rule="evenodd" clip-rule="evenodd" d="M39.5294 52.7058C48.6259 52.7058 56 45.3317 56 36.2352C56 27.1388 48.6259 19.7646 39.5294 19.7646C30.433 19.7646 23.0588 27.1388 23.0588 36.2352C23.0588 45.3317 30.433 52.7058 39.5294 52.7058ZM34.9583 33.8149C34.3192 33.443 33.7938 33.0172 33.4381 32.5831C33.2459 32.3489 33.0945 32.1367 33.0128 32.0162C32.9677 31.9504 32.9427 31.8628 32.9428 31.7718V30.6102C32.9729 29.3431 33.7282 28.2155 35.0714 27.435C36.272 26.7371 37.8552 26.3528 39.5287 26.3528C41.2021 26.3528 42.7853 26.7371 43.9891 27.435C45.3351 28.2172 46.0911 29.3475 46.1177 30.6177V31.7718C46.1178 31.8629 46.0926 31.9504 46.0474 32.0162C45.9644 32.1367 45.8127 32.3489 45.6208 32.5831C45.2651 33.0172 44.7397 33.443 44.1022 33.8149C42.7568 34.5984 41.0476 35.0665 39.5303 35.0665C38.0129 35.0665 36.3037 34.5984 34.9583 33.8149ZM39.5287 43.5168C41.0932 43.5168 42.8857 43.0293 44.3879 42.1412C45.89 41.2536 46.1161 40.5217 46.1161 40.5217V42.2069C46.1161 43.5812 45.5461 44.1322 43.9841 45.0459C42.7866 45.7465 41.2015 46.1175 39.5287 46.1175C37.8558 46.1175 36.2707 45.7465 35.0733 45.0459C33.5113 44.1322 32.9412 43.5812 32.9412 42.2069V40.5217C32.9412 40.5217 33.1626 41.2642 34.6692 42.1412C36.1757 43.0183 37.9642 43.5168 39.5287 43.5168ZM44.3879 34.7312C42.9808 35.5734 41.0932 36.1068 39.5287 36.1068C37.9642 36.1068 36.0807 35.5655 34.6695 34.7312C33.2583 33.897 32.9412 33.1117 32.9412 33.1117V35.2011C32.9438 35.5328 33.1154 35.9158 33.4381 36.3097C33.7941 36.7439 34.3192 37.17 34.9583 37.5415C36.3021 38.3255 38.0114 38.794 39.5287 38.794C41.046 38.794 42.7553 38.3264 44.1006 37.5424C44.7381 37.1709 45.2636 36.7447 45.6192 36.3106C45.9438 35.9136 46.1158 35.5293 46.1161 35.1958V33.1117C46.1161 33.1117 45.7953 33.889 44.3879 34.7312ZM39.5287 39.8334C41.0932 39.8334 42.8857 39.3234 44.3879 38.4578C45.8903 37.5922 46.1177 36.8383 46.1177 36.8383V38.8844C46.1152 39.2162 45.9435 39.5991 45.6208 39.9931C45.2651 40.4272 44.7397 40.853 44.1022 41.2249C42.7568 42.0089 41.0479 42.4765 39.5303 42.4765C38.0126 42.4765 36.3037 42.0089 34.9583 41.2249C34.3189 40.8534 33.7938 40.4272 33.4381 39.9931C33.1135 39.5969 32.9412 39.2118 32.9412 38.8787V36.8383C32.9412 36.8383 33.2899 37.6469 34.6695 38.4578C36.0491 39.2687 37.9642 39.8334 39.5287 39.8334Z" fill="currentColor"/>
</g>
</g>
<defs>
<clipPath id="clip0_19768_48">
<rect width="56" height="56" fill="currentColor"/>
</clipPath>
<clipPath id="clip1_19768_48">
<rect width="56" height="56" fill="currentColor"/>
</clipPath>
</defs>
</svg>
