<svg width="18" height="18" viewBox="0 0 18 18" fill="none" xmlns="http://www.w3.org/2000/svg">
<g clip-path="url(#clip0_14878_2011)">
<path d="M14.5254 3.00595C14.788 3.00595 14.99 2.95442 15.1307 2.85219C15.2672 2.75571 15.3705 2.61947 15.4267 2.46206C15.4832 2.30421 15.5118 2.12755 15.5118 1.93044C15.5118 1.73415 15.502 1.5485 15.4832 1.37429C15.4424 1.18911 15.4002 1.00426 15.3564 0.819771C15.3157 0.637123 15.239 0.464442 15.1307 0.311872C15.0314 0.172751 14.8868 0.072437 14.7217 0.0280693C14.5532 -0.0185495 14.3471 0.0117119 14.1026 0.122125C13.7856 0.281023 13.466 0.434803 13.1441 0.583406C12.7875 0.748616 12.435 0.914645 12.0874 1.07986C11.7692 1.23116 11.4494 1.38083 11.1304 1.52805C10.9139 1.62409 10.7021 1.73054 10.4958 1.84702C10.2889 1.95743 10.1392 2.08012 10.0443 2.21425C9.95107 2.34756 9.91345 2.47351 9.93226 2.5921C9.95107 2.70988 10.0263 2.80884 10.158 2.88736C10.2889 2.96587 10.4868 3.00595 10.7493 3.00595H14.5246H14.5254ZM7.24391 3.00595H3.46779C3.20443 3.00595 3.0016 2.95442 2.86174 2.85219C2.72522 2.75575 2.62182 2.6195 2.56567 2.46206C2.50717 2.29103 2.47867 2.11118 2.48143 1.93044C2.48143 1.73415 2.48961 1.5485 2.50924 1.37429C2.54686 1.20172 2.58939 1.01688 2.63601 0.819771C2.68263 0.623482 2.75869 0.453364 2.86174 0.311872C2.96131 0.172646 3.10615 0.0723287 3.2715 0.0280693C3.43998 -0.0185495 3.64608 0.0117119 3.89063 0.122125C4.17279 0.264435 4.49176 0.418195 4.84917 0.583406C5.20577 0.748616 5.55827 0.914645 5.90587 1.07986C6.25265 1.24507 6.57243 1.39474 6.86278 1.52805C7.15476 1.663 7.36577 1.76851 7.49745 1.84702C7.70437 1.95743 7.85486 2.08012 7.94892 2.21425C8.04215 2.34756 8.07978 2.47351 8.06097 2.5921C8.04215 2.70988 7.96773 2.80884 7.83605 2.88736C7.70437 2.96587 7.50726 3.00595 7.24391 3.00595ZM1.1851 4.20495C0.689468 4.20495 0.367225 4.27447 0.220826 4.41433C0.0736087 4.55337 0 4.77501 0 5.07926V6.82951C0 7.16075 0.0817874 7.40611 0.243726 7.5656C0.406483 7.72426 0.727908 7.8036 1.20882 7.8036H8.06587V4.20495H1.18592H1.1851ZM16.8425 4.20495C17.2899 4.20495 17.5925 4.28837 17.7528 4.45359C17.9131 4.61961 17.9932 4.85434 17.9932 5.15941V6.86877C17.9932 7.18774 17.9196 7.42329 17.7732 7.57541C17.6268 7.72754 17.3381 7.80442 16.9063 7.80442H9.92735V4.20577H16.8425V4.20495ZM17.3725 9.00342V15.6037C17.3569 16.3504 17.2923 16.9204 16.8531 17.3523C16.4131 17.7841 15.7146 18 14.7561 18H9.92735V9.00342H17.3725ZM0.621584 9.00342V15.6037C0.637124 16.3504 0.701736 16.9204 1.14093 17.3523C1.58095 17.7841 2.27941 18 3.23796 18H8.06669V9.00342H0.621584Z" fill="currentColor"/>
</g>
<defs>
<clipPath id="clip0_14878_2011">
<rect width="18" height="18" fill="white"/>
</clipPath>
</defs>
</svg>
