<svg width="56" height="56" viewBox="0 0 56 56" fill="none" xmlns="http://www.w3.org/2000/svg">
<g clip-path="url(#clip0_21939_720)">
<path d="M52.6094 17.1662L45.0954 24.6802C43.217 16.5401 35.703 10.2785 26.9368 10.2785C16.6051 10.2785 8.15198 18.7316 8.15198 29.0633C8.15198 39.3949 16.6051 47.8481 26.9368 47.8481C36.9554 47.8481 45.4085 40.0211 45.7216 30.0025L51.357 24.3671C51.6701 25.9325 51.9832 27.4979 51.9832 29.3764C51.9832 43.1519 40.7123 54.4228 26.9368 54.4228C13.1613 54.4228 1.89038 43.1519 1.89038 29.3764C1.89038 15.6008 13.1613 4.32996 26.9368 4.32996C35.0769 4.32996 42.5908 8.4 46.9739 14.3485L47.6001 13.4093H56.3663L52.6094 17.1662Z" fill="currentColor"/>
<g clip-path="url(#clip1_21939_720)">
<path d="M26.9366 12.7595C17.9337 12.7595 10.6328 20.0604 10.6328 29.0633C10.6328 38.0663 17.9337 45.3671 26.9366 45.3671C35.9396 45.3671 43.2404 38.0663 43.2404 29.0633C43.2404 20.0604 35.9396 12.7595 26.9366 12.7595ZM27.7485 36.9674L27.7551 38.1217C27.7551 38.2815 27.6246 38.4152 27.4649 38.4152H26.4312C26.3542 38.4148 26.2805 38.3841 26.2259 38.3298C26.1713 38.2755 26.1402 38.202 26.1394 38.125V36.9837C22.9079 36.7424 21.3868 34.9001 21.2238 32.8996C21.2204 32.8594 21.2254 32.819 21.2384 32.7808C21.2515 32.7426 21.2723 32.7076 21.2995 32.6778C21.3268 32.6481 21.3599 32.6244 21.3968 32.6081C21.4338 32.5918 21.4736 32.5834 21.514 32.5833H23.1949C23.3367 32.5833 23.4606 32.6844 23.4835 32.823C23.6693 33.9757 24.5677 34.8381 26.1801 35.0533V29.8622L25.2801 29.634C23.3775 29.1774 21.5645 27.9922 21.5645 25.5319C21.5645 22.8777 23.5813 21.4511 26.1573 21.2V19.9984C26.1577 19.9211 26.1886 19.8472 26.2432 19.7925C26.2979 19.7379 26.3719 19.707 26.4491 19.7066H27.4714C27.5486 19.707 27.6226 19.7379 27.6773 19.7925C27.7319 19.8472 27.7628 19.9211 27.7632 19.9984V21.1886C30.2561 21.4397 32.1261 22.8956 32.3446 25.1618C32.349 25.2026 32.3446 25.2438 32.3319 25.2828C32.3192 25.3218 32.2984 25.3576 32.2708 25.388C32.2432 25.4183 32.2096 25.4425 32.172 25.4589C32.1344 25.4752 32.0937 25.4835 32.0527 25.483H30.4191C30.349 25.4829 30.2814 25.4574 30.2286 25.4112C30.1759 25.3651 30.1416 25.3014 30.1322 25.2319C29.9854 24.1689 29.1344 23.3032 27.7485 23.1124V28.0003L28.673 28.2155C31.0305 28.7976 32.6348 29.9258 32.6348 32.4512C32.6348 35.1903 30.5968 36.7196 27.7485 36.9674ZM23.8291 25.3624C23.8291 26.2868 24.3997 27.0041 25.6307 27.4476C25.8019 27.5161 25.9731 27.5715 26.1752 27.6302V23.1173C24.8334 23.2885 23.8275 24.0417 23.8275 25.3624H23.8291ZM28.0681 30.2828C27.9607 30.2591 27.8542 30.2319 27.7485 30.2013V35.068C29.2974 34.9294 30.3686 34.0784 30.3686 32.6518C30.3686 31.535 29.7898 30.8062 28.0697 30.2828H28.0681Z" fill="currentColor"/>
</g>
</g>
<defs>
<clipPath id="clip0_21939_720">
<rect width="56" height="56" fill="currentColor"/>
</clipPath>
<clipPath id="clip1_21939_720">
<rect width="32.6076" height="32.6076" fill="currentColor" transform="translate(10.6328 12.7595)"/>
</clipPath>
</defs>
</svg>
