<svg width="16" height="17" viewBox="0 0 16 17" fill="none" xmlns="http://www.w3.org/2000/svg">
<g clip-path="url(#clip0_1026_15383)">
<path d="M3.4917 1H14.4917V8C14.4917 8 11.042 10.8166 8.9917 11.5C6.94145 12.1834 3.9917 11.5 3.9917 11.5L3.4917 1Z" fill="white"/>
<path d="M7.71391 3.06259H8.85724V6.49126H7.71324L7.71391 3.06259ZM10.8572 3.06259H11.9999V6.49126H10.8572V3.06259ZM3.99991 -0.0800781L1.14258 2.77726V13.0626H4.57124V15.9199L7.42858 13.0626H9.71391L14.8572 7.91992V-0.0800781H3.99991ZM13.7139 7.34859L11.4286 9.63392H9.14258L7.14258 11.6339V9.63392H4.57124V1.06259H13.7139V7.34859Z" fill="#9146FF"/>
</g>
<defs>
<clipPath id="clip0_1026_15383">
<rect width="16" height="16" fill="white" transform="translate(0 0.419922)"/>
</clipPath>
</defs>
</svg>
