<svg width="25" height="21" viewBox="0 0 25 21" fill="none" xmlns="http://www.w3.org/2000/svg">
<path d="M5.78599 4.91288C5.78599 5.55805 5.91384 6.19691 6.16223 6.79296C6.41062 7.38902 6.7747 7.93061 7.23367 8.38682C7.69264 8.84302 8.23752 9.2049 8.8372 9.4518C9.43687 9.69869 10.0796 9.82577 10.7287 9.82577C11.3778 9.82577 12.0205 9.69869 12.6202 9.4518C13.2198 9.2049 13.7647 8.84302 14.2237 8.38682C14.6827 7.93061 15.0467 7.38902 15.2951 6.79296C15.5435 6.19691 15.6714 5.55805 15.6714 4.91288C15.6714 3.60991 15.1506 2.36029 14.2237 1.43895C13.2968 0.517606 12.0396 0 10.7287 0C9.4178 0 8.16061 0.517606 7.23367 1.43895C6.30674 2.36029 5.78599 3.60991 5.78599 4.91288Z" fill="#B1BAD3"/>
<path d="M10.7297 11.3409C11.7336 11.3409 12.7039 11.476 13.623 11.7247C13.0681 12.9431 12.7441 14.4141 12.7441 15.9979C12.7441 17.9128 13.2196 19.6618 14.0022 21H2.25712C1.1055 20.9998 0.263091 19.9135 0.56002 18.8074C1.71241 14.516 5.82753 11.3409 10.7297 11.3409Z" fill="#B1BAD3"/>
<path d="M20.7144 17.3093C20.6004 17.5932 20.3039 17.877 20.0074 18.03C19.939 18.3138 20.0074 18.5977 19.8935 18.8598C19.711 19.1874 19.2549 19.2966 18.9585 19.0782C18.6164 18.8598 18.776 18.3575 18.662 18.0081C18.3655 17.7242 18.0234 17.5713 17.955 17.1782C17.727 16.5667 18.0234 15.8898 18.5936 15.5622C19.1865 15.1691 20.0531 15.3438 20.5092 15.8898C20.8284 16.3047 20.9653 16.8507 20.7144 17.3093ZM17.5673 11.8278C17.5673 10.8669 18.3883 10.1025 19.3689 10.1025C20.3723 10.1025 21.1705 10.8887 21.1705 11.8278V13.2255H17.5673V11.8278ZM23.7474 13.2255H22.516V11.8279C22.516 10.1462 21.1249 8.81409 19.3689 8.81409C18.9553 8.81305 18.5456 8.89029 18.1633 9.04138C17.781 9.19246 17.4336 9.41441 17.1412 9.69448C16.8487 9.97454 16.617 10.3072 16.4592 10.6733C16.3014 11.0394 16.2208 11.4318 16.2219 11.8278V13.2255H14.9904C14.5799 13.2255 14.2835 13.5094 14.2835 13.837V20.323C14.2835 20.6506 14.5799 21 14.9904 21H23.7931C24.1351 21 24.5 20.7161 24.5 20.323V13.837C24.4544 13.5093 24.1579 13.2255 23.7474 13.2255Z" fill="#B1BAD3"/>
</svg>
