<svg width="14" height="14" viewBox="0 0 14 14" fill="none" xmlns="http://www.w3.org/2000/svg">
<path fill-rule="evenodd" clip-rule="evenodd" d="M6.62538 1.95832L5.45447 4.36518C5.22172 4.95869 4.6565 5.33427 4.06661 5.37134L1.46167 5.7721L3.47764 7.85758C3.86034 8.24352 4.16753 8.82703 3.98071 9.50931L3.51589 12.2318L5.90384 10.9355L5.98734 10.9077C6.43396 10.7588 6.89724 10.7588 7.34386 10.9077L7.42737 10.9355L9.81532 12.2318L9.32614 9.36665V9.2819C9.32614 8.80884 9.44436 8.27186 9.85289 7.85828L11.857 5.78255L9.18414 5.37134C8.59425 5.33427 8.02904 4.9587 7.79628 4.36518L6.62538 1.95832ZM8.71711 3.97211C8.79756 4.21346 9.03892 4.37436 9.28027 4.37436L12.4179 4.85707C13.0615 4.93752 13.3028 5.74204 12.8201 6.22475L10.5675 8.55784C10.4066 8.71874 10.3261 8.9601 10.3261 9.2819L10.8893 12.5804C10.9698 13.224 10.3261 13.7067 9.84343 13.3849L7.02763 11.8563C6.78628 11.7759 6.54492 11.7759 6.30357 11.8563L3.48777 13.3849C2.92461 13.7067 2.281 13.224 2.4419 12.5804L3.00506 9.2819C3.08551 9.04055 3.00506 8.79919 2.76371 8.55784L0.430617 6.1443C-0.0520917 5.74204 0.189263 4.93752 0.832874 4.85707L3.97048 4.37436C4.21183 4.37436 4.45319 4.21346 4.53364 3.97211L5.98177 0.995404C6.22312 0.351792 7.02763 0.351792 7.26899 0.995404L8.71711 3.97211Z" fill="#FFAF02"/>
</svg>
