<svg width="69" height="77" viewBox="0 0 69 77" fill="none" xmlns="http://www.w3.org/2000/svg">
<path d="M65.2655 16.6993L37.9134 0.915244C36.8751 0.317535 35.698 0.00294495 34.5 0.00294495C33.302 0.00294495 32.1249 0.317535 31.0866 0.915244L3.74952 16.6993C2.71041 17.2975 1.84717 18.1588 1.24665 19.1965C0.646123 20.2343 0.329498 21.4119 0.328629 22.6109L0.328629 54.1191C0.329498 55.318 0.646123 56.4956 1.24665 57.5334C1.84717 58.5711 2.71041 59.4324 3.74952 60.0306L31.0866 75.8897C32.1249 76.4874 33.302 76.802 34.5 76.802C35.698 76.802 36.8751 76.4874 37.9134 75.8897L65.2655 60.1056C66.3008 59.5044 67.1602 58.642 67.7579 57.6047C68.3555 56.5673 68.6705 55.3913 68.6714 54.1941V22.6859C68.6837 21.476 68.375 20.2845 67.7767 19.2328C67.1784 18.1811 66.3118 17.3069 65.2655 16.6993Z" fill="white"/>
<path d="M32.0319 36.9696L3.10435 20.2703C2.82418 20.1068 2.50587 20.02 2.18148 20.0187C1.85709 20.0174 1.53809 20.1016 1.25663 20.2629C0.975164 20.4242 0.741182 20.6568 0.578261 20.9373C0.41534 21.2178 0.329237 21.5363 0.328629 21.8607L0.328629 54.8693C0.329349 55.8389 0.584736 56.7914 1.06923 57.6314C1.55373 58.4714 2.25034 59.1693 3.08935 59.6555L31.7318 76.1598C32.5763 76.6447 33.5337 76.8983 34.5075 76.895C38.7532 65.3601 38.7532 52.6905 34.5075 41.1557C34.4899 40.3039 34.2528 39.4711 33.8191 38.7377C33.3854 38.0044 32.7698 37.3954 32.0319 36.9696Z" fill="#E9F0F5"/>
<path d="M65.8957 20.2703L36.9681 36.9696C36.2178 37.4063 35.5954 38.0327 35.1636 38.7859C34.7317 39.539 34.5054 40.3925 34.5075 41.2607V77C35.4763 77.0014 36.4284 76.7478 37.2682 76.2648L65.9107 59.7605C66.7497 59.2744 67.4463 58.5764 67.9308 57.7364C68.4153 56.8965 68.6707 55.944 68.6714 54.9743V21.9657C68.69 21.6325 68.618 21.3005 68.4629 21.005C68.3079 20.7094 68.0756 20.4615 67.7908 20.2875C67.506 20.1136 67.1793 20.0201 66.8456 20.0171C66.5119 20.014 66.1836 20.1015 65.8957 20.2703Z" fill="#D3DEE6"/>
</svg>
