<svg width="12" height="14" viewBox="0 0 12 14" fill="none" xmlns="http://www.w3.org/2000/svg">
<path d="M7.48448 3.92L9.71004 1.46956C9.71004 1.46956 9.01223 0 6.00135 0C2.99048 0 2.29004 1.46738 2.29004 1.46738L4.51779 3.92H7.48448Z" fill="#FF9D00"/>
<path d="M3.61987 2.9573C3.61987 2.9573 4.515 2.24023 5.99856 2.24023C7.48212 2.24023 8.37987 2.9573 8.37987 2.9573L7.65581 3.97973L4.32031 3.99067L3.62075 2.95773H3.61987V2.9573Z" fill="white"/>
<path d="M11.5999 9.56044C11.5999 12.4213 9.09259 14.0006 5.9999 14.0006C2.90722 14.0006 0.399902 12.4217 0.399902 9.56044C0.399902 6.69963 2.90722 3.64062 5.9999 3.64062C9.09259 3.64062 11.5999 6.69963 11.5999 9.56044Z" fill="#FF9D00"/>
</svg>
