<svg width="21" height="181" viewBox="0 0 21 181" fill="none" xmlns="http://www.w3.org/2000/svg">
  <g clip-path="url(#clip0_3838_1408)">
    <path d="M1.88428 0.755968C1.88206 0.656784 1.89993 0.558169 1.93683 0.465995C1.97373 0.37382 2.02891 0.28997 2.09908 0.219437C2.16925 0.148904 2.25298 0.0931291 2.34528 0.055434C2.43758 0.0177389 2.53657 -0.00110615 2.63635 2.08079e-05H5.4132C5.61419 0.00215817 5.80634 0.0824886 5.94846 0.223795C6.09059 0.365102 6.17139 0.556141 6.17354 0.755968V9.21929L14.1239 0.31226C14.1915 0.217385 14.2805 0.139672 14.3839 0.0854217C14.4873 0.0311719 14.6021 0.00191391 14.719 2.08079e-05H17.876C18.0106 -0.00580864 18.1438 0.028852 18.2582 0.0994736C18.3726 0.170095 18.463 0.273393 18.5174 0.39587C18.5719 0.518347 18.5879 0.654306 18.5634 0.785982C18.5389 0.917657 18.4751 1.03893 18.3801 1.13394L10.1157 10.3532L19.0082 20.8625C19.0831 20.9661 19.1276 21.0882 19.1368 21.2154C19.1461 21.3426 19.1197 21.4698 19.0606 21.583C19.0016 21.6962 18.9121 21.7909 18.8022 21.8566C18.6923 21.9224 18.5662 21.9565 18.438 21.9554H14.9752C14.8702 21.964 14.7645 21.9493 14.6659 21.9124C14.5672 21.8754 14.4781 21.8171 14.4049 21.7417L6.14048 11.635V21.2076C6.1362 21.406 6.05446 21.595 5.91256 21.7345C5.77066 21.8741 5.57973 21.9533 5.38015 21.9554H2.63635C2.53728 21.9565 2.43898 21.9379 2.34724 21.9007C2.25549 21.8635 2.17214 21.8085 2.10209 21.7388C2.03203 21.6691 1.97667 21.5863 1.93927 21.4951C1.90187 21.4038 1.88317 21.3061 1.88428 21.2076V0.755968Z" fill="#585858"/>
    <path d="M19.4298 48.1424L14.9669 42.3084L10.4959 36.4745L6.03306 42.3084L1.57025 48.1424H9.26447V181H11.7355V48.1424H19.4298Z" fill="#585858"/>
  </g>
  <defs>
    <clipPath id="clip0_3838_1408">
      <rect width="21" height="181" fill="white"/>
    </clipPath>
  </defs>
</svg>
