<svg width="24" height="24" viewBox="0 0 24 24" fill="none" xmlns="http://www.w3.org/2000/svg">
<g id="Frame">
<path id="Vector" d="M12.2662 3C13.2975 3 14.1336 3.82956 14.1336 4.85296C14.1336 4.8671 14.1336 4.88125 14.1329 4.89538C14.8096 5.09452 15.4473 5.38794 16.0298 5.75853C16.3609 5.46158 16.8 5.28012 17.2814 5.28012C18.3128 5.28012 19.1489 6.10968 19.1489 7.13308C19.1489 7.65982 18.9274 8.13525 18.5714 8.4729C18.8998 9.0744 19.147 9.7272 19.298 10.4154C20.2852 10.4637 21.0701 11.2732 21.0701 12.2648C21.0701 13.2882 20.234 14.1178 19.2027 14.1178C19.1879 14.1178 19.1739 14.1178 19.1598 14.1172C18.9862 14.6999 18.7405 15.2537 18.4345 15.7675C18.7456 16.0968 18.9364 16.5416 18.9364 17.0301C18.9364 18.0535 18.1003 18.883 17.0689 18.883C16.5766 18.883 16.129 18.6945 15.7955 18.3858C15.2789 18.6892 14.7206 18.9325 14.1323 19.1063L14.1336 19.1482C14.1336 20.1715 13.2975 21.0011 12.2662 21.0011C11.2348 21.0011 10.3987 20.1715 10.3987 19.1482L10.4019 19.243C9.70852 19.0933 9.05107 18.8477 8.44477 18.5213C8.10547 18.8748 7.626 19.0951 7.09527 19.0951C6.0639 19.0951 5.22781 18.2656 5.22781 17.2422C5.22781 16.7644 5.41026 16.3284 5.70987 15.9996C5.336 15.4222 5.04087 14.7895 4.83921 14.1166L4.79696 14.1184C3.7656 14.1184 2.9295 13.2888 2.9295 12.2654C2.9295 11.242 3.7656 10.4125 4.79696 10.4125L4.70157 10.416C4.87314 9.63532 5.16827 8.90062 5.56583 8.23305C5.25405 7.90312 5.06392 7.4589 5.06392 6.97047C5.06392 5.94706 5.90001 5.1175 6.93137 5.1175C7.42368 5.1175 7.87117 5.30663 8.20537 5.61536C8.87632 5.2212 9.61635 4.92779 10.4032 4.7581C10.4524 3.77831 11.2687 3 12.2674 3H12.2662ZM10.5127 5.49281L10.4742 5.50047C9.82185 5.65366 9.20602 5.90229 8.64195 6.23164C8.74252 6.45788 8.79757 6.70769 8.79757 6.97047C8.79757 7.99387 7.96147 8.82345 6.93009 8.82345C6.6753 8.82345 6.43202 8.77275 6.21051 8.68087C5.88273 9.25297 5.63562 9.87982 5.48837 10.5444C6.17722 10.8166 6.66377 11.4841 6.66377 12.2648C6.66377 12.9977 6.23548 13.6311 5.61321 13.9316C5.78606 14.5048 6.03381 15.0463 6.34623 15.5436C6.57606 15.4434 6.82894 15.388 7.09462 15.388C8.12595 15.388 8.96205 16.2176 8.96205 17.241C8.96205 17.4667 8.92177 17.6829 8.84685 17.8826C9.3648 18.1619 9.9243 18.374 10.5133 18.5089C10.7751 17.7995 11.4607 17.2946 12.2662 17.2946C13.0209 17.2946 13.6714 17.7394 13.9658 18.3787C14.4562 18.2284 14.9217 18.0223 15.3564 17.7683C15.2558 17.542 15.2008 17.2923 15.2008 17.0295C15.2008 16.0061 16.0369 15.1765 17.0683 15.1765C17.323 15.1765 17.5663 15.2272 17.7878 15.3191C18.0362 14.8861 18.2385 14.42 18.3858 13.9304C17.7635 13.6305 17.3346 12.9972 17.3346 12.2648C17.3346 11.4841 17.8205 10.8166 18.5087 10.5433C18.3787 9.9564 18.1713 9.39847 17.8973 8.8812C17.7046 8.94952 17.4972 8.98605 17.2808 8.98605C16.2494 8.98605 15.4133 8.15647 15.4133 7.13308C15.4133 6.86029 15.4729 6.60164 15.5791 6.36833C15.083 6.05076 14.5408 5.79742 13.9658 5.61949C13.6714 6.25992 13.0209 6.70475 12.2655 6.70475C11.4607 6.70475 10.7751 6.19982 10.512 5.49163L10.5127 5.49281Z" fill="currentColor"/>
</g>
</svg>
