<svg width="24" height="24" viewBox="0 0 24 24" fill="none" xmlns="http://www.w3.org/2000/svg">
<g id="Frame">
<path id="Vector" fill-rule="evenodd" clip-rule="evenodd" d="M12 21C16.9705 21 21 16.9705 21 12C21 7.02944 16.9705 3 12 3C7.02944 3 3 7.02944 3 12C3 16.9705 7.02944 21 12 21ZM16.8795 10.5902C16.8795 13.2252 14.7435 15.3612 12.1084 15.3612C9.47347 15.3612 7.33741 13.2252 7.33741 10.5902C7.33741 7.95518 9.47347 5.81909 12.1084 5.81909C14.7435 5.81909 16.8795 7.95518 16.8795 10.5902ZM12.7401 13.7884C12.2743 13.8789 11.8454 13.8838 11.4531 13.8031C11.0625 13.72 10.7387 13.5665 10.4817 13.3424C10.2248 13.1183 10.0638 12.8389 9.9987 12.5042C9.9486 12.2462 9.96097 11.9979 10.036 11.7595C10.1126 11.5187 10.2388 11.3069 10.4146 11.1242C10.59 10.9394 10.7998 10.8025 11.0439 10.7131L11.0357 10.6708C10.6922 10.6685 10.3929 10.5604 10.1379 10.3463C9.88245 10.1303 9.72187 9.85298 9.65602 9.51428C9.5937 9.19373 9.63202 8.89027 9.77092 8.60385C9.90945 8.3154 10.1281 8.0679 10.4268 7.86127C10.7272 7.65225 11.0861 7.5072 11.5034 7.42606C11.9207 7.34495 12.3067 7.34522 12.6615 7.42688C13.0183 7.50817 13.3149 7.6566 13.5514 7.87215C13.7875 8.08567 13.9374 8.35147 14.0015 8.66962C14.0656 9.01072 14.0186 9.32843 13.8603 9.6228C13.7021 9.91718 13.4671 10.1291 13.1554 10.2588L13.1637 10.3011C13.4194 10.2932 13.6623 10.3423 13.8921 10.4482C14.1236 10.5517 14.3198 10.7008 14.4812 10.8955C14.6441 11.0876 14.7516 11.3126 14.8036 11.5703C14.8668 11.9053 14.8211 12.2248 14.6668 12.5289C14.5125 12.833 14.2688 13.0968 13.9357 13.3205C13.6042 13.5419 13.2057 13.6979 12.7401 13.7884ZM12.5531 12.8267C12.7608 12.7864 12.935 12.7138 13.0757 12.6091C13.216 12.5023 13.3166 12.3739 13.3774 12.2241C13.4398 12.0717 13.454 11.9079 13.4199 11.7325C13.3851 11.5531 13.309 11.4037 13.1916 11.2842C13.0738 11.1628 12.9297 11.0778 12.7591 11.0294C12.5883 10.9789 12.402 10.9732 12.2004 11.0124C12.0009 11.0512 11.8303 11.1262 11.6888 11.2374C11.5468 11.3466 11.444 11.4796 11.3803 11.6363C11.3183 11.7907 11.3046 11.9575 11.3395 12.1369C11.3736 12.3123 11.4471 12.4591 11.56 12.5774C11.6726 12.6935 11.8149 12.7746 11.9871 12.8207C12.1588 12.8647 12.3475 12.8667 12.5531 12.8267ZM12.0153 10.0599C12.1886 10.0262 12.3361 9.9609 12.4574 9.86407C12.5787 9.76732 12.6655 9.64897 12.7178 9.5091C12.7702 9.36922 12.7805 9.21765 12.7487 9.0543C12.7174 8.89305 12.6517 8.7594 12.5515 8.65335C12.451 8.5452 12.3276 8.46983 12.1812 8.42715C12.0345 8.38245 11.8723 8.37735 11.695 8.41185C11.5195 8.44598 11.3712 8.51138 11.2498 8.6082C11.1281 8.703 11.0409 8.81932 10.9882 8.95717C10.9371 9.09262 10.9272 9.24105 10.9585 9.4023C10.9903 9.56557 11.0567 9.7023 11.1575 9.8124C11.2584 9.9225 11.3833 9.99968 11.5321 10.044C11.6809 10.0883 11.8419 10.0936 12.0153 10.0599Z" fill="currentColor"/>
</g>
</svg>
