<svg width="24" height="24" viewBox="0 0 24 24" fill="none" xmlns="http://www.w3.org/2000/svg">
<g id="Frame">
<path id="Vector" d="M20.5478 10.2869C21.1495 7.52888 20.8696 5.00452 20.1289 3.86896C18.5325 3.23993 16.2246 2.94541 13.7446 3.44368C15.0617 5.2362 17.8209 8.51273 20.5478 10.2869ZM12.357 3.80359C14.1216 6.06137 18.0266 9.7137 20.186 11.6351C19.5678 13.5666 18.4982 15.5191 16.8402 17.1161C15.1125 18.7797 13.2603 19.7852 11.4456 20.3177C10.1646 18.3627 8.11572 15.992 3.82676 12.094C4.43484 10.3237 5.47773 8.54258 7.10902 6.97222C8.7689 5.37457 10.5804 4.37104 12.357 3.80359ZM3.42751 13.5133C2.86322 16.0688 3.13933 18.4745 3.77535 20.0397C5.47392 20.6916 7.67773 21.0331 10.02 20.644C8.66098 18.635 6.0363 15.2626 3.42751 13.5133ZM14.8567 8.84221L14.2226 9.37598C13.2426 8.47463 12.3603 7.89518 12.2022 8.06078C12.048 8.22271 12.6357 9.03893 13.5447 9.94666L11.9566 11.2841C11.0489 10.4741 10.2599 9.97141 10.1113 10.1282C9.9641 10.283 10.4929 11.0327 11.3314 11.8902C11.2762 11.9512 11.2215 12.0134 11.1688 12.0762L9.8924 13.5926C8.93135 12.716 8.07507 12.1574 7.91892 12.3212C7.7609 12.4869 8.37913 13.3362 9.32368 14.2686L8.74347 14.9573C8.67237 15.0417 8.67747 15.1661 8.75555 15.2442C8.83302 15.3217 8.9561 15.3274 9.04055 15.2582L9.7508 14.6755C10.7207 15.5642 11.5896 16.1329 11.7471 15.9678C11.9001 15.8072 11.3269 15.0087 10.4357 14.1131L11.3834 13.3355C11.6455 13.1204 11.8988 12.8963 12.1444 12.6633C13.0311 13.4473 13.7935 13.9284 13.9401 13.7754C14.0855 13.6224 13.5726 12.8906 12.7532 12.0476C12.9525 11.8325 13.1454 11.6109 13.3314 11.3837L14.0842 10.4608C15.0344 11.324 15.8767 11.8706 16.0316 11.7087C16.1884 11.5436 15.5778 10.7026 14.6428 9.77656L15.1716 9.12781C15.2376 9.04718 15.2319 8.92913 15.1575 8.85548C15.0763 8.77426 14.9456 8.76856 14.8573 8.84281L14.8567 8.84221Z" fill="currentColor"/>
</g>
</svg>
