<svg width="24" height="24" viewBox="0 0 24 24" fill="none" xmlns="http://www.w3.org/2000/svg">
<g id="Frame">
<path id="Vector" d="M7.27065 12.4763C7.72007 12.1798 8.15717 11.891 8.58662 11.6087C8.75769 11.7733 8.90942 11.956 9.09519 12.0898C9.31247 12.2467 9.59409 12.1862 9.75804 11.9914C9.92319 11.7958 9.92454 11.5186 9.75542 11.3128C9.64097 11.1738 9.51947 11.04 9.40119 10.9043L10.469 9.63143C10.6175 9.72083 10.7699 9.81668 10.9262 9.9054C11.1852 10.0527 11.5067 9.9723 11.6488 9.72788C11.7986 9.4719 11.7137 9.1554 11.4539 8.99588C11.3054 8.9046 11.1582 8.8113 11.0078 8.71613C11.2219 8.2305 11.4334 7.75125 11.6494 7.25987C11.8024 7.29782 11.9657 7.34156 12.1303 7.38015C12.4568 7.45605 12.7262 7.30618 12.8015 7.00902C12.8754 6.71571 12.7095 6.45071 12.3907 6.35937C12.2293 6.31306 12.0653 6.27318 11.9239 6.23588C11.9663 5.68336 12.0358 5.1482 12.0403 4.61176C12.0448 4.07532 11.985 3.53824 11.9528 3.00116C16.2287 2.9304 20.2031 6.11495 20.8672 10.4984C19.8848 10.5692 18.826 10.7641 17.6913 11.0844C17.6251 10.9403 17.5601 10.7924 17.4908 10.647C17.3429 10.3396 17.0471 10.2174 16.7687 10.346C16.4872 10.4766 16.3933 10.7699 16.5335 11.0909C16.5958 11.2343 16.6614 11.3777 16.725 11.5205C16.2808 11.8112 15.8475 12.0943 15.3943 12.3902C15.2837 12.2686 15.166 12.1425 15.0509 12.0132C14.8497 11.7868 14.5218 11.7611 14.2955 11.9553C14.0821 12.1387 14.0615 12.468 14.2531 12.6983C14.365 12.8327 14.4813 12.9626 14.5964 13.0951L13.5292 14.3681C13.3852 14.2818 13.2374 14.1911 13.0856 14.1043C12.8156 13.9493 12.4922 14.0258 12.3495 14.2767C12.2068 14.5275 12.2961 14.8517 12.5513 15.01C12.6902 15.0962 12.8272 15.1843 12.9725 15.2756C12.7648 15.7631 12.5604 16.2443 12.3495 16.7408C12.1888 16.7009 12.0268 16.6572 11.8628 16.6193C11.5472 16.5466 11.2733 16.6977 11.2007 16.9808C11.1248 17.276 11.2881 17.5475 11.6012 17.6381C11.7581 17.6831 11.9168 17.7224 12.0936 17.7687C11.8988 18.8441 11.8808 19.9202 12.0621 20.997C7.86789 21.1109 3.9051 18.006 3.12656 13.5042C4.2124 13.4823 5.2661 13.2906 6.29538 12.8938C6.38345 13.081 6.45867 13.263 6.55318 13.4341C6.69011 13.6811 6.98456 13.7705 7.23464 13.6534C7.48666 13.5357 7.59722 13.2591 7.49888 12.9884C7.48088 12.9395 7.45773 12.8918 7.43587 12.8436C7.38122 12.7214 7.32593 12.5986 7.27065 12.4751L7.27129 12.4757L7.27065 12.4763Z" fill="currentColor"/>
<path id="Vector_2" d="M13.119 20.9346C12.9448 19.9711 12.9441 19.0159 13.1268 18.0414C13.2823 18.0807 13.4328 18.1205 13.5838 18.1566C13.9059 18.2318 14.1817 18.0775 14.2569 17.7829C14.3289 17.5005 14.165 17.2323 13.8603 17.1403C13.7105 17.0946 13.5594 17.0567 13.373 17.0059C13.5453 16.6103 13.7092 16.234 13.8822 15.8384C14.0332 15.9285 14.1534 15.9973 14.2711 16.0713C14.5719 16.2604 14.8908 16.1942 15.0606 15.9066C15.213 15.6481 15.1075 15.3348 14.8118 15.1631C14.6961 15.0956 14.5829 15.0235 14.4434 14.9373L15.3107 13.9037C15.4155 14.0201 15.5093 14.1191 15.598 14.224C15.8115 14.4767 16.1592 14.5295 16.3772 14.3384C16.6293 14.1166 16.6369 13.7975 16.3965 13.5319C16.3065 13.4328 16.2197 13.3299 16.0982 13.1903C16.4576 12.9549 16.8035 12.7285 17.1654 12.4912C17.2503 12.6687 17.3152 12.8108 17.3853 12.9511C17.5274 13.2335 17.8186 13.3434 18.0899 13.2206C18.3567 13.0997 18.4615 12.7993 18.3374 12.504C18.2789 12.3644 18.2133 12.2288 18.1452 12.0795C19.0626 11.7277 20.0019 11.5649 20.97 11.5617C21.3384 15.8005 18.1021 20.303 13.1203 20.9333L13.119 20.9346Z" fill="currentColor"/>
<path id="Vector_3" d="M7.89577 10.8091C7.52865 11.0484 7.18731 11.2703 6.82793 11.5045C6.75207 11.3417 6.69035 11.2047 6.62413 11.0703C6.47948 10.7744 6.18375 10.6554 5.91244 10.7802C5.63665 10.9075 5.53571 11.2041 5.66686 11.5102C5.72472 11.6446 5.7858 11.7765 5.85202 11.9257C4.93267 12.277 3.98955 12.4396 3.01557 12.4416C2.7372 7.83809 6.22425 3.57104 10.8653 3.07834C11.0356 4.03223 11.0408 4.98547 10.8595 5.958C10.7104 5.92134 10.5651 5.88404 10.4197 5.85059C10.0925 5.7734 9.82058 5.91877 9.74025 6.21207C9.65985 6.50538 9.8328 6.78068 10.1587 6.87266C10.2976 6.91189 10.4378 6.94662 10.6082 6.99229C10.4397 7.38401 10.2797 7.75709 10.1067 8.15841C9.96975 8.07801 9.8502 8.01306 9.7338 7.94039C9.42075 7.74486 9.10185 7.80786 8.93085 8.10246C8.78617 8.35266 8.9019 8.67816 9.19312 8.84601C9.30435 8.90969 9.41175 8.98049 9.5493 9.06539L8.6814 10.1003C8.5734 9.97806 8.4795 9.87456 8.39017 9.76904C8.17155 9.51306 7.836 9.46994 7.61355 9.67191C7.36924 9.89384 7.36217 10.2077 7.59427 10.4656C7.68682 10.5692 7.7775 10.6753 7.8945 10.8097L7.89577 10.8091Z" fill="currentColor"/>
</g>
</svg>
