<svg width="24" height="24" viewBox="0 0 24 24" fill="none" xmlns="http://www.w3.org/2000/svg">
<g id="Frame">
<path id="Vector" d="M13.6806 8.02578C14.0828 8.49183 14.4792 8.95083 14.8234 9.35006C14.6184 9.58991 14.4367 9.79563 14.2633 10.0071C13.7611 10.6217 13.4718 11.343 13.2726 12.0951C12.9716 13.233 12.7074 14.3812 12.4237 15.5229C12.039 17.0729 11.6671 18.6267 11.0896 20.1207C11.0077 20.3322 10.9046 20.536 10.8228 20.7482C10.7828 20.8536 10.7197 20.8728 10.621 20.8562C9.86114 20.7347 9.12576 20.5245 8.42189 20.2171C7.29142 19.7247 6.30079 19.0298 5.45259 18.1362C5.3875 18.0681 5.36107 18.0114 5.3759 17.9086C5.51705 16.9128 5.92245 16.0185 6.43227 15.1674C7.41453 13.5255 8.70359 12.1389 10.1054 10.8512C11.1799 9.86373 12.3226 8.95923 13.524 8.12928C13.5626 8.10228 13.6013 8.07723 13.6819 8.02383V8.02511L13.6806 8.02578Z" fill="currentColor"/>
<path id="Vector_2" d="M11.8661 6.49431C12.2302 6.7926 12.5912 7.08767 12.9714 7.39882C12.8831 7.46504 12.8122 7.52093 12.7387 7.57306C11.0462 8.75978 9.47288 10.0873 8.05688 11.5916C6.9309 12.7874 5.90417 14.0615 5.19777 15.5581C4.99668 15.9837 4.85166 16.4357 4.6828 16.8754C4.6583 16.9384 4.64155 17.0052 4.57194 17.0837C4.35151 16.696 4.11433 16.316 3.91388 15.9181C3.51234 15.121 3.24809 14.2756 3.1108 13.3955C2.91229 12.1271 2.97996 10.869 3.31834 9.62956C3.33638 9.56333 3.40793 9.49523 3.47238 9.46118C4.22648 9.05806 5.03987 8.82533 5.87195 8.65238C6.72465 8.47561 7.5819 8.32456 8.43263 8.14066C9.6411 7.87906 10.7136 7.31911 11.7101 6.60231C11.7565 6.56888 11.8055 6.53674 11.8667 6.49559H11.8654L11.8661 6.49431Z" fill="currentColor"/>
<path id="Vector_3" d="M11.7375 20.9995C11.9805 20.2994 12.2408 19.6662 12.42 19.0111C12.8409 17.4714 13.2289 15.9227 13.6195 14.3747C13.865 13.4033 14.0571 12.4172 14.4328 11.4831C14.5908 11.0909 14.7944 10.7232 15.098 10.4211C15.1715 10.3478 15.2533 10.2848 15.3571 10.1942C15.5498 10.5812 15.7406 10.9405 15.9082 11.3102C16.5115 12.6403 16.9033 14.034 17.174 15.465C17.3803 16.5566 17.4995 17.6579 17.5607 18.7668C17.5717 18.9655 17.5195 19.0863 17.3494 19.2104C16.1892 20.0551 14.9059 20.606 13.4919 20.8343C12.9169 20.9268 12.3298 20.9462 11.7375 20.9995Z" fill="currentColor"/>
<path id="Vector_4" d="M18.437 18.2464C18.203 15.2848 17.6185 12.4407 16.1625 9.79273C16.4261 9.73618 16.6755 9.68983 16.9217 9.62946C17.7602 9.42246 18.4331 9.76768 19.0519 10.2704C19.7744 10.8567 20.3719 11.5632 20.9526 12.2839C20.9848 12.3237 21.0029 12.3899 20.9996 12.442C20.861 14.6599 20.0361 16.5814 18.5021 18.1963C18.4912 18.2086 18.4751 18.2169 18.4364 18.2446L18.437 18.2452V18.2464Z" fill="currentColor"/>
<path id="Vector_5" d="M3.76407 8.29283C4.03477 7.82933 4.26679 7.37996 4.54717 6.96209C5.33606 5.78757 6.35699 4.85606 7.58866 4.1534C7.69179 4.0949 7.76979 4.08719 7.87869 4.13604C8.97766 4.62398 10.0166 5.21735 11.0124 5.8885C11.0304 5.90136 11.0453 5.91807 11.102 5.96951C10.6231 6.23951 10.1681 6.5108 9.69946 6.75445C8.94924 7.14596 8.12431 7.29831 7.30186 7.45003C6.14107 7.66411 4.97899 7.87306 3.86848 8.29156C3.8543 8.29733 3.83626 8.29156 3.76407 8.29156V8.29283Z" fill="currentColor"/>
<path id="Vector_6" d="M20.9334 10.8076C20.5196 10.4142 20.1238 10.0078 19.6953 9.63821C19.1596 9.17471 18.5628 8.80886 17.8423 8.70153C17.3163 8.62308 16.8052 8.73048 16.2954 8.83908C16.1871 8.86226 16.0801 8.89376 15.9751 8.92653C15.6727 9.01908 15.6792 9.01526 15.4865 8.77548C15.1507 8.35631 14.8052 7.94486 14.4469 7.51031C14.8665 7.27629 15.2989 7.02429 15.7417 6.79093C16.6408 6.31778 17.6244 6.14421 18.6189 6.01499C18.6737 6.00792 18.7549 6.04263 18.7923 6.08442C19.8571 7.31037 20.5486 8.71826 20.8522 10.3125C20.8837 10.4778 20.9063 10.6443 20.9334 10.8076Z" fill="currentColor"/>
<path id="Vector_7" d="M12.5584 5.88569C13.4723 5.20811 13.9873 4.3621 13.7527 3.17343C15.3324 3.49615 16.6827 4.16345 17.8996 5.19654C17.1384 5.35854 16.3927 5.47811 15.7172 5.81177C15.0476 6.1422 14.3966 6.50928 13.725 6.86672C13.3634 6.56328 12.9806 6.2412 12.5578 5.88698L12.5584 5.88569Z" fill="currentColor"/>
<path id="Vector_8" d="M8.88281 3.55593C10.148 3.09242 11.4783 2.90856 12.8712 3.04292C12.8834 3.45692 12.9485 3.87286 12.8118 4.27208C12.7616 4.4193 12.6436 4.54852 12.5367 4.66937C12.3207 4.91366 12.0919 5.14639 11.9011 5.34953C10.8589 4.73045 9.87086 4.14351 8.88281 3.55593Z" fill="currentColor"/>
</g>
</svg>
