<svg width="24" height="24" viewBox="0 0 24 24" fill="none" xmlns="http://www.w3.org/2000/svg">
<g id="Frame">
<path id="Vector" d="M19.075 10.4861C18.819 6.84761 15.7295 4.00011 12.0415 4.00011C8.31751 4.00111 5.22801 6.87711 5.00101 10.5456C4.99551 10.6316 5.01401 10.7171 5.05301 10.7926C5.09201 10.8681 5.15151 10.9301 5.22301 10.9716C5.25951 10.9931 5.29851 11.0101 5.33901 11.0216L9.29551 15.1706C9.18151 15.2981 9.11901 15.4666 9.11951 15.6411V18.5666C9.11851 18.6446 9.13251 18.7216 9.16051 18.7936C9.18851 18.8656 9.22951 18.9311 9.28201 18.9861C9.33451 19.0411 9.39651 19.0846 9.46501 19.1141C9.53351 19.1436 9.60701 19.1581 9.68101 19.1576H14.3495C14.4235 19.1581 14.4965 19.1426 14.5645 19.1131C14.6325 19.0836 14.6945 19.0396 14.7465 18.9851C14.7985 18.9301 14.8395 18.8646 14.867 18.7931C14.8945 18.7216 14.9085 18.6446 14.9075 18.5666V15.6401C14.9075 15.4646 14.8435 15.2961 14.729 15.1681L18.6845 10.9726C18.796 10.9586 18.898 10.9001 18.9695 10.8101C19.041 10.7201 19.0775 10.6036 19.071 10.4861H19.075ZM14.2365 14.9566H13.3835L14.541 11.1771C15.1145 10.6406 15.857 10.3471 16.6245 10.3536C17.1675 10.3506 17.702 10.4956 18.1755 10.7746L14.2365 14.9566ZM9.79251 14.9566L5.86801 10.8376C6.37251 10.5211 6.95001 10.3561 7.53751 10.3596C8.28851 10.3526 9.01801 10.6256 9.59551 11.1296L10.783 14.9566H9.79201H9.79251ZM11.31 14.9566L10.1105 11.0861C10.669 10.6091 11.368 10.3511 12.0875 10.3561C12.321 10.3561 12.554 10.3826 12.782 10.4351C12.8505 10.4511 12.9175 10.4681 12.9835 10.4886C13.151 10.5391 13.314 10.6041 13.471 10.6831C13.5395 10.7171 13.6055 10.7551 13.669 10.7936L13.742 10.8386C13.848 10.9066 13.9495 10.9821 14.0465 11.0636L12.8555 14.9561L11.31 14.9566Z" fill="currentColor"/>
</g>
</svg>
