<svg width="24" height="24" viewBox="0 0 24 24" fill="none" xmlns="http://www.w3.org/2000/svg">
<g id="Frame">
<path id="Vector" d="M8.36256 10.6832H12.9446C13.18 10.6832 13.18 10.6832 13.1815 10.9193C13.1815 11.108 13.1728 11.298 13.1815 11.4866C13.206 11.8898 13.5714 12.1029 13.8949 11.9071C13.9693 11.8573 14.0292 11.7887 14.0683 11.7082C14.1073 11.6277 14.1242 11.5384 14.1172 11.4492C14.123 11.2486 14.123 11.0485 14.1172 10.8488C14.1172 10.7365 14.149 10.6817 14.2732 10.6817C15.6335 10.6817 16.9953 10.6817 18.3556 10.6817C18.4179 10.6804 18.4798 10.6916 18.5376 10.7147C18.5954 10.7378 18.648 10.7723 18.6921 10.8161C18.7362 10.8599 18.7709 10.9122 18.7942 10.9698C18.8176 11.0274 18.829 11.0891 18.8278 11.1512C18.8278 11.9877 18.8278 12.8229 18.8278 13.6595C18.8274 13.7285 18.8125 13.7966 18.7842 13.8596C18.7558 13.9226 18.7146 13.979 18.6632 14.0252C18.262 14.4047 18.0274 14.9269 18.0105 15.4781C17.9935 15.7623 18.0361 16.047 18.1356 16.314C18.235 16.581 18.3892 16.8245 18.5881 17.0288C18.6717 17.1101 18.7368 17.2084 18.7792 17.3169C18.8215 17.4255 18.8401 17.5418 18.8336 17.658C18.8221 18.4025 18.8336 19.1468 18.8336 19.8913C18.8336 20.2815 18.656 20.4672 18.2704 20.4672C16.9606 20.4672 15.6508 20.4672 14.3425 20.4672C14.1664 20.4672 14.1085 20.4154 14.1201 20.2426C14.1321 20.0508 14.1321 19.8584 14.1201 19.6667C14.0985 19.2966 13.801 19.0907 13.4833 19.2102C13.3888 19.2477 13.3089 19.3143 13.2551 19.4003C13.2013 19.4863 13.1765 19.5873 13.1844 19.6883C13.1735 19.8772 13.1735 20.0666 13.1844 20.2556C13.1988 20.4356 13.1251 20.4946 12.9577 20.4701H3.81226C3.72662 20.4792 3.64005 20.4683 3.55936 20.4383C3.47866 20.4083 3.40606 20.36 3.34726 20.2973C3.26986 20.2034 3.22932 20.0847 3.23318 19.9633C3.23318 19.1492 3.23318 18.3362 3.23318 17.5241C3.23083 17.4496 3.24428 17.3754 3.27265 17.3064C3.30102 17.2375 3.34367 17.1752 3.39781 17.1239C3.60005 16.931 3.76198 16.7002 3.87427 16.4447C3.98655 16.1891 4.04695 15.9139 4.05197 15.635C4.06605 15.3534 4.02104 15.0719 3.91984 14.8086C3.81864 14.5453 3.66346 14.306 3.46423 14.1058C3.38638 14.0319 3.32524 13.9424 3.2849 13.843C3.24456 13.7437 3.22594 13.637 3.23029 13.5299C3.2404 12.7984 3.23029 12.0655 3.23029 11.3326C3.23029 10.8416 3.38191 10.6919 3.88157 10.6919L8.36256 10.6832ZM10.5908 18.5191C10.6571 18.5183 10.7224 18.5033 10.7824 18.4749C10.8422 18.4466 10.8952 18.4056 10.9377 18.3548C10.9801 18.304 11.011 18.2446 11.0281 18.1807C11.0453 18.1169 11.0483 18.0501 11.037 17.9849C10.9648 17.5227 10.8926 17.0591 10.8016 16.5983C10.7866 16.5437 10.788 16.4858 10.8058 16.4321C10.8235 16.3783 10.8567 16.331 10.9012 16.2959C11.2262 15.9892 11.5453 15.6767 11.8659 15.3643C11.9424 15.3026 11.9979 15.2189 12.025 15.1246C12.0521 15.0303 12.0496 14.93 12.0175 14.8373C11.984 14.745 11.9231 14.6651 11.8429 14.6082C11.7626 14.5514 11.6668 14.5202 11.5684 14.519C11.1265 14.4572 10.6846 14.3837 10.2413 14.3276C10.1878 14.3231 10.1367 14.3034 10.0942 14.2707C10.0516 14.238 10.0195 14.1938 10.0016 14.1432C9.80953 13.7459 9.61168 13.3528 9.42396 12.9568C9.39021 12.8613 9.32743 12.7788 9.24426 12.7207C9.16116 12.6626 9.06193 12.6319 8.96038 12.6328C8.86236 12.6375 8.76801 12.6711 8.68911 12.7293C8.61021 12.7874 8.55036 12.8676 8.51706 12.9596C8.32356 13.3628 8.12143 13.7603 7.92786 14.1634C7.91038 14.208 7.88068 14.2468 7.84213 14.2753C7.80358 14.3039 7.75768 14.321 7.70983 14.3247C7.27661 14.3852 6.83616 14.4572 6.3986 14.5148C6.17911 14.5436 5.99715 14.6141 5.92061 14.8416C5.84407 15.0691 5.93938 15.239 6.09968 15.3917C6.41737 15.6969 6.73219 16.0079 7.05133 16.3118C7.09027 16.3448 7.11916 16.3881 7.13472 16.4367C7.15029 16.4853 7.15192 16.5373 7.13942 16.5867C7.05711 17.0187 6.99502 17.4651 6.90982 17.9043C6.88091 17.9976 6.88132 18.0977 6.91101 18.1908C6.94069 18.284 6.99821 18.3658 7.07588 18.4255C7.15853 18.4841 7.25747 18.5156 7.35892 18.5156C7.46038 18.5156 7.55931 18.4841 7.64196 18.4255C8.03623 18.2138 8.43478 18.0108 8.82756 17.7991C8.87083 17.772 8.92086 17.7577 8.97193 17.7577C9.02308 17.7577 9.07311 17.772 9.11638 17.7991C9.51058 18.0108 9.90771 18.2167 10.3034 18.4241C10.3893 18.4801 10.4884 18.5128 10.5908 18.5191ZM15.5945 17.8942C15.5945 18.2873 15.7663 18.5104 16.0653 18.5104C16.3642 18.5104 16.5346 18.2873 16.5361 17.8927V13.2635C16.5361 12.869 16.3642 12.6472 16.0653 12.6472C15.7663 12.6472 15.5959 12.869 15.5945 13.2635V17.8942ZM14.1244 14.0972C14.1369 13.9149 14.1287 13.7318 14.0999 13.5515C14.0731 13.4572 14.0164 13.3742 13.9383 13.3148C13.8602 13.2553 13.7649 13.2227 13.6667 13.2217C13.5652 13.2167 13.4653 13.2475 13.3842 13.3086C13.3032 13.3696 13.2463 13.4571 13.2233 13.5558C13.1677 13.9006 13.1677 14.252 13.2233 14.5968C13.2379 14.6997 13.2904 14.7935 13.3704 14.86C13.4505 14.9265 13.5524 14.961 13.6566 14.9568C13.764 14.9616 13.8695 14.9273 13.9535 14.8603C14.0374 14.7932 14.0941 14.6981 14.1129 14.5925C14.1307 14.428 14.1345 14.2623 14.1244 14.0972ZM14.1244 17.0677C14.1319 16.8974 14.1241 16.7268 14.1013 16.5579C14.0816 16.4557 14.0263 16.3637 13.9453 16.2981C13.8641 16.2325 13.7624 16.1975 13.658 16.1994C13.5502 16.1912 13.4434 16.2245 13.3595 16.2926C13.2757 16.3607 13.2212 16.4582 13.2075 16.5651C13.1548 16.9044 13.1548 17.2497 13.2075 17.5889C13.2277 17.6879 13.2822 17.7768 13.3613 17.8399C13.4405 17.9031 13.5394 17.9365 13.6407 17.9345C13.7464 17.9388 13.8502 17.9059 13.9341 17.8417C14.018 17.7775 14.0767 17.686 14.0999 17.5832C14.1247 17.4125 14.133 17.2399 14.1244 17.0677Z" fill="currentColor"/>
<path id="Vector_2" d="M10.034 9.74534H7.81013C7.761 9.74534 7.69313 9.76987 7.66575 9.71947C7.6383 9.66907 7.70618 9.63164 7.7394 9.59707C8.46525 8.87137 9.19163 8.14612 9.91853 7.4214C10.0095 7.32925 10.0715 7.33213 10.1567 7.4214C10.3012 7.57979 10.4615 7.73242 10.6189 7.88362C10.6606 7.93124 10.7117 7.96979 10.769 7.99687C10.8264 8.02394 10.8887 8.03894 10.9521 8.04097C11.0155 8.04299 11.0786 8.03197 11.1376 8.00864C11.1965 7.98524 11.25 7.95007 11.2947 7.90522C11.4896 7.71367 11.481 7.45307 11.2702 7.23421C11.1142 7.07438 10.9568 6.91599 10.7951 6.76048C10.7156 6.68561 10.7127 6.62657 10.7951 6.54738C11.7539 5.59274 12.7099 4.63521 13.6731 3.68345C13.719 3.63351 13.7747 3.59364 13.8369 3.56636C13.8991 3.53909 13.9662 3.52499 14.0342 3.52499C14.102 3.52499 14.1692 3.53909 14.2313 3.56636C14.2935 3.59364 14.3493 3.63351 14.3951 3.68345C14.9728 4.2594 15.5504 4.83536 16.1281 5.41131C16.1818 5.4672 16.2235 5.53347 16.2505 5.60603C16.2776 5.67858 16.2895 5.75589 16.2854 5.8332C16.2819 6.33068 16.452 6.8139 16.7666 7.20006C17.0812 7.58624 17.5206 7.85129 18.0097 7.94984C18.1671 7.98149 18.3271 7.99882 18.4877 8.00167C18.5624 8.00092 18.6365 8.01509 18.7058 8.04322C18.7749 8.07142 18.8378 8.11312 18.8906 8.16584C19.4682 8.74177 20.0459 9.30479 20.6076 9.87929C20.6595 9.92572 20.701 9.98257 20.7294 10.0461C20.7578 10.1095 20.7725 10.1783 20.7725 10.2479C20.7725 10.3174 20.7578 10.3862 20.7294 10.4497C20.701 10.5132 20.6595 10.57 20.6076 10.6165C20.3809 10.8526 20.147 11.0801 19.9145 11.3105C19.8827 11.3407 19.8552 11.3983 19.8047 11.3767C19.7541 11.3551 19.7758 11.2961 19.7744 11.2529C19.76 10.6496 19.5144 10.1816 18.9642 9.89654C18.7509 9.79612 18.517 9.74677 18.2812 9.75254C17.9924 9.75254 17.6949 9.74249 17.4032 9.75254C17.3351 9.75562 17.2673 9.74324 17.2047 9.71632C17.1422 9.68939 17.0866 9.64859 17.0422 9.59707C16.0905 8.64239 15.1346 7.69349 14.1815 6.74032C14.1329 6.68001 14.0717 6.63118 14.0021 6.59732C13.9324 6.56345 13.856 6.54541 13.7786 6.5445C13.6962 6.54243 13.615 6.56382 13.5443 6.60616C13.4738 6.64849 13.4168 6.71002 13.3799 6.78353C13.3398 6.85686 13.3218 6.94024 13.3283 7.02355C13.3346 7.10687 13.3652 7.18655 13.4161 7.25293C13.4589 7.31204 13.5073 7.367 13.5605 7.41708C14.2825 8.13704 15.0046 8.85697 15.7151 9.56827C15.7569 9.61004 15.8421 9.64604 15.8075 9.71227C15.7728 9.77849 15.7021 9.73529 15.6472 9.73529C15.0089 9.73529 14.372 9.73529 13.7338 9.73529C13.6067 9.73529 13.5258 9.71512 13.5143 9.56969C13.5055 9.49424 13.4702 9.42434 13.4147 9.37244C13.2053 9.16079 13.0002 8.94044 12.7793 8.74319C12.6952 8.66714 12.5853 8.62582 12.4718 8.62769C12.3583 8.62957 12.2498 8.67449 12.1684 8.75332C12.0851 8.83394 12.0348 8.94262 12.0276 9.05819C12.0204 9.17377 12.0567 9.28792 12.1294 9.37822C12.1944 9.45742 12.2738 9.52214 12.3431 9.60134C12.3706 9.63014 12.4168 9.65609 12.4037 9.69787C12.3908 9.73964 12.3243 9.73244 12.2839 9.73244H10.034V9.74534Z" fill="currentColor"/>
<path id="Vector_3" d="M7.9821 17.0993C8.02688 16.8271 8.06152 16.5953 8.10337 16.3649C8.1204 16.2833 8.11605 16.1987 8.09078 16.1192C8.0655 16.0398 8.02012 15.9683 7.959 15.9113C7.80015 15.7544 7.63695 15.6018 7.47666 15.4463C7.44489 15.4146 7.39435 15.3872 7.40879 15.3354C7.42322 15.2836 7.48244 15.2951 7.52573 15.2879C7.73513 15.2548 7.9431 15.2159 8.15392 15.1914C8.24872 15.1842 8.33978 15.1517 8.41755 15.0971C8.49533 15.0427 8.5569 14.9683 8.59582 14.8818C8.694 14.6875 8.7879 14.4917 8.88465 14.3059C8.9034 14.2685 8.90775 14.2037 8.9655 14.208C9.02325 14.2123 9.02325 14.2727 9.0435 14.3117C9.1431 14.5118 9.24278 14.7105 9.34095 14.9106C9.37635 14.9897 9.43215 15.0581 9.50265 15.1087C9.57322 15.1593 9.65595 15.1903 9.74242 15.1986C9.96915 15.2288 10.1945 15.2678 10.4226 15.298C10.5381 15.3138 10.5511 15.357 10.4702 15.442C10.3085 15.5965 10.1473 15.7511 9.98648 15.9056C9.91658 15.9655 9.86445 16.0433 9.83565 16.1306C9.80692 16.2179 9.80265 16.3114 9.82328 16.4009C9.86948 16.6068 9.89835 16.817 9.93015 17.0258C9.93885 17.0748 9.96623 17.1381 9.93015 17.1698C9.89408 17.2015 9.8334 17.1554 9.78578 17.1324C9.59228 17.0345 9.3987 16.9322 9.20813 16.83C9.1335 16.7869 9.04883 16.7642 8.96265 16.7642C8.8764 16.7642 8.79173 16.7869 8.7171 16.83C8.51498 16.9394 8.30993 17.0417 8.10773 17.1497C8.0124 17.1899 7.96763 17.1756 7.9821 17.0993Z" fill="currentColor"/>
</g>
</svg>
