<svg width="18" height="18" viewBox="0 0 18 18" fill="none" xmlns="http://www.w3.org/2000/svg">
<path d="M10.7842 2.7439L13.4937 4.37899C14.4779 4.97302 15.0758 6.01509 15.0758 7.13565V10.8643C15.0758 11.9854 14.4779 13.0275 13.4937 13.621L10.7842 15.2561C9.69291 15.9146 8.30865 15.9146 7.21735 15.2561L4.50782 13.621C3.52371 13.027 2.92578 11.9849 2.92578 10.8643V7.13565C2.92578 6.01459 3.52371 4.97251 4.50782 4.37899L7.21735 2.7439C8.30865 2.08537 9.69291 2.08537 10.7842 2.7439ZM11.1937 13.197C10.9939 12.988 10.5724 13.0895 10.253 13.424C9.93366 13.7585 9.83635 14.1986 10.0361 14.4075C10.236 14.6166 10.6574 14.5151 10.9768 14.1806C11.2961 13.8461 11.3935 13.406 11.1937 13.197ZM6.66655 9.87379C6.10483 9.28277 5.34179 9.12577 4.96129 9.52279C4.58079 9.9198 4.72782 10.7204 5.28951 11.3114C5.8512 11.9024 6.61429 12.0594 6.99477 11.6624C7.37524 11.2654 7.22826 10.4648 6.66655 9.87379ZM12.8078 10.4718C12.608 10.2628 12.1866 10.3643 11.8672 10.6988C11.5479 11.0333 11.4505 11.4734 11.6503 11.6824C11.8502 11.8914 12.2716 11.7899 12.5909 11.4554C12.9103 11.1209 13.0077 10.6808 12.8078 10.4718ZM14.2978 8.00567C14.0979 7.79664 13.6765 7.89817 13.3571 8.23269C13.0378 8.56721 12.9404 9.00726 13.1402 9.21628C13.34 9.42531 13.7615 9.32377 14.0808 8.98926C14.4002 8.65474 14.4976 8.21469 14.2978 8.00567ZM11.3924 4.51399C10.779 4.51399 10.2815 4.84301 10.2815 5.24904C10.2815 5.65504 10.779 5.9841 11.3924 5.9841C12.0059 5.9841 12.5034 5.65504 12.5034 5.24904C12.5034 4.84301 12.0059 4.51399 11.3924 4.51399ZM6.66137 4.51399C6.04791 4.51399 5.55042 4.84301 5.55042 5.24904C5.55042 5.65504 6.04791 5.9841 6.66137 5.9841C7.27483 5.9841 7.77231 5.65504 7.77231 5.24904C7.77231 4.84301 7.27483 4.51399 6.66137 4.51399Z" fill="currentColor"/>
</svg>
