<svg width="24" height="24" viewBox="0 0 24 24" fill="none" xmlns="http://www.w3.org/2000/svg">
<g id="Frame">
<path id="Vector" fill-rule="evenodd" clip-rule="evenodd" d="M5.49475 1.5C8.52359 1.5 9.50045 2.40724 9.56444 5.27979C10.8879 4.57388 11.9195 4.19629 12.9283 4.14984L13.0778 4.14517L13.2275 4.14984C14.4854 4.20776 15.7786 4.78051 17.6291 5.8623C21.4782 8.11257 21.9942 9.0033 21.9942 13.5933C21.9942 18.1832 21.5005 19.1413 17.4951 21.4022C15.4924 22.5325 14.3157 23.1028 13.0779 23.1C11.8401 23.1028 10.6634 22.5325 8.66075 21.4022C4.76265 19.2018 4.19062 18.2355 4.16276 13.9546L4.16174 3.64001C4.16074 3.05822 4.1429 2.68147 3.94207 2.19786C3.69889 1.61238 3.73575 1.5 4.43971 1.5H5.49475ZM7.85633 13.6227C7.85633 10.4211 10.4415 7.82556 13.6302 7.82556C15.1227 7.82556 16.6078 8.55771 17.6325 9.49101C17.6766 9.53097 17.7342 9.64635 17.6325 9.74832C17.6128 9.76821 17.448 9.92526 17.1955 10.1657C16.3001 11.0188 14.3032 12.9213 13.7699 13.4771C13.6807 13.5702 13.6784 13.6709 13.7699 13.7628C13.7912 13.7842 14.0224 13.998 14.3643 14.3144C15.3309 15.2085 17.1823 16.9214 17.6778 17.4186C17.7607 17.5016 17.708 17.6459 17.6572 17.6935C16.6261 18.6579 15.1506 19.4198 13.6302 19.4198C10.4415 19.4198 7.85633 16.8243 7.85633 13.6227ZM11.7722 12.8453C12.2842 12.8453 12.6994 12.4279 12.6994 11.9127C12.6994 11.3977 12.2842 10.9802 11.7722 10.9802C11.26 10.9802 10.845 11.3977 10.845 11.9127C10.845 12.4279 11.26 12.8453 11.7722 12.8453Z" fill="currentColor"/>
</g>
</svg>
