<svg width="24" height="24" viewBox="0 0 24 24" fill="none" xmlns="http://www.w3.org/2000/svg">
<g id="Frame">
<path id="Vector" d="M16.7181 14.0278C18.6939 14.0278 20.2956 15.6609 20.2956 17.6758C20.2956 19.6908 18.6939 21.3239 16.7181 21.3239C14.7424 21.3239 13.1407 19.6908 13.1407 17.6758C13.1407 15.6609 14.7424 14.0278 16.7181 14.0278ZM8.93616 7.12136L16.8601 11.044C16.6525 11.6136 16.4349 12.1749 16.2071 12.7285C13.7532 12.9889 11.8405 15.1041 11.8405 17.6752C11.8405 18.5059 12.0398 19.2883 12.3931 19.9763C12.2077 20.2585 12.019 20.5376 11.8273 20.8134C11.7472 20.942 11.5995 21.0114 11.4506 20.9896C11.3851 20.9761 11.3263 20.9401 11.2834 20.888C9.37708 18.9052 7.32688 17.0677 5.1505 15.3908C5.11013 15.3613 5.07607 15.324 5.04957 15.2809C5.02371 15.234 5.00352 15.1838 4.9909 15.1318C4.96693 15.0314 4.98586 14.9254 5.04326 14.8399C6.53266 12.596 7.88586 9.98885 8.93616 7.12136ZM16.9925 15.2378C15.6595 15.2378 14.5789 16.3392 14.5789 17.6977C14.5789 17.9125 14.7493 18.086 14.9599 18.086C15.1707 18.086 15.341 17.9125 15.341 17.6977C15.341 16.768 16.0804 16.0145 16.9925 16.0145C17.2032 16.0145 17.3735 15.8409 17.3735 15.6262C17.3735 15.4114 17.2032 15.2378 16.9925 15.2378ZM11.5257 10.7134C11.4197 10.581 11.2179 10.5617 11.0759 10.6717L10.2117 11.3635C10.1303 11.431 10.0243 11.4554 9.92841 11.4297L8.93676 11.1648C8.87368 11.1481 8.80558 11.1539 8.74371 11.1822C8.58981 11.2535 8.51218 11.4419 8.57023 11.6026L8.90586 12.5876C8.93616 12.6815 8.91973 12.7895 8.86168 12.8782L8.26431 13.7995C8.22643 13.8587 8.20566 13.9275 8.20438 13.9957C8.20183 14.1654 8.32363 14.2831 8.47753 14.2593L9.44961 14.1229C9.54486 14.1108 9.63133 14.1481 9.68113 14.2226L10.1814 14.9909C10.2123 15.0398 10.2609 15.0726 10.3195 15.0848C10.4671 15.1156 10.6407 15.0115 10.7069 14.8521L11.1094 13.8568C11.1472 13.761 11.2286 13.6813 11.327 13.6446L12.3704 13.2724C12.4385 13.2492 12.5004 13.2068 12.5464 13.1509C12.6612 13.012 12.6448 12.8287 12.5092 12.7413L11.6632 12.1967C11.5813 12.144 11.5358 12.0527 11.5421 11.9524L11.5876 10.9006C11.5894 10.8324 11.568 10.7662 11.5257 10.7134ZM19.3197 10.048C19.859 10.048 20.2949 10.4936 20.2949 11.0426C20.2949 11.5917 19.8577 12.0373 19.3197 12.0373C18.7803 12.0373 18.3444 11.5917 18.3444 11.0426C18.3444 10.4936 18.7816 10.048 19.3197 10.048ZM4.89817 7.65373C5.79585 7.65373 6.52446 8.3963 6.52446 9.31183C6.52446 10.2274 5.79648 10.97 4.89817 10.97C4.00049 10.97 3.27188 10.2274 3.27188 9.31183C3.27188 8.3963 3.99986 7.65373 4.89817 7.65373ZM10.5997 2.68636V2.68765C10.6129 2.6915 10.6268 2.69408 10.6413 2.696C13.234 3.82372 15.5391 4.96751 17.9085 6.23988C18.0372 6.29839 18.1293 6.45013 18.157 6.62308C18.1735 6.72273 18.1696 6.82496 18.1463 6.92333C17.8567 8.0324 17.5294 9.11765 17.1673 10.1773L9.25281 6.22445C9.60733 5.17454 9.92023 4.09311 10.1845 2.9834C10.2073 2.87795 10.2716 2.78602 10.3631 2.73008C10.4331 2.68314 10.5189 2.66771 10.6003 2.687L10.5997 2.68636ZM16.3976 6.73109L16.3459 6.73366C16.2071 6.74588 16.0759 6.80181 15.9523 6.90083C15.8299 6.99984 15.7252 7.14578 15.64 7.33802C15.5561 7.529 15.5164 7.70645 15.5214 7.871C15.5265 8.03563 15.565 8.17895 15.6388 8.30308C15.712 8.42653 15.8116 8.52298 15.9384 8.59175C16.0633 8.65993 16.1914 8.6882 16.3225 8.67598C16.4538 8.66375 16.5793 8.6078 16.6992 8.5088C16.8196 8.4098 16.9257 8.26385 17.0171 8.07163C17.1092 7.8794 17.1571 7.70128 17.1603 7.53673C17.1635 7.3721 17.1294 7.22873 17.0575 7.10528C16.9849 6.98183 16.8834 6.88668 16.7528 6.81853C16.6537 6.76709 16.5522 6.73816 16.4494 6.73238L16.3976 6.73109ZM16.5585 7.22615C16.6228 7.26023 16.6683 7.30716 16.6948 7.36696C16.7212 7.42675 16.7282 7.49812 16.7175 7.58173C16.7068 7.66528 16.6765 7.75783 16.6279 7.8614C16.5799 7.9649 16.5283 8.0459 16.4734 8.10508C16.4185 8.16418 16.3617 8.20085 16.3024 8.21435C16.2431 8.22785 16.1819 8.21758 16.1188 8.18413C16.0558 8.15068 16.0109 8.10313 15.9844 8.04335C15.9573 7.9835 15.9485 7.91218 15.958 7.82855C15.9674 7.745 15.9952 7.65245 16.0419 7.54888C16.0885 7.44539 16.1396 7.36439 16.1951 7.30523C16.2507 7.24608 16.3087 7.20944 16.3705 7.19594C16.4317 7.18244 16.4941 7.19272 16.5585 7.22615ZM14.5518 5.99042C14.4509 6.03286 14.3575 6.09972 14.2736 6.19038C14.1898 6.28103 14.1184 6.39869 14.0604 6.54078C13.9873 6.72273 13.9557 6.89504 13.9651 7.05835C13.9746 7.22165 14.02 7.36631 14.1008 7.49297C14.1809 7.6196 14.2919 7.71995 14.4345 7.79323C14.5613 7.85878 14.6856 7.88773 14.8073 7.8794C14.929 7.871 15.0414 7.8254 15.1435 7.74305C15.2338 7.67105 15.3107 7.5701 15.3738 7.44089L15.4003 7.38368L15.505 7.1445L14.8508 6.81017L14.7108 7.14386L14.9776 7.28081L14.9675 7.30202C14.948 7.33931 14.9234 7.36953 14.8944 7.39203C14.8584 7.41968 14.8162 7.43382 14.767 7.43382C14.7178 7.43382 14.6635 7.41839 14.6023 7.38689C14.5336 7.35152 14.4831 7.30266 14.4522 7.24094C14.4212 7.17922 14.408 7.10592 14.4136 7.02234C14.4193 6.93876 14.4427 6.84617 14.485 6.74459C14.5266 6.64493 14.5745 6.56521 14.63 6.50735C14.6856 6.44948 14.7455 6.41348 14.8099 6.39998C14.8742 6.38648 14.941 6.39676 15.0098 6.43148C15.0414 6.44756 15.0691 6.4662 15.0925 6.48742C15.1158 6.50864 15.1335 6.53306 15.1467 6.55878C15.16 6.5845 15.1681 6.61279 15.172 6.64236C15.1744 6.6623 15.1744 6.68287 15.1726 6.70409L15.1675 6.73623L15.5731 6.94326C15.604 6.85261 15.6179 6.76259 15.6148 6.6713C15.6116 6.58 15.5927 6.49385 15.558 6.41155C15.5233 6.32861 15.4741 6.25403 15.4104 6.18652C15.3467 6.11901 15.2697 6.06308 15.1795 6.01871C15.0767 5.96792 14.9719 5.93963 14.8647 5.93449C14.7575 5.92934 14.6534 5.94799 14.5518 5.99042ZM12.8485 4.92829L12.2121 6.65458L12.6328 6.85904L12.9672 5.95185L12.9766 5.95635L13.1936 7.1355L13.5349 7.30652L14.2244 5.58023L13.798 5.37578L13.4371 6.27911L13.4251 6.27332L13.2195 5.10188L12.8485 4.92829ZM12.1944 4.62675L11.5831 6.35304L12.0109 6.5575L12.6391 4.8312L12.1944 4.62675ZM10.6533 3.93431L10.0981 5.6606L10.8665 6.0155C10.9838 6.07015 11.0911 6.09651 11.1889 6.09394C11.2867 6.09137 11.3705 6.06372 11.4412 6.01164C11.5118 5.95956 11.563 5.88627 11.5951 5.79176C11.6229 5.7101 11.6305 5.63166 11.6178 5.55515C11.6052 5.47865 11.5762 5.41049 11.5308 5.34941C11.4942 5.30055 11.4506 5.26004 11.3989 5.2279L11.3585 5.2054L11.3642 5.18868C11.4324 5.20411 11.4961 5.2054 11.556 5.19254C11.6159 5.17968 11.6677 5.15267 11.713 5.11217C11.7579 5.0723 11.7919 5.02023 11.8147 4.95658C11.8462 4.86914 11.8519 4.78298 11.8317 4.69811C11.8115 4.61325 11.7642 4.53416 11.691 4.45958C11.6298 4.39722 11.5491 4.34129 11.45 4.29113L11.3882 4.26156L10.6533 3.93431ZM10.7794 5.12696L10.9958 5.22533C11.0413 5.2459 11.0778 5.27162 11.1056 5.30055C11.1334 5.32948 11.151 5.36291 11.1592 5.39892C11.1674 5.43492 11.1649 5.4735 11.151 5.51401C11.1321 5.57187 11.0986 5.60723 11.052 5.61945C11.0128 5.62973 10.9642 5.62395 10.9063 5.60144L10.8703 5.58602L10.6621 5.49022L10.78 5.12631L10.7794 5.12696ZM10.9876 4.50652L11.1806 4.59332C11.2374 4.61903 11.2791 4.6544 11.3056 4.6994C11.332 4.74441 11.3365 4.79391 11.3182 4.84728C11.3062 4.88264 11.2873 4.909 11.2614 4.92572C11.2355 4.94243 11.2059 4.95015 11.1712 4.94951C11.1453 4.94886 11.1182 4.94372 11.0892 4.93343L11.0602 4.92186L10.8753 4.83827L10.987 4.50781L10.9876 4.50652Z" fill="currentColor"/>
</g>
</svg>
