<svg width="24" height="24" viewBox="0 0 24 24" fill="none" xmlns="http://www.w3.org/2000/svg">
<g id="Frame">
<path id="Vector" d="M17.657 4.16251C19.5251 4.16251 21.0394 5.65898 21.0394 7.50505V14.5885C21.0394 16.4346 19.5251 17.9311 17.657 17.9311L12.7428 17.9305L7.44635 21.2999L7.4457 17.9305L6.38239 17.9311C4.51429 17.9311 3 16.4346 3 14.5885V7.50505C3 5.65898 4.51429 4.16251 6.38239 4.16251H17.657ZM7.50982 9.89935C6.88715 9.89935 6.38239 10.4129 6.38239 11.0468C6.38239 11.6807 6.88715 12.1943 7.50982 12.1943C8.13255 12.1943 8.6373 11.6807 8.6373 11.0468C8.6373 10.4129 8.13255 9.89935 7.50982 9.89935ZM16.5296 9.89935C15.9068 9.89935 15.4021 10.4129 15.4021 11.0468C15.4021 11.6807 15.9068 12.1943 16.5296 12.1943C17.1523 12.1943 17.657 11.6807 17.657 11.0468C17.657 10.4129 17.1523 9.89935 16.5296 9.89935ZM12.0197 9.89935C11.397 9.89935 10.8922 10.4129 10.8922 11.0468C10.8922 11.6807 11.397 12.1943 12.0197 12.1943C12.6424 12.1943 13.1471 11.6807 13.1471 11.0468C13.1471 10.4129 12.6424 9.89935 12.0197 9.89935Z" fill="currentColor"/>
</g>
</svg>
