<svg width="24" height="24" viewBox="0 0 24 24" fill="none" xmlns="http://www.w3.org/2000/svg">
<g id="Frame">
<path id="Vector" d="M19.8536 9.96375C14.9988 9.95752 8.92215 9.95752 4.20525 9.96375C3.71318 9.96457 3.31409 9.56595 3.31409 9.07387V7.50825C3.31409 7.01704 3.71226 6.61842 4.20348 6.61842C4.84104 6.61842 5.60226 6.62241 5.86475 6.62241C5.84786 6.57526 5.83941 6.54057 5.82382 6.50983C5.11907 5.13593 6.00846 3.49336 7.54208 3.32873C8.22593 3.25534 8.8074 3.46933 9.31013 3.92401C9.78758 4.35604 10.2641 4.78893 10.741 5.22139C10.769 5.24673 10.7988 5.27077 10.8366 5.30323C11.1779 4.95976 11.5823 4.76618 12.0677 4.76669C12.5473 4.76669 12.9503 4.95133 13.2956 5.30012C13.3339 5.26943 13.3721 5.24138 13.4077 5.20933C13.8891 4.77377 14.3687 4.33553 14.8514 3.90173C16.1377 2.74676 18.1336 3.37853 18.5096 5.06075C18.6181 5.54749 18.5647 6.01954 18.3329 6.46669C18.3111 6.50898 18.2912 6.55256 18.2586 6.6202C18.4882 6.6202 19.0715 6.61887 19.855 6.61934C20.3462 6.61934 20.7443 7.01797 20.7443 7.50915V9.07342C20.7443 9.5655 20.3457 9.96412 19.8536 9.96375ZM10.4318 6.61087C10.3953 6.51301 10.389 6.41911 10.3392 6.37284C9.71498 5.79891 9.09128 5.22363 8.45235 4.66572C8.09685 4.35517 7.58565 4.35074 7.18433 4.61543C6.79459 4.87216 6.61215 5.3451 6.73007 5.79179C6.86575 6.3061 7.27908 6.6158 7.85348 6.61889C8.6574 6.62335 9.4614 6.62023 10.2649 6.61975C10.3031 6.61975 10.3415 6.61576 10.4318 6.61087ZM13.7045 6.56908C13.7223 6.58596 13.7405 6.60336 13.7583 6.62024C13.874 6.62024 13.9892 6.62111 14.105 6.62024C14.892 6.61447 15.6799 6.62424 16.4661 6.59536C16.9057 6.57934 17.2874 6.22785 17.4017 5.81365C17.5201 5.38387 17.3738 4.93582 17.0267 4.66755C16.6592 4.38369 16.1978 4.35035 15.7991 4.59235C15.6773 4.66619 15.5673 4.76275 15.4606 4.85887C14.9209 5.34517 14.3821 5.83233 13.8486 6.32528C13.7824 6.38669 13.7512 6.48721 13.7045 6.56908Z" fill="currentColor"/>
<path id="Vector_2" d="M5.64336 20.3548C5.58685 20.337 5.53078 20.3179 5.47382 20.3014C4.96528 20.155 4.65121 19.7261 4.65076 19.1655C4.64942 17.7614 4.65032 16.3573 4.65032 14.9536C4.65032 13.7328 4.65032 12.5119 4.65032 11.2911C4.65032 11.2252 4.65032 11.1589 4.65032 11.0789H10.9663C10.9663 11.1367 10.9663 11.1955 10.9663 11.2542C10.9663 14.2231 10.9663 17.1924 10.9649 20.1613C10.9649 20.2258 10.948 20.2908 10.9387 20.3553L5.64336 20.3548Z" fill="currentColor"/>
<path id="Vector_3" d="M13.2042 20.3538C13.1953 20.2947 13.1779 20.2355 13.1779 20.1768C13.1766 17.1968 13.1766 14.2167 13.1766 11.2363C13.1766 11.1873 13.1766 11.138 13.1766 11.0766H19.4925C19.4925 11.1495 19.4925 11.2198 19.4925 11.2902C19.4925 13.8875 19.4925 16.4844 19.4925 19.0818C19.4925 19.7826 19.2033 20.1554 18.5231 20.3325C18.5138 20.3347 18.5071 20.3467 18.4995 20.3543L13.2042 20.3538Z" fill="currentColor"/>
</g>
</svg>
