<svg width="24" height="24" viewBox="0 0 24 24" fill="none" xmlns="http://www.w3.org/2000/svg">
<g id="Frame">
<path id="Vector" fill-rule="evenodd" clip-rule="evenodd" d="M12.5314 4.72444C12.1558 5.10296 11.9661 5.69518 11.5864 6.87962L9.07055 14.7295C8.69098 15.914 8.50115 16.5062 8.58665 17.0325C8.66188 17.4954 8.8817 17.9226 9.2147 18.2529C9.59315 18.6284 10.1854 18.8182 11.3698 19.1978L13.8918 20.0061C15.0762 20.3857 15.6684 20.5755 16.1947 20.49C16.6576 20.4147 17.0848 20.1949 17.4151 19.862C17.7906 19.4835 17.9804 18.8913 18.3601 17.7068L20.8759 9.8569C21.2555 8.67243 21.4453 8.08023 21.3598 7.55395C21.2846 7.09102 21.0648 6.6638 20.7318 6.3335C20.3533 5.95801 19.7611 5.7682 18.5767 5.38859L16.0547 4.58033C14.8703 4.20072 14.278 4.01091 13.7518 4.09642C13.2889 4.17165 12.8617 4.39149 12.5314 4.72444ZM14.1619 14.6203L16.7786 13.3328C16.7815 13.3314 16.7842 13.3301 16.7871 13.3287C16.7887 13.3279 16.7902 13.3272 16.7917 13.3264C17.5179 12.9691 17.8169 12.0908 17.4596 11.3646C17.1023 10.6385 16.2241 10.3395 15.4979 10.6968C15.1407 9.9706 14.2621 9.67158 13.5359 10.0289C12.8098 10.3861 12.5108 11.2644 12.868 11.9906L14.1619 14.6203Z" fill="currentColor"/>
<path id="Vector_2" d="M10.3276 6.12377C9.38166 9.0752 8.40621 12.019 7.47735 14.9764C7.3057 15.5229 7.21988 15.7961 7.07184 15.8893C6.94338 15.9703 6.78405 15.985 6.64291 15.929C6.48029 15.8646 6.34656 15.6132 6.0791 15.1105C5.21479 13.4857 4.36363 11.8537 3.50265 10.2274C2.9207 9.12823 2.62972 8.57863 2.62137 8.04545C2.61402 7.57655 2.75532 7.11733 3.025 6.73364C3.3316 6.29743 3.88122 6.00645 4.98045 5.4245L6.81759 4.45187C7.91684 3.86991 8.46644 3.57893 8.99954 3.57059C9.46851 3.56324 9.92774 3.70453 10.3114 3.97422C10.3526 4.00319 10.3926 4.03433 10.4315 4.06791C10.5304 4.15304 10.5799 4.19561 10.6486 4.31966C10.6969 4.40662 10.7442 4.57762 10.7476 4.67699C10.7524 4.81873 10.7144 4.93373 10.6383 5.16374C10.543 5.45153 10.441 5.77004 10.3276 6.12377Z" fill="#24EE89"/>
</g>
</svg>
