<svg width="25" height="24" viewBox="0 0 25 24" fill="none" xmlns="http://www.w3.org/2000/svg">
<g id="Frame">
<g id="Group 1556234963">
<path id="Vector" d="M19.9285 17.3227V11.2637L16.1296 15.2012L12.3984 18.3803L16.6478 19.7246C17.7582 20.0758 18.3126 20.2514 18.7536 20.1356C19.1393 20.0342 19.4723 19.7902 19.6852 19.4529C19.9277 19.067 19.9277 18.4858 19.9277 17.3219L19.9285 17.3227Z" fill="#24EE89"/>
<path id="Vector_2" fill-rule="evenodd" clip-rule="evenodd" d="M5.03065 5.57984C4.51562 6.59099 4.51562 7.91399 4.51562 10.56V10.8616C4.51562 13.5076 4.51562 14.8306 5.03065 15.8417C5.48364 16.7308 6.20645 17.4536 7.09547 17.9066C8.10662 18.4216 9.42962 18.4216 12.0756 18.4216H12.378C15.024 18.4216 16.347 18.4216 17.3582 17.9066C18.2472 17.4536 18.97 16.7308 19.423 15.8417C19.938 14.8314 19.938 13.5084 19.938 10.8616V10.56C19.938 7.91399 19.938 6.59099 19.423 5.57984C18.97 4.69082 18.2472 3.96802 17.3582 3.51502C16.347 3 15.024 3 12.378 3H12.0756C9.42962 3 8.10662 3 7.09547 3.51502C6.20645 3.96802 5.48364 4.69082 5.03065 5.57984ZM9.97299 11.7373H14.5405C14.8027 11.7373 14.9334 11.7373 15.0508 11.8137C15.1382 11.8704 15.2303 12.0019 15.254 12.1043C15.2855 12.2405 15.2492 12.3382 15.1776 12.5319C14.8468 13.4328 14.0262 14.4707 12.3245 14.4707C10.6479 14.4707 9.75485 13.4643 9.35087 12.5728C9.25952 12.372 9.21463 12.272 9.23904 12.1279C9.26772 12.005 9.33813 11.8959 9.43828 11.8192C9.55876 11.7373 9.69658 11.7373 9.97299 11.7373Z" fill="currentColor"/>
</g>
</g>
</svg>
