<svg width="24" height="24" viewBox="0 0 24 24" fill="none" xmlns="http://www.w3.org/2000/svg">
<g id="Frame">
<path id="Vector" d="M19.8877 11.4371C17.9881 10.5651 15.7192 11.35 14.8195 13.1914C14.6903 13.4554 14.595 13.7303 14.5336 14.0154L16.7423 15.029C16.7141 14.8766 16.711 14.7241 16.7317 14.5711C16.7524 14.4181 16.7975 14.2711 16.8658 14.1312C17.2301 13.3858 18.1486 13.0677 18.9178 13.4212C19.6871 13.7747 20.015 14.6647 19.6507 15.4096C19.289 16.1495 18.3805 16.4676 17.6144 16.1261L13.5286 14.2483L15.5367 10.1401C16.2815 8.34449 15.4633 6.27454 13.6345 5.43491C11.7355 4.56289 9.46657 5.34789 8.56687 7.18858C7.66724 9.02924 8.47724 11.2282 10.3762 12.1003C10.6534 12.2275 10.9387 12.3187 11.2264 12.3775L12.2722 10.2374C12.1148 10.2644 11.9575 10.268 11.7988 10.2476C11.6402 10.2271 11.4891 10.1833 11.3455 10.1173C10.5769 9.76447 10.2484 8.87384 10.6126 8.12902C10.9769 7.38423 11.8954 7.06555 12.6646 7.41904C13.4283 7.76954 13.7561 8.65057 13.4038 9.39299L11.4878 13.3126L7.22396 11.3554C5.37132 10.6335 3.23531 11.4263 2.36886 13.1992C1.46918 15.0398 2.27921 17.2388 4.17824 18.1108C6.07727 18.9829 8.34622 18.1979 9.24584 16.3572C9.37694 16.0883 9.47092 15.8122 9.53114 15.5332L7.32239 14.5189C7.37631 14.8136 7.34057 15.1263 7.19888 15.4174C6.83525 16.1627 5.91614 16.4802 5.14688 16.1273C4.37761 15.7744 4.04971 14.8838 4.41397 14.1384C4.77572 13.3984 5.68417 13.0804 6.4503 13.4224L16.8401 18.1942C18.6928 18.9163 20.8288 18.1228 21.6952 16.3506C22.5949 14.5099 21.7849 12.3109 19.8859 11.4383L19.8877 11.4371Z" fill="currentColor"/>
</g>
</svg>
