<svg width="24" height="24" viewBox="0 0 24 24" fill="none" xmlns="http://www.w3.org/2000/svg">
<g id="Frame">
<path id="Vector" d="M8.53184 20.3958C8.53184 21.0693 9.05384 21.4735 9.57584 21.4735H18.3163C18.9688 21.4735 19.3603 20.9343 19.3603 20.3958V17.0275H8.53259L8.53184 20.3958ZM20.5341 5.71003C19.8816 5.71003 19.4901 6.24928 19.4901 6.78778V3.55378C19.4901 2.34103 18.4461 1.26328 17.2723 1.26328H8.53184C7.35809 1.26328 6.31409 2.34103 6.31409 3.55378V10.4253L7.22759 14.8713C7.35809 15.4105 7.74959 15.8148 8.27159 15.8148H19.4908C20.0128 15.8148 20.4043 15.4105 20.5348 14.8713L21.4483 10.4253V6.92203C21.5788 6.24853 21.1873 5.70928 20.5348 5.70928L20.5341 5.71003ZM17.2723 9.07828H8.53184V5.71003H17.2723V9.07828Z" fill="currentColor"/>
</g>
</svg>
