<svg width="15" height="15" viewBox="0 0 15 15" fill="none" xmlns="http://www.w3.org/2000/svg">
<path d="M10.2955 1.1792C11.6315 1.1792 12.7146 2.26231 12.7146 3.59832V8.78758C12.7146 9.79874 11.8944 10.6189 10.8833 10.6189L10.2096 10.6185V11.3493C10.2096 12.3609 9.38983 13.1802 8.37867 13.1802H3.75669C2.74509 13.1802 1.92578 12.3604 1.92578 11.3493V5.57182C1.92578 4.56065 2.74553 3.74047 3.75669 3.74047L4.42993 3.74003L4.43037 3.01055C4.43037 2.02903 5.20259 1.2276 6.17276 1.18138L6.26128 1.1792H10.2955ZM10.2955 2.25969H6.26172C5.84748 2.25969 5.51043 2.59675 5.51043 3.01098V3.74047L8.47023 3.74091C9.43082 3.74091 10.2096 4.51966 10.2096 5.48069V9.53887H10.8833C11.2766 9.53887 11.6005 9.23451 11.6319 8.84906L11.6345 8.78758V3.59832C11.6345 2.86011 11.0341 2.25969 10.2959 2.25969H10.2955Z" fill="currentColor"/>
</svg>
