<svg width="24" height="24" viewBox="0 0 24 24" fill="none" xmlns="http://www.w3.org/2000/svg">
<g id="Frame">
<path id="Vector" d="M3.80642 6.60116C3.60154 6.39033 3.58333 6.05137 3.76414 5.81815L4.29813 5.12802C4.6643 4.65483 5.08121 4.22705 5.54039 3.85284L6.25128 3.27388C6.47566 3.09152 6.79567 3.11254 6.99598 3.32337L16.5035 13.3445C16.5881 13.4333 16.6355 13.5533 16.6355 13.6787C16.6355 13.7804 16.6076 13.8801 16.5556 13.9655L16.4437 14.1485C16.3103 14.3669 16.2095 14.6042 16.1445 14.8529L16.0742 15.1207L15.1202 16.1153L14.979 16.1552C14.6642 16.2447 14.3702 16.3979 14.1127 16.6067L13.9976 16.7003C13.8688 16.8013 13.688 16.7885 13.5735 16.6698L3.80642 6.59981V6.60116ZM14.8691 15.2665L15.3152 14.8014C15.3614 14.7533 15.3588 14.674 15.3088 14.6299L12.7709 12.3629C12.7026 12.3019 12.6011 12.3059 12.5381 12.3724C12.475 12.4388 12.4711 12.5439 12.5289 12.6151L14.7039 15.2603C14.7461 15.3119 14.8223 15.3153 14.8685 15.2672L14.8691 15.2665ZM19.379 20.4391C19.5077 20.5733 19.7152 20.5767 19.8479 20.4465L20.3097 19.9937C20.4488 19.8574 20.4515 19.6283 20.3156 19.4879L16.3221 15.379C16.2779 15.3336 16.2076 15.3343 16.164 15.3797L15.4245 16.1505C15.3809 16.1959 15.3809 16.2705 15.4245 16.3159L19.3796 20.4384L19.379 20.4391ZM7.67109 15.4149C7.71534 15.3695 7.78621 15.3702 7.82979 15.4163L8.56411 16.1932C8.60769 16.2393 8.60701 16.3125 8.56344 16.358L4.59145 20.4893C4.45618 20.6296 4.23634 20.6255 4.10691 20.4791L3.6757 19.9943C3.55212 19.8554 3.55667 19.6385 3.6861 19.5056L7.67109 15.4149ZM12.2278 8.41598L15.3666 11.6369L20.2004 6.72997C20.4047 6.52321 20.4274 6.18966 20.2538 5.95442L19.7035 5.2087C19.3478 4.72669 18.9406 4.28942 18.4898 3.90368L17.8316 3.34168C17.6086 3.15118 17.284 3.16813 17.0798 3.37964L12.2278 8.41598ZM8.68576 12.0917L11.8089 15.2482L10.5134 16.5634C10.4275 16.6508 10.3118 16.6989 10.1921 16.6982C10.0945 16.6976 9.99886 16.6678 9.91696 16.6121L9.74199 16.4942C9.53386 16.3538 9.30684 16.2467 9.06819 16.1769L8.81191 16.1017L7.86489 15.0997L7.82784 14.9526C7.74459 14.6238 7.59954 14.316 7.40119 14.0462L7.31208 13.9256C7.21647 13.79 7.23013 13.6022 7.3446 13.4835L8.68576 12.0917ZM13.8851 18.918C13.8851 19.9844 13.0558 20.8488 12.0327 20.8488C11.0096 20.8488 10.1804 19.9844 10.1804 18.918C10.1804 17.8517 11.0096 16.9873 12.0327 16.9873C13.0558 16.9873 13.8851 17.8517 13.8851 18.918ZM11.6964 17.5724C11.7894 17.5724 11.8649 17.4937 11.8649 17.3968C11.8649 17.2998 11.7894 17.2212 11.6964 17.2212C11.6034 17.2212 11.528 17.2998 11.528 17.3968C11.528 17.4937 11.6034 17.5724 11.6964 17.5724ZM11.6964 18.1574C11.7894 18.1574 11.8649 18.0788 11.8649 17.9819C11.8649 17.8849 11.7894 17.8062 11.6964 17.8062C11.6034 17.8062 11.528 17.8849 11.528 17.9819C11.528 18.0788 11.6034 18.1574 11.6964 18.1574ZM12.5381 17.9819C12.5381 17.8849 12.4626 17.8062 12.3696 17.8062C12.2766 17.8062 12.2012 17.8849 12.2012 17.9819C12.2012 18.0788 12.2766 18.1574 12.3696 18.1574C12.4626 18.1574 12.5381 18.0788 12.5381 17.9819ZM11.6964 18.7424C11.7894 18.7424 11.8649 18.6638 11.8649 18.5669C11.8649 18.47 11.7894 18.3913 11.6964 18.3913C11.6034 18.3913 11.528 18.47 11.528 18.5669C11.528 18.6638 11.6034 18.7424 11.6964 18.7424ZM12.5381 18.5669C12.5381 18.47 12.4626 18.3913 12.3696 18.3913C12.2766 18.3913 12.2012 18.47 12.2012 18.5669C12.2012 18.6638 12.2766 18.7424 12.3696 18.7424C12.4626 18.7424 12.5381 18.6638 12.5381 18.5669ZM11.6964 19.3275C11.7894 19.3275 11.8649 19.2489 11.8649 19.1519C11.8649 19.055 11.7894 18.9764 11.6964 18.9764C11.6034 18.9764 11.528 19.055 11.528 19.1519C11.528 19.2489 11.6034 19.3275 11.6964 19.3275ZM12.5381 19.1519C12.5381 19.055 12.4626 18.9764 12.3696 18.9764C12.2766 18.9764 12.2012 19.055 12.2012 19.1519C12.2012 19.2489 12.2766 19.3275 12.3696 19.3275C12.4626 19.3275 12.5381 19.2489 12.5381 19.1519ZM11.6964 19.9126C11.7894 19.9126 11.8649 19.8339 11.8649 19.737C11.8649 19.64 11.7894 19.5614 11.6964 19.5614C11.6034 19.5614 11.528 19.64 11.528 19.737C11.528 19.8339 11.6034 19.9126 11.6964 19.9126ZM12.5381 19.737C12.5381 19.64 12.4626 19.5614 12.3696 19.5614C12.2766 19.5614 12.2012 19.64 12.2012 19.737C12.2012 19.8339 12.2766 19.9126 12.3696 19.9126C12.4626 19.9126 12.5381 19.8339 12.5381 19.737ZM11.6964 20.4977C11.7894 20.4977 11.8649 20.419 11.8649 20.322C11.8649 20.2251 11.7894 20.1464 11.6964 20.1464C11.6034 20.1464 11.528 20.2251 11.528 20.322C11.528 20.419 11.6034 20.4977 11.6964 20.4977ZM12.5381 20.322C12.5381 20.2251 12.4626 20.1464 12.3696 20.1464C12.2766 20.1464 12.2012 20.2251 12.2012 20.322C12.2012 20.419 12.2766 20.4977 12.3696 20.4977C12.4626 20.4977 12.5381 20.419 12.5381 20.322ZM12.3702 17.5724C12.4633 17.5724 12.5387 17.4937 12.5387 17.3968C12.5387 17.2998 12.4633 17.2212 12.3702 17.2212C12.2772 17.2212 12.2018 17.2998 12.2018 17.3968C12.2018 17.4937 12.2772 17.5724 12.3702 17.5724Z" fill="currentColor"/>
</g>
</svg>
