<svg width="24" height="24" viewBox="0 0 24 24" fill="none" xmlns="http://www.w3.org/2000/svg">
<g id="Frame">
<g id="botton_menu/trading_default">
<g id="Group 1556234779">
<path id="Union" fill-rule="evenodd" clip-rule="evenodd" d="M5.07031 4.5114C5.03761 4.57557 5.03761 4.65958 5.03761 4.8276V7.73993H4.2C3.77996 7.73993 3.56994 7.73993 3.40951 7.82168C3.26838 7.8936 3.15364 8.00835 3.08174 8.14943C3 8.30993 3 8.51993 3 8.93993V16.2909C3 16.7109 3 16.9209 3.08174 17.0814C3.15364 17.2225 3.26838 17.3372 3.40951 17.4092C3.56994 17.4909 3.77996 17.4909 4.2 17.4909H5.03761V20.4047C5.03761 20.5727 5.03761 20.6567 5.07031 20.7209C5.09907 20.7773 5.14496 20.8232 5.20141 20.852C5.26558 20.8847 5.34959 20.8847 5.51761 20.8847H5.951C6.11902 20.8847 6.20302 20.8847 6.2672 20.852C6.32365 20.8232 6.36955 20.7773 6.39831 20.7209C6.431 20.6567 6.431 20.5727 6.431 20.4047V17.4909H7.26823C7.68823 17.4909 7.89831 17.4909 8.05873 17.4092C8.19981 17.3372 8.31456 17.2225 8.38648 17.0814C8.46823 16.9209 8.46824 16.7109 8.46824 16.2909V8.93993C8.46824 8.51993 8.46823 8.30993 8.38648 8.14943C8.31456 8.00835 8.19981 7.8936 8.05873 7.82168C7.89831 7.73993 7.68823 7.73993 7.26823 7.73993H6.431V4.8276C6.431 4.65958 6.431 4.57557 6.39831 4.5114C6.36955 4.45495 6.32365 4.40905 6.2672 4.38029C6.20302 4.3476 6.11902 4.3476 5.951 4.3476H5.51761C5.34959 4.3476 5.26558 4.3476 5.20141 4.38029C5.14496 4.40905 5.09907 4.45495 5.07031 4.5114Z" fill="currentColor"/>
<path id="Union_2" fill-rule="evenodd" clip-rule="evenodd" d="M11.3363 1.38157C11.3036 1.44575 11.3036 1.52976 11.3036 1.69777V4.61014H10.4656C10.0456 4.61014 9.83562 4.61014 9.67512 4.69188C9.53405 4.76379 9.4193 4.87852 9.34738 5.01964C9.26563 5.18008 9.26562 5.3901 9.26562 5.81014V13.1611C9.26562 13.5811 9.26563 13.7912 9.34738 13.9516C9.4193 14.0927 9.53405 14.2074 9.67512 14.2793C9.83562 14.3611 10.0456 14.3611 10.4656 14.3611H11.3036V17.2748C11.3036 17.4428 11.3036 17.5269 11.3363 17.591C11.3651 17.6475 11.4109 17.6934 11.4674 17.7221C11.5316 17.7548 11.6156 17.7548 11.7836 17.7548H12.217C12.385 17.7548 12.469 17.7548 12.5332 17.7221C12.5896 17.6934 12.6355 17.6475 12.6643 17.591C12.697 17.5269 12.697 17.4428 12.697 17.2748V14.3611H13.5339C13.9539 14.3611 14.164 14.3611 14.3244 14.2793C14.4655 14.2074 14.5802 14.0927 14.6521 13.9516C14.7339 13.7912 14.7339 13.5811 14.7339 13.1611V5.81014C14.7339 5.3901 14.7339 5.18008 14.6521 5.01964C14.5802 4.87852 14.4655 4.76379 14.3244 4.69188C14.164 4.61014 13.9539 4.61014 13.5339 4.61014H12.697V1.69777C12.697 1.52976 12.697 1.44575 12.6643 1.38157C12.6355 1.32513 12.5896 1.27924 12.5332 1.25047C12.469 1.21777 12.385 1.21777 12.217 1.21777H11.7836C11.6156 1.21777 11.5316 1.21777 11.4674 1.25047C11.4109 1.27924 11.3651 1.32513 11.3363 1.38157Z" fill="#24EE89"/>
<path id="Union_3" fill-rule="evenodd" clip-rule="evenodd" d="M17.6013 6.40989C17.5686 6.47407 17.5686 6.55808 17.5686 6.72609V9.63898H16.7313C16.3113 9.63898 16.1012 9.63898 15.9407 9.72073C15.7997 9.79266 15.6849 9.90741 15.613 10.0485C15.5312 10.2089 15.5313 10.419 15.5313 10.839V18.19C15.5313 18.61 15.5312 18.82 15.613 18.9804C15.6849 19.1215 15.7997 19.2363 15.9407 19.3082C16.1012 19.39 16.3113 19.39 16.7313 19.39H17.5686V22.3032C17.5686 22.4712 17.5686 22.5552 17.6013 22.6194C17.63 22.6758 17.6759 22.7217 17.7323 22.7505C17.7965 22.7832 17.8805 22.7832 18.0485 22.7832H18.4819C18.65 22.7832 18.734 22.7832 18.7981 22.7505C18.8546 22.7217 18.9005 22.6758 18.9293 22.6194C18.9619 22.5552 18.9619 22.4712 18.9619 22.3032V19.39H19.7995C20.2196 19.39 20.4296 19.39 20.59 19.3082C20.7312 19.2363 20.8458 19.1215 20.9177 18.9804C20.9995 18.82 20.9995 18.61 20.9995 18.19V10.839C20.9995 10.419 20.9995 10.2089 20.9177 10.0485C20.8458 9.90741 20.7312 9.79266 20.59 9.72073C20.4296 9.63898 20.2196 9.63898 19.7995 9.63898H18.9619V6.72609C18.9619 6.55808 18.9619 6.47407 18.9293 6.40989C18.9005 6.35345 18.8546 6.30756 18.7981 6.27879C18.734 6.24609 18.65 6.24609 18.482 6.24609H18.0485C17.8805 6.24609 17.7965 6.24609 17.7323 6.27879C17.6759 6.30756 17.63 6.35345 17.6013 6.40989Z" fill="currentColor"/>
</g>
</g>
</g>
</svg>
