<svg width="24" height="24" viewBox="0 0 24 24" fill="none" xmlns="http://www.w3.org/2000/svg">
<g id="Frame" clip-path="url(#clip0_181_95726)">
<path id="Vector" d="M24 12C24 5.37258 18.6274 0 12 0C5.37258 0 0 5.37258 0 12C0 18.6274 5.37258 24 12 24C18.6274 24 24 18.6274 24 12Z" fill="#3A4142"/>
<path id="Vector_2" d="M12.7721 6.08775C12.9395 6.17052 13.0751 6.3057 13.1579 6.47351L14.477 9.1463C14.6007 9.39688 14.8398 9.57068 15.1161 9.6107L18.0657 10.0393C18.5297 10.1068 18.8511 10.5376 18.7839 11.0016C18.7573 11.1864 18.6699 11.357 18.5366 11.4876L16.4022 13.5681C16.2022 13.7631 16.1107 14.044 16.158 14.3194L16.662 17.2575C16.7411 17.7196 16.4307 18.1582 15.9686 18.2378C15.7847 18.2695 15.5952 18.2391 15.4302 18.1522L12.7919 16.765C12.5445 16.6349 12.2493 16.6349 12.0019 16.765L9.36268 18.1518C8.94751 18.3697 8.43435 18.2106 8.2164 17.7954C8.1295 17.6304 8.09962 17.4409 8.13086 17.257L8.63481 14.3189C8.68216 14.0435 8.59065 13.7625 8.39068 13.5676L6.25628 11.4871C5.92064 11.1597 5.91373 10.6222 6.24113 10.2865C6.37171 10.1527 6.54228 10.0659 6.72711 10.0392L9.67671 9.61062C9.95308 9.57061 10.1922 9.39682 10.3158 9.14622L11.635 6.47342C11.8424 6.05318 12.3514 5.88035 12.7721 6.08775Z" fill="currentColor"/>
</g>
<defs>
<clipPath id="clip0_181_95726">
<rect width="24" height="24" fill="white"/>
</clipPath>
</defs>
</svg>
