<svg width="24" height="24" viewBox="0 0 24 24" fill="none" xmlns="http://www.w3.org/2000/svg">
<g id="Frame">
<path id="Vector" fill-rule="evenodd" clip-rule="evenodd" d="M13.5288 5.25961L12.7203 2.77221C12.494 2.07593 11.5093 2.07593 11.2831 2.77221L10.4746 5.25961C10.3738 5.57069 10.0834 5.78165 9.7563 5.78165H7.14072C6.40905 5.78165 6.10464 6.71893 6.69678 7.14885L8.81302 8.68627C9.078 8.87857 9.18885 9.21967 9.08737 9.53077L8.27895 12.0181C8.0526 12.7138 8.8497 13.2932 9.44182 12.8626L11.5581 11.3252C11.8231 11.1329 12.1816 11.1329 12.4466 11.3252L14.5621 12.8626C15.1543 13.2932 15.9514 12.7144 15.7251 12.0181L14.9167 9.53077C14.8152 9.21967 14.926 8.87857 15.191 8.68627L17.3066 7.14885C17.8987 6.71826 17.595 5.78165 16.8626 5.78165H14.2471C13.92 5.78165 13.6303 5.57069 13.5288 5.25961ZM12.5828 6.64282V10.673H11.4886V7.65022H11.4653L10.5834 8.17755V7.24898L11.5754 6.64282H12.5828ZM6.73457 11.1399H7.76602L7.76662 11.1392L7.55437 11.7934C7.10241 13.186 8.69595 14.3436 9.8802 13.4831L11.1139 12.5866C11.6433 12.202 12.3609 12.202 12.8903 12.5866L14.124 13.4831C15.3089 14.3436 16.9024 13.186 16.4498 11.7934L16.2376 11.1392H17.4472C17.59 11.1392 17.7283 11.1933 17.833 11.2908L18.9919 12.3676L20.1162 13.3315C20.2417 13.4397 20.3137 13.5966 20.3137 13.7622V19.0741C20.3137 19.7002 19.8064 20.2076 19.1802 20.2076H4.82264C4.19645 20.2076 3.68909 19.7002 3.68909 19.0741V13.7735C3.68909 13.6012 3.76786 13.4384 3.90205 13.3309L5.10635 12.3676L6.3634 11.2781C6.46621 11.1893 6.59839 11.1399 6.73457 11.1399ZM6.9008 14.9184C6.58771 14.9184 6.33403 15.1721 6.33403 15.4852V17.5633C6.33403 17.8765 6.58771 18.1301 6.9008 18.1301H17.102C17.4151 18.1301 17.6688 17.8765 17.6688 17.5633V15.4852C17.6688 15.1721 17.4151 14.9184 17.102 14.9184H6.9008Z" fill="currentColor"/>
</g>
</svg>
