<svg width="18" height="18" viewBox="0 0 18 18" fill="none" xmlns="http://www.w3.org/2000/svg">
<g id="Frame">
<path id="Vector" d="M13.7658 11.0703C10.5455 10.663 8.01928 8.14525 7.60247 4.96375L7.59853 4.92775C7.56928 4.687 7.55241 4.40857 7.55241 4.12563C7.55241 3.70938 7.58897 3.301 7.65928 2.905L7.65309 2.94719C7.65759 2.91794 7.66041 2.88419 7.66041 2.84988C7.66041 2.5 7.37634 2.21594 7.02647 2.21594C6.95222 2.21594 6.88078 2.22832 6.81441 2.2525L6.81834 2.25082C4.18359 3.29763 2.35547 5.82438 2.35547 8.77863C2.35547 12.6475 5.49197 15.784 9.36084 15.784C12.0479 15.784 14.3817 14.2709 15.5568 12.0507L15.5748 12.013C15.6175 11.9303 15.6434 11.8324 15.6434 11.7284C15.6434 11.383 15.3633 11.1029 15.0179 11.1029C15.0055 11.1029 14.9932 11.1034 14.9808 11.104H14.9825C14.8559 11.1124 14.708 11.1169 14.5589 11.1169C14.2793 11.1169 14.0032 11.1001 13.732 11.0674L13.7647 11.0708L13.7658 11.0703Z" fill="currentColor"/>
</g>
</svg>
