<svg width="24" height="24" viewBox="0 0 24 24" fill="none" xmlns="http://www.w3.org/2000/svg">
<path fill-rule="evenodd" clip-rule="evenodd" d="M2.00024 12.0023C2.00024 10.1108 6.47624 5.94226 12 5.94226C17.5237 5.94226 21.9997 10.032 21.9997 12.0023C21.9997 13.9725 17.5237 18.0578 12 18.0578C6.47624 18.0578 2.00024 13.8938 2.00024 12.0023ZM11.9947 16.4588H12C12.5851 16.4589 13.1645 16.3437 13.7051 16.1199C14.2457 15.896 14.7369 15.5679 15.1506 15.1542C15.5644 14.7405 15.8926 14.2493 16.1166 13.7088C16.3405 13.1682 16.4557 12.5889 16.4557 12.0038V11.9978C16.4557 11.1155 16.1941 10.253 15.7039 9.51936C15.2137 8.78575 14.517 8.21398 13.7019 7.87633C12.8868 7.53869 11.9898 7.45035 11.1244 7.62248C10.2591 7.79461 9.46422 8.21948 8.84034 8.84336C8.21646 9.46724 7.79159 10.2621 7.61946 11.1275C7.44733 11.9928 7.53568 12.8898 7.87332 13.7049C8.21096 14.5201 8.78274 15.2168 9.51635 15.7069C10.25 16.1971 11.1124 16.4588 11.9947 16.4588ZM12.4672 9.60901C12.3336 9.81993 12.2624 10.0643 12.2617 10.314V10.323C12.2625 10.5857 12.3413 10.8423 12.4882 11.0602C12.635 11.278 12.8432 11.4474 13.0865 11.5467C13.3297 11.646 13.597 11.6708 13.8543 11.618C14.1117 11.5652 14.3475 11.4371 14.532 11.25L14.5267 11.2328C14.6914 11.7131 14.6992 12.2332 14.5491 12.7183C14.399 13.2033 14.0987 13.6281 13.6915 13.9314C13.2843 14.2347 12.7913 14.4009 12.2836 14.4059C11.7759 14.4109 11.2798 14.2545 10.8667 13.9593C10.4536 13.6641 10.145 13.2453 9.9853 12.7633C9.82562 12.2814 9.82316 11.7612 9.97828 11.2777C10.1334 10.7943 10.4381 10.3726 10.8483 10.0735C11.2586 9.77435 11.7533 9.61329 12.261 9.61351H12.4635L12.4672 9.60826V9.60901Z" fill="currentColor"/>
</svg>
