<svg width="24" height="24" viewBox="0 0 24 24" fill="none" xmlns="http://www.w3.org/2000/svg">
<path d="M2.02126 11.7127C1.95301 11.382 2.04901 11.163 2.31076 11.055C2.70451 10.8937 2.98501 11.112 3.25576 11.43C3.40576 11.604 4.29226 12.525 6.03151 13.2832C7.45801 13.905 9.46276 14.4045 12.063 14.4045C14.9715 14.4045 16.9193 13.8682 18.2543 13.2832C19.2333 12.8436 20.1152 12.2137 20.8485 11.43C21.5273 10.6777 22.0995 11.2762 21.9855 11.8875C21.936 12.1522 21.648 12.939 20.928 13.7925C20.5433 14.2485 19.9815 14.7105 19.2443 15.1822C20.0265 16.8727 20.2163 17.8185 19.8128 18.0195C19.4093 18.2212 18.5475 17.571 17.2283 16.071C16.5263 16.287 15.8588 16.4505 15.2273 16.5607C14.5487 16.6756 13.8636 16.7474 13.176 16.776C12.8895 18.726 12.519 19.7025 12.0638 19.7025C11.6085 19.7025 11.2388 18.7267 10.953 16.776C10.2797 16.756 9.60897 16.684 8.94676 16.5607C8.29432 16.4429 7.65229 16.2734 7.02676 16.0537C5.57251 17.6602 4.66051 18.3787 4.28926 18.2085C3.91951 18.039 4.16476 17.0167 5.02651 15.141C4.31619 14.7445 3.67899 14.2293 3.14251 13.6177C2.60926 13.0087 2.23726 12.3735 2.02276 11.712L2.02126 11.7127Z" fill="currentColor"/>
</svg>
