<svg width="24" height="24" viewBox="0 0 24 24" fill="none" xmlns="http://www.w3.org/2000/svg">
<g id="Frame">
<path id="Vector" fill-rule="evenodd" clip-rule="evenodd" d="M12.6134 3.3073C12.3145 2.88508 11.688 2.88508 11.3891 3.3073L8.50306 7.38424C8.40788 7.5187 8.27116 7.618 8.11388 7.66697L3.34465 9.15197C2.85073 9.30572 2.65712 9.9016 2.96632 10.3163L5.95188 14.321C6.05032 14.453 6.10256 14.6138 6.10054 14.7785L6.03903 19.7732C6.03266 20.2904 6.53952 20.6587 7.0295 20.4928L11.7608 18.8909C11.9168 18.838 12.0858 18.838 12.2418 18.8909L16.973 20.4928C17.463 20.6587 17.9699 20.2904 17.9635 19.7732L17.902 14.7785C17.9 14.6138 17.9522 14.453 18.0506 14.321L21.0362 10.3163C21.3454 9.9016 21.1518 9.30572 20.6579 9.15197L15.8886 7.66697C15.7314 7.618 15.5946 7.5187 15.4994 7.38424L12.6134 3.3073ZM15.086 11.6675C15.4589 11.3082 15.4698 10.7147 15.1106 10.3419C14.7512 9.9691 14.1578 9.95815 13.7849 10.3175L11.5778 12.4445L10.5704 11.4998C10.1927 11.1456 9.59941 11.1647 9.24526 11.5424C8.89111 11.9201 8.91023 12.5135 9.28793 12.8676L10.9454 14.4218C11.3097 14.7633 11.8778 14.7594 12.2372 14.4129L15.086 11.6675Z" fill="currentColor"/>
</g>
</svg>
