<svg width="24" height="24" viewBox="0 0 24 24" fill="none" xmlns="http://www.w3.org/2000/svg">
<g id="Frame">
<path id="Vector" d="M21 12.001C21 16.9709 16.9707 21 12 21C7.02927 21 3 16.9709 3 12.001C3 11.1778 3.11037 10.3807 3.31732 9.62347C3.20695 10.1638 3.14914 10.7269 3.14914 11.3084C3.14914 12.178 3.27856 13.0273 3.51901 13.8336C3.92174 14.257 5.2022 15.3421 5.88349 15.9073C5.82239 16.8814 6.16928 17.7229 6.47609 18.2239C7.6179 19.1321 8.9943 19.7482 10.5073 19.9436C11.0868 19.7672 11.799 19.1105 12.1485 18.7251C13.421 18.7251 15.099 18.4285 15.7783 18.2802L15.6725 18.9721C17.4589 18.0045 18.8556 16.428 19.5731 14.5267L17.6677 15.6094L16.6731 13.2854L18.1651 9.6261L19.9975 10.271C19.6447 8.09535 18.443 6.19807 16.7362 4.91818C16.7894 5.69957 16.8157 6.48488 16.8229 7.00559C15.8683 6.60967 14.0715 6.84095 13.2929 7.00559C12.5768 6.13535 11.5027 4.96196 11.0552 4.48372C11.7412 3.96432 12.2707 3.59584 12.8087 3.28812C12.3988 3.22867 11.979 3.19796 11.552 3.19796C10.4036 3.19796 9.3162 3.40311 8.32942 3.78008C9.45022 3.27897 10.6926 3 11.9993 3C16.9694 3 20.9993 7.02911 20.9993 11.999L21 12.001ZM5.68574 9.28177C5.10169 9.44445 4.04657 9.82013 3.30747 10.3043C3.63399 8.2809 4.68253 6.49729 6.18242 5.22329L7.47602 6.0674C6.94583 6.59465 5.84539 7.97648 5.68574 9.28177ZM11.7517 10.369L8.07187 11.2098L7.72372 15.1658L11.4035 16.7971L13.9394 13.7807L11.7517 10.369Z" fill="currentColor"/>
</g>
</svg>
