<svg width="24" height="24" viewBox="0 0 24 24" fill="none" xmlns="http://www.w3.org/2000/svg">
<g id="Frame">
<path id="Vector" d="M16.5077 4.00275C18.997 4.00275 21.0149 6.18325 21.0149 8.87264V15.1295C21.0149 17.8189 18.997 19.9994 16.5077 19.9994C15.1056 19.9994 13.8537 19.3082 13.0267 18.2236V15.6443C13.6255 15.5361 14.2144 15.3315 14.7908 15.0331C15.0276 14.9105 15.1201 14.6193 14.9974 14.3819C14.8747 14.1445 14.5836 14.0527 14.3462 14.1754C13.9101 14.401 13.4707 14.5623 13.0267 14.6593V13.4008H15.0052L15.1122 13.3924C15.183 13.3812 15.2512 13.3595 15.3161 13.3281C15.6316 13.172 15.7784 12.8107 15.6735 12.4854L15.6342 12.3889L12.651 6.3485C13.4412 4.94118 14.8728 4.00078 16.507 4.00078L16.5077 4.00275ZM11.9985 14.7715C11.2889 14.7715 10.5892 14.6154 9.89729 14.3006L9.63831 14.1754C9.40086 14.0533 9.10971 14.1472 8.98844 14.3845C8.86709 14.6219 8.96024 14.9131 9.19761 15.0344C10.1085 15.502 11.0443 15.7375 11.9992 15.7375H12.0129C11.7585 18.1357 9.84156 20.0001 7.51416 20.0001C5.08318 20.0001 3.09941 17.9651 2.99055 15.4122L2.98596 15.1918V8.81032C2.98596 6.15505 5.01301 4.00275 7.51416 4.00275C9.45531 4.00275 10.8226 5.00742 11.8456 7.01675C11.9421 7.20628 12.0444 7.40498 12.1519 7.61414L12.1546 7.60567L12.3014 7.90342C12.9061 9.07132 13.6747 10.5239 14.6072 12.2631C14.623 12.288 14.6295 12.3175 14.6295 12.347C14.6288 12.427 14.5764 12.4939 14.5042 12.5168L14.4472 12.5254L12.0424 12.4775L12.0418 14.7708L12.0018 14.7721L11.9992 14.7727L11.9985 14.7715ZM16.4316 7.47449C15.8984 7.47449 15.4657 7.94077 15.4657 8.51587C15.4657 9.09104 15.8978 9.55724 16.4316 9.55724C16.9648 9.55724 17.3976 9.09104 17.3976 8.51587C17.3976 7.94077 16.9654 7.47449 16.4316 7.47449ZM7.55481 7.47449C7.02169 7.47449 6.58887 7.94077 6.58887 8.51587C6.58887 9.09104 7.02103 9.55724 7.55481 9.55724C8.08799 9.55724 8.52081 9.09104 8.52081 8.51587C8.52081 7.94077 8.08866 7.47449 7.55481 7.47449Z" fill="currentColor"/>
</g>
</svg>
