<svg width="24" height="24" viewBox="0 0 24 24" fill="none" xmlns="http://www.w3.org/2000/svg">
<g id="Frame">
<path id="Vector" d="M16.2685 4.93358C16.4418 5.06194 16.5743 5.24161 16.6501 5.4504L19.2396 12.5362L20.9318 12.5371C21.2152 12.5371 21.4876 12.6569 21.6885 12.8683C21.8885 13.0804 22.0018 13.368 22.0018 13.6675C22.0018 13.9669 21.8893 14.2553 21.6885 14.4676C21.4876 14.6797 21.2152 14.7987 20.9318 14.7987L18.8455 14.8003C18.595 14.8825 18.3169 14.8666 18.0693 14.7422C17.9375 14.6761 17.8204 14.5828 17.7251 14.4684C17.6347 14.3605 17.5649 14.2364 17.5192 14.1024C17.52 14.1001 17.5191 14.0979 17.5182 14.0956C17.516 14.0932 17.513 14.084 17.5101 14.0747L15.5767 8.79779L11.5117 18.4395C11.4823 18.5535 11.4358 18.6636 11.3725 18.7656C11.2759 18.9205 11.1433 19.0484 10.9867 19.1378C10.838 19.2226 10.6716 19.2688 10.5019 19.2727L10.4672 19.273L10.342 19.2646L10.2331 19.2426C10.2287 19.2415 10.2243 19.2403 10.2199 19.2391L10.342 19.2646C10.0919 19.2328 9.85926 19.111 9.68661 18.9187C9.55319 18.7708 9.46169 18.5905 9.41901 18.3972L7.05941 12.5316L6.24829 14.1842C6.15829 14.369 6.02244 14.524 5.85496 14.6317C5.68829 14.7404 5.49498 14.7977 5.29912 14.7986H3.07161C2.78827 14.7986 2.51577 14.6788 2.31493 14.4675C2.11335 14.253 2.00097 13.9663 2.00159 13.6683C2.00159 13.3679 2.11409 13.0804 2.31493 12.8682C2.51577 12.656 2.78827 12.5371 3.07161 12.5371H4.64496L6.20162 9.37454C6.26158 9.23616 6.34804 9.11159 6.45579 9.00831C6.67143 8.80319 6.96009 8.69886 7.25329 8.71994C7.39746 8.73104 7.53831 8.77296 7.66664 8.84399C7.79496 8.91419 7.90829 9.01169 8.00001 9.12981C8.11859 9.28184 8.19621 9.46094 8.22794 9.64941L10.4939 15.2887L14.6734 5.39818C14.7601 5.19283 14.9017 5.02083 15.0809 4.90104C15.445 4.65807 15.9175 4.67108 16.2685 4.93358Z" fill="currentColor"/>
</g>
</svg>
