<svg width="24" height="24" viewBox="0 0 24 24" fill="none" xmlns="http://www.w3.org/2000/svg">
<g id="Frame">
<path id="Vector" d="M12.7031 22.5004C16.4606 22.5004 19.8536 20.5219 21.7376 17.3052C21.8621 17.0922 21.7864 16.8214 21.5749 16.6947L14.4146 12.3979C14.1146 12.2179 14.1146 11.7837 14.4146 11.6037L21.5749 7.30691C21.7864 7.18016 21.8621 6.90866 21.7376 6.69641C19.8536 3.47966 16.4606 1.50116 12.7031 1.50116C6.91313 1.50116 2.20312 6.21116 2.20312 12.0012C2.20312 17.7912 6.91313 22.5004 12.7031 22.5004ZM12.1781 5.70041C12.3851 5.70041 12.5899 5.74166 12.7811 5.82041C12.9724 5.89916 13.1456 6.01541 13.2919 6.16241C13.4381 6.30866 13.5544 6.48266 13.6331 6.67391C13.7119 6.86516 13.7531 7.06991 13.7531 7.27691C13.7531 7.48391 13.7119 7.68866 13.6331 7.87991C13.5544 8.07116 13.4374 8.24441 13.2911 8.39066C13.1449 8.53691 12.9709 8.65316 12.7796 8.73191C12.5884 8.81066 12.3836 8.85191 12.1766 8.85191C11.7589 8.85191 11.3584 8.68541 11.0629 8.38991C10.7674 8.09441 10.6016 7.69391 10.6016 7.27541C10.6016 6.85766 10.7681 6.45716 11.0636 6.16166C11.3591 5.86616 11.7604 5.70041 12.1781 5.70041Z" fill="currentColor"/>
</g>
</svg>
