<svg width="24" height="24" viewBox="0 0 24 24" fill="none" xmlns="http://www.w3.org/2000/svg">
<g id="Frame">
<path id="Vector" d="M9.00622 3.50978C5.90378 4.60393 3.58114 7.34957 3.0945 10.6912C3.76822 11.1964 4.79357 11.8245 5.75786 12C5.33615 10.5953 6.68228 5.79193 9.00622 3.50978ZM3.99707 16.122C3.35936 14.8871 3 13.4857 3 12C3 11.8605 3.00322 11.7217 3.00964 11.5835C3.02635 11.5931 3.04372 11.6027 3.06107 11.613C5.799 13.9537 10.1576 13.1887 11.9948 12.5137C13.4522 13.9665 13.5493 14.1439 14.5258 15.9272C10.3942 18.3559 5.17993 17.9002 4.35514 16.6967C4.25807 16.5547 4.134 16.3573 3.99707 16.122ZM14.8768 20.5307C13.9735 20.8355 13.0061 21 12 21C9.43432 21 7.11943 19.9265 5.48014 18.2042C5.49172 18.2068 5.50393 18.2093 5.5155 18.212C8.61083 19.3305 13.764 18.1637 14.8279 17.085C15.204 18.2158 15.0375 19.7465 14.8768 20.5307ZM18.8683 17.8165C18.1335 18.6838 17.2367 19.4096 16.2262 19.9483C16.2165 19.8698 16.2107 19.7805 16.21 19.6789C16.8298 16.131 13.951 12.7695 12.4345 11.5327C12.9424 9.5385 13.0453 9.36427 14.0828 7.61572C18.2775 9.93382 20.541 14.6537 19.9258 15.976C19.7425 16.3688 19.342 17.0792 18.8683 17.8165ZM17.6944 5.03015C19.7123 6.68036 21 9.19005 21 12C21 12.8126 20.892 13.6 20.6902 14.349C20.6728 14.3053 20.6548 14.2571 20.6381 14.2057C20.0242 10.9721 16.3952 7.13165 14.9243 6.76586C15.6502 5.93015 16.912 5.322 17.6944 5.03015ZM10.8461 3.07328C11.2241 3.02507 11.6092 3 12 3C13.6084 3 15.1185 3.42172 16.4248 4.161C16.3637 4.20793 16.2923 4.25615 16.2088 4.30628C12.8408 5.58365 11.4182 9.77378 11.1283 11.7095C9.15405 12.29 8.95155 12.29 6.91885 12.29C6.78193 7.79318 9.33217 3.68078 10.8461 3.07328Z" fill="currentColor"/>
</g>
</svg>
