<svg width="24" height="24" viewBox="0 0 24 24" fill="none" xmlns="http://www.w3.org/2000/svg">
<g id="Frame">
<path id="Vector" d="M9.90511 8.51216C9.93235 6.73452 10.725 4.88898 11.7504 4.00078C8.94732 4.00078 7.34086 6.18792 7.34086 7.89705V13.0245H4.8505C4.48682 13.0245 4.2844 13.4449 4.51122 13.7292L8.42547 18.635C8.60288 18.8574 8.94264 18.8518 9.11269 18.6238L12.7712 13.718C12.9847 13.4317 12.7804 13.0245 12.4233 13.0245H9.90511C9.90511 13.0245 9.87788 10.2898 9.90511 8.51216Z" fill="currentColor"/>
<path id="Vector_2" d="M14.9905 14.5623C14.9633 16.34 14.1707 18.1855 13.1452 19.0737C15.9483 19.0737 17.5547 16.8866 17.5547 15.1774V10.05H20.0451C20.4088 10.05 20.6112 9.6296 20.3844 9.34532L16.4701 4.4395C16.2927 4.21715 15.953 4.2227 15.7829 4.45073L12.1244 9.35654C11.9109 9.64283 12.1152 10.05 12.4724 10.05H14.9905C14.9905 10.05 15.0177 12.7847 14.9905 14.5623Z" fill="currentColor"/>
</g>
</svg>
