<svg width="24" height="24" viewBox="0 0 24 24" fill="none" xmlns="http://www.w3.org/2000/svg">
<g id="Frame">
<path id="Vector" d="M14.4025 4.17729L12.7548 2.46564L12.819 4.80383C12.8339 5.34489 12.8326 5.84768 12.816 6.31221L12.7944 6.76479L12.7629 7.19225C12.5553 9.54362 11.8726 10.7034 10.8538 10.829C9.33529 11.0161 8.46911 10.4649 8.00021 9.00017L7.33357 6.91843L6.31111 8.86082C4.80491 11.7221 4.35268 14.1812 5.02114 16.2305C6.09735 19.5313 8.98864 21.1993 12.3631 20.9805C15.4583 20.7797 18.2508 19.0034 18.9341 16.5546C20.0442 12.5723 18.4948 8.4286 14.4031 4.17788L14.4025 4.17729Z" fill="currentColor"/>
</g>
</svg>
