<svg width="24" height="24" viewBox="0 0 24 24" fill="none" xmlns="http://www.w3.org/2000/svg">
<g id="Frame">
<path id="Vector" d="M12.0056 4.16492C13.7639 4.21325 15.4916 4.42292 17.1662 4.97838C18.352 5.37184 19.4656 5.90281 20.3949 6.76052C20.9578 7.27991 21.3853 7.88918 21.5569 8.65088C21.7686 9.58688 21.5269 10.4208 20.9782 11.1839C20.5269 11.8108 19.9313 12.2778 19.2757 12.6678C17.9844 13.435 16.5746 13.8673 15.1042 14.1287C13.8272 14.3554 12.5407 14.4357 11.2486 14.3798C9.23849 14.2934 7.28208 13.9401 5.45298 13.0599C4.53128 12.6168 3.6831 12.0654 3.05683 11.2295C2.07999 9.92453 2.14602 8.38883 3.22361 7.15329C3.83626 6.45079 4.59731 5.94977 5.42439 5.54883C6.80694 4.87763 8.27459 4.50392 9.79596 4.34123C10.5312 4.26294 11.2691 4.22278 12.0063 4.1656L12.0056 4.16492Z" fill="currentColor"/>
<path id="Vector_2" d="M2.3646 12.2204C2.67774 12.5029 2.95956 12.7881 3.27132 13.0345C4.13857 13.7207 5.11745 14.2054 6.15555 14.575C7.2733 14.9739 8.42439 15.2251 9.60069 15.3714C10.5986 15.496 11.5986 15.5437 12.602 15.511C14.5802 15.4477 16.5121 15.1271 18.3534 14.3796C19.5767 13.8827 20.7012 13.2251 21.6311 12.1781V12.3939C21.6311 13.1271 21.6202 13.8616 21.6338 14.5947C21.6502 15.4871 21.3254 16.2414 20.7516 16.9058C20.1546 17.5967 19.4045 18.0848 18.5951 18.4783C17.2091 19.1522 15.734 19.5164 14.2071 19.6994C13.1084 19.8315 12.0071 19.8724 10.9043 19.8029C9.00369 19.6838 7.15758 19.3271 5.4299 18.4905C4.47961 18.0296 3.61169 17.4531 2.98542 16.577C2.57699 16.0065 2.35779 15.3742 2.36256 14.6655C2.36869 13.8568 2.36392 13.0481 2.36392 12.221L2.3646 12.2204Z" fill="currentColor"/>
</g>
</svg>
