<svg width="22" height="22" viewBox="0 0 22 22" fill="none" xmlns="http://www.w3.org/2000/svg">
<path d="M11.347 3.42822C15.6819 3.42822 19.196 6.94231 19.196 11.2772C19.196 15.612 15.6819 19.1261 11.347 19.1261C7.01214 19.1261 3.49805 15.612 3.49805 11.2772C3.49805 6.94231 7.01214 3.42822 11.347 3.42822ZM11.2416 14.0613C10.9826 14.0613 10.7706 14.1437 10.5941 14.3086C10.4175 14.4734 10.335 14.6853 10.335 14.9443C10.335 15.2033 10.4175 15.4152 10.5941 15.5801C10.7706 15.7449 10.9826 15.8391 11.2416 15.8391C11.5006 15.8391 11.7126 15.7567 11.8891 15.5918C12.0657 15.427 12.1599 15.2033 12.1599 14.9443C12.1599 14.6853 12.0657 14.4734 11.9009 14.3086C11.7243 14.1437 11.5006 14.0613 11.2416 14.0613ZM11.2158 6.52856C11.2007 6.52856 11.1855 6.52912 11.1709 6.52968C10.5823 6.55435 10.1254 7.05164 10.1506 7.64032L10.3664 12.7489H12.0433L12.2777 7.63973C12.2782 7.62351 12.2788 7.60722 12.2788 7.591C12.2788 7.00398 11.8022 6.52856 11.2158 6.52856Z" fill="currentColor"/>
</svg>
