<svg width="24" height="24" viewBox="0 0 24 24" fill="none" xmlns="http://www.w3.org/2000/svg">
<g id="Frame">
<path id="Vector" d="M10.6414 17.5909L12.1774 5.05313H16.2386C19.7351 5.05313 21.4301 7.08413 21.4301 10.2799C21.4301 14.5706 18.8876 17.5901 14.5609 17.5901H10.6406L10.6414 17.5909ZM14.0846 14.7484H14.9321C17.1221 14.7484 18.1106 12.7001 18.1106 10.3511C18.1106 8.76188 17.4574 7.89638 15.8501 7.89638H14.9321L14.0846 14.7484Z" fill="currentColor"/>
<path id="Vector_2" d="M5.07694 17.7675C3.80569 17.7675 2.53444 17.1848 1.89844 16.002L3.96469 13.8653C4.14094 14.3243 4.52944 14.6955 5.00644 14.6955C5.48344 14.6955 5.90719 14.448 6.10144 12.8415L7.07269 5.05429H10.2692L9.29794 12.9833C8.89144 16.3028 7.70869 17.769 5.07769 17.769L5.07694 17.7675Z" fill="currentColor"/>
</g>
</svg>
