<svg width="40" height="18" viewBox="0 0 40 18" fill="none" xmlns="http://www.w3.org/2000/svg">
<path d="M0 6C0 2.68629 2.68629 0 6 0H34C37.3137 0 40 2.68629 40 6V12C40 15.3137 37.3137 18 34 18H6C2.68629 18 0 15.3137 0 12V6Z" fill="#FFE175" fill-opacity="0.2"/>
<path d="M5.47506 13V4.48H7.16706V8.164H10.6591V4.48H12.3511V13H10.6591V9.676H7.16706V13H5.47506ZM16.8693 13.096C15.0093 13.096 13.7613 11.824 13.7613 10.072C13.7613 8.32 15.0093 7.048 16.8693 7.048C18.6933 7.048 19.9893 8.272 19.9893 10.072C19.9893 11.872 18.6933 13.096 16.8693 13.096ZM16.8693 11.692C17.7213 11.692 18.3933 11.02 18.3933 10.072C18.3933 9.112 17.7453 8.452 16.8693 8.452C15.9573 8.452 15.3453 9.148 15.3453 10.072C15.3453 10.984 15.9813 11.692 16.8693 11.692ZM23.034 13.096C22.026 13.096 21.366 12.472 21.366 11.152V8.44H20.67V7.144H21.366V5.224L22.926 5.056V7.144H24.522V8.44H22.926V10.936C22.926 11.44 23.082 11.68 23.442 11.68C23.634 11.68 23.922 11.608 24.186 11.476L24.594 12.736C24.21 12.94 23.826 13.096 23.034 13.096Z" fill="#FFE175"/>
<g clip-path="url(#clip0_181_96116)">
<path fill-rule="evenodd" clip-rule="evenodd" d="M33.3249 4.12558C33.3577 4.03481 33.4976 4.02985 33.5357 4.11854C33.674 4.43999 33.9202 4.9582 34.1829 5.25314C34.4424 5.54437 34.9125 5.75485 35.2114 5.86696C35.3005 5.90038 35.3075 6.03735 35.2217 6.07855C34.9328 6.21741 34.4721 6.46572 34.1829 6.75742C33.8964 7.04651 33.6637 7.51059 33.5337 7.80613C33.495 7.89403 33.3539 7.89105 33.3183 7.80191C33.2017 7.5105 32.9887 7.05701 32.6958 6.75742C32.3969 6.45174 31.9231 6.20749 31.6262 6.07327C31.5391 6.03389 31.543 5.89594 31.6322 5.86142C31.9328 5.74499 32.4086 5.53124 32.6958 5.25314C32.9866 4.97149 33.2072 4.45139 33.3249 4.12558ZM29.2301 6.95234C29.2978 6.77154 29.5797 6.7616 29.6573 6.93837C29.89 7.46787 30.2706 8.2444 30.675 8.69836C31.0732 9.14533 31.774 9.47631 32.2639 9.66759C32.4412 9.7368 32.4551 10.0134 32.2845 10.0975C31.8094 10.3317 31.1189 10.7172 30.675 11.165C30.236 11.6079 29.8741 12.3013 29.6545 12.7857C29.5753 12.9606 29.2898 12.9546 29.2161 12.7773C29.0181 12.3005 28.6842 11.6231 28.2363 11.165C27.7774 10.6957 27.0669 10.3146 26.5787 10.0873C26.4054 10.0067 26.4133 9.72806 26.5908 9.65699C27.0844 9.45935 27.7957 9.12505 28.2363 8.69836C28.6837 8.26517 29.0296 7.48795 29.2301 6.95234Z" fill="#FFE175"/>
</g>
<defs>
<clipPath id="clip0_181_96116">
<rect width="10" height="9" fill="white" transform="translate(26 4)"/>
</clipPath>
</defs>
</svg>
