<svg width="40" height="18" viewBox="0 0 40 18" fill="none" xmlns="http://www.w3.org/2000/svg">
<g id="Frame" clip-path="url(#clip0_181_95869)">
<path id="Vector" d="M0 9C0 6.20435 0 4.80653 0.456723 3.7039C1.06569 2.23373 2.23373 1.06569 3.7039 0.456723C4.80653 0 6.20435 0 9 0H31C33.7957 0 35.1935 0 36.2961 0.456723C37.7663 1.06569 38.9343 2.23373 39.5433 3.7039C40 4.80653 40 6.20435 40 9C40 11.7956 40 13.1935 39.5433 14.2961C38.9343 15.7663 37.7663 16.9343 36.2961 17.5433C35.1935 18 33.7957 18 31 18H9C6.20435 18 4.80653 18 3.7039 17.5433C2.23373 16.9343 1.06569 15.7663 0.456723 14.2961C0 13.1935 0 11.7956 0 9Z" fill="#24EE89" fill-opacity="0.2"/>
<path id="Vector_2" d="M4.86719 13.0004V5.90039H6.47719L9.30719 10.2804L9.32719 10.2704V5.90039H10.9772V13.0004H9.31719L6.53719 8.74039H6.51719V13.0004H4.86719ZM16.8297 10.5004C16.8297 10.6404 16.8097 10.8704 16.7997 10.9704H13.4697C13.5697 11.5304 14.0397 11.8204 14.6397 11.8204C15.0397 11.8104 15.4497 11.6604 15.7797 11.2904L16.6797 12.2104C16.2697 12.7204 15.5897 13.0904 14.4797 13.0904C12.9997 13.0904 11.9197 12.0704 11.9197 10.5504C11.9197 9.07039 12.9597 8.02039 14.4397 8.02039C15.8197 8.02039 16.8297 9.05039 16.8297 10.5004ZM14.4197 9.26039C13.9397 9.26039 13.5797 9.55039 13.4797 10.0404H15.3097C15.2097 9.56039 14.8897 9.26039 14.4197 9.26039ZM18.6044 13.0004L16.9544 8.11039H18.5144L19.3144 10.7604H19.3244L20.0644 8.11039H21.2744L22.0144 10.7604H22.0344L22.8444 8.11039H24.3944L22.7344 13.0004H21.4744L20.6744 10.1604H20.6644L19.8844 13.0004H18.6044Z" fill="#24EE89"/>
<path id="Vector_3" fill-rule="evenodd" clip-rule="evenodd" d="M33.958 4.64121C33.9908 4.55044 34.1307 4.54548 34.1688 4.63417C34.3071 4.95562 34.5533 5.47383 34.8161 5.76877C35.0755 6.06 35.5456 6.27049 35.8445 6.38259C35.9336 6.41601 35.9405 6.55298 35.8548 6.59418C35.5659 6.73304 35.1052 6.98135 34.8161 7.27305C34.5295 7.56214 34.2968 8.02621 34.1668 8.32175C34.1281 8.40965 33.987 8.40668 33.9514 8.31753C33.8348 8.02612 33.6218 7.57264 33.3289 7.27305C33.03 6.96737 32.5562 6.72312 32.2593 6.5889C32.1722 6.54952 32.1761 6.41157 32.2653 6.37705C32.5659 6.26061 33.0417 6.04687 33.3289 5.76877C33.6197 5.48712 33.8403 4.96702 33.958 4.64121ZM29.8629 7.4679C29.9305 7.2871 30.2125 7.27717 30.2901 7.45393C30.5228 7.98343 30.9033 8.75997 31.3078 9.21393C31.7059 9.6609 32.4068 9.99188 32.8967 10.1832C33.074 10.2524 33.0879 10.529 32.9173 10.6131C32.4422 10.8473 31.7517 11.2328 31.3078 11.6806C30.8688 12.1235 30.5068 12.8169 30.2873 13.3013C30.2081 13.4762 29.9226 13.4702 29.8489 13.2929C29.6509 12.8161 29.317 12.1387 28.8691 11.6806C28.4101 11.2113 27.6997 10.8302 27.2115 10.6029C27.0382 10.5223 27.0461 10.2437 27.2236 10.1726C27.7172 9.97491 28.4285 9.64061 28.8691 9.21393C29.3165 8.78073 29.6624 8.00352 29.8629 7.4679Z" fill="#24EE89"/>
</g>
<defs>
<clipPath id="clip0_181_95869">
<rect width="40" height="18" fill="white"/>
</clipPath>
</defs>
</svg>
