<svg width="25" height="24" viewBox="0 0 25 24" fill="none" xmlns="http://www.w3.org/2000/svg">
<g id="Frame">
<path id="Vector" d="M12.5156 3C7.54507 3 3.51562 7.02945 3.51562 12C3.51562 16.9705 7.54507 21 12.5156 21C17.4862 21 21.5156 16.9705 21.5156 12C21.5156 7.02945 17.4862 3 12.5156 3ZM19.391 9.00052C19.7923 9.9189 20.0162 10.9335 20.0162 12.0007C20.0162 13.068 19.7923 14.0826 19.391 15.001H16.0089C16.1743 14.0705 16.2644 13.059 16.2644 12.0007C16.2644 10.9425 16.1742 9.93097 16.0089 9.00052H19.391ZM10.267 12.0007C10.267 10.9231 10.3496 9.9039 10.5 9.00052H14.5299C14.6803 9.9039 14.7644 10.923 14.7644 12.0007C14.7644 13.0786 14.6803 14.0977 14.5299 15.001H10.5016C10.3513 14.0977 10.267 13.0786 10.267 12.0007ZM18.5161 7.5003H15.6601C15.3114 6.3294 14.8334 5.3659 14.2697 4.70751C15.9669 5.11627 17.4685 6.10387 18.5161 7.5003ZM12.5156 5.25167C13.1815 5.25167 13.7812 6.12199 14.1931 7.50187H10.8382C11.25 6.12055 11.8498 5.25167 12.5156 5.25167ZM10.7615 4.70909C10.1978 5.36594 9.71978 6.33247 9.37253 7.50187H6.51652C7.56367 6.10572 9.06488 5.11817 10.7615 4.70909ZM5.64031 9.00052H9.02235C8.85698 9.93097 8.76675 10.9425 8.76675 12.0007C8.76675 13.059 8.85705 14.0705 9.02235 15.001H5.64027C5.22683 14.0549 5.01394 13.0333 5.01499 12.0007C5.01499 10.9335 5.23901 9.9189 5.64031 9.00052ZM6.51518 16.5011H9.37117C9.71992 17.672 10.1979 18.6355 10.7615 19.294C9.06435 18.8851 7.56278 17.8975 6.51518 16.5011ZM12.5156 18.7498C11.8498 18.7498 11.25 17.8795 10.8381 16.4995H14.1931C13.7783 17.8809 13.1816 18.7498 12.5156 18.7498ZM14.2697 19.2925C14.8334 18.6356 15.3114 17.6691 15.6587 16.4996H18.5147C17.4675 17.8958 15.9664 18.8834 14.2697 19.2925Z" fill="currentColor"/>
</g>
</svg>
