<svg width="24" height="24" viewBox="0 0 24 24" fill="none" xmlns="http://www.w3.org/2000/svg">
<g id="Frame" clip-path="url(#clip0_181_95094)">
<path id="Vector" d="M11.9998 0.496872C5.55657 0.496872 0.332825 5.72062 0.332825 12.1631C0.332825 18.6056 5.55657 23.8301 11.9998 23.8301C18.4431 23.8301 23.6661 18.6064 23.6661 12.1631C23.6661 5.71987 18.4423 0.496872 11.9998 0.496872ZM11.9998 23.0794C5.97132 23.0794 1.08432 18.1916 1.08432 12.1631C1.08432 6.13462 5.97132 1.24762 11.9998 1.24762C18.0283 1.24762 22.9146 6.13462 22.9146 12.1631C22.9146 18.1916 18.0283 23.0794 11.9998 23.0794Z" fill="currentColor"/>
<path id="Vector_2" d="M10.0418 6.459C10.6148 6.00375 11.643 6.006 11.8013 5.148C10.344 5.142 8.94526 5.64075 7.83301 6.49875C8.39476 6.72075 8.91901 7.1265 9.46051 7.4025C9.54526 7.04175 9.71401 6.7245 10.0418 6.459Z" fill="currentColor"/>
<path id="Vector_3" d="M14.6703 7.29563L16.0353 6.39713C14.9523 5.63213 13.7486 5.22113 12.4031 5.14688C12.3183 5.36963 12.5411 5.56838 12.6896 5.72738C13.4313 6.03413 14.5121 6.32063 14.6703 7.29563Z" fill="currentColor"/>
<path id="Vector_4" d="M7.09557 8.34516C7.06332 7.87866 7.02657 7.35441 7.26957 6.97266C6.40107 7.73541 5.75532 8.67891 5.39532 9.69591C6.24282 9.78066 6.42807 8.72616 7.09632 8.34516L7.09557 8.34591V8.34516Z" fill="currentColor"/>
<path id="Vector_5" d="M18.5105 9.54342C18.2143 8.67417 17.699 7.90092 16.9895 7.20117C17.0428 7.55142 16.9835 7.94292 16.889 8.27142C17.5355 8.59992 17.7793 9.49017 18.5105 9.54342Z" fill="currentColor"/>
<path id="Vector_6" d="M18.7145 10.0594C18.1213 10.6744 18.6883 11.5984 18.2855 12.2869C18.095 12.7534 17.597 13.0391 17.141 13.1239C16.7593 13.2829 15.9538 12.7534 15.9658 13.4846C16.4945 13.6856 17.141 14.1634 17.2903 14.7566C17.576 15.8794 16.3678 16.5364 16.5058 17.5751L16.9873 17.1266C18.8308 15.3154 19.5095 12.5599 18.7145 10.0594ZM16.8133 13.6324C16.7915 13.4944 16.9295 13.4419 17.0353 13.4306C17.4275 13.5049 17.8303 13.6751 18.0845 13.9924C17.6398 13.9924 17.1305 13.9391 16.8133 13.6324Z" fill="currentColor"/>
<path id="Vector_7" d="M6.86022 14.7033C7.01922 14.1108 7.61247 13.6541 8.16372 13.4531L8.07973 13.2521C7.80373 13.2723 7.47522 13.3256 7.14672 13.3038C6.66972 13.1981 6.20323 12.9551 5.94898 12.4878C5.49373 11.8001 6.14473 10.5806 5.23348 10.1988L5.09323 10.6541C4.55323 13.4598 5.50722 16.0038 7.70247 17.7498L7.78197 17.5008C7.59147 16.5153 6.59622 15.8051 6.86022 14.7033ZM5.97073 14.1416C6.26698 13.8453 6.63822 13.5588 7.06197 13.6121L7.11522 13.6863C7.13697 13.9503 6.82873 13.9826 6.65998 14.0681C6.44848 14.1318 6.18298 14.1528 5.97148 14.1423L5.97073 14.1416Z" fill="currentColor"/>
<path id="Vector_8" d="M14.0154 18.0843C13.4222 18.0956 12.8822 17.8301 12.5634 17.3426C12.2995 17.4798 11.9072 17.5331 11.6207 17.3951C11.0162 18.3588 9.74495 17.9141 8.87645 17.7768C8.61095 17.7866 8.29895 17.8691 8.16095 18.0701L8.97695 18.5531C11.0859 19.6023 14.0664 19.3683 16.0187 17.9486C15.3399 17.6313 14.7152 18.1263 14.0154 18.0843ZM12.1494 18.6138C12.0654 18.2966 11.7797 17.7986 12.1082 17.5023C12.2139 17.5023 12.2987 17.5758 12.3302 17.6816C12.3197 18.0108 12.2664 18.3281 12.1494 18.6138Z" fill="currentColor"/>
<path id="Vector_9" d="M1.34064 12.1628C1.34064 6.27535 6.11364 1.50235 12.0004 1.50235C17.8871 1.50235 22.6601 6.27535 22.6601 12.1628C22.6601 18.0496 17.8879 22.8233 12.0004 22.8233V22.6958C14.9089 22.6958 17.5414 21.5176 19.4471 19.6103C21.3529 17.7031 22.5319 15.0713 22.5319 12.1628C22.5319 9.25435 21.3536 6.6211 19.4471 4.71535C17.5406 2.8096 14.9089 1.62985 12.0004 1.62985C9.09189 1.62985 6.45864 2.80885 4.55364 4.71535C2.64864 6.62185 1.46889 9.25435 1.46889 12.1628C1.46889 15.0713 2.64789 17.7038 4.55364 19.6103C6.45939 21.5168 9.09189 22.6958 12.0004 22.6958V22.8233C6.11289 22.8233 1.34064 18.0503 1.34064 12.1628Z" fill="currentColor"/>
<path id="Vector_10" d="M12.4888 5.94928C13.1878 6.32053 14.2895 6.45853 14.438 7.45528C14.4058 7.56103 14.279 7.60378 14.2145 7.65628C14.1515 6.34228 12.6043 6.59653 12.1063 5.60053C11.5873 6.60703 9.92377 6.41728 9.94477 7.80478C9.82702 7.75153 9.61477 7.62478 9.73327 7.42378C10.019 6.31078 11.3435 6.38428 11.9795 5.62228L12.0755 5.21953C12.128 5.47453 12.245 5.74978 12.4888 5.95078V5.94928Z" fill="currentColor"/>
<path id="Vector_11" d="M12.1292 6.38473C12.1187 6.41698 12.1494 6.46948 12.1089 6.49048C12.0662 6.50173 12.0557 6.44848 12.0234 6.43723C12.0234 6.36298 12.1089 6.27973 12.1292 6.38473Z" fill="currentColor"/>
<path id="Vector_12" d="M12.4071 6.63912C12.4288 6.68187 12.3861 6.71337 12.3651 6.74562H12.3328V6.58662C12.3756 6.57537 12.3853 6.61812 12.4071 6.63912Z" fill="currentColor"/>
<path id="Vector_13" d="M11.8766 6.63909C11.8669 6.67134 11.8984 6.72459 11.8564 6.74559H11.8031V6.61809C11.8241 6.61809 11.8661 6.60759 11.8766 6.63909Z" fill="currentColor"/>
<path id="Vector_14" d="M12.2043 7.78463H11.8969L12.1083 7.02188C12.0656 7.30838 12.1721 7.53038 12.2043 7.78463Z" fill="currentColor"/>
<path id="Vector_15" d="M18.6131 9.76471L18.6341 9.79621C17.6171 10.4862 18.6761 12.0327 17.5744 12.668C17.2669 12.881 16.8746 12.881 16.4719 12.8697C16.5364 12.6252 16.9279 12.7212 17.1401 12.5937C18.3904 12.212 17.7446 10.6977 18.3806 9.89146C17.7656 9.72196 17.2781 9.18046 16.7809 8.77921L16.8124 8.59921C17.3959 9.01246 17.8286 9.83971 18.6131 9.76471Z" fill="currentColor"/>
<path id="Vector_16" d="M7.29879 8.74857C6.82104 9.28857 6.33429 9.88182 5.64654 10.0206C5.72004 10.2216 5.90004 10.3806 5.97429 10.5816C6.19629 11.4403 6.21804 12.6268 7.31979 12.8706C7.47879 12.9343 7.69104 12.8383 7.80804 12.9973C7.26729 13.1038 6.75954 12.9756 6.38754 12.6156C5.62479 11.8738 6.36579 10.4541 5.26404 9.92382C6.18654 10.1248 6.54729 9.02382 7.19304 8.62032L7.29879 8.74857Z" fill="currentColor"/>
<path id="Vector_17" d="M17.0876 9.81768C17.0779 9.84993 17.1086 9.90243 17.0659 9.92343H17.0344V9.76518C17.0659 9.75393 17.0981 9.78618 17.0876 9.81768Z" fill="currentColor"/>
<path id="Vector_18" d="M7.17109 9.92452C7.18084 9.94627 7.15984 9.95677 7.14934 9.96727C7.09609 9.98827 7.07509 9.94702 7.04434 9.92452C7.01209 9.80902 7.20184 9.80902 7.17109 9.92452Z" fill="currentColor"/>
<path id="Vector_19" d="M16.8559 10.148C16.8349 10.169 16.8244 10.2117 16.7816 10.2012C16.7186 10.169 16.7186 10.0737 16.7816 10.0535C16.8454 10.0422 16.8341 10.1157 16.8559 10.1487V10.148Z" fill="currentColor"/>
<path id="Vector_20" d="M17.3647 10.0517C17.3647 10.0937 17.3857 10.1469 17.343 10.1777C17.3107 10.1882 17.2897 10.1357 17.2687 10.1244C17.2905 10.0712 17.2905 10.0299 17.3647 10.0509V10.0517Z" fill="currentColor"/>
<path id="Vector_21" d="M7.4447 10.1792C7.42445 10.1904 7.41395 10.2324 7.37045 10.2219L7.3172 10.1792L7.4027 10.0734C7.4342 10.1057 7.43345 10.1372 7.4447 10.1792Z" fill="currentColor"/>
<path id="Vector_22" d="M6.91725 10.1793C6.93825 10.2221 6.89625 10.2438 6.864 10.2753H6.84375V10.1268C6.8745 10.1156 6.89625 10.1591 6.91725 10.1801V10.1793Z" fill="currentColor"/>
<path id="Vector_23" d="M17.268 11.4189C17.1195 11.3656 17.088 11.5464 17.0347 11.6206C17.0025 11.5569 17.0025 11.4721 16.9395 11.4189L16.7812 11.4511L17.0887 10.4754C17.079 10.8256 17.205 11.1114 17.2687 11.4189H17.268Z" fill="currentColor"/>
<path id="Vector_24" d="M7.40383 11.4713C7.26583 11.4405 7.21332 11.5568 7.17132 11.652V11.7053C7.13832 11.5995 7.05432 11.3775 6.89532 11.4938C6.98007 11.1758 7.11732 10.8683 7.17132 10.5293C7.16007 10.8788 7.27633 11.175 7.40383 11.4713Z" fill="currentColor"/>
<path id="Vector_25" d="M8.29422 13.8664V13.9617C7.87047 14.1627 7.37172 14.5332 7.37172 15.0537C7.30797 16.0167 8.23047 16.5574 8.13447 17.5219C8.28297 17.6389 8.42097 17.4267 8.59047 17.4477C9.14697 17.4049 10.7422 17.5752 11.112 17.1192C11.2072 17.0989 11.271 17.1514 11.346 17.1934C11.208 17.5009 10.8472 17.7229 10.4985 17.7544C9.62922 17.8399 8.63322 17.1087 7.93347 17.9037C8.46297 16.6632 6.64122 15.8584 7.24422 14.5444C7.41522 14.1522 7.83822 13.8237 8.24022 13.7074L8.29422 13.8664Z" fill="currentColor"/>
<path id="Vector_26" d="M17.0135 14.9044C17.141 15.9964 15.8698 16.5897 16.22 17.6809C15.1498 17.0659 13.7503 18.5397 12.8391 17.2684C12.8391 17.1837 12.9351 17.1192 12.9981 17.0884C13.1886 17.1409 13.2531 17.3209 13.4226 17.4274C14.2491 18.0214 15.128 17.2474 16.0183 17.4702C16.0715 17.3644 16.0183 17.1522 16.0715 17.0134C16.4113 16.2402 17.2475 15.2547 16.4533 14.4169C16.2418 14.2369 15.9973 14.0997 15.743 14.0142C15.6688 13.8979 15.7858 13.8132 15.8165 13.7074C16.3048 13.8867 16.961 14.3217 17.0143 14.9037L17.0135 14.9044Z" fill="currentColor"/>
<path id="Vector_27" d="M15.0007 15.1057C14.9377 15.138 14.9377 15.0637 14.9062 15.0315C14.9377 14.9992 14.9377 14.9257 15.0007 14.9572V15.1057Z" fill="currentColor"/>
<path id="Vector_28" d="M9.33305 15.0325C9.3218 15.0648 9.35405 15.118 9.3113 15.1383C9.26855 15.1488 9.2588 15.0963 9.22655 15.0865C9.1733 14.9905 9.33305 14.9373 9.33305 15.0325Z" fill="currentColor"/>
<path id="Vector_29" d="M15.288 15.339C15.2565 15.3285 15.246 15.3495 15.2347 15.3607C15.2025 15.3285 15.1717 15.213 15.2565 15.213C15.309 15.2332 15.2782 15.2977 15.288 15.339Z" fill="currentColor"/>
<path id="Vector_30" d="M9.60861 15.3081C9.61836 15.3403 9.59811 15.3508 9.58761 15.3613H9.53436V15.2346C9.60861 15.2023 9.58761 15.2871 9.60861 15.3081Z" fill="currentColor"/>
<path id="Vector_31" d="M9.076 15.3077C9.06475 15.3505 9.097 15.3925 9.055 15.4142C9.01225 15.4255 9.00175 15.3827 8.9695 15.361C8.9485 15.3077 9.076 15.202 9.076 15.3077Z" fill="currentColor"/>
<path id="Vector_32" d="M14.7469 15.2648H14.6719V15.3923H14.7469V15.2648Z" fill="currentColor"/>
<path id="Vector_33" d="M9.51169 16.6111C9.40594 16.5369 9.28894 16.7176 9.27769 16.7919C9.27769 16.6539 9.10819 16.5804 9.02344 16.6111C9.18169 16.3254 9.23494 15.9856 9.30919 15.6691C9.34144 15.9976 9.42619 16.3044 9.51169 16.6111Z" fill="currentColor"/>
<path id="Vector_34" d="M15.2021 16.6317C15.1916 16.5897 15.1391 16.6212 15.1061 16.6107L14.9801 16.8125C14.9584 16.7375 14.9479 16.664 14.8744 16.6107L14.7469 16.6317L15.0004 15.668C15.0326 16.0062 15.1391 16.3137 15.2021 16.6317Z" fill="currentColor"/>
<path id="Vector_35" d="M3.51507 14.6213C3.53532 14.7083 3.56907 14.7826 3.62607 14.8568L3.32832 14.7593C3.25107 14.7353 3.19407 14.6761 3.17532 14.5951L3.00807 13.8803L2.57307 13.9823C2.41482 14.0198 2.31132 14.1091 2.29482 14.2208L2.11407 13.4476C2.18607 13.5458 2.29932 13.5683 2.46732 13.5286L3.68157 13.2443C3.84957 13.2053 3.93807 13.1356 3.96207 13.0148L4.37532 14.7818C4.34232 14.7668 4.31532 14.7631 4.29357 14.7683C4.25607 14.7773 4.14057 14.8561 3.92007 14.9768C3.99882 14.7391 3.97857 14.5141 3.92007 14.2628L3.78807 13.6973L3.32532 13.8053L3.51582 14.6191L3.51507 14.6198V14.6213Z" fill="currentColor"/>
<path id="Vector_36" d="M3.10124 16.632C2.77874 15.9975 2.93549 15.468 3.46424 15.1995C4.00124 14.9265 4.56224 15.1133 4.87574 15.7305C5.19824 16.365 5.05199 16.8938 4.49474 17.1765C3.98249 17.436 3.41474 17.2485 3.10124 16.632ZM4.29599 16.722C4.64849 16.5428 4.74749 16.2458 4.57724 15.9105C4.38899 15.5408 4.06499 15.4448 3.67874 15.6413C3.33149 15.8175 3.23249 16.1153 3.40274 16.4505C3.58949 16.8173 3.91499 16.9163 4.29599 16.7228V16.722Z" fill="currentColor"/>
<path id="Vector_37" d="M4.60391 18.8147C4.12616 18.2874 4.13816 17.7347 4.57841 17.3364C5.02541 16.9314 5.61491 16.9659 6.07991 17.4782C6.55766 18.0054 6.55466 18.5537 6.09116 18.9737C5.66591 19.3592 5.06891 19.3269 4.60466 18.8139L4.60391 18.8147ZM5.77991 18.5889C6.07316 18.3234 6.09041 18.0099 5.83841 17.7317C5.56016 17.4249 5.22191 17.4167 4.90016 17.7077C4.61216 17.9687 4.59416 18.2822 4.84691 18.5612C5.12291 18.8664 5.46341 18.8754 5.77991 18.5889Z" fill="currentColor"/>
<path id="Vector_38" d="M6.43235 20.0704C6.4376 20.0621 6.45935 20.0306 6.49085 19.9826L7.17935 18.9506L7.1021 18.8989C6.8846 18.7541 6.6836 18.6581 6.4331 18.6484C6.6191 18.4849 6.73685 18.4061 6.75935 18.3716C6.7721 18.3529 6.7751 18.3251 6.7751 18.2906L8.3351 19.3316C8.3006 19.3429 8.27885 19.3586 8.2661 19.3774C8.24435 19.4096 8.2151 19.5461 8.13635 19.7854C8.03135 19.5581 7.8656 19.4089 7.6481 19.2641L7.5656 19.2094L6.8771 20.2414C6.7901 20.3711 6.76985 20.5226 6.83585 20.6126L6.1781 20.1739C6.28085 20.1926 6.3851 20.1416 6.43235 20.0704Z" fill="currentColor"/>
<path id="Vector_39" d="M8.0385 20.9166L8.43525 19.7481C8.49075 19.5853 8.48625 19.4691 8.391 19.3828L9.39375 19.7226C9.9585 19.9146 10.23 20.1073 10.11 20.4606C10.0485 20.6421 9.885 20.7478 9.66675 20.7343C9.9675 20.8798 10.0695 21.0666 9.98325 21.3201C9.8535 21.7033 9.49725 21.7611 8.88075 21.5518L7.78125 21.1783C7.9065 21.1671 7.98225 21.0816 8.03925 20.9151L8.0385 20.9166ZM9.05175 21.2736C9.30225 21.3583 9.45675 21.3201 9.5115 21.1596C9.56475 21.0021 9.45825 20.8888 9.20175 20.8018L8.634 20.6091L8.475 21.0771L9.05175 21.2736ZM9.18225 20.4621C9.42675 20.5446 9.564 20.5176 9.618 20.3608C9.67575 20.1913 9.57825 20.1216 9.363 20.0488L8.88 19.8846L8.73525 20.3106L9.18225 20.4621Z" fill="currentColor"/>
<path id="Vector_40" d="M12.3602 22.0871L11.6515 22.0684C11.704 22.0219 11.7167 21.9739 11.722 21.9161C11.7265 21.8681 11.7175 21.8231 11.71 21.7999L11.6672 21.6709L10.5775 21.5734L10.528 21.6619C10.513 21.6889 10.4987 21.7361 10.4942 21.7841C10.4875 21.8606 10.5197 21.9439 10.5632 21.9896L9.82971 21.8246C9.93321 21.7376 10.0015 21.7054 10.0765 21.5801L10.8715 20.2459C10.894 20.2091 10.906 20.1791 10.9082 20.1596C10.909 20.1469 10.9045 20.1274 10.8917 20.0906L11.6762 20.1611C11.6605 20.1919 11.6462 20.2129 11.6447 20.2286C11.6432 20.2444 11.6507 20.2744 11.6657 20.3171L12.1637 21.7669C12.2117 21.9056 12.2785 21.9874 12.3595 22.0871L12.3602 22.0864V22.0871ZM11.5555 21.3154L11.2247 20.3959L10.7642 21.2449L11.5547 21.3154H11.5555Z" fill="currentColor"/>
<path id="Vector_41" d="M12.2438 20.2067L13.0305 20.0965C12.927 20.1595 12.885 20.278 12.9083 20.4422L13.0823 21.6775L13.6163 21.6017C13.9163 21.559 14.1413 21.4667 14.3205 21.274C14.2538 21.5567 14.199 21.7165 14.2058 21.7637C14.2095 21.7892 14.229 21.8117 14.2553 21.8402L12.5085 22.0862C12.612 22.0202 12.645 21.9092 12.621 21.742L12.447 20.5067C12.423 20.3365 12.3615 20.2427 12.2438 20.2075V20.2067Z" fill="currentColor"/>
<path id="Vector_42" d="M13.8656 19.999L14.6134 19.732C14.5241 19.8145 14.5084 19.939 14.5639 20.095L14.9839 21.2695L15.4916 21.088C15.7766 20.986 15.9791 20.8495 16.1156 20.6245C16.1074 20.9155 16.0864 21.082 16.1021 21.127C16.1104 21.151 16.1344 21.1698 16.1659 21.1923L14.5053 21.7863C14.5931 21.7008 14.6029 21.5853 14.5459 21.4263L14.1259 20.2518C14.0674 20.089 13.9879 20.0095 13.8656 19.999Z" fill="currentColor"/>
<path id="Vector_43" d="M18.4008 19.7486C18.2868 19.8303 18.1368 20.0156 17.8953 20.1881C17.3448 20.5811 16.8228 20.5196 16.4665 20.0208C16.1073 19.5176 16.234 18.9326 16.813 18.5186C17.0778 18.3296 17.3065 18.2598 17.4078 18.1878C17.4333 18.1691 17.4535 18.1428 17.482 18.1113L17.6185 18.5943C17.3958 18.6003 17.2068 18.6648 17.0298 18.7916C16.69 19.0346 16.6375 19.4051 16.858 19.7141C17.101 20.0546 17.4123 20.1063 17.7573 19.8596C17.9515 19.7208 18.0963 19.5273 18.232 19.2731L18.5305 19.6908C18.4758 19.7066 18.4338 19.7246 18.3993 19.7493L18.4008 19.7486Z" fill="currentColor"/>
<path id="Vector_44" d="M17.4713 18.0983L17.9948 17.5005C17.9573 17.616 18.003 17.7323 18.1275 17.8425L19.0658 18.6645L19.4213 18.2595C19.6208 18.0315 19.731 17.814 19.7408 17.5515C19.8758 17.8095 19.9373 17.9655 19.9733 17.997C19.9928 18.0135 20.022 18.0188 20.061 18.0225L18.8985 19.3493C18.9338 19.2323 18.8858 19.1265 18.759 19.0148L17.8208 18.1928C17.691 18.0788 17.583 18.048 17.4713 18.0983Z" fill="currentColor"/>
<path id="Vector_45" d="M20.7664 16.9391C20.4611 17.4918 20.0951 17.6388 19.6511 17.3943L18.9034 16.9811C18.7496 16.8963 18.6304 16.8881 18.5344 16.9623L18.9161 16.2731C18.9064 16.4021 18.9724 16.4868 19.1291 16.5731L19.8634 16.9788C20.1034 17.1116 20.3134 17.0418 20.4626 16.7711C20.6119 16.5003 20.5609 16.2903 20.3186 16.1553L19.5844 15.7496C19.4389 15.6693 19.3376 15.6423 19.2169 15.7286L19.5994 15.0363C19.5859 15.1526 19.6586 15.2583 19.8094 15.3416L20.5571 15.7548C21.0011 16.0001 21.0724 16.3856 20.7664 16.9391Z" fill="currentColor"/>
<path id="Vector_46" d="M21.1747 15.1864L19.9717 14.9104C19.8045 14.8714 19.689 14.8879 19.6125 14.9914L19.8495 13.9594C19.983 13.3781 20.148 13.0886 20.5117 13.1719C20.6985 13.2146 20.8207 13.3676 20.829 13.5851C20.9437 13.2709 21.1185 13.1509 21.3795 13.2109C21.774 13.3016 21.8677 13.6504 21.7222 14.2841L21.4627 15.4159C21.4387 15.2929 21.3465 15.2261 21.1747 15.1864ZM20.6077 14.0936C20.6655 13.8424 20.6242 13.7081 20.4622 13.6706C20.2882 13.6309 20.2282 13.7344 20.178 13.9556L20.064 14.4529L20.502 14.5534L20.6077 14.0936ZM21.4275 14.1416C21.4867 13.8836 21.4327 13.7336 21.2685 13.6954C21.1072 13.6579 21.0052 13.7756 20.9437 14.0396L20.8095 14.6239L21.2917 14.7341L21.4282 14.1401L21.4275 14.1416Z" fill="currentColor"/>
<path id="Vector_47" d="M2.21252 10.8657L2.38352 10.0902C2.40602 10.2095 2.50277 10.2897 2.66477 10.3257L3.88277 10.5942L3.99902 10.0677C4.06427 9.77222 4.05602 9.52847 3.93827 9.29297C4.18052 9.45422 4.31027 9.56147 4.35677 9.57197C4.38227 9.57797 4.41002 9.56747 4.44602 9.55247L4.06577 11.2745C4.04027 11.1545 3.94727 11.0847 3.78302 11.0487L2.56502 10.7802C2.39702 10.7427 2.28677 10.7675 2.21252 10.8657Z" fill="currentColor"/>
<path id="Vector_48" d="M4.24727 9.12881L3.13727 8.56031C2.98427 8.48156 2.87177 8.47781 2.77502 8.55431L3.68252 6.78281C3.69752 6.81581 3.71627 6.83606 3.73577 6.84656C3.76952 6.86381 3.90902 6.87806 4.15577 6.92906C3.94202 7.05956 3.81227 7.24331 3.69377 7.47356L3.34877 8.14631L3.74327 8.34881L4.12427 7.60481C4.17527 7.50506 4.18877 7.42331 4.19477 7.35431L4.36052 7.61831C4.40402 7.68731 4.40627 7.76681 4.36652 7.84331L4.03202 8.49656L4.45727 8.71481L4.82102 8.00531C4.96502 7.72406 5.00927 7.46381 4.95752 7.24331C5.15102 7.46081 5.25077 7.59431 5.29352 7.61606C5.31602 7.62731 5.34452 7.62806 5.38352 7.62281L4.46252 9.41906C4.47077 9.29831 4.39952 9.20756 4.24577 9.12881H4.24727Z" fill="currentColor"/>
<path id="Vector_49" d="M4.6738 6.05335L5.64505 6.8146C5.78305 6.9226 5.89555 6.9496 6.00655 6.8911L5.52055 7.51135C5.5513 7.3891 5.4958 7.28935 5.3578 7.18135L4.3858 6.4201C4.2478 6.3121 4.13755 6.2821 4.02655 6.34135L4.51255 5.7211C4.4818 5.8426 4.53505 5.9446 4.6738 6.05335Z" fill="currentColor"/>
<path id="Vector_50" d="M7.2316 5.68922C7.1281 5.78447 7.00135 5.98622 6.7816 6.18572C6.2821 6.64172 5.75635 6.64247 5.3431 6.19023C4.9261 5.73347 4.98235 5.13722 5.5081 4.65797C5.74885 4.43897 5.9671 4.34222 6.05935 4.25897C6.0826 4.23722 6.1006 4.20872 6.1246 4.17422L6.3181 4.63697C6.0976 4.66997 5.9176 4.75622 5.7571 4.90247C5.4481 5.18372 5.4406 5.55872 5.69635 5.83922C5.9776 6.14822 6.29335 6.16172 6.60685 5.87672C6.78385 5.71547 6.90385 5.50697 7.00885 5.23772L7.3546 5.61722C7.30135 5.63972 7.26235 5.66297 7.2316 5.69072V5.68922Z" fill="currentColor"/>
<path id="Vector_51" d="M7.36875 5.19526L6.78525 4.09276C6.70425 3.94051 6.61425 3.87301 6.492 3.87976L8.25 2.94826C8.244 2.98426 8.247 3.01126 8.25825 3.03076C8.27625 3.06451 8.38275 3.15601 8.55525 3.33901C8.3055 3.32401 8.09325 3.39976 7.8645 3.52051L7.197 3.87451L7.40475 4.26601L8.1435 3.87451C8.24175 3.82201 8.301 3.76201 8.34525 3.71026L8.33025 4.02151C8.3265 4.10251 8.28225 4.17001 8.2065 4.20976L7.5585 4.55326L7.782 4.97626L8.48625 4.60276C8.76525 4.45501 8.9505 4.26601 9.03375 4.05601C9.0675 4.34476 9.07275 4.51126 9.09525 4.55401C9.10725 4.57651 9.1305 4.59301 9.165 4.61026L7.38075 5.55601C7.4565 5.46151 7.44975 5.34601 7.3695 5.19376L7.36875 5.19526Z" fill="currentColor"/>
<path id="Vector_52" d="M10.0076 4.08652C10.3174 4.01077 10.4531 3.89227 10.4141 3.73177C10.3661 3.53602 10.1471 3.57727 9.7691 3.61627C9.30185 3.66427 9.0386 3.55477 8.9681 3.26602C8.8871 2.93452 9.13685 2.61127 9.66335 2.48227C10.0016 2.39977 10.2664 2.39827 10.4089 2.36302C10.4336 2.35702 10.4576 2.34802 10.4831 2.32852V2.82427C10.2746 2.75377 10.0174 2.74702 9.72935 2.81752C9.50285 2.87227 9.4016 2.96602 9.43085 3.08752C9.47435 3.26752 9.68435 3.19627 10.0916 3.17302C10.5514 3.14602 10.8086 3.24502 10.8859 3.56377C10.9826 3.96052 10.7074 4.27402 10.0939 4.42327C9.81485 4.49152 9.5966 4.49827 9.48185 4.52677C9.4511 4.53427 9.42185 4.54852 9.39335 4.56802L9.15185 4.07527C9.4646 4.14652 9.74435 4.15027 10.0084 4.08652H10.0076Z" fill="currentColor"/>
<path id="Vector_53" d="M11.4675 3.92681C11.4675 3.91706 11.4652 3.87881 11.463 3.82181L11.4112 2.58206L11.319 2.58581C11.0572 2.59706 10.839 2.63756 10.6312 2.77706C10.6852 2.53556 10.734 2.40206 10.7317 2.36081C10.731 2.33831 10.7167 2.31356 10.6965 2.28581L12.57 2.20781C12.549 2.23781 12.54 2.26331 12.5415 2.28506C12.543 2.32331 12.6 2.45156 12.6765 2.69156C12.4575 2.57006 12.2362 2.54681 11.9752 2.55806L11.877 2.56256L11.9287 3.80231C11.9347 3.95831 12.0075 4.09256 12.1147 4.12706L11.3242 4.16006C11.418 4.11431 11.4712 4.01231 11.4675 3.92681Z" fill="currentColor"/>
<path id="Vector_54" d="M12.666 3.78473L12.891 2.55773C12.9218 2.38823 12.8933 2.27948 12.7928 2.20898L14.751 2.56823C14.724 2.59223 14.7098 2.61623 14.706 2.63798C14.6993 2.67548 14.7255 2.81348 14.748 3.06398C14.5613 2.89673 14.3475 2.82473 14.0933 2.77823L13.3493 2.64173L13.269 3.07748L14.091 3.22823C14.2005 3.24848 14.2838 3.23798 14.3505 3.22373L14.145 3.45848C14.0918 3.51998 14.0153 3.54473 13.9313 3.52898L13.2098 3.39623L13.1235 3.86723L13.908 4.01048C14.2185 4.06748 14.481 4.03448 14.6768 3.92123C14.5245 4.16873 14.4255 4.30298 14.4165 4.35023C14.412 4.37573 14.4195 4.40273 14.436 4.43798L12.45 4.07348C12.5685 4.04648 12.6345 3.95123 12.6653 3.78248L12.666 3.78323V3.78473Z" fill="currentColor"/>
<path id="Vector_55" d="M15.2587 4.80122L14.55 4.45772C14.676 4.46222 14.7615 4.38647 14.838 4.22897L15.3787 3.11222C15.4537 2.95697 15.4552 2.84447 15.3772 2.74922L16.3852 3.23747C16.6065 3.34472 16.7812 3.42947 16.8885 3.53072C17.0565 3.68972 17.0977 3.92672 16.9875 4.15247C16.8705 4.39322 16.6192 4.49522 16.29 4.40672C16.404 4.54322 16.4317 4.67747 16.4505 4.83572C16.4775 5.05097 16.4737 5.25497 16.5817 5.44172L15.8497 5.08697C15.9007 5.06897 15.9322 5.04872 15.9502 5.01122C15.9922 4.92497 15.9945 4.78097 15.9457 4.58072C15.9007 4.38872 15.7965 4.25972 15.624 4.17647L15.426 4.08047L15.2565 4.43072C15.18 4.58822 15.1785 4.70822 15.258 4.80047L15.2587 4.80122ZM16.0252 4.00997C16.2975 4.14197 16.4392 4.14347 16.5285 3.95972C16.6177 3.77597 16.5277 3.66872 16.2547 3.53672L15.798 3.31547L15.5685 3.78947L16.0252 4.00997Z" fill="currentColor"/>
<path id="Vector_56" d="M18.2003 6.94725C18.1005 6.849 17.892 6.73275 17.6805 6.525C17.199 6.051 17.1698 5.52525 17.5995 5.08875C18.0338 4.64775 18.6315 4.6725 19.1385 5.17125C19.3703 5.4 19.4783 5.613 19.5668 5.7C19.5893 5.7225 19.6193 5.7375 19.6553 5.76L19.2038 5.9775C19.1595 5.75925 19.0635 5.58375 18.909 5.43225C18.6113 5.139 18.237 5.151 17.9708 5.421C17.6775 5.71875 17.6798 6.0345 17.982 6.3315C18.1523 6.4995 18.3675 6.60825 18.6413 6.69825L18.2813 7.06425C18.2558 7.0125 18.231 6.97425 18.2018 6.945L18.201 6.94575L18.2003 6.94725Z" fill="currentColor"/>
<path id="Vector_57" d="M20.0073 6.84103L18.9956 7.54828C18.8524 7.64878 18.7931 7.74853 18.8171 7.87153L18.3656 7.22578C18.4729 7.29103 18.5854 7.26703 18.7286 7.16653L19.7404 6.45928C19.8836 6.35878 19.9451 6.26203 19.9204 6.13828L20.3719 6.78403C20.2646 6.71878 20.1506 6.73978 20.0073 6.84028V6.84103Z" fill="currentColor"/>
<path id="Vector_58" d="M19.3536 8.37103C19.3626 8.36653 19.3963 8.35078 19.4488 8.32603L20.5693 7.79278L20.5296 7.70953C20.4171 7.47328 20.2941 7.28803 20.0833 7.15153C20.3263 7.10653 20.4681 7.09903 20.5056 7.08103C20.5258 7.07128 20.5431 7.04878 20.5611 7.01953L21.3673 8.71303C21.3321 8.70478 21.3051 8.70778 21.2848 8.71753C21.2503 8.73403 21.1543 8.83678 20.9638 9.00103C20.9901 8.75203 20.9241 8.53903 20.8116 8.30353L20.7688 8.21428L19.6483 8.74753C19.5073 8.81428 19.4121 8.93428 19.4233 9.04603L19.0828 8.33203C19.1616 8.40103 19.2756 8.41003 19.3536 8.37328L19.3528 8.37253L19.3536 8.37103Z" fill="currentColor"/>
<path id="Vector_59" d="M21.7056 10.6213C21.7551 10.6108 21.7828 10.5853 21.8076 10.5313L21.962 11.2715C21.785 11.1553 21.6313 11.093 21.5233 11.0435L20.5191 10.571L20.2288 10.631C20.0571 10.667 19.9596 10.7458 19.9378 10.8613L19.7766 10.0865C19.8583 10.1968 19.9656 10.2103 20.1336 10.175L20.4148 10.1165L21.2233 9.25777C21.3463 9.12802 21.4356 9.02452 21.4663 8.89102L21.6365 9.70927C21.5975 9.66202 21.5623 9.65002 21.512 9.65977C21.44 9.67477 21.4033 9.71452 21.3523 9.76777L20.8431 10.2973L21.5436 10.5943C21.6043 10.6205 21.6583 10.6288 21.7048 10.6198L21.7041 10.6213H21.7056Z" fill="currentColor"/>
<path id="Vector_60" d="M9.68927 12.234C9.68927 12.234 9.75827 12.1418 9.93002 12.2798C10.1018 12.4178 10.4925 12.7283 10.8825 12.6825C10.8825 12.6825 10.9635 12.8085 10.6875 12.7973C10.4115 12.786 10.4235 12.774 10.332 12.7635C10.2398 12.7523 9.85052 12.384 9.81602 12.3263C9.78152 12.2685 9.69002 12.2348 9.69002 12.2348L9.68927 12.234Z" fill="currentColor"/>
<path id="Vector_61" d="M12.2592 9.57248L12.1332 9.46898C12.1332 9.46898 12.0642 9.26273 12.0987 9.17048C12.1332 9.07823 12.6155 8.77973 12.7077 8.73398C12.7077 8.73398 12.5697 8.98673 12.4437 9.06698C12.3177 9.14723 12.248 9.27323 12.248 9.27323C12.248 9.27323 12.2135 9.45773 12.2592 9.57248Z" fill="currentColor"/>
<path id="Vector_62" d="M11.8539 9.53747C11.8539 9.53747 12.0032 9.28472 11.9229 9.21572C11.8427 9.14672 11.3484 8.76797 11.3484 8.76797C11.3484 8.76797 11.3597 9.00872 11.4744 9.08972C11.5892 9.16997 11.6927 9.16997 11.7039 9.22772L11.7152 9.28472C11.7152 9.28472 11.692 9.34247 11.7385 9.39947C11.785 9.45647 11.8539 9.53747 11.8539 9.53747Z" fill="currentColor"/>
<path id="Vector_63" d="M13.119 10.9712C13.119 10.9712 13.7137 10.6584 13.917 10.6112C14.1202 10.5639 13.917 10.5174 13.8705 10.5017C13.8232 10.4859 13.683 10.4859 13.683 10.4859L13.4955 10.5639L13.4017 10.6112L13.2607 10.7207L13.1512 10.7679L13.089 10.7987C13.089 10.7987 13.0267 11.0177 13.1205 10.9712H13.119Z" fill="currentColor"/>
<path id="Vector_64" d="M10.1317 10.5483C10.1145 10.471 10.2105 10.5798 10.2727 10.6113C10.335 10.6428 10.6327 10.7365 10.6327 10.7365L10.7272 10.7988L10.8832 10.924L10.8517 11.0028C10.8517 11.0028 10.758 11.0028 10.7107 10.9555C10.6635 10.9083 10.512 10.8055 10.5022 10.8333C10.4917 10.8618 10.398 10.8303 10.32 10.7838C10.242 10.7373 10.1632 10.6893 10.1317 10.5483Z" fill="currentColor"/>
<path id="Vector_65" d="M14.2268 12.073C14.2268 12.073 14.1616 12.0842 14.1616 12.1757C14.1616 12.2672 13.7918 12.574 13.6718 12.631C13.5526 12.688 13.4108 12.6662 13.2803 12.6662C13.1498 12.6662 13.1063 12.8372 13.1063 12.8372H13.1086C13.0658 12.9115 13.0171 13.0442 13.0171 13.0442C13.0171 13.0442 12.9728 13.3705 12.8686 13.6975C12.7651 14.0237 12.9278 14.443 12.9428 14.506C12.9578 14.569 13.0756 14.77 13.1206 14.8322C13.1648 14.8945 13.1716 15.1495 13.1716 15.1495L13.2541 14.848C13.2541 14.848 13.2391 14.7392 13.2248 14.677C13.2106 14.6147 13.1213 14.5375 13.0913 14.428C13.0613 14.3192 12.9878 14.0237 12.9878 13.9457C12.9878 13.8677 13.0621 13.4327 13.0771 13.3547C13.0921 13.2775 13.1648 13.1215 13.1738 12.9017C13.1746 12.877 13.1746 12.8575 13.1738 12.841C13.8571 12.877 14.1758 12.4465 14.2283 12.3797C14.2831 12.3107 14.3476 12.0715 14.3476 12.0715H14.2283L14.2276 12.0722L14.2268 12.073Z" fill="currentColor"/>
<path id="Vector_66" d="M10.9598 12.9996C11.001 13.4909 11.4428 13.8629 11.1503 14.3489C11.1863 14.6249 10.923 14.7621 10.8503 14.9901C10.7325 14.9901 10.7865 14.8019 10.8053 14.7231C11.0595 14.2806 11.1413 13.6589 10.869 13.1864C10.8593 13.1069 10.8773 13.0199 10.9598 12.9996Z" fill="currentColor"/>
<path id="Vector_67" d="M16.0185 7.27994C15.5993 7.64069 15.0735 7.77044 14.685 8.21144C14.2973 8.55194 14.748 9.12269 14.2125 9.39269C14.5905 9.74294 14.9265 10.1239 15.3885 10.3737C15.714 10.1742 15.7245 9.80294 15.7455 9.46319C16.0815 8.87294 15.9135 8.17169 16.176 7.54019C16.1235 7.45019 16.1865 7.24019 16.0185 7.27994ZM15.7463 8.89244C15.5048 9.22319 15.6098 9.68294 15.3675 10.0137C15.0308 9.97394 14.8845 9.62294 14.6123 9.41294C14.664 9.19319 14.937 9.00269 14.7585 8.74244C14.7998 8.11169 15.5468 8.00144 15.924 7.59119C15.903 7.99244 15.6833 8.50244 15.7463 8.89244Z" fill="currentColor"/>
<path id="Vector_68" d="M9.58211 9.23864C9.55061 9.16064 9.47261 9.22289 9.50261 9.00614C9.57236 8.50289 9.51911 8.73539 9.25361 8.29889C9.25361 8.29889 9.08111 8.09564 9.07211 8.04014C9.06311 7.98464 9.01886 8.01689 8.94086 7.96964C8.86286 7.92314 8.81561 7.90664 8.70611 7.84439C8.59661 7.78214 8.56511 7.73489 8.42411 7.59389C8.28311 7.45289 8.06411 7.37489 7.98611 7.32764C7.90811 7.28039 7.86086 7.32764 7.86086 7.32764C7.78286 7.32764 7.89236 7.65614 7.89236 7.71914C7.89236 7.78214 7.92386 8.09489 8.00186 8.51714C8.07986 8.93939 8.17436 9.31514 8.23661 9.45614C8.29886 9.59714 8.31461 9.70664 8.36186 10.0659C8.40911 10.4259 8.65286 10.5384 8.65286 10.5384C8.65286 10.5384 9.08186 10.1289 9.25361 10.0351C9.42536 9.94139 9.47261 9.83189 9.56636 9.70664C9.62861 9.62339 9.68636 9.53939 9.73811 9.45614C9.81611 9.33089 9.61286 9.31514 9.58136 9.23714L9.58211 9.23864ZM9.40961 9.64589C9.25361 9.77114 9.11261 9.92789 9.06611 9.97439C9.01961 10.0209 8.94086 10.1154 8.94086 10.1154C8.94086 10.1154 8.70611 10.4281 8.59661 10.0839C8.48711 9.73964 8.61236 9.72389 8.58086 9.63014C8.54936 9.53639 8.53361 9.52064 8.48711 9.45839C8.43986 9.39539 8.31461 9.14564 8.31461 9.14564C8.31461 9.14564 8.23661 8.64539 8.23661 8.55089C8.23661 8.45639 8.18936 8.11289 8.18936 8.04989C8.18936 7.98689 8.08736 7.68689 8.08736 7.68689C8.08736 7.68689 8.40836 7.89389 8.67386 8.14439C8.93936 8.39489 8.98661 8.30039 9.01811 8.36339C9.04961 8.42639 9.25286 8.55089 9.28436 8.83289C9.31586 9.11489 9.34736 9.16139 9.36236 9.22439C9.37736 9.28739 9.44111 9.41189 9.44111 9.41189C9.44111 9.41189 9.56636 9.52064 9.40961 9.64589Z" fill="currentColor"/>
<path id="Vector_69" d="M10.5952 12.0633C10.4497 12.0633 10.3312 12.1818 10.3312 12.3273C10.3312 12.4728 10.449 12.5913 10.5952 12.5913C10.7415 12.5913 10.8592 12.4728 10.8592 12.3273C10.8592 12.1818 10.7407 12.0633 10.5952 12.0633ZM10.4895 12.2853C10.422 12.2853 10.422 12.1803 10.4895 12.1803C10.557 12.1803 10.557 12.2853 10.4895 12.2853Z" fill="currentColor"/>
<path id="Vector_70" d="M13.5156 12.0633C13.3701 12.0633 13.2516 12.1818 13.2516 12.3273C13.2516 12.4728 13.3693 12.5913 13.5156 12.5913C13.6618 12.5913 13.7796 12.4728 13.7796 12.3273C13.7796 12.1818 13.6618 12.0633 13.5156 12.0633ZM13.3971 12.2853C13.3296 12.2853 13.3296 12.1803 13.3971 12.1803C13.4646 12.1803 13.4646 12.2853 13.3971 12.2853Z" fill="currentColor"/>
<path id="Vector_71" d="M10.011 11.8723C9.75973 11.8806 9.46573 11.9248 9.22498 11.8971C9.35248 11.9571 9.60598 12.0186 10.0005 12.0328C10.1602 11.9976 10.302 11.9743 10.4812 11.9983C10.9072 12.0501 11.103 12.4963 11.4352 12.6621L11.487 12.4963C11.2267 11.9766 10.5825 11.6541 10.011 11.8723Z" fill="currentColor"/>
<path id="Vector_72" d="M16.2099 11.2616C15.7157 10.8941 16.0142 10.5956 16.1184 10.3886C16.2227 10.1816 16.2677 9.79087 16.2677 9.68812C16.2677 9.58537 16.2909 9.18262 16.4169 9.06787C16.5429 8.95312 16.5662 8.33287 16.6239 8.18287C16.6817 8.03287 16.7049 7.79212 16.7049 7.73512C16.7049 7.67812 16.7162 7.56262 16.7282 7.45912C16.7394 7.35562 16.3494 6.60938 16.3494 6.60938C15.7982 6.66637 14.3964 7.87312 14.2584 8.02237C14.1204 8.17162 13.9712 8.26312 13.9712 8.26312C13.1897 8.03287 12.7652 8.09062 11.9957 8.04487C11.3492 8.00587 10.4117 8.24362 10.1274 8.32012C9.35791 7.32263 7.76791 6.71213 7.76791 6.71213C7.18216 7.29788 7.59541 8.69962 7.65316 8.82562C7.71091 8.95162 7.84891 9.18187 7.83691 9.43462C7.82491 9.68737 8.00941 10.2731 8.04316 10.4914C8.07766 10.7096 8.27341 11.0314 8.27341 11.0314C8.27341 11.0314 8.14741 11.1694 7.92841 11.3876C7.71016 11.6059 7.79041 11.5024 7.66441 11.5601C7.53841 11.6179 7.51516 11.7784 7.51516 11.7784C7.51516 11.7784 7.68766 12.0889 7.83691 12.2494C7.98616 12.4099 7.79041 12.5479 7.79041 12.5479C7.79041 12.5479 8.05441 12.7661 8.21566 12.8921C8.37691 13.0181 8.28466 13.0069 8.39941 13.1104C8.51416 13.2139 8.43391 13.2941 8.43391 13.2941L8.52541 13.3744C8.59441 14.1896 9.30616 14.4881 9.57091 14.6381C9.83566 14.7881 10.0187 15.0289 10.0187 15.0289L10.2369 15.2014C10.7882 15.5921 10.7882 15.9484 10.7882 15.9484C10.6847 16.5686 11.1212 16.6834 11.1212 16.6834C11.7069 16.8791 11.6724 16.9241 11.6724 16.9241C12.1202 17.2804 12.2469 17.0966 12.4074 17.0501C12.5679 17.0036 12.7637 16.8671 12.7637 16.8671C13.6022 16.5221 13.4642 15.8104 13.4642 15.8104C13.4642 15.8104 13.6014 15.6154 13.7049 15.5119C13.8084 15.4084 13.9007 15.2021 13.9007 15.2021C13.9007 15.2021 14.4864 14.6741 14.8427 14.4784C15.1982 14.2826 15.5087 14.0306 15.6699 13.3414C15.8312 12.6521 16.3599 12.5141 16.3599 12.5141C16.3142 12.4339 16.2564 12.2501 16.3832 12.0664C16.5092 11.8826 16.7147 11.5976 16.7162 11.5961C16.7139 11.5984 16.6839 11.6156 16.2107 11.2631L16.2077 11.2624L16.2099 11.2616ZM12.2822 16.9361L12.1329 16.9706H12.0294L11.7999 16.8326C11.7999 16.8326 11.8802 16.8094 12.0407 16.8094C12.2012 16.8094 12.3279 16.8206 12.3624 16.8206H12.3737L12.2814 16.9354L12.2822 16.9361ZM16.0727 11.9621C15.7974 12.2951 15.9122 12.5479 15.9122 12.5479C15.5214 12.9956 14.8779 13.2716 14.8329 13.2829C14.7879 13.2941 14.7062 13.3864 14.6604 13.4321C14.6147 13.4779 14.3732 13.7539 14.3732 13.7539L14.4879 13.7651L14.4459 13.9114C14.4459 13.9114 14.6147 13.7194 14.6717 13.6391C14.7287 13.5589 14.8779 13.6046 14.8779 13.6046L15.0384 13.5236C15.0384 13.5236 15.1074 13.4779 15.1427 13.4546C15.1779 13.4314 15.2342 13.4659 15.2342 13.4659C15.2687 13.6496 15.1884 13.9714 14.8779 14.1319C14.5674 14.2924 14.1887 14.6029 14.1429 14.6719C14.0972 14.7409 14.0507 14.9014 13.9359 15.0049C13.8212 15.1084 13.6374 15.2921 13.6374 15.2921L13.3269 15.6709C13.3269 15.6709 13.3157 15.6251 13.2354 15.4984C13.1552 15.3716 13.2009 15.3836 13.1897 15.3146C13.1784 15.2456 13.1552 15.1886 13.0974 15.0851C13.0397 14.9816 12.9714 15.0394 12.9249 15.0049C12.8792 14.9704 12.8439 14.8669 12.8439 14.7521C12.8439 14.6374 12.5679 13.3279 12.5454 13.2131L12.5222 13.0984C12.5222 13.0984 12.6602 12.7766 13.0052 12.3746C13.0817 12.2854 13.1597 12.2186 13.2354 12.1691C13.2354 12.1706 13.2347 12.1714 13.2347 12.1736C13.3629 12.0889 13.5812 11.9914 13.8392 12.0716C13.8384 12.0709 13.8377 12.0694 13.8369 12.0679C13.9817 12.1091 14.1092 12.1279 14.2224 12.1316C14.6447 12.0911 14.8179 11.9314 14.8854 11.8331C14.7084 11.8721 14.3619 11.9104 14.3619 11.9104C12.6849 11.7611 13.0982 11.9846 13.0982 11.9846C12.7307 12.1106 12.5582 12.6049 12.5582 12.6049C12.5582 12.6049 12.4434 12.7541 12.3977 12.8231C12.3519 12.8921 12.3519 13.1681 12.3632 13.2364C12.3744 13.3046 12.3977 13.4891 12.3977 13.4891C12.2717 14.0524 12.6272 14.9254 12.6384 14.9599C12.6497 14.9944 12.7607 15.4984 12.7607 15.4984L12.8237 15.5141L12.9152 15.4196H12.9722L12.9954 15.4774L13.1214 15.8216C13.1214 15.8216 13.1552 16.0624 13.1552 16.0976C13.1552 16.1329 13.0292 16.4419 12.9369 16.5109C12.8454 16.5799 12.6729 16.7171 12.3512 16.6714C12.3422 16.6706 12.3332 16.6691 12.3234 16.6684C12.2604 16.6534 12.1967 16.6414 12.1967 16.6414L12.1344 16.6264L12.0872 16.5791L12.0714 16.5169V16.4044C12.1862 16.3856 12.2709 16.3286 12.2709 16.3286C12.5694 16.1921 12.6159 15.9244 12.6159 15.7496C12.6159 15.6634 12.4772 15.5929 12.4772 15.5929C12.0977 15.4781 11.7647 15.5351 11.5697 15.5816C11.3747 15.6281 11.4437 15.9026 11.4437 15.9026C11.4392 16.0669 11.7654 16.3279 11.7654 16.3279C11.8412 16.3879 11.9207 16.4089 11.9942 16.4096V16.4696C11.9942 16.4696 11.9784 16.5319 11.9469 16.5949C11.9259 16.6361 11.8329 16.6564 11.7729 16.6661C11.7392 16.6699 11.7197 16.6721 11.7197 16.6721C11.1339 16.6144 11.0192 16.3166 11.0192 16.1089C11.0192 15.9011 11.2487 15.4429 11.2487 15.4429L11.3177 15.5006C11.3177 15.5006 11.4437 15.5006 11.4789 15.4774C11.5142 15.4541 11.5022 15.3964 11.4789 15.3626C11.4557 15.3281 11.4219 15.2591 11.4219 15.2591C11.6859 14.9831 11.8472 13.1569 11.8584 13.1111C11.8697 13.0654 11.8472 12.9851 11.8472 12.9851L11.8127 12.9041L11.7437 12.8351C11.7437 12.8351 11.5944 12.7204 11.5254 12.7549C11.4564 12.7894 11.5944 12.9731 11.5944 12.9731L11.6754 13.0766C11.5944 13.1914 11.5262 13.8236 11.5262 13.8236L11.4002 14.6164C11.4002 14.6164 11.2967 14.8459 11.2509 15.0649C11.2052 15.2839 10.9982 15.1219 10.9982 15.1219C11.0672 15.4204 10.8834 15.6394 10.8834 15.6394C10.8722 15.5704 10.6764 15.2831 10.4582 15.1339C10.2399 14.9846 10.0329 14.7664 9.93016 14.5826C9.82666 14.3989 9.81541 14.4446 9.35566 14.2264C8.89591 14.0081 8.96491 13.5604 8.96491 13.5604C8.96491 13.5604 9.28666 13.6864 9.33241 13.6984C9.37816 13.7104 9.59641 13.7786 9.67741 13.8131C9.75766 13.8476 10.1027 14.0659 9.75766 13.6864C9.41266 13.3069 9.24091 13.4336 9.02266 13.3534C8.80441 13.2724 8.81566 13.1809 8.71216 13.0429C8.60866 12.9049 8.45941 12.8591 8.33341 12.7324C8.20741 12.6064 8.24191 12.6514 8.26441 12.5831C8.28691 12.5149 8.16091 12.2846 8.16091 12.2846C7.67791 11.7679 8.18416 11.4919 8.34466 11.3884C8.50516 11.2849 8.59816 11.1011 8.49391 10.8596C8.39041 10.6189 8.16091 9.66562 8.16091 9.66562C8.11441 9.58462 7.95466 9.12562 7.94266 8.94187C7.93066 8.75812 7.90816 8.51662 7.70191 7.93087C7.49566 7.34512 7.69066 7.41412 7.73641 7.27612C7.78216 7.13812 7.82791 7.08037 7.82791 7.08037C8.25316 7.05712 10.4927 9.03337 10.4927 9.03337C10.4559 8.88862 10.3982 8.74912 10.3247 8.61562C11.6792 8.00738 13.2152 8.40562 13.5257 8.52787C13.8474 8.65387 13.5602 8.99887 13.5602 8.99887C13.6059 8.98762 14.1459 8.56237 14.1459 8.56237C14.8464 7.52813 16.2707 7.06837 16.2707 7.06837C16.2707 7.06837 16.3397 7.19437 16.3742 7.33237C16.4087 7.47037 16.5467 7.76887 16.3629 8.05612C16.1792 8.34337 16.1559 8.97562 16.1559 8.97562C16.0982 9.03337 15.9152 9.79087 15.8919 9.89512C15.8687 9.99937 15.9377 10.0676 15.7652 10.3886C15.5927 10.7104 15.6729 10.9511 15.7074 11.1356C15.7419 11.3201 16.2354 11.6636 16.2354 11.6636C16.2354 11.6636 16.3509 11.6291 16.0742 11.9621H16.0727Z" fill="currentColor"/>
</g>
<defs>
<clipPath id="clip0_181_95094">
<rect width="24" height="24" fill="white"/>
</clipPath>
</defs>
</svg>
