<svg width="18" height="18" viewBox="0 0 18 18" fill="none" xmlns="http://www.w3.org/2000/svg">
<g id="Frame">
<path id="Vector" d="M5.8298 14.2069C5.86299 14.2098 5.89505 14.2182 5.92487 14.2334L7.23212 14.8864C7.36205 14.9511 7.41605 15.112 7.35249 15.2448C7.33787 15.2757 7.31762 15.3027 7.29343 15.3258L5.84274 16.6741C5.73587 16.7731 5.57049 16.7652 5.47318 16.6555C5.4248 16.6009 5.40062 16.5289 5.40624 16.4558L5.54968 14.4544C5.56037 14.3071 5.68524 14.1957 5.82924 14.2069H5.8298ZM12.4246 14.3571C12.4392 14.3881 12.4476 14.4207 12.4504 14.455L12.5939 16.4564C12.6046 16.6038 12.496 16.7326 12.352 16.7433C12.2806 16.7483 12.2102 16.7236 12.1574 16.6746L10.7067 15.3263C10.5998 15.2273 10.5919 15.0574 10.6887 14.9478C10.7112 14.9224 10.7376 14.9022 10.768 14.887L12.0752 14.2339C12.2052 14.1693 12.3616 14.2238 12.4251 14.3577L12.4246 14.3571ZM9.00005 4.5387C11.5994 4.5387 13.7065 6.6987 13.7065 9.3627C13.7065 12.0267 11.5988 14.1861 8.99949 14.1861C6.40018 14.1861 4.29249 12.0261 4.29249 9.3627C4.29249 6.69926 6.39962 4.5387 8.99949 4.5387H9.00005ZM14.9327 9.73676C14.9654 9.74463 14.9963 9.7587 15.0227 9.77782L16.6304 10.9231C16.7491 11.008 16.7783 11.1745 16.6956 11.296C16.6546 11.3562 16.5916 11.3967 16.5207 11.4074L14.5857 11.7145C14.4428 11.7376 14.3095 11.6374 14.287 11.4906C14.2819 11.4569 14.2831 11.4226 14.2904 11.3894L14.6177 9.93701C14.6504 9.79245 14.7904 9.70301 14.9316 9.7362L14.9322 9.73732L14.9327 9.73676ZM3.3413 9.84476C3.35987 9.87288 3.37393 9.90382 3.38124 9.93701L3.70862 11.3894C3.74124 11.5339 3.65349 11.6774 3.5123 11.7111C3.47968 11.719 3.44649 11.7201 3.4133 11.7145L1.4783 11.4074C1.33543 11.3843 1.23755 11.2482 1.26005 11.1014C1.2713 11.0288 1.31012 10.9641 1.36918 10.9219L2.9768 9.7767C3.09549 9.69176 3.25918 9.72213 3.3413 9.84363V9.84476ZM15.2472 4.4037C15.2686 4.47401 15.2601 4.54938 15.2258 4.61351L14.2707 6.36513C14.2004 6.49451 14.0412 6.54063 13.9152 6.46863C13.8865 6.45176 13.8606 6.42982 13.8398 6.40338L12.9246 5.24463C12.8341 5.12988 12.8509 4.96113 12.9634 4.86776C12.9893 4.84638 13.0191 4.83063 13.0506 4.81995L14.9209 4.22651C15.0587 4.18263 15.205 4.26195 15.2483 4.40313L15.2477 4.40426L15.2472 4.4037ZM3.08087 4.22707L4.95118 4.82051C5.08899 4.86438 5.16662 5.01401 5.1233 5.15576C5.11374 5.18838 5.09743 5.21876 5.07662 5.2452L4.16143 6.40395C4.07087 6.5187 3.90605 6.5367 3.79355 6.44332C3.76768 6.42195 3.74574 6.39551 3.72943 6.36626L2.7743 4.61463C2.70399 4.48526 2.74899 4.32213 2.87499 4.25013C2.93743 4.21413 3.01112 4.20626 3.07974 4.2282L3.0803 4.22707H3.08087ZM9.09737 1.27676C9.16374 1.30376 9.21662 1.35776 9.24305 1.42582L9.97037 3.28938C10.0244 3.4272 9.95855 3.58301 9.82468 3.63813C9.79374 3.65051 9.76112 3.65726 9.72737 3.65726H8.2733C8.12874 3.65726 8.01174 3.53745 8.01174 3.38951C8.01174 3.3552 8.01849 3.32145 8.0303 3.28995L8.75762 1.42638C8.81105 1.28857 8.96349 1.22163 9.09737 1.27676Z" fill="currentColor"/>
</g>
</svg>
