<svg width="24" height="24" viewBox="0 0 24 24" fill="none" xmlns="http://www.w3.org/2000/svg">
<g id="Frame" clip-path="url(#clip0_181_95084)">
<path id="Vector" d="M9.63094 3.60822C10.1604 3.60822 10.6239 3.89172 10.8887 4.38747C11.1534 4.88322 11.1534 5.37897 10.8887 5.94597L7.31344 13.3837C7.11469 13.809 6.84994 14.163 6.51919 14.517C6.18844 14.8005 5.79094 15.084 5.39344 15.2257C4.99594 15.3675 4.53244 15.5092 4.06894 15.5092H2.14894C1.88419 15.5092 1.68544 15.3675 1.55269 15.1552C1.41994 14.8717 1.41994 14.6595 1.55269 14.376L2.41369 12.6052L2.54644 12.3217L4.99594 7.22172L5.72419 5.73447C5.79019 5.59272 5.79019 5.45097 5.79019 5.30922C5.79019 5.16747 5.79019 5.09697 5.72419 4.95522C5.72419 4.81347 5.65819 4.74297 5.59144 4.67172C5.45869 4.52997 5.39269 4.45947 5.26069 4.45947C5.12794 4.38897 5.06194 4.38897 4.92994 4.38897C4.86394 4.38897 4.79719 4.31847 4.79719 4.31847C4.79719 4.31847 4.73119 4.17672 4.73119 4.10622V4.03572C4.86394 3.75222 5.06194 3.61047 5.39344 3.61047H9.63094V3.60822Z" fill="currentColor"/>
<path id="Vector_2" d="M25.1176 7.92952C25.4484 7.92952 25.7799 8.07127 26.0446 8.28352C26.3094 8.49577 26.5081 8.85052 26.5081 9.13327C26.5081 9.41602 26.5081 9.84127 26.3754 10.196L24.7201 13.5965C24.3226 14.3758 23.7931 15.0133 23.1309 15.4385C22.4026 15.8638 21.6744 16.1473 20.8134 16.1473H14.5899C14.3251 16.1473 14.0604 16.289 13.9276 16.5725L13.4641 17.7058C13.1334 18.3433 12.6699 18.839 12.0736 19.2643C11.4781 19.6183 10.8819 19.8313 10.1536 19.8313H8.23362C8.10087 19.8313 7.96887 19.7608 7.83612 19.6895C7.70337 19.6183 7.63737 19.5478 7.57137 19.406C7.50537 19.2643 7.50537 19.1938 7.43862 19.052C7.37187 18.9103 7.43862 18.7685 7.50462 18.6268L11.5434 10.4098C11.9409 9.63052 12.4704 8.99302 13.1986 8.56777C13.9269 8.14252 14.6551 7.85977 15.4494 7.85977H25.1154V7.93027L25.1176 7.92952ZM21.2776 9.77152C21.4104 9.48802 21.4104 9.20452 21.2776 8.99227C21.1449 8.70877 20.9469 8.63827 20.6814 8.63827H20.1519C19.5564 8.63827 18.9601 8.78002 18.4306 9.13402C17.9011 9.41752 17.4376 9.84202 17.1061 10.409L15.1201 14.3758C15.0541 14.6593 15.0541 14.8715 15.2529 15.0845C15.3856 15.2968 15.5836 15.368 15.8491 15.368H16.3786C16.8421 15.368 17.2396 15.2975 17.7031 15.0845C18.1006 14.9428 18.4974 14.6593 18.8289 14.3758C19.1604 14.0923 19.4251 13.667 19.6231 13.2425L21.2776 9.77152Z" fill="currentColor"/>
</g>
<defs>
<clipPath id="clip0_181_95084">
<rect width="24" height="24" fill="white"/>
</clipPath>
</defs>
</svg>
