<svg width="24" height="24" viewBox="0 0 24 24" fill="none" xmlns="http://www.w3.org/2000/svg">
<g id="Frame">
<path id="Vector" d="M9.0331 12.7635C9.73563 12.7635 10.3052 13.3331 10.3052 14.0356V18.996C10.3052 19.6985 9.73563 20.2681 9.0331 20.2681H7.69915C6.64508 20.2681 5.7913 19.4137 5.7913 18.3602V14.6719C5.7913 13.6179 6.64569 12.7641 7.69915 12.7641L9.0331 12.7635ZM16.3563 12.7635C17.4104 12.7635 18.2642 13.6179 18.2642 14.6713V18.3596C18.2642 19.4137 17.4098 20.2675 16.3563 20.2675H15.0224C14.3199 20.2675 13.7503 19.6978 13.7503 18.9954V14.035C13.7503 13.3325 14.3199 12.7629 15.0224 12.7629L16.3563 12.7635ZM12.0005 3.73145C17.0166 3.73145 21.0975 7.72348 21.22 12.6943L21.223 12.9246V16.6796C21.223 17.1978 20.8017 17.6179 20.2817 17.6179C19.7942 17.6179 19.3936 17.2486 19.3452 16.7758L19.3403 16.6796V12.9246C19.3403 8.8835 16.0538 5.60804 11.9999 5.60804C8.01453 5.60804 4.77154 8.77385 4.66252 12.72L4.65946 12.9246V16.6912C4.65946 17.2094 4.23808 17.6296 3.7181 17.6296C3.23057 17.6296 2.83002 17.2603 2.78225 16.7874L2.77734 16.6912V12.9246C2.77734 7.84783 6.9066 3.73205 11.9999 3.73205L12.0005 3.73145Z" fill="currentColor"/>
</g>
</svg>
