<svg width="24" height="24" viewBox="0 0 24 24" fill="none" xmlns="http://www.w3.org/2000/svg">
<g id="Frame">
<path id="Vector" d="M20.6753 9.387C20.6753 8.19292 20.6794 7.77772 20.6732 6.58432C20.6692 5.72606 19.9534 4.94651 19.0999 4.89698C18.4994 4.86238 17.8956 4.8807 17.2931 4.87459C17.2267 4.87459 17.1608 4.87459 17.0822 4.87459C17.0822 4.73279 17.0835 4.61881 17.0822 4.50483C17.0781 4.25854 17.0862 4.01023 17.0639 3.7653C17.0231 3.32497 16.6757 3.0156 16.2347 3.00338C15.6981 2.98846 15.3222 3.2517 15.2666 3.72324C15.2286 4.04076 15.2462 4.36371 15.2394 4.6853C15.2381 4.745 15.2394 4.80538 15.2394 4.86238H8.72822C8.72822 4.72058 8.72957 4.58896 8.72822 4.45869C8.72484 4.20088 8.75064 3.93763 8.70789 3.68592C8.62644 3.21371 8.20652 2.95386 7.66914 3.00678C7.22678 3.04952 6.90654 3.40707 6.90112 3.87046C6.89705 4.1968 6.90044 4.52247 6.90044 4.87459C6.32375 4.87459 5.77283 4.87188 5.2226 4.87663C5.05705 4.87798 4.88744 4.88137 4.72664 4.91598C3.88602 5.09373 3.32086 5.80409 3.32086 6.66981C3.32018 10.7101 3.32968 14.751 3.31407 18.7912C3.31 19.8191 4.13298 20.6434 5.17239 20.6401C9.72354 20.6238 14.2747 20.6238 18.8265 20.6401C19.8645 20.6434 20.6909 19.8171 20.6841 18.7906C20.6651 15.9152 20.6774 12.2617 20.6774 9.38632L20.6753 9.387ZM15.7646 12.4516C15.3541 12.8506 14.9443 13.2488 14.544 13.6566C14.487 13.7143 14.4416 13.8256 14.4538 13.9022C14.5406 14.4796 14.6369 15.0563 14.7422 15.631C14.7971 15.9322 14.717 16.1812 14.4803 16.3651C14.24 16.5502 13.9714 16.5591 13.7027 16.4193C13.1905 16.154 12.6769 15.8887 12.1687 15.6154C12.0452 15.5482 11.9495 15.5482 11.8261 15.6154C11.3423 15.8765 10.8512 16.1235 10.3667 16.3827C10.0838 16.534 9.80222 16.5767 9.53222 16.3786C9.26762 16.1839 9.19772 15.9159 9.25877 15.5923C9.36459 15.0393 9.45422 14.4823 9.53627 13.9252C9.54849 13.8412 9.50979 13.7204 9.45077 13.66C9.06069 13.261 8.66109 12.871 8.25804 12.4849C8.01992 12.2576 7.89234 11.9937 7.99884 11.6707C8.10879 11.3362 8.38014 11.2135 8.71329 11.17C9.27167 11.0974 9.82937 11.0119 10.385 10.9183C10.4536 10.9068 10.5296 10.8247 10.5648 10.7555C10.8254 10.2487 11.0771 9.73642 11.3301 9.22627C11.4692 8.94532 11.6782 8.77095 12.0134 8.7696C12.3227 8.77912 12.5256 8.95147 12.6606 9.22552C12.9096 9.73035 13.164 10.2331 13.4103 10.7392C13.4693 10.8613 13.5406 10.9183 13.6865 10.9366C14.2387 11.0052 14.7883 11.0954 15.3392 11.1768C15.6479 11.2222 15.8935 11.3607 15.9939 11.6694C16.093 11.974 15.9892 12.2338 15.7625 12.453L15.7639 12.4523L15.7646 12.4516Z" fill="currentColor"/>
</g>
</svg>
