<svg width="24" height="24" viewBox="0 0 24 24" fill="none" xmlns="http://www.w3.org/2000/svg">
<g id="Frame">
<g id="botton_menu/lottery_default">
<g id="Group 1556234962">
<path id="Vector" d="M20.8525 8.27475C20.8806 8.3337 20.9113 8.40615 20.9446 8.49075L21.0528 8.78467L21.1769 9.1557C21.3397 9.63712 21.2216 10.1965 20.91 10.6846C19.7982 12.4269 18.1845 14.4413 16.4474 16.3433C14.3045 18.6889 12.1777 20.4873 10.1169 21.7216C9.49626 22.0934 8.67944 22.0867 8.05349 21.7393L7.90131 21.6451L7.18523 21.1441L6.59262 20.7202C6.34838 20.5441 6.28765 20.1968 6.45782 19.9435C6.60864 19.7188 6.89027 19.6443 7.1225 19.7539L7.20659 19.8034L7.96004 20.341L8.49456 20.7134C8.79756 20.92 9.26466 20.943 9.57839 20.7547C12.9398 18.741 16.765 14.899 20.0785 10.0759C20.1265 10.0062 20.1598 9.84367 20.1625 9.71565L20.1586 9.62835L20.1385 9.53895L19.965 9.06292C19.8916 8.75415 19.923 8.5395 20.1499 8.29575C20.4274 7.99717 20.7124 7.97617 20.8532 8.2734L20.8525 8.27475ZM6.55925 16.0291L6.73811 16.1449L6.8976 16.2614C7.13651 16.4449 7.1859 16.795 7.00838 17.0421C6.83087 17.2892 6.49385 17.3407 6.25561 17.1572C5.3954 16.495 4.52851 16.5898 3.50746 17.4734C3.37599 17.5872 3.20249 17.6278 3.03765 17.5872L2.94021 17.5533L2.85546 17.5039L1.48139 16.5153C1.23713 16.3393 1.17641 15.9919 1.34658 15.7387C1.47671 15.5443 1.70828 15.4597 1.92117 15.5165L2.01527 15.5518L2.09535 15.5992L3.11573 16.3771L3.16378 16.3399C4.32363 15.4861 5.48349 15.3771 6.55925 16.0291Z" fill="#24EE89"/>
<path id="Vector_2" d="M13.2043 2.13405L14.3448 2.90191C14.296 2.95811 14.2507 3.01905 14.2087 3.08337C13.5433 4.09567 13.6153 5.45532 14.8513 6.36672C16.0873 7.27812 17.6055 7.09801 18.3542 6.17848C18.4563 6.05321 18.5344 5.91373 18.5905 5.76409L19.7937 6.57527C20.1534 6.81971 20.2495 7.31333 20.0079 7.67828C20.0026 7.68645 19.9966 7.69455 19.9912 7.70265C18.07 10.3692 16.1659 12.6686 14.278 14.5998C12.4462 16.4747 10.673 17.9468 8.95993 19.0173C8.61155 19.236 8.16575 19.2116 7.84213 18.9564L6.72295 18.066C6.81972 18.0016 6.90447 17.9312 6.97454 17.8554C7.6025 17.1796 7.73263 15.6683 6.45802 14.6614C5.18338 13.6546 3.77059 13.853 2.86633 14.5213C2.76089 14.5991 2.67414 14.6905 2.6054 14.7934L1.49426 13.9111C1.23867 13.7081 1.19462 13.3329 1.3955 13.0736C1.43287 13.0248 1.47824 12.9829 1.52897 12.9483C3.72254 11.4519 5.67855 9.8322 7.39698 8.0886C9.1154 6.34505 10.6917 4.42949 12.1265 2.34125C12.3701 1.98577 12.8492 1.89368 13.2043 2.13405ZM7.94623 12.9246C7.60588 13.0303 7.41767 13.4074 7.52578 13.7662C7.63385 14.1251 7.9976 14.331 8.33863 14.2253C8.67898 14.1197 8.86715 13.7425 8.75908 13.3837C8.65093 13.0248 8.28725 12.819 7.94623 12.9246ZM11.9323 8.32425L11.8675 8.35882L10.665 9.19575L9.26825 8.66145C9.19813 8.63438 9.12073 8.6337 9.05 8.65943C8.90855 8.71088 8.82508 8.85308 8.84113 8.99865L8.85778 9.0711L9.34363 10.4551L8.46943 11.5914C8.42803 11.6449 8.4047 11.7098 8.40268 11.7782C8.39735 11.9306 8.4974 12.0619 8.63623 12.1006L8.70898 12.1114L10.2286 12.167L11.1175 13.4277C11.1575 13.4853 11.2156 13.5272 11.2816 13.5482C11.4251 13.5936 11.5766 13.5299 11.6494 13.404L11.6787 13.3363L12.0971 11.9665L13.4812 11.6076C13.5526 11.5893 13.6153 11.546 13.6588 11.4857C13.7475 11.3625 13.7375 11.1973 13.6434 11.0862L13.5893 11.0361L12.3674 10.1308L12.3661 8.62628C12.3661 8.56125 12.3467 8.49832 12.3107 8.44477C12.226 8.31885 12.0685 8.27347 11.9343 8.32627L11.9323 8.32425ZM13.5526 7.2402C13.2123 7.34583 13.0241 7.72297 13.1322 8.08185C13.2403 8.44072 13.604 8.6466 13.945 8.54093C14.2854 8.43533 14.4736 8.05815 14.3655 7.69928C14.2573 7.34042 13.8937 7.13457 13.5526 7.2402Z" fill="currentColor"/>
</g>
</g>
</g>
</svg>
