<svg width="24" height="24" viewBox="0 0 24 24" fill="none" xmlns="http://www.w3.org/2000/svg">
<g id="Frame">
<path id="Vector" d="M18.0504 4.18555H4.41094C4.16241 4.18555 3.96094 4.38702 3.96094 4.63555V6.3583C3.96094 6.60683 4.16241 6.8083 4.41094 6.8083H18.0504C18.299 6.8083 18.5004 6.60683 18.5004 6.3583V4.63555C18.5004 4.38702 18.299 4.18555 18.0504 4.18555Z" fill="currentColor"/>
<path id="Vector_2" d="M14.4046 10.373H4.89531C4.64678 10.373 4.44531 10.5745 4.44531 10.823V12.5458C4.44531 12.7943 4.64678 12.9958 4.89531 12.9958H14.4046C14.6531 12.9958 14.8546 12.7943 14.8546 12.5458V10.823C14.8546 10.5745 14.6531 10.373 14.4046 10.373Z" fill="currentColor"/>
<path id="Vector_3" d="M18.0504 16.5605H4.41094C4.16241 16.5605 3.96094 16.762 3.96094 17.0105V18.7333C3.96094 18.9818 4.16241 19.1833 4.41094 19.1833H18.0504C18.299 19.1833 18.5004 18.9818 18.5004 18.7333V17.0105C18.5004 16.762 18.299 16.5605 18.0504 16.5605Z" fill="currentColor"/>
<path id="Vector_4" d="M20.8467 11.0352C20.96 11.1012 21.054 11.1958 21.1193 11.3095C21.1847 11.4232 21.2191 11.552 21.2191 11.6832C21.2191 11.8143 21.1847 11.9431 21.1193 12.0568C21.054 12.1706 20.96 12.2651 20.8467 12.3312L17.7132 14.1552C17.5992 14.2215 17.4698 14.2566 17.3379 14.2569C17.2061 14.2573 17.0765 14.2229 16.9622 14.1572C16.8478 14.0915 16.7529 13.9968 16.6868 13.8826C16.6208 13.7685 16.586 13.639 16.5859 13.5072V9.85991C16.5858 9.72799 16.6205 9.59838 16.6865 9.48416C16.7525 9.36994 16.8475 9.27514 16.9618 9.20934C17.0762 9.14354 17.2058 9.10906 17.3378 9.10938C17.4697 9.1097 17.5992 9.14481 17.7132 9.21116L20.8467 11.0352Z" fill="#24EE89"/>
</g>
</svg>
