<svg width="24" height="24" viewBox="0 0 24 24" fill="none" xmlns="http://www.w3.org/2000/svg">
<g id="Frame">
<path id="Vector" d="M19.4248 4.40323C20.6381 5.62538 19.3721 9.63485 18.0457 11.5785C17.6039 12.2256 16.9216 13.0273 15.999 13.9855C16.2082 14.1225 16.0294 17.0417 15.5686 17.7187C15.0892 18.4479 14.3968 19.1449 13.6009 19.9338C13.449 20.0848 13.2115 19.9812 13.1014 19.8263C12.9385 19.5992 12.3646 17.6824 12.4517 17.3349C10.667 16.7659 9.33135 16.0077 8.44687 15.0585C7.5624 14.1092 6.86522 12.8291 6.35887 11.2173C5.93823 11.2451 4.12066 10.447 3.9124 10.279C3.76455 10.1584 3.67483 9.9167 3.83451 9.77203C4.6672 9.0218 5.40406 8.37463 6.16045 7.93685C6.79957 7.55578 9.35647 7.53733 9.8163 7.6715L9.86415 7.68995L10.1401 7.43727C10.9542 6.69797 11.6483 6.12437 12.2247 5.71926C14.2104 4.32013 18.2114 3.18107 19.4248 4.40323ZM6.54427 14.1412L6.55888 14.1732C6.6976 14.4738 7.83772 16.8192 9.8571 17.2705L6.32197 18.2875C5.82918 18.3401 5.42067 17.9122 5.49742 17.4224L6.54427 14.1412ZM11.8752 7.71275C11.3964 9.4751 12.4384 11.2911 14.1989 11.7695C15.9613 12.2482 17.7772 11.2063 18.2557 9.4457C18.7344 7.68335 17.6924 5.86736 15.9319 5.389C14.1695 4.91023 12.3535 5.95223 11.8752 7.71275ZM15.6432 6.40154C16.8188 6.72024 17.5125 7.93078 17.1937 9.10588C16.8749 10.2809 15.665 10.9751 14.4894 10.6564C13.3137 10.3377 12.6201 9.12778 12.9388 7.95208C13.2575 6.77643 14.4675 6.08282 15.6432 6.40154Z" fill="currentColor"/>
</g>
</svg>
