<svg width="24" height="24" viewBox="0 0 24 24" fill="none" xmlns="http://www.w3.org/2000/svg">
<g id="Frame">
<path id="Vector" d="M3.32025 8.4129C2.8716 8.3073 2.89354 7.66148 3.34832 7.58655L3.61691 7.5423C5.77457 7.18691 7.46569 5.49579 7.82108 3.33814C7.89323 2.89998 8.52323 2.89998 8.59545 3.33814C8.9508 5.49579 10.6419 7.18691 12.7997 7.5423L13.0682 7.58655C13.523 7.66148 13.5449 8.3073 13.0962 8.4129L12.4898 8.55563C10.4873 9.027 8.9574 10.6447 8.59838 12.6703C8.52105 13.1064 7.8954 13.1064 7.81815 12.6703C7.45912 10.6447 5.92918 9.027 3.92672 8.55563L3.32025 8.4129Z" fill="currentColor"/>
<path id="Vector_2" d="M13.7564 13.1729C13.4347 13.0972 13.4506 12.6342 13.7766 12.5804L13.9692 12.5487C15.5161 12.294 16.7287 11.0814 16.9835 9.5344C17.0352 9.2203 17.4869 9.2203 17.5387 9.5344C17.7935 11.0814 19.006 12.294 20.553 12.5487L20.7456 12.5804C21.0716 12.6341 21.0873 13.0972 20.7657 13.1729L20.3308 13.2753C18.8951 13.6132 17.7981 14.7731 17.5407 16.2254C17.4853 16.5381 17.0368 16.5381 16.9813 16.2254C16.7239 14.7731 15.6271 13.6132 14.1913 13.2753L13.7564 13.1729Z" fill="currentColor"/>
<path id="Vector_3" d="M7.49827 18.054C7.20947 17.9861 7.22359 17.5703 7.51638 17.5221L7.68925 17.4936C9.07818 17.2649 10.1668 16.1763 10.3956 14.7873C10.4421 14.5053 10.8476 14.5053 10.8941 14.7873C11.1228 16.1763 12.2115 17.2649 13.6004 17.4936L13.7733 17.5221C14.0661 17.5703 14.0802 17.9861 13.7913 18.054L13.4009 18.1459C12.1119 18.4494 11.127 19.4907 10.8959 20.7946C10.8462 21.0754 10.4434 21.0754 10.3937 20.7946C10.1625 19.4907 9.1777 18.4494 7.88868 18.1459L7.49827 18.054Z" fill="currentColor"/>
</g>
</svg>
