<svg width="24" height="24" viewBox="0 0 24 24" fill="none" xmlns="http://www.w3.org/2000/svg">
<g id="Frame">
<g id="botton_menu/promotion_default">
<g id="Group 1000006359">
<path id="Vector" d="M18.457 5.14696L21.3753 7.7958C21.7668 8.15085 21.9906 8.6553 21.9906 9.18367L22.0011 19.3235C22.0018 20.0146 21.4419 20.576 20.7507 20.5767H14.5044C13.814 20.5767 13.2534 20.0175 13.2527 19.3263L13.2422 9.18645C13.2414 8.65672 13.4653 8.15085 13.8575 7.79437L16.7744 5.14696C17.2515 4.71403 17.9799 4.71403 18.457 5.14696ZM17.636 7.75575C17.0312 7.75575 16.5407 8.28412 16.5407 8.9367C16.5407 9.58927 17.0312 10.1176 17.636 10.1176C18.2409 10.1176 18.7314 9.58927 18.7314 8.9367C18.7314 8.28412 18.2409 7.75575 17.636 7.75575Z" fill="currentColor"/>
<path id="Vector_2" d="M14.4269 5.95172L13.3028 6.97194C12.6664 7.54941 12.2994 8.40126 12.3001 9.29796L12.3107 19.2295C12.3107 19.3431 12.3078 19.4133 12.3331 19.5641C12.3584 19.715 12.3008 19.7297 12.1913 19.6981C11.7051 19.5592 10.9754 19.348 10.0022 19.0653C9.33489 18.8723 8.93912 18.1334 9.11664 17.4142L11.4911 7.81814C11.6342 7.24068 12.0068 6.76004 12.5085 6.50674L14.2164 5.64438C14.309 5.59737 14.422 5.63456 14.4683 5.72718C14.5062 5.80226 14.4893 5.89488 14.4269 5.95172Z" fill="#24EE89"/>
<path id="Vector_3" d="M13.4324 5.06962L12.0831 5.76428C11.319 6.15721 10.7442 6.88485 10.5127 7.75144L7.9523 17.3475C7.93265 17.4219 7.91232 17.5461 7.91022 17.6492C7.90812 17.7523 7.89762 17.8815 7.6106 17.706C7.20083 17.4562 6.58616 17.0844 5.76451 16.5918C5.17019 16.2332 4.97864 15.4164 5.33649 14.7675L10.1135 6.11301C10.4011 5.59167 10.8853 5.22469 11.4361 5.10962L13.3089 4.71879C13.4106 4.69774 13.5096 4.763 13.5313 4.86404C13.5489 4.94684 13.5088 5.03033 13.4337 5.06962H13.4324Z" fill="currentColor"/>
<path id="Vector_4" d="M12.734 3.90357L11.2506 4.22494C10.4107 4.40667 9.66695 4.96099 9.21927 5.73844L4.2627 14.3445C4.21569 14.4258 4.17359 14.5093 4.1364 14.5935C4.10342 14.6686 4.09781 14.8426 3.90135 14.6672C3.53437 14.3395 3.01583 13.8 2.34434 13.0485C1.86299 12.5481 1.88965 11.7096 2.40327 11.1757L9.25722 4.05232C9.6698 3.6236 10.2325 3.39416 10.7946 3.42573L12.7045 3.53308C12.8083 3.5387 12.8869 3.62781 12.8813 3.73096C12.8764 3.81516 12.816 3.88603 12.734 3.90357Z" fill="#24EE89"/>
</g>
</g>
</g>
</svg>
