<svg width="24" height="24" viewBox="0 0 24 24" fill="none" xmlns="http://www.w3.org/2000/svg">
<g id="Frame">
<path id="Vector" d="M8.71189 16.0555C8.71249 16.567 9.20029 16.8533 9.63274 16.63C10.3135 16.2787 10.9917 15.9223 11.6661 15.5587C11.8926 15.4371 12.105 15.4371 12.3264 15.5561C12.5934 15.6996 12.8617 15.8392 13.1301 15.9808C13.5451 16.1995 13.9602 16.419 14.3752 16.6371C14.5953 16.753 14.8147 16.744 15.0155 16.5991C15.2208 16.4512 15.3044 16.2478 15.2587 15.9911C15.1262 15.2421 14.9994 14.4925 14.8688 13.7434C14.8237 13.4854 14.8765 13.2667 15.0734 13.0781C15.6229 12.5505 16.1654 12.0145 16.7111 11.4823C16.897 11.3008 16.9736 11.0853 16.8887 10.8337C16.8076 10.5931 16.6351 10.4573 16.3791 10.4212C15.6429 10.3189 14.9087 10.205 14.1719 10.1086C13.8746 10.0693 13.668 9.93868 13.5368 9.6632C13.2214 9.00433 12.8913 8.3525 12.5715 7.6949C12.4524 7.451 12.28 7.28756 11.9976 7.28499C11.7125 7.28306 11.5445 7.45036 11.4261 7.6949C11.1102 8.34673 10.7769 8.99083 10.4699 9.64715C10.3328 9.93995 10.1224 10.0705 9.81094 10.1104C9.06777 10.2057 8.32707 10.3202 7.58577 10.427C7.38179 10.4566 7.23508 10.5673 7.14241 10.7488C7.01308 11.0029 7.06005 11.2571 7.28463 11.4791C7.82262 12.0112 8.36247 12.5402 8.90299 13.0691C9.06454 13.2268 9.17067 13.4056 9.13077 13.6392C9.05742 14.0729 8.97762 14.5053 8.90239 14.9383C8.83542 15.3244 8.77047 15.7112 8.71189 16.0555ZM2.99063 11.9932C2.99256 7.02052 7.03174 2.98729 12.0059 2.99179C16.9827 2.99629 21.0096 7.02953 21.0077 12.0067C21.0057 16.9801 16.9659 21.0139 11.9924 21.0088C7.01629 21.0037 2.98805 16.9698 2.99063 11.9932Z" fill="currentColor"/>
</g>
</svg>
