<svg width="24" height="24" viewBox="0 0 24 24" fill="none" xmlns="http://www.w3.org/2000/svg">
<g id="Frame">
<path id="Vector" d="M13.628 10.3914H20.2136C20.5769 10.3914 20.8723 10.686 20.8723 11.0501V11.1533C20.8723 11.5166 20.5777 11.8119 20.2136 11.8119H13.628C13.2646 11.8119 12.9692 11.5173 12.9692 11.1533V11.0501C12.9692 10.6868 13.2639 10.3914 13.628 10.3914ZM13.628 4.00079H20.2136C20.5769 4.00079 20.8723 4.29542 20.8723 4.6595V4.76262C20.8723 5.126 20.5777 5.42132 20.2136 5.42132H13.628C13.2646 5.42132 12.9692 5.12669 12.9692 4.76262V4.6595C12.9692 4.29613 13.2639 4.00079 13.628 4.00079ZM3.74951 10.3914H10.3352C10.6985 10.3914 10.9938 10.686 10.9938 11.0501V11.1533C10.9938 11.5166 10.6992 11.8119 10.3352 11.8119H3.74951C3.38613 11.8119 3.09081 11.5173 3.09081 11.1533V11.0501C3.09081 10.6868 3.38543 10.3914 3.74951 10.3914ZM13.628 8.26171H20.2136C20.5769 8.26171 20.8723 8.55631 20.8723 8.92036V9.02348C20.8723 9.38686 20.5777 9.68221 20.2136 9.68221H13.628C13.2646 9.68221 12.9692 9.38761 12.9692 9.02348V8.92036C12.9692 8.55698 13.2639 8.26171 13.628 8.26171ZM3.74951 8.26171H10.3352C10.6985 8.26171 10.9938 8.55631 10.9938 8.92036V9.02348C10.9938 9.38686 10.6992 9.68221 10.3352 9.68221H3.74951C3.38613 9.68221 3.09081 9.38761 3.09081 9.02348V8.92036C3.09081 8.55698 3.38543 8.26171 3.74951 8.26171ZM13.628 6.13124H20.2136C20.5769 6.13124 20.8723 6.42587 20.8723 6.78994V6.89306C20.8723 7.25643 20.5777 7.55176 20.2136 7.55176H13.628C13.2646 7.55176 12.9692 7.25714 12.9692 6.89306V6.78994C12.9692 6.42656 13.2639 6.13124 13.628 6.13124ZM3.74951 6.13124H10.3352C10.6985 6.13124 10.9938 6.42587 10.9938 6.78994V6.89306C10.9938 7.25643 10.6992 7.55176 10.3352 7.55176H3.74951C3.38613 7.55176 3.09081 7.25714 3.09081 6.89306V6.78994C3.09081 6.42656 3.38543 6.13124 3.74951 6.13124ZM2.4328 13.2317H21.531C21.531 14.016 20.8955 14.6516 20.1112 14.6516H3.85333C3.06906 14.6516 2.4328 14.016 2.4328 13.2317ZM12.4958 15.2942L15.4055 18.9286C15.6328 19.2127 15.5873 19.6273 15.3031 19.8546C15.1867 19.9479 15.0415 19.9991 14.8913 19.9991H9.07172C8.70834 19.9991 8.41307 19.7045 8.41307 19.3404C8.41307 19.1909 8.46422 19.0457 8.55752 18.9286L11.4674 15.2942C11.6946 15.0101 12.1092 14.9645 12.3933 15.1917C12.4312 15.2219 12.4655 15.2563 12.4958 15.2942Z" fill="currentColor"/>
</g>
</svg>
