<svg width="18" height="18" viewBox="0 0 18 18" fill="none" xmlns="http://www.w3.org/2000/svg">
<path d="M8.58284 14.1143L5.79864 15.6432C5.36048 15.8834 4.81897 15.7081 4.58897 15.2505C4.49727 15.0685 4.46573 14.8598 4.49872 14.6571L5.03053 11.4188C5.08051 11.1153 4.98395 10.8056 4.77287 10.5907L2.52047 8.29766C2.16625 7.93681 2.15897 7.34439 2.50445 6.97449C2.64225 6.827 2.82228 6.73121 3.01733 6.70185L6.13006 6.22951C6.42166 6.18541 6.674 5.99388 6.8045 5.71769L8.19663 2.77186C8.41544 2.30867 8.95258 2.11813 9.39656 2.34668C9.57318 2.4379 9.71634 2.58689 9.80369 2.77186L11.1958 5.71769C11.3263 5.99388 11.5786 6.18541 11.8703 6.22951L14.983 6.70185C15.4725 6.77632 15.8117 7.25118 15.7409 7.76249C15.7127 7.96623 15.6205 8.15422 15.4798 8.29816L13.2274 10.5913C13.0164 10.8061 12.9198 11.1158 12.9698 11.4193L13.5016 14.6576C13.585 15.1669 13.2575 15.6503 12.7699 15.738C12.5758 15.7729 12.3758 15.7395 12.2016 15.6437L9.41743 14.1148C9.15637 13.9714 8.84486 13.9714 8.5838 14.1148L8.58284 14.1143Z" fill="currentColor"/>
</svg>
