<svg width="24" height="24" viewBox="0 0 24 24" fill="none" xmlns="http://www.w3.org/2000/svg">
<g id="Frame">
<path id="Vector" d="M16.9528 3C16.9256 3 16.8897 3 16.8631 3.00926C16.8179 3.01853 15.9714 3.2432 15.5122 3.69368C15.053 4.14417 14.8098 4.73826 14.7195 5.18875C10.298 5.34161 6.03804 7.82738 6.03804 13.1227C6.03804 14.4915 6.44337 16.6889 7.0554 17.5893C7.0554 17.5893 7.63151 18.7601 10.4236 20.327C12.324 20.9575 14.2331 21.0114 14.8631 21.0114C14.9714 21.0114 15.0432 21.0114 15.0612 21.0114C15.214 21.0114 15.3402 20.9032 15.3854 20.7595C15.4033 20.7144 15.7368 19.6791 15.7368 18.5534C15.7368 17.3826 15.2684 16.6351 14.8185 15.9061C14.3321 15.1313 13.8278 14.3212 13.8278 12.898C13.8278 12.1684 14.0889 11.6281 14.6019 11.2773C15.3495 12.6733 16.7542 13.0063 17.3397 13.0874C17.4566 13.4388 17.727 14.0329 18.2134 14.2222C18.4293 14.3125 18.6726 14.3125 18.8886 14.2222C18.9968 14.2854 19.1317 14.3306 19.2579 14.3126C19.6361 14.3039 20.0235 14.0422 20.2933 13.583C20.3205 13.5378 20.3472 13.4932 20.3836 13.4481C20.6807 13.0069 21.284 12.0885 19.9424 10.8008C19.3032 8.0538 18.1596 6.7035 17.727 6.18122L17.6732 6.10015C17.4659 5.85695 17.2499 5.61376 17.0247 5.37983L17.313 3.39838C17.331 3.28141 17.2858 3.16444 17.2047 3.08338C17.1329 3.03821 17.0426 3.00232 16.9523 3.00232L16.9528 3ZM14.4676 3.0718C14.4497 3.0718 14.4404 3.08107 14.4225 3.08107C14.1434 3.11696 13.954 3.34221 13.756 3.56745C13.6749 3.65778 13.5221 3.8286 13.441 3.87376C13.3692 3.85581 13.2157 3.73885 13.1167 3.67573C12.8376 3.48639 12.4862 3.24319 12.0901 3.33352C11.7572 3.39664 11.5586 3.7209 11.3698 4.01795C11.298 4.13491 11.1538 4.35089 11.0727 4.414C10.9917 4.38679 10.8295 4.28777 10.7213 4.22466C10.415 4.04458 10.0907 3.85523 9.76646 3.96351C9.42423 4.08048 9.17238 4.53965 9.07278 4.87318C9.03686 4.98146 8.98241 5.17021 8.93786 5.2426C8.84748 5.23333 8.60493 5.16153 8.49663 5.11636C8.17233 4.97219 7.72188 4.93629 7.38893 5.09842C7.03746 5.2785 6.95639 5.85463 6.96565 6.19684C6.96565 6.29586 6.96565 6.45799 6.95639 6.53906C6.94713 6.62012 6.92049 6.63807 6.89328 6.65602C6.84811 6.69192 6.70393 6.69192 6.58697 6.70987C6.28065 6.74577 5.86665 6.68266 5.65067 6.95306C5.42542 7.25937 5.45264 7.61955 5.53371 7.96177C5.57886 8.0787 5.64198 8.32193 5.63272 8.36708C5.58756 8.42093 5.53371 8.45737 5.39879 8.51122C5.05658 8.62822 4.64257 8.77237 4.50708 9.18637C4.42601 9.46552 4.47117 9.6369 4.64199 9.90675C4.68716 9.97852 4.76822 10.114 4.80412 10.1858C4.75027 10.231 4.63272 10.3027 4.56093 10.3387C4.31773 10.4736 3.99348 10.6629 3.92167 11.0503C3.88578 11.3294 4.1197 11.6264 4.28183 11.8609C4.37216 11.9779 4.44396 12.1493 4.48913 12.2211C4.44396 12.2662 4.18281 12.5182 4.12896 12.554C3.91299 12.7162 3.61594 12.9414 3.61594 13.3102C3.61594 13.5622 3.88635 14.184 4.07511 14.418C4.14692 14.5077 4.0479 14.6611 3.98479 14.7515C3.95757 14.8233 3.75086 15.0485 3.63331 15.1747C3.48913 15.3456 3.19209 15.7602 3.22799 16.1117C3.27315 16.4718 3.61536 16.8592 3.88519 17.0752C4.06527 17.2101 4.06527 17.3004 4.11912 17.3455C4.13707 17.3994 4.18224 17.4446 4.21814 17.4805C4.25404 17.5077 4.74042 17.9755 6.4422 17.9668C5.67672 16.8412 5.31657 14.4098 5.31657 13.1221C5.31657 7.5564 9.64833 4.81006 14.2412 4.50375C14.3582 4.20671 14.5562 3.74753 14.9616 3.2791C14.6645 3.08107 14.5296 3.06311 14.4665 3.0718H14.4676ZM17.9887 3.68442L17.7814 5.16153C17.8446 5.22465 17.9076 5.30571 17.9708 5.37752C18.0877 5.02604 18.2592 4.64793 18.5469 4.33294C18.6366 4.24261 18.6732 4.10769 18.6366 3.98146C18.6002 3.85523 18.4925 3.76548 18.3663 3.72959C18.2493 3.70237 18.1323 3.68442 18.0153 3.68442H17.9887ZM17.0252 8.403C17.3223 8.403 17.5654 8.64615 17.5654 8.94323C17.5654 9.24023 17.3223 9.48345 17.0252 9.48345C16.7282 9.48345 16.485 9.24023 16.485 8.94323C16.485 8.64615 16.7282 8.403 17.0252 8.403Z" fill="currentColor"/>
</g>
</svg>
