<svg width="25" height="25" viewBox="0 0 25 25" fill="none" xmlns="http://www.w3.org/2000/svg">
<path fill-rule="evenodd" clip-rule="evenodd" d="M14.7585 16.8834C13.4763 17.9134 11.8803 18.4738 10.2357 18.4714C8.31667 18.4714 6.47624 17.7091 5.11928 16.3521C3.76233 14.9951 3 13.1547 3 11.2357C3 9.31667 3.76233 7.47624 5.11928 6.11928C6.47624 4.76233 8.31667 4 10.2357 4C12.1547 4 13.9951 4.76233 15.3521 6.11928C16.7091 7.47624 17.4714 9.31667 17.4714 11.2357C17.4738 12.8971 16.9021 14.5083 15.8529 15.7966L16.6042 16.5479L15.5135 17.6385L14.7585 16.8834ZM15.1658 11.2357C15.1658 12.5433 14.6463 13.7974 13.7217 14.722C12.797 15.6467 11.5429 16.1661 10.2353 16.1661C8.92767 16.1661 7.6736 15.6467 6.74896 14.722C5.82432 13.7974 5.30487 12.5433 5.30487 11.2357C5.30487 9.92806 5.82432 8.67398 6.74896 7.74934C7.6736 6.8247 8.92767 6.30525 10.2353 6.30525C11.5429 6.30525 12.797 6.8247 13.7217 7.74934C14.6463 8.67398 15.1658 9.92806 15.1658 11.2357Z" fill="#24EE89"/>
<path fill-rule="evenodd" clip-rule="evenodd" d="M19.1449 21.5002C19.1205 21.5246 19.0916 21.544 19.0597 21.5572C19.0278 21.5704 18.9937 21.5772 18.9592 21.5772C18.9247 21.5772 18.8905 21.5704 18.8586 21.5572C18.8268 21.544 18.7978 21.5246 18.7734 21.5002L15.0759 17.779C15.0271 17.7297 14.9999 17.6632 15 17.5939C15.0001 17.5246 15.0277 17.4581 15.0767 17.4091L16.4099 16.0767C16.459 16.0276 16.5257 16 16.5952 16C16.6647 16 16.7313 16.0276 16.7805 16.0767L20.4788 19.7971C20.5278 19.8464 20.5553 19.9131 20.5551 19.9826C20.555 20.0521 20.5273 20.1187 20.4781 20.1678L19.1449 21.5002Z" fill="currentColor"/>
<path d="M23.5042 4.86C22.8864 5.1155 22.3937 5.34584 22.0245 5.551C21.66 5.75541 21.3747 5.95828 21.1703 6.15963C20.969 6.36099 20.7661 6.64471 20.5609 7.00928C20.3565 7.37537 20.1224 7.87494 19.8592 8.5095H19.6503C19.3833 7.87494 19.1484 7.37461 18.9432 7.00928C18.7388 6.64471 18.5375 6.36099 18.3399 6.15963C18.1348 5.95828 17.848 5.75541 17.4796 5.551C17.1143 5.34584 16.6216 5.11627 16 4.86V4.65026C16.6254 4.39399 17.1196 4.16366 17.485 3.95926C17.8534 3.75409 18.1386 3.55122 18.3392 3.3491C18.5375 3.14851 18.7388 2.86555 18.944 2.50022C19.1484 2.13489 19.3841 1.63533 19.6503 1H19.86C20.1224 1.63533 20.3558 2.13489 20.5617 2.50022C20.7661 2.86555 20.969 3.14851 21.1703 3.34986C21.3686 3.55122 21.65 3.75409 22.0146 3.95926C22.383 4.16366 22.8795 4.39399 23.5042 4.65026V4.86Z" fill="currentColor"/>
</svg>
