<svg width="25" height="24" viewBox="0 0 25 24" fill="none" xmlns="http://www.w3.org/2000/svg">
<g id="Frame">
<path id="Vector" fill-rule="evenodd" clip-rule="evenodd" d="M14.6182 16.3002C13.3999 17.2772 11.8533 17.8616 10.1701 17.8616C6.24035 17.8616 3.05469 14.6759 3.05469 10.7462C3.05469 6.81652 6.24035 3.63086 10.1701 3.63086C14.0998 3.63086 17.2855 6.81652 17.2855 10.7462C17.2855 12.4466 16.689 14.0077 15.6939 15.2317L16.4325 15.9703L15.3604 17.0424L14.6182 16.3002ZM15.0184 10.7461C15.0184 13.4237 12.8477 15.5943 10.1701 15.5943C7.49246 15.5943 5.32182 13.4237 5.32182 10.7461C5.32182 8.06847 7.49246 5.89784 10.1701 5.89784C12.8477 5.89784 15.0184 8.06847 15.0184 10.7461Z" fill="currentColor"/>
<path id="Vector_2" fill-rule="evenodd" clip-rule="evenodd" d="M19.2264 21.0371C19.0919 21.1716 18.8738 21.1713 18.7397 21.0364L15.2248 17.4996C15.0914 17.3653 15.0917 17.1483 15.2256 17.0144L16.4148 15.8252C16.5493 15.6907 16.7675 15.6911 16.9015 15.826L20.4164 19.3627C20.5499 19.497 20.5496 19.714 20.4157 19.8479L19.2264 21.0371Z" fill="currentColor"/>
<path id="Vector_3" d="M23.3946 4.78739C22.7872 5.03906 22.3023 5.26556 21.9399 5.4669C21.5808 5.66824 21.3007 5.86789 21.0993 6.06588C20.9013 6.26386 20.7017 6.54237 20.5003 6.90142C20.299 7.26047 20.0691 7.75207 19.8108 8.37621H19.6044C19.3427 7.75207 19.1111 7.26047 18.9098 6.90142C18.7084 6.54237 18.5105 6.26386 18.3158 6.06588C18.1145 5.86789 17.8326 5.66824 17.4702 5.4669C17.1112 5.26556 16.6263 5.03906 16.0156 4.78739V4.58102C16.6296 4.32935 17.1162 4.10284 17.4753 3.90151C17.8377 3.70017 18.1179 3.50051 18.3158 3.30253C18.5105 3.10455 18.7084 2.82603 18.9098 2.46698C19.1111 2.10793 19.3427 1.61633 19.6044 0.992188H19.8108C20.0691 1.61633 20.299 2.10793 20.5003 2.46698C20.7017 2.82603 20.9013 3.10455 21.0993 3.30253C21.2939 3.50051 21.5708 3.70017 21.9298 3.90151C22.2922 4.10284 22.7805 4.32935 23.3946 4.58102V4.78739Z" fill="currentColor"/>
</g>
</svg>
