<svg width="18" height="18" viewBox="0 0 18 18" fill="none" xmlns="http://www.w3.org/2000/svg">
<g id="Frame">
<path id="Vector" fill-rule="evenodd" clip-rule="evenodd" d="M13.1151 13.578C13.3701 13.578 13.578 13.3701 13.578 13.1151V8.41031H15.0016V13.1246C14.996 14.1601 14.1507 14.9994 13.1151 14.9994H4.86503C3.83328 14.9878 3 14.1464 3 13.113V4.86674C3.00986 3.83542 3.853 3 4.88646 3H9.58907V4.42352H4.88646C4.63141 4.42352 4.42352 4.63142 4.42352 4.88646V13.1151C4.42352 13.3701 4.63141 13.578 4.88646 13.578H13.1151ZM10.7639 4.42352V3H15.0019V7.238H13.5784V5.43169L7.58128 11.4267L6.57525 10.4207L12.5702 4.42352H10.7639Z" fill="currentColor"/>
</g>
</svg>
