<svg width="24" height="24" viewBox="0 0 24 24" fill="none" xmlns="http://www.w3.org/2000/svg">
<g id="Frame">
<path id="Vector" d="M16.244 4.51978C17.154 4.51978 17.9662 5.60218 18.4971 7.29605L18.5039 7.2954L18.5882 7.6089C19.2601 10.2675 19.2135 14.0097 18.3001 17.2719C17.7753 18.6366 17.0474 19.4809 16.2433 19.4809L16.1941 19.4777L16.1948 19.4809L7.68075 19.4758C6.92925 19.4029 6.25129 18.5911 5.75277 17.3142L5.74535 17.3135C5.02017 14.0461 4.98171 10.1647 5.51194 7.48534L5.58277 7.15164H5.58615C6.1076 5.57096 6.88001 4.5575 7.74413 4.52107V4.51978H16.244ZM5.21377 7.15099C4.70311 8.8143 4.46768 10.5381 4.50951 12.3211C4.54728 13.9772 4.80834 15.5598 5.2927 17.0689L5.37365 17.3116H4.8893C4.16682 17.3116 3.61365 16.2604 3.31886 14.761C2.55252 14.3805 2.0061 13.3846 2.0061 12.2163C2.0061 11.0637 2.53768 10.0801 3.28715 9.68722C3.57318 8.16967 4.14051 7.15034 4.89065 7.15034H5.21512L5.21377 7.15099ZM19.1555 7.2967C19.8578 7.38256 20.4642 8.3193 20.7927 9.75817C21.4794 10.1875 21.9544 11.1274 21.9544 12.2163C21.9544 13.2883 21.4943 14.2159 20.8265 14.655C20.5242 16.0971 19.9481 17.0702 19.2701 17.2426L19.1561 17.2634L19.1548 17.2706L18.6408 17.2712L18.7602 16.9753C19.2911 15.5865 19.5913 14.0748 19.6587 12.4401C19.733 10.6525 19.4624 8.9385 18.8465 7.29605H19.1548L19.1555 7.2954V7.2967ZM10.3251 9.04192L10.0897 9.12915L9.74295 9.28065C9.64718 9.29887 9.5898 9.24555 9.57023 9.12067C9.55073 8.9958 9.46433 8.9301 9.31125 8.92485C9.02318 8.92485 8.78505 8.9379 8.59748 8.96452C8.4363 8.98665 8.35328 9.06277 8.3472 9.19155L8.35058 9.26055L8.27303 11.4819C8.26358 11.5717 8.27303 11.638 8.30205 11.6823C8.32163 11.7122 8.3499 11.731 8.38635 11.7408L8.44845 11.7473L9.3429 11.7298C9.39488 11.7454 9.43943 11.7376 9.47918 11.7064C9.50483 11.6862 9.52845 11.6543 9.54938 11.6133L9.57765 11.5437L9.6957 11.3466C9.80438 11.1632 9.94868 11.035 10.1282 10.9628C10.2779 10.903 10.4803 10.8932 10.7366 10.9329L10.8972 10.9628L12.1944 11.3225C12.5256 11.3733 12.8542 11.3733 13.1793 11.3225C13.5044 11.2718 13.8074 11.1671 14.088 11.0097C13.9901 11.1229 13.8472 11.2516 13.6596 11.3941C13.4721 11.5366 13.238 11.6947 12.9594 11.867C12.784 11.9515 12.6012 12.0491 12.4109 12.161C12.2207 12.2729 12.023 12.3985 11.8187 12.5377C11.6035 12.697 11.4159 12.859 11.2581 13.0242C11.1002 13.1894 10.9707 13.3566 10.8702 13.5264C10.7393 13.7267 10.6355 13.959 10.5619 14.2224C10.4884 14.4859 10.4425 14.7818 10.4256 15.109C10.4142 15.1955 10.4276 15.2599 10.4654 15.3022C10.4938 15.3341 10.5363 15.3523 10.5929 15.3588L10.6544 15.3607L13.7952 15.3666C13.9382 15.3803 14.0374 15.3745 14.0927 15.3497C14.1345 15.3315 14.1527 15.3009 14.146 15.2606L14.1311 15.2164L14.0772 14.9347C14.0529 14.7435 14.0421 14.5301 14.0455 14.2946C14.0489 14.0591 14.0651 13.8009 14.0961 13.5205C14.1291 13.2779 14.177 13.0399 14.2384 12.8083C14.2998 12.5767 14.3747 12.3503 14.4624 12.1298C14.5528 11.8891 14.654 11.651 14.7659 11.4175C14.8779 11.184 15.0014 10.9537 15.1343 10.7274C15.2105 10.5758 15.3198 10.3982 15.4628 10.1946C15.6058 9.99105 15.7819 9.76207 15.991 9.50707C16.0396 9.45892 16.0639 9.41595 16.0639 9.37957C16.0639 9.35482 16.0531 9.3321 16.0322 9.31192L15.9923 9.28395L15.8028 9.19875L15.4129 8.9652C15.3589 8.92942 15.3131 8.91637 15.2726 8.92425C15.2321 8.93205 15.1991 8.96197 15.1727 9.01335C15.1248 9.07447 15.0628 9.12525 14.9845 9.16425C14.9063 9.20325 14.8132 9.23062 14.7046 9.2475C14.5575 9.2709 14.4111 9.28327 14.264 9.28455C14.117 9.2859 13.97 9.27547 13.8222 9.25335C13.1469 9.12652 12.5141 9.01072 11.9246 8.90602C11.4085 8.8143 10.877 8.8605 10.3298 9.04327H10.3265L10.3251 9.04192Z" fill="currentColor"/>
</g>
</svg>
