<svg width="24" height="24" viewBox="0 0 24 24" fill="none" xmlns="http://www.w3.org/2000/svg">
<g id="Frame">
<path id="Vector" d="M12.0022 20.9977C11.5513 20.9399 11.1045 20.8878 10.6601 20.8196C10.6093 20.8119 10.5508 20.7251 10.5302 20.6634C10.1849 19.6153 9.84667 18.5658 9.50587 17.5164C9.42869 17.2778 9.34192 17.0418 9.27502 16.8001C9.25702 16.7338 9.27052 16.636 9.31042 16.5801C9.62744 16.13 9.95024 15.685 10.2801 15.2439C10.3206 15.1892 10.408 15.1384 10.4743 15.1384C11.4941 15.132 12.514 15.132 13.5325 15.1384C13.5956 15.1384 13.6798 15.1815 13.7171 15.2317C14.0496 15.6773 14.3762 16.1274 14.6958 16.5827C14.7344 16.6373 14.7498 16.7383 14.7286 16.8032C14.3138 18.0983 13.8907 19.3915 13.4721 20.6859C13.4413 20.7811 13.3956 20.8241 13.2908 20.8357C12.8612 20.884 12.433 20.9437 12.0022 20.9997V20.9977Z" fill="currentColor"/>
<path id="Vector_2" d="M11.4733 7.49943C11.4733 7.77467 11.479 8.04985 11.4688 8.3251C11.4668 8.38877 11.427 8.47172 11.3774 8.50832C10.5621 9.10705 9.74286 9.7018 8.91974 10.2908C8.86064 10.3333 8.75451 10.3538 8.68506 10.3333C8.15519 10.1712 7.62854 9.99887 7.10384 9.82082C7.04468 9.8002 6.97845 9.73337 6.95851 9.6742C6.5296 8.37205 6.1052 7.0686 5.68659 5.76324C5.66922 5.70858 5.69623 5.61084 5.73803 5.56969C6.36692 4.94916 7.07747 4.43923 7.86261 4.0354C7.90956 4.01097 8.00151 4.01804 8.04456 4.04891C9.16409 4.85592 10.2817 5.66743 11.3954 6.4828C11.4398 6.51495 11.4675 6.59854 11.4688 6.65834C11.4765 6.93935 11.472 7.22035 11.472 7.50137L11.4733 7.49943Z" fill="currentColor"/>
<path id="Vector_3" d="M12.5313 7.48379C12.5313 7.20278 12.5262 6.92178 12.5358 6.64077C12.5378 6.5829 12.5763 6.50638 12.622 6.4723C13.7261 5.664 14.8353 4.86085 15.9407 4.05384C16.016 3.99918 16.0719 3.98632 16.1594 4.03262C16.9284 4.44223 17.6287 4.94509 18.2582 5.54825C18.3392 5.6267 18.345 5.69101 18.311 5.79325C17.8916 7.07417 17.4763 8.35574 17.0654 9.63989C17.0287 9.75307 16.9696 9.80579 16.8564 9.84112C16.3548 9.99614 15.8558 10.1595 15.3587 10.3273C15.2482 10.3646 15.1678 10.3588 15.0701 10.2868C14.2688 9.69779 13.4637 9.11452 12.6567 8.53387C12.5667 8.46892 12.5255 8.40592 12.53 8.29147C12.539 8.02267 12.5326 7.75259 12.5326 7.48379H12.5313Z" fill="currentColor"/>
<path id="Vector_4" d="M17.8047 16.0554C17.1307 16.0554 16.4575 16.0515 15.7836 16.0579C15.6633 16.0593 15.5913 16.0187 15.5244 15.9242C15.2151 15.4902 14.9026 15.0593 14.5856 14.631C14.5239 14.5475 14.5116 14.4748 14.5438 14.3764C14.8583 13.4228 15.1662 12.4679 15.4839 11.5149C15.507 11.4461 15.5797 11.3664 15.6466 11.3439C16.1655 11.167 16.6884 10.9986 17.2131 10.839C17.2825 10.8179 17.3905 10.832 17.4484 10.8738C18.5454 11.6641 19.6366 12.4621 20.7324 13.2524C20.8211 13.3167 20.8481 13.3778 20.8295 13.4826C20.6784 14.3449 20.4115 15.1699 20.0244 15.9564C19.9755 16.0548 19.908 16.0515 19.8251 16.0515C19.1511 16.0509 18.4779 16.0515 17.804 16.0515V16.0534L17.8047 16.0554Z" fill="currentColor"/>
<path id="Vector_5" d="M6.19408 16.0536C5.52661 16.0536 4.85849 16.051 4.19038 16.0562C4.0772 16.0569 4.01354 16.0279 3.96146 15.9205C3.59171 15.1585 3.33707 14.3605 3.1821 13.5297C3.15896 13.4043 3.1776 13.322 3.29399 13.2384C4.38265 12.4565 5.46359 11.6649 6.5516 10.883C6.61462 10.838 6.72844 10.82 6.80174 10.8425C7.32068 11 7.83769 11.1678 8.35084 11.3427C8.41901 11.3659 8.49679 11.4405 8.51929 11.508C8.83886 12.4655 9.15139 13.4256 9.45814 14.3882C9.47996 14.4563 9.46196 14.5624 9.42019 14.6216C9.10766 15.0666 8.78164 15.5031 8.46589 15.9462C8.40416 16.0337 8.33411 16.0594 8.23121 16.0587C7.55149 16.0542 6.87184 16.0569 6.19279 16.0569V16.0549H6.19408V16.0536Z" fill="currentColor"/>
<path id="Vector_6" d="M13.5304 14.0741H10.4676C10.3679 13.7641 10.2656 13.4503 10.1634 13.1352C9.96531 12.5244 9.77114 11.9128 9.56541 11.3052C9.52746 11.1927 9.55319 11.1393 9.64191 11.075C10.4251 10.511 11.2051 9.94188 12.0012 9.36446C12.3285 9.60176 12.659 9.84033 12.9889 10.0802C13.448 10.4133 13.9065 10.7483 14.3669 11.0801C14.4409 11.1335 14.4795 11.1772 14.446 11.2794C14.1451 12.1881 13.8512 13.0986 13.5535 14.0091C13.5464 14.0304 13.5381 14.0509 13.5297 14.0747L13.5304 14.0741Z" fill="currentColor"/>
<path id="Vector_7" d="M12.0029 5.61206C11.039 4.9118 10.084 4.21861 9.12656 3.52348C10.0917 2.8303 13.7416 2.8258 14.8849 3.5177C13.9255 4.21411 12.9713 4.90794 12.0029 5.61206Z" fill="currentColor"/>
<path id="Vector_8" d="M3.00005 12.1075C2.99362 10.0568 3.62508 8.24991 4.8372 6.60117C4.86549 6.67512 4.88672 6.72399 4.90344 6.77414C5.23845 7.80104 5.57219 8.82734 5.90786 9.85431C5.9355 9.93854 5.96187 10.0054 5.86156 10.0774C4.93623 10.7353 4.01541 11.3995 3.09265 12.0612C3.07464 12.074 3.05278 12.0817 3.00069 12.1069L3.00005 12.1075Z" fill="currentColor"/>
<path id="Vector_9" d="M21.0057 12.1252C19.9974 11.4012 19.0283 10.7054 18.0516 10.0038C18.4187 8.87404 18.7839 7.75002 19.1608 6.59062C20.3793 8.24389 21.0114 10.0527 21.0057 12.1252Z" fill="currentColor"/>
<path id="Vector_10" d="M19.3121 17.1166C18.527 18.4831 16.0069 20.3158 14.6437 20.5151C14.6553 20.4682 14.663 20.4251 14.6758 20.3833C15.0148 19.3396 15.3556 18.2966 15.6919 17.2524C15.7221 17.1591 15.7536 17.1064 15.8687 17.107C16.9876 17.1115 18.1064 17.1083 19.2259 17.1083C19.2484 17.1083 19.2703 17.1128 19.3121 17.1166Z" fill="currentColor"/>
<path id="Vector_11" d="M4.66406 17.107C5.20871 17.107 5.70964 17.107 6.2112 17.107C6.84395 17.107 7.4767 17.1096 8.1088 17.1076C8.20458 17.1076 8.27021 17.1173 8.30553 17.2279C8.65151 18.3063 9.00258 19.3821 9.35178 20.4598C9.35695 20.4746 9.35178 20.4919 9.35178 20.5331C7.41496 19.91 5.87168 18.7777 4.66406 17.107Z" fill="currentColor"/>
</g>
</svg>
