<svg width="24" height="24" viewBox="0 0 24 24" fill="none" xmlns="http://www.w3.org/2000/svg">
<g id="Component 1">
<path id="Vector" fill-rule="evenodd" clip-rule="evenodd" d="M18.9779 11.7016L19.726 11L18.9969 10.3162C18.9668 10.284 18.9345 10.2538 18.9004 10.2258L14.6825 6.27055C14.2797 5.89277 13.6468 5.91311 13.269 6.31597C12.8913 6.71884 12.9116 7.35168 13.3145 7.72946L15.7347 9.99902H11.7303C9.22952 9.99902 6.91863 11.3332 5.6682 13.499L4.06773 16.2711C3.79159 16.7494 3.95546 17.361 4.43376 17.6371C4.91205 17.9133 5.52364 17.7494 5.79978 17.2711L7.40025 14.499C8.29341 12.952 9.94405 11.999 11.7303 11.999H15.7368L13.3145 14.2705C12.9116 14.6483 12.8913 15.2812 13.269 15.684C13.6468 16.0869 14.2797 16.1072 14.6825 15.7295L18.9214 11.7546C18.9409 11.7376 18.9597 11.72 18.9779 11.7016Z" fill="currentColor"/>
</g>
</svg>
