<svg width="17" height="16" viewBox="0 0 17 16" fill="none" xmlns="http://www.w3.org/2000/svg">
<g id="Frame" clip-path="url(#clip0_5238_30455)">
<g id="Clip path group">
<mask id="mask0_5238_30455" style="mask-type:luminance" maskUnits="userSpaceOnUse" x="0" y="0" width="17" height="16">
<g id="clip0_684_298">
<path id="Vector" d="M16.6406 0H0.640625V16H16.6406V0Z" fill="white"/>
</g>
</mask>
<g mask="url(#mask0_5238_30455)">
<g id="Group">
<path id="Vector_2" d="M9.39729 7.56313H8.00781V6.20312H9.39729C9.79261 6.20312 10.1131 6.50758 10.1131 6.88313C10.1131 7.25869 9.79261 7.56313 9.39729 7.56313Z" fill="#21A8F7"/>
<path id="Vector_3" fill-rule="evenodd" clip-rule="evenodd" d="M5.93568 1.9183C5.85158 1.72165 5.65278 1.60182 5.44245 1.60157C5.39917 1.60146 5.35518 1.60641 5.31128 1.61689L3.17794 2.12597C3.08416 2.14835 2.99852 2.19464 2.93017 2.25988L0.796839 4.29622C0.604676 4.47965 0.587732 4.77166 0.757499 4.97422L2.89083 7.51965C3.06365 7.72585 3.37295 7.77169 3.60313 7.62521L4.37395 7.13469V13.8925C4.37395 14.1736 4.61274 14.4016 4.9073 14.4016H12.3739C12.6685 14.4016 12.9073 14.1736 12.9073 13.8925V7.13469L13.6781 7.62521C13.9083 7.77169 14.2176 7.72585 14.3904 7.51965L16.5237 4.97422C16.6935 4.77166 16.6766 4.47965 16.4844 4.29622L14.3511 2.25988C14.2827 2.19464 14.1971 2.14835 14.1033 2.12597L11.9896 1.62159C11.9401 1.60789 11.8898 1.6014 11.8402 1.60157C11.6199 1.60158 11.4179 1.7328 11.3402 1.93451L11.3345 1.94537C11.3206 1.97146 11.296 2.01425 11.2584 2.06835C11.1834 2.17657 11.0575 2.32879 10.8633 2.48369C10.4833 2.78664 9.80523 3.12896 8.64194 3.12896C7.47865 3.12896 6.80061 2.78664 6.4206 2.48369C6.22631 2.32879 6.10048 2.17657 6.0254 2.06835C5.98787 2.01425 5.96324 1.97146 5.94933 1.94537C5.94239 1.93235 5.93748 1.92213 5.93568 1.9183ZM6.7459 5.00156V10.4016H8.00906V8.76156H9.39853C10.4915 8.76156 11.3775 7.91986 11.3775 6.88156C11.3775 5.84327 10.4915 5.00156 9.39853 5.00156H6.7459Z" fill="#21A8F7"/>
</g>
</g>
</g>
</g>
<defs>
<clipPath id="clip0_5238_30455">
<rect width="16" height="16" fill="white" transform="translate(0.640625)"/>
</clipPath>
</defs>
</svg>
