<svg width="32" height="32" viewBox="0 0 32 32" fill="none" xmlns="http://www.w3.org/2000/svg">
<path fill-rule="evenodd" clip-rule="evenodd" d="M16.669 8.94811C16.2887 8.60584 15.7113 8.60584 15.331 8.94811L7.33104 16.1481C7.12032 16.3378 7 16.6079 7 16.8914V23.0007C7 23.553 7.44772 24.0007 8 24.0007H11.2727C11.825 24.0007 12.2727 23.553 12.2727 23.0007V21.6007C12.2727 19.9438 13.6159 18.6007 15.2727 18.6007H16.7273C18.3841 18.6007 19.7273 19.9438 19.7273 21.6007V23.0007C19.7273 23.553 20.175 24.0007 20.7273 24.0007H24C24.5523 24.0007 25 23.553 25 23.0007V16.8914C25 16.6079 24.8797 16.3378 24.669 16.1481L16.669 8.94811ZM13.9931 7.46153C15.134 6.4347 16.866 6.4347 18.0069 7.46153L26.0069 14.6615C26.639 15.2305 27 16.041 27 16.8914V23.0007C27 24.6575 25.6569 26.0007 24 26.0007H20.7273C19.0704 26.0007 17.7273 24.6575 17.7273 23.0007V21.6007C17.7273 21.0484 17.2796 20.6007 16.7273 20.6007H15.2727C14.7204 20.6007 14.2727 21.0484 14.2727 21.6007V23.0007C14.2727 24.6575 12.9296 26.0007 11.2727 26.0007H8C6.34315 26.0007 5 24.6575 5 23.0007V16.8914C5 16.041 5.36096 15.2305 5.99311 14.6615L13.9931 7.46153Z" fill="currentColor"/>
</svg>
