<svg width="16" height="17" viewBox="0 0 16 17" fill="none" xmlns="http://www.w3.org/2000/svg">
<g id="Frame">
<path id="Vector" d="M12.9621 3.70912C12.6759 3.43029 12.2118 3.43029 11.9256 3.70912C11.6394 3.98794 11.6394 4.44001 11.9256 4.71883C12.4353 5.21538 12.8397 5.80487 13.1156 6.45365C13.3914 7.10242 13.5334 7.79777 13.5334 8.5C13.5334 9.20223 13.3914 9.89758 13.1156 10.5464C12.8397 11.1951 12.4353 11.7846 11.9256 12.2812C11.6394 12.56 11.6394 13.0121 11.9256 13.2909C12.2118 13.5697 12.6759 13.5697 12.9621 13.2909C13.608 12.6617 14.1203 11.9148 14.4699 11.0928C14.8194 10.2708 14.9993 9.38975 14.9993 8.5C14.9993 7.61025 14.8194 6.72921 14.4699 5.90719C14.1203 5.08517 13.608 4.33827 12.9621 3.70912Z" fill="currentColor"/>
<path id="Vector_2" d="M10.0428 5.61536C10.329 5.33654 10.7931 5.33654 11.0793 5.61536C11.4714 5.99731 11.7824 6.45075 11.9946 6.94979C12.2068 7.44883 12.3161 7.98371 12.3161 8.52387C12.3161 9.06403 12.2068 9.59889 11.9946 10.0979C11.7824 10.597 11.4714 11.0504 11.0793 11.4324C10.7931 11.7112 10.329 11.7112 10.0428 11.4324C9.75656 11.1536 9.75656 10.7015 10.0428 10.4226C10.2988 10.1733 10.5018 9.87726 10.6403 9.55148C10.7789 9.22569 10.8502 8.8765 10.8502 8.52387C10.8502 8.17123 10.7789 7.82204 10.6403 7.49624C10.5018 7.17045 10.2988 6.87443 10.0428 6.62508C9.75656 6.34625 9.75656 5.89419 10.0428 5.61536Z" fill="currentColor"/>
<path id="Vector_3" d="M8.05162 10.0112C8.90855 10.0112 9.60323 9.33449 9.60323 8.49974C9.60323 7.66498 8.90855 6.98828 8.05162 6.98828C7.19468 6.98828 6.5 7.66498 6.5 8.49974C6.5 9.33449 7.19468 10.0112 8.05162 10.0112Z" fill="currentColor"/>
<path id="Vector_4" d="M6.05453 5.61536C5.7683 5.33654 5.30423 5.33654 5.01799 5.61536C4.6259 5.99731 4.31487 6.45075 4.10267 6.94979C3.89047 7.44883 3.78125 7.98371 3.78125 8.52387C3.78125 9.06403 3.89047 9.59889 4.10267 10.0979C4.31487 10.597 4.6259 11.0504 5.01799 11.4324C5.30423 11.7112 5.7683 11.7112 6.05453 11.4324C6.34077 11.1536 6.34077 10.7015 6.05453 10.4226C5.79856 10.1733 5.59551 9.87726 5.45697 9.55148C5.31844 9.22569 5.24714 8.8765 5.24714 8.52387C5.24714 8.17123 5.31844 7.82204 5.45697 7.49624C5.59551 7.17045 5.79856 6.87443 6.05453 6.62508C6.34077 6.34625 6.34077 5.89419 6.05453 5.61536Z" fill="currentColor"/>
<path id="Vector_5" d="M3.03717 3.70912C3.3234 3.43029 3.78748 3.43029 4.07371 3.70912C4.35994 3.98794 4.35994 4.44001 4.07371 4.71883C3.56397 5.21538 3.15962 5.80487 2.88375 6.45365C2.60788 7.10242 2.46589 7.79777 2.46589 8.5C2.46589 9.20223 2.60788 9.89758 2.88375 10.5464C3.15962 11.1951 3.56397 11.7846 4.07371 12.2812C4.35994 12.56 4.35994 13.0121 4.07371 13.2909C3.78748 13.5697 3.3234 13.5697 3.03717 13.2909C2.39131 12.6617 1.87898 11.9148 1.52944 11.0928C1.1799 10.2708 1 9.38975 1 8.5C1 7.61025 1.1799 6.72921 1.52944 5.90719C1.87898 5.08517 2.39131 4.33827 3.03717 3.70912Z" fill="currentColor"/>
</g>
</svg>
