<svg width="24" height="24" viewBox="0 0 24 24" fill="none" xmlns="http://www.w3.org/2000/svg">
<g id="Frame">
<path id="Vector" d="M11.7088 16.2922C12.0477 16.2922 12.3224 16.567 12.3224 16.9059V18.8732C12.3224 19.2121 12.0477 19.4869 11.7088 19.4869H10.5536C10.2147 19.4869 9.93998 19.2121 9.93998 18.8732V16.9059C9.93998 16.567 10.2147 16.2922 10.5536 16.2922H11.7088ZM8.44178 14.8123C8.7807 14.8123 9.05543 15.087 9.05543 15.4259V18.8734C9.05543 19.2123 8.7807 19.4871 8.44178 19.4871H7.28663C6.94772 19.4871 6.67296 19.2123 6.67296 18.8734V15.4259C6.67296 15.087 6.94772 14.8123 7.28663 14.8123H8.44178ZM12.22 3.5311C15.5227 3.5311 18.2003 6.20885 18.2003 9.51142C18.1986 10.9357 17.699 12.2434 16.8673 13.2703L17.7371 14.1402L17.7174 14.1593L17.7249 14.1529C17.9127 14.004 18.1864 14.0166 18.3603 14.1899L21.3887 17.2183C21.5752 17.4049 21.5752 17.7082 21.3887 17.8952L20.6194 18.6645C20.4328 18.8511 20.1295 18.8511 19.9425 18.6645L16.9142 15.6361C16.7408 15.4629 16.7281 15.1891 16.8771 15.0007L16.8696 15.0083L16.0015 14.1402C14.9711 14.9835 13.6547 15.49 12.2201 15.4917C8.91735 15.4917 6.2397 12.814 6.2397 9.51135C6.2397 6.20875 8.91735 3.5311 12.22 3.5311ZM12.22 4.9629C9.70808 4.9629 7.67145 6.99955 7.67145 9.5115C7.67145 12.0234 9.70808 14.06 12.22 14.06C14.7319 14.06 16.7686 12.0234 16.7686 9.5115C16.7663 7.00012 14.7314 4.96524 12.22 4.9629ZM12.3134 7.05078C14.3723 7.05078 16.0407 8.57415 16.0407 9.30787C16.0407 10.0416 14.3723 11.5632 12.3134 11.5632C10.2545 11.5632 8.58608 10.0123 8.58608 9.30787C8.58608 8.60347 10.2545 7.05078 12.3134 7.05078ZM12.3116 7.64467C11.3934 7.64467 10.649 8.38852 10.649 9.30607C10.649 10.2144 11.3787 10.9527 12.2843 10.9672L12.3139 10.9675C13.2219 10.9675 13.9596 10.2394 13.9743 9.33562L13.9745 9.30817V9.30607C13.9745 8.38852 13.2299 7.64467 12.3116 7.64467ZM12.4061 8.23237C12.3497 8.3211 12.3161 8.42602 12.3136 8.5383L12.3134 8.54925L12.3131 8.55307L12.3133 8.5629C12.3188 8.88727 12.5838 9.1485 12.9096 9.1485C13.0729 9.1485 13.221 9.08287 13.3289 8.97637L13.3352 8.97015L13.3328 8.96242C13.3687 9.06735 13.3893 9.1797 13.3915 9.29655L13.3917 9.3117L13.3915 9.32947C13.382 9.91612 12.9031 10.3888 12.3137 10.3888C11.7183 10.3888 11.2357 9.90652 11.2357 9.31162C11.2357 8.72265 11.7087 8.24407 12.2959 8.23455L12.3137 8.2344H12.4048L12.4061 8.23237ZM4.09175 11.7617H5.2469C5.5858 11.7617 5.86056 12.0365 5.86056 12.3754V18.8733C5.86056 19.2121 5.5858 19.4869 5.2469 19.4869H4.09175C3.75285 19.4869 3.47809 19.2121 3.47809 18.8733V12.3754C3.47809 12.0365 3.75285 11.7617 4.09175 11.7617Z" fill="currentColor"/>
</g>
</svg>
