<svg width="28" height="28" viewBox="0 0 28 28" fill="none" xmlns="http://www.w3.org/2000/svg">
<g id="Frame">
<path id="Vector" fill-rule="evenodd" clip-rule="evenodd" d="M27.1246 11.875H25.473H24.4751V11.2573H23.083V9.07701H24.4751V6.90736C24.4751 6.39601 24.2727 6.19721 23.7648 6.19721H23.2677C22.8665 6.19721 22.6285 6.42086 22.6001 6.82214C22.5977 6.8623 22.5985 6.9008 22.5993 6.93991C22.5997 6.9596 22.6001 6.97946 22.6001 6.99968V11.875H19.9475V6.51676C19.9475 5.05018 20.8566 4.07723 22.3232 4.02041C23.1682 3.98845 24.017 3.99555 24.8621 4.03106C26.1653 4.08433 27.117 5.0857 27.1205 6.38893C27.1256 8.40458 27.1253 9.64699 27.1246 11.5925L27.1246 11.875ZM6.52111 8.40239H3.55246C3.55246 7.90539 3.55247 7.43639 3.54891 6.96424C3.54891 6.42445 3.76553 6.2078 4.30173 6.2078H7.60772V4.01685C7.56157 4.00976 7.52605 4.0062 7.49054 4.0062C7.06211 4.0062 6.63401 4.00486 6.20604 4.00351C5.24353 4.00049 4.28166 3.99746 3.3181 4.00976C1.84443 4.02751 0.875 5.02891 0.875 6.499V14.986H3.55602V10.604H6.52111V8.40239ZM12.3306 14.9895H15.0116V10.6111H17.9625V8.38813H14.9974V6.95356C14.9974 6.43862 15.2246 6.2078 15.7431 6.2078H19.0669V4.0062H18.8893C18.437 4.0062 17.9851 4.00581 17.5333 4.00542C16.6302 4.00463 15.7276 4.00384 14.8234 4.0062C14.66 4.0062 14.4931 4.01686 14.3298 4.04527C13.1189 4.26188 12.3306 5.19936 12.3306 6.43154V14.9895ZM11.2191 14.9824H8.57359V4.01686H11.2191V14.9824ZM16.625 14.5C16.625 13.5335 17.4085 12.75 18.375 12.75H25.375C26.3415 12.75 27.125 13.5335 27.125 14.5V21.5C27.125 22.4665 26.3415 23.25 25.375 23.25H18.375C17.4085 23.25 16.625 22.4665 16.625 21.5V14.5ZM18.375 21.5V20.5641L20.2122 17.1811C20.3054 17.012 20.3586 16.8658 20.3719 16.7424C20.3852 16.6123 20.3919 16.4531 20.3919 16.2646C20.3919 16.1801 20.3885 16.0924 20.3819 16.0014C20.3819 15.9039 20.3653 15.8194 20.332 15.7479C20.2987 15.6764 20.2488 15.6179 20.1822 15.5724C20.1156 15.5204 20.0191 15.4944 19.8927 15.4944C19.7396 15.4944 19.6164 15.5367 19.5233 15.6211C19.4367 15.7057 19.3934 15.8291 19.3934 15.9916V16.5571H18.375V16.0111C18.375 15.8031 18.4149 15.6082 18.4948 15.4262C18.5747 15.2442 18.6845 15.0849 18.8243 14.9484C18.9574 14.8119 19.1172 14.7048 19.3035 14.6267C19.4899 14.5423 19.6897 14.5 19.9027 14.5C20.1689 14.5 20.3953 14.5487 20.5817 14.6462C20.7747 14.7372 20.9345 14.864 21.0609 15.0265C21.1807 15.189 21.2672 15.3742 21.3205 15.5822C21.3804 15.7902 21.4104 16.0111 21.4104 16.2451C21.4104 16.4142 21.407 16.5571 21.4004 16.6741C21.3937 16.7846 21.3804 16.8918 21.3604 16.9958C21.3405 17.0998 21.3072 17.2038 21.2606 17.3078C21.214 17.4118 21.1508 17.5385 21.0709 17.6881L19.5731 20.5056H21.4104V21.5H18.375ZM23.8673 21.5V20.4665H21.8404V19.5306L23.3082 14.5585H24.3865L22.8588 19.5306H23.8673V17.5516H24.8858V19.5306H25.375V20.4665H24.8858V21.5H23.8673Z" fill="currentColor" />
</g>
</svg>
