<svg width="16" height="16" viewBox="0 0 16 16" fill="none" xmlns="http://www.w3.org/2000/svg">
<g id="Frame">
<path id="Vector" d="M7.76043 2.16184C7.84134 1.94605 8.15866 1.94605 8.23957 2.16184L9.578 5.73142C9.61341 5.82584 9.70513 5.88993 9.80944 5.89314L13.753 6.01428C13.9914 6.0216 14.0895 6.31184 13.9011 6.45253L10.7847 8.77979C10.7023 8.84135 10.6672 8.94505 10.6963 9.04146L11.7951 12.6859C11.8616 12.9062 11.6048 13.0856 11.4075 12.9568L8.14304 10.8255C8.05669 10.7691 7.94331 10.7691 7.85696 10.8255L4.5925 12.9568C4.39516 13.0856 4.13844 12.9062 4.20486 12.6859L5.3037 9.04146C5.33277 8.94505 5.29773 8.84135 5.2153 8.77979L2.09891 6.45253C1.91052 6.31184 2.00858 6.0216 2.24698 6.01428L6.19056 5.89314C6.29487 5.88993 6.38659 5.82584 6.422 5.73142L7.76043 2.16184Z" fill="currentColor"/>
</g>
</svg>
