<svg width="17" height="16" viewBox="0 0 17 16" fill="none" xmlns="http://www.w3.org/2000/svg">
<g id="Frame">
<path id="Vector" d="M7.97325 2C7.26315 2 6.6875 2.57565 6.6875 3.28575V4.14292C6.6875 4.85303 7.26315 5.42868 7.97325 5.42868H13.1162C13.8263 5.42868 14.402 4.85303 14.402 4.14292V3.28575C14.402 2.57565 13.8263 2 13.1162 2H7.97325Z" fill="#21A8F7"/>
<path id="Vector_2" d="M4.11328 7.57092C4.11328 6.86082 4.68893 6.28516 5.39903 6.28516H10.5421C11.2521 6.28516 11.8278 6.86082 11.8278 7.57092V8.42809C11.8278 9.13819 11.2521 9.71384 10.5421 9.71384H5.39903C4.68893 9.71384 4.11328 9.13819 4.11328 8.42809V7.57092Z" fill="#21A8F7"/>
<path id="Vector_3" d="M1.54297 11.856C1.54297 11.1459 2.11862 10.5703 2.82872 10.5703H7.97174C8.68185 10.5703 9.25749 11.1459 9.25749 11.856V12.7132C9.25749 13.4233 8.68185 13.999 7.97174 13.999H2.82872C2.11862 13.999 1.54297 13.4233 1.54297 12.7132V11.856Z" fill="#21A8F7"/>
</g>
</svg>
