<svg width="16" height="16" viewBox="0 0 16 16" fill="none" xmlns="http://www.w3.org/2000/svg">
<g id="Frame">
<path id="Vector" d="M2 2.85714C2 2.38375 2.38375 2 2.85714 2H5.42857C5.90196 2 6.28571 2.38375 6.28571 2.85714V7.14287C6.28571 7.61627 5.90196 8 5.42857 8H2.85714C2.38375 8 2 7.61627 2 7.14287V2.85714Z" fill="currentColor"/>
<path id="Vector_2" d="M8 7.99776C8 7.52436 8.38373 7.14062 8.85713 7.14062H13.1429C13.6163 7.14062 14 7.52436 14 7.99776V13.1406C14 13.614 13.6163 13.9978 13.1429 13.9978H8.85713C8.38373 13.9978 8 13.614 8 13.1406V7.99776Z" fill="currentColor"/>
<path id="Vector_3" d="M2 10.572C2 10.0986 2.38375 9.71484 2.85714 9.71484H5.42857C5.90196 9.71484 6.28571 10.0986 6.28571 10.572V13.1434C6.28571 13.6168 5.90196 14.0006 5.42857 14.0006H2.85714C2.38375 14.0006 2 13.6168 2 13.1434V10.572Z" fill="currentColor"/>
<path id="Vector_4" d="M8 2.85714C8 2.38375 8.38373 2 8.85713 2H13.1429C13.6163 2 14 2.38375 14 2.85714V4.57143C14 5.04481 13.6163 5.42857 13.1429 5.42857H8.85713C8.38373 5.42857 8 5.04481 8 4.57143V2.85714Z" fill="currentColor"/>
</g>
</svg>
