<svg width="24" height="24" viewBox="0 0 24 24" fill="none" xmlns="http://www.w3.org/2000/svg">
<g id="Frame">
<path id="Vector" fill-rule="evenodd" clip-rule="evenodd" d="M14.3796 6.89408C13.9628 6.89408 12.6686 6.63085 10.8041 5.62184C10.4203 5.41346 9.42223 5.0954 8.27061 5.0954C7.98546 5.0954 7.71126 5.11733 7.44808 5.15024C8.75323 4.28381 10.3106 3.7793 11.9996 3.7793H12.0106C12.3616 3.91091 13.7434 4.53605 14.555 6.70763C14.566 6.72956 14.577 6.75149 14.577 6.77343C14.5989 6.8173 14.5989 6.8502 14.5989 6.86117C14.577 6.87214 14.5111 6.89408 14.3796 6.89408ZM15.2245 11.8734C15.3232 11.8734 15.4109 11.8954 15.4438 12.0928L15.4328 12.0818C15.4987 12.4766 15.4328 14.6263 14.8516 16.4798C14.1496 18.4101 13.2064 19.6385 12 20.2197C10.1903 20.2197 8.51233 19.6385 7.15234 18.6404C7.77748 18.2894 8.74266 17.5217 10.2452 15.9314L10.308 15.8627C10.4107 15.7504 10.5417 15.6071 10.6948 15.4269L10.7076 15.4126C11.566 14.4441 13.1469 12.6605 14.4128 12.1257C14.449 12.1184 14.49 12.1016 14.5389 12.0816C14.5641 12.0713 14.5914 12.0601 14.6212 12.0489L14.6685 12.0299C14.8314 11.9639 15.055 11.8734 15.2245 11.8734ZM18.0433 12.9043C17.5936 12.1146 17.1988 11.8733 16.6723 11.7198C16.6175 11.6978 16.5626 11.6978 16.5078 11.6978C16.2556 11.6978 16.2336 11.983 16.2336 11.994C16.1039 15.4642 15.8463 16.3876 15.6604 17.054L15.6523 17.0829L15.6194 17.2036C15.3453 18.1468 14.9065 19.09 14.3692 19.8797C15.9484 19.408 17.3304 18.4648 18.3504 17.2255C18.8768 15.1856 18.4162 13.5623 18.0433 12.9043ZM15.6415 6.86128H15.5977V6.85031C15.477 6.83934 15.3673 6.82838 15.2357 6.52129C15.1041 6.17033 14.5777 4.81035 13.7661 3.95489C15.0163 4.22907 16.168 4.78842 17.1331 5.56711V5.62195C17.1331 5.62243 17.1331 5.62361 17.1333 5.62544C17.1354 5.66549 17.1544 6.02022 16.9027 6.33484C16.6505 6.64193 16.2228 6.81741 15.6415 6.86128Z" fill="#24EE89"/>
<path id="Vector_2" fill-rule="evenodd" clip-rule="evenodd" d="M8.85137 9.45011H8.81851V9.46106C7.83144 9.70233 6.83337 10.0314 6.02178 10.3933C5.01277 10.843 4.26697 11.3365 3.77344 11.8849C3.80634 9.87783 4.54116 8.05721 5.75856 6.65339C6.20822 6.46695 7.18433 6.12695 8.36881 6.12695C8.93912 6.12695 9.48751 6.2147 10.0139 6.36824C10.1237 6.40115 10.4746 6.54372 10.8475 6.69727C11.6262 7.02629 12.6023 7.43209 13.0849 7.50888C13.2713 7.55276 13.9403 7.69533 14.4887 7.69533C14.6423 7.69533 14.7629 7.68438 14.8726 7.66241C14.9384 7.89273 15.048 8.30951 15.1577 8.79206C14.2474 8.80301 10.7707 8.96756 8.85137 9.45011ZM17.4719 7.01534C17.6693 6.80696 17.801 6.54374 17.8558 6.23664C18.7551 7.14695 19.4351 8.25468 19.8299 9.48303C19.2267 9.17591 18.0861 8.82498 15.9584 8.79206C15.8378 8.30951 15.7391 7.95858 15.6404 7.64051C16.2216 7.62956 16.9893 7.51983 17.4719 7.01534ZM8.57694 10.4919C5.7583 11.2486 4.46413 12.6415 3.90478 13.497C4.21188 15.1531 5.00154 16.6337 6.14216 17.7853C7.38149 17.2698 9.76142 15.2189 10.1343 14.835C10.5511 14.3744 12.1962 12.6525 12.5033 12.3454C13.3149 11.4899 14.3349 10.9745 15.4316 10.8538C15.4023 10.2086 15.3381 9.78116 15.309 9.58721C15.3054 9.56358 15.3024 9.54341 15.3 9.52676C11.5601 9.59253 8.60987 10.4809 8.57694 10.4919ZM20.1263 10.7222C20.1922 11.139 20.225 11.5667 20.225 12.0054V11.9944C20.225 13.4312 19.8521 14.7802 19.2051 15.9537C19.3148 15.0215 19.3696 13.5299 18.8541 12.5757L18.8322 12.5428C18.6128 12.126 17.9328 10.8538 16.189 10.8209V10.6893L16.1878 10.6651C16.1663 10.245 16.1443 9.81723 16.1012 9.52676H16.2987C17.0774 9.52676 18.9748 9.64736 20.1263 10.7222Z" fill="currentColor"/>
</g>
</svg>
