<svg width="16" height="16" viewBox="0 0 16 16" fill="none" xmlns="http://www.w3.org/2000/svg">
<g id="&#231;&#131;&#173;&#233;&#151;&#168;">
<g id="Group 1556235313">
<circle id="Ellipse 3457" cx="8" cy="8" r="8" fill="white"/>
</g>
<g id="Group 1556235313_2">
<path id="Vector" d="M6.86748 12.7905C6.86748 12.7905 4.01102 11.9451 4.00002 9.23889C3.99269 7.67993 5.70926 6.37877 6.37633 5.14602C7.04341 3.91327 7.51745 2.56445 7.35129 2C7.35129 2 9.73616 3.08614 9.80213 6.28591C9.80213 6.28591 10.5022 6.05011 10.6696 5.60173C10.6696 5.60173 15.0215 10.6561 8.88582 12.7905C8.88582 12.7905 10.1442 10.9897 8.60237 9.52234C8.35191 9.2841 7.81067 8.77951 7.80212 7.70437C7.8009 7.70559 4.73308 9.42338 6.86748 12.7905Z" fill="#FC3C3C"/>
</g>
</g>
</svg>
