<svg width="24" height="24" viewBox="0 0 24 24" fill="none" xmlns="http://www.w3.org/2000/svg">
<g id="Frame">
<path id="Vector" d="M16.7007 13.1156C16.7187 13.1144 16.738 13.1255 16.7566 13.1305C16.7497 13.1479 16.7442 13.1665 16.7348 13.1826L16.6281 13.3583C16.6107 13.388 16.5946 13.4178 16.5803 13.4489C16.525 13.5668 16.579 13.6747 16.7056 13.7008C16.9049 13.7418 17.1047 13.779 17.3052 13.807C17.3722 13.8163 17.4479 13.807 17.5093 13.7821C17.7086 13.7026 17.8464 13.55 17.9587 13.3706C18.0121 13.285 18.0363 13.2769 18.1288 13.3185C18.4167 13.447 18.6594 13.6363 18.8524 13.892C18.8728 13.9193 18.9001 13.941 18.9238 13.9658L19.6213 14.9259C19.6387 14.9588 19.6549 14.9924 19.6735 15.0246C19.7584 15.1686 19.7535 15.3206 19.7368 15.4739C19.7368 15.4764 19.7293 15.4777 19.7182 15.4819C19.7008 15.4609 19.6815 15.4385 19.6642 15.415C19.5127 15.2077 19.3613 15.001 19.2124 14.7919C19.1757 14.7403 19.141 14.7248 19.0864 14.7559C19.0504 14.7763 19.0081 14.7869 18.9685 14.8012C18.8722 14.8359 18.7717 14.862 18.6811 14.9067C18.5061 14.993 18.3968 15.1338 18.3683 15.3386C18.346 15.4969 18.3174 15.6532 18.2857 15.8097C18.2535 15.9685 18.3298 16.0809 18.4807 16.0877C18.4943 16.0883 18.5086 16.0889 18.5209 16.0858C18.6227 16.0604 18.7227 16.0294 18.8257 16.0101C18.8859 15.9989 18.9517 15.9952 19.0113 16.0089C19.0392 16.0151 19.0591 16.0703 19.0826 16.1038L19.0907 16.115C19.2086 16.2739 19.324 16.434 19.4457 16.5898C19.4984 16.6574 19.5016 16.7188 19.4699 16.789C19.4339 16.8684 19.3998 16.9491 19.3663 17.0304C19.2477 17.3165 19.1006 17.5852 18.9337 17.8428C18.6382 18.2983 18.2882 18.7048 17.9016 19.0803C17.8352 19.1449 17.824 19.1449 17.7676 19.0661C17.5504 18.7619 17.335 18.4566 17.1159 18.1537C17.096 18.1264 17.0588 18.1059 17.0259 18.0948C16.885 18.0469 16.7671 18.1047 16.661 18.1792C16.3935 18.3666 16.1304 18.559 15.8678 18.7538C15.8139 18.7942 15.7624 18.8445 15.7264 18.9016C15.6829 18.9717 15.6512 19.058 15.6959 19.143C15.7419 19.2299 15.8008 19.3106 15.8592 19.3894C16.0379 19.632 16.2185 19.8728 16.3984 20.1136C16.4239 20.1478 16.4215 20.1713 16.3842 20.1906C16.2955 20.2359 16.2079 20.2837 16.1192 20.3296C15.8095 20.491 15.4855 20.6219 15.1529 20.7305C14.6756 20.8869 14.1817 20.9725 13.6746 20.9998C13.6405 21.0017 13.5952 20.9849 13.5703 20.9614C13.5201 20.9136 13.4779 20.8565 13.4375 20.8001C13.3314 20.6504 13.2259 20.5009 13.1254 20.3476C13.1098 20.324 13.1074 20.2793 13.1179 20.2539C13.1216 20.2446 13.1347 20.2359 13.1489 20.2297L13.1812 20.1794L13.219 20.1112C13.219 20.1105 13.2197 20.1099 13.2197 20.1093L13.2203 20.0981C13.2241 20.0882 13.2265 20.0801 13.2334 20.0726L13.2377 20.0683C13.2414 20.0578 13.2463 20.0485 13.2538 20.0417L13.2613 20.0379L13.2793 19.9939L13.2892 19.9796L13.2979 19.9486C13.2991 19.9454 13.3003 19.9424 13.3028 19.9399L13.3122 19.9151C13.314 19.9107 13.3165 19.9076 13.319 19.9051C13.3202 19.8964 13.3264 19.8809 13.3357 19.8622C13.3717 19.7902 13.3562 19.7195 13.3401 19.6469C13.337 19.632 13.3215 19.6128 13.3072 19.6072C13.2302 19.5749 13.1514 19.5563 13.0714 19.5439L12.9503 19.5283C12.8697 19.519 12.789 19.5067 12.7089 19.4949C12.6394 19.4849 12.5686 19.4607 12.5017 19.4657C12.3124 19.48 12.1659 19.5787 12.048 19.7189C11.9822 19.7971 11.9269 19.8846 11.8649 19.9659C11.7966 20.0547 11.7948 20.054 11.8636 20.1484C12.0157 20.3576 12.1684 20.5667 12.3204 20.7764C12.3347 20.7957 12.3434 20.8186 12.3546 20.8403L12.3434 20.8559C12.3142 20.8466 12.2857 20.8354 12.2565 20.8279C12.1696 20.8062 12.0821 20.7864 11.9946 20.7658L11.0563 19.4744C11.0072 19.3615 10.9638 19.246 10.9085 19.1362C10.8253 18.9704 10.7962 18.7961 10.7782 18.6186C10.772 18.5609 10.8037 18.5404 10.8526 18.5254C10.9656 18.4913 11.0866 18.4684 11.1853 18.41C11.3548 18.3088 11.5161 18.1897 11.5261 17.9557C11.5267 17.9427 11.5366 17.9309 11.5384 17.9173C11.5707 17.7268 11.6173 17.5375 11.5974 17.3395C11.5943 17.3054 11.5633 17.2631 11.5335 17.2421C11.4448 17.18 11.351 17.198 11.2598 17.2265C11.1884 17.2489 11.1164 17.2693 11.0451 17.2904L11.0283 17.2718C11.0426 17.2383 11.0569 17.2048 11.0717 17.1719C11.1394 17.023 11.2021 16.8715 11.2765 16.7263C11.338 16.6072 11.4106 16.4942 11.4832 16.3819C11.5807 16.2305 11.6794 16.079 11.7842 15.9331C11.8513 15.8395 11.9269 15.7507 12.0052 15.6657C12.1882 15.4658 12.3713 15.266 12.5612 15.0724C12.6562 14.9756 12.658 14.9855 12.753 15.0934C12.7952 15.1413 12.8578 15.1952 12.9137 15.2008C13.0503 15.2145 13.1731 15.1636 13.2823 15.0829C13.4214 14.9799 13.566 14.8837 13.7025 14.7763C13.8478 14.6621 14.0209 14.5796 14.1258 14.4158C14.1829 14.3264 14.2319 14.2364 14.1661 14.1241C14.1463 14.0899 14.1227 14.0577 14.0991 14.0261C14.0705 13.9882 14.0699 13.959 14.1121 13.9366C14.1556 13.9143 14.1984 13.8908 14.2412 13.8671C14.7296 13.6028 15.2422 13.3955 15.7859 13.2608C16.0857 13.1864 16.3923 13.1441 16.702 13.1193L16.7007 13.1156ZM11.6402 3.05545L19.7442 5.37902C20.492 5.59313 20.924 6.37325 20.7099 7.12109L19.0485 12.9163C17.6912 11.8731 15.148 12.1195 12.9193 13.6226C10.4176 15.31 9.23535 17.9582 10.2122 19.6172L10.2308 19.6469L7.13706 18.76C6.38922 18.5459 5.95728 17.7659 6.17139 17.018L9.8982 4.0205C10.1123 3.27266 10.8924 2.84134 11.6402 3.05545ZM15.1101 14.3966C14.32 14.6845 13.6411 15.1425 13.0615 15.7457C12.7139 16.1075 12.4222 16.5122 12.2292 16.9864C12.0958 17.3141 12.0132 17.6541 12.0622 18.0221C12.0976 18.2834 12.1994 18.5155 12.3893 18.7073C12.6028 18.9232 12.8647 19.0337 13.1496 19.0858C13.6262 19.1734 14.0854 19.1076 14.5323 18.9723C15.0877 18.8035 15.596 18.5416 16.0658 18.2046C16.2284 18.07 16.3966 17.9427 16.5517 17.8C16.9179 17.463 17.2388 17.0844 17.4814 16.6419C17.6744 16.29 17.8153 15.917 17.8216 15.4988C17.8284 15.0004 17.6323 14.6088 17.1792 14.3611C16.9738 14.2488 16.7522 14.198 16.5257 14.1781C16.0311 14.1353 15.5631 14.2308 15.1107 14.3959L15.1101 14.3966ZM16.5909 14.5448C16.8633 14.6045 17.1041 14.7248 17.2754 14.9668C17.4405 15.1996 17.4784 15.4571 17.4523 15.7246C17.4187 16.0741 17.2866 16.3844 17.1115 16.6754C16.8025 17.1899 16.3885 17.602 15.8704 17.9806C15.3862 18.3257 14.8184 18.6092 14.1724 18.7247C13.8918 18.775 13.6082 18.7849 13.3215 18.7216C12.7331 18.5919 12.4098 18.1456 12.4693 17.5462C12.5041 17.1967 12.6351 16.8864 12.8089 16.5954C13.0782 16.1435 13.4313 15.7687 13.8391 15.4478C14.3598 15.0382 14.9332 14.7273 15.5886 14.5753C15.9169 14.4995 16.2502 14.4698 16.5909 14.5448ZM8.89094 3.81135L5.65442 15.8935C5.64884 15.9151 5.64325 15.9363 5.63891 15.958C5.58863 15.8618 5.54829 15.7569 5.52098 15.6458L3.28119 6.66121C3.09315 5.90654 3.5524 5.14257 4.30706 4.9539L8.89214 3.81135H8.89094ZM5.65814 5.98102C5.42169 5.98909 5.21068 6.0468 5.02511 6.15355C4.83956 6.2603 4.69681 6.40427 4.59503 6.58487C4.49325 6.76547 4.44671 6.96717 4.45415 7.18873C4.46098 7.38299 4.50938 7.55925 4.59938 7.7187C4.68937 7.87823 4.81163 8.00798 4.96678 8.10908C5.12193 8.21025 5.29694 8.27355 5.49244 8.29898C5.62277 8.42685 5.74007 8.52555 5.84371 8.59568C5.94735 8.6658 6.05037 8.71485 6.15153 8.74335C6.25269 8.77193 6.36564 8.7837 6.48914 8.77935C6.61699 8.775 6.73429 8.7471 6.83979 8.69498C6.94529 8.64285 7.03466 8.57025 7.10603 8.4759L6.81931 8.1594C6.72249 8.26733 6.6114 8.3238 6.48604 8.32815C6.43701 8.33003 6.39109 8.322 6.34889 8.304C6.30668 8.286 6.26324 8.25495 6.21917 8.20905C6.4488 8.11778 6.62878 7.97318 6.75973 7.77518C6.89068 7.57725 6.9515 7.35257 6.94281 7.10123C6.93536 6.87967 6.87455 6.68169 6.76035 6.50854C6.64616 6.33539 6.49349 6.20195 6.3011 6.10824C6.10871 6.01453 5.8946 5.97171 5.65752 5.9804L5.65814 5.98102ZM11.2163 4.48472L10.2339 7.69823L11.1338 7.97318L11.3796 7.16949L11.8301 6.9107L12.3918 8.35733L13.4475 8.68005L12.6127 6.46696L14.361 5.44543L13.36 5.13947L11.7073 6.09521L12.1156 4.75903L11.2157 4.4841L11.2163 4.48472ZM5.67615 6.50543C5.7891 6.50171 5.89212 6.52468 5.98583 6.57494C6.07954 6.62522 6.15464 6.69782 6.21111 6.79278C6.26759 6.88773 6.29861 6.99821 6.30296 7.12419C6.30731 7.25018 6.28434 7.3625 6.23469 7.46118C6.18504 7.55985 6.11492 7.63808 6.02492 7.69455C5.93494 7.75103 5.83378 7.7814 5.72082 7.78515C5.60787 7.7889 5.50485 7.76588 5.41114 7.71563C5.31743 7.66538 5.24233 7.59278 5.18585 7.4978C5.12938 7.40285 5.09835 7.29237 5.094 7.16639C5.08966 7.04041 5.11262 6.92807 5.16227 6.8294C5.21192 6.73072 5.28205 6.65252 5.37204 6.59605C5.46203 6.53957 5.56319 6.50916 5.67615 6.50543Z" fill="currentColor"/>
</g>
</svg>
