<svg width="24" height="24" viewBox="0 0 24 24" fill="none" xmlns="http://www.w3.org/2000/svg">
<g id="Frame">
<path id="Vector" d="M3.04688 12.8566C5.60866 12.5033 7.74189 11.3219 9.53979 9.52068C11.3326 7.72405 12.5083 5.59404 12.857 3.05156C16.7245 3.354 20.5051 6.46019 20.9742 11.1564C18.4285 11.5085 16.292 12.6841 14.4915 14.4821C12.6897 16.2807 11.5141 18.4164 11.1589 20.9641C7.07456 20.6269 3.47288 17.3469 3.04688 12.8566Z" fill="currentColor"/>
<path id="Vector_2" d="M21.0003 12.2953C20.9232 17.0502 16.9116 20.9427 12.3047 21C12.6921 17.1949 16.5769 12.8648 21.0003 12.2953Z" fill="currentColor"/>
<path id="Vector_3" d="M11.7175 3C11.2445 7.0547 7.24518 11.1956 3 11.7233C3.10682 9.37582 3.94916 7.34685 5.5991 5.67761C7.27671 3.98005 9.33074 3.11326 11.7175 3Z" fill="currentColor"/>
</g>
</svg>
