<svg width="24" height="24" viewBox="0 0 24 24" fill="none" xmlns="http://www.w3.org/2000/svg">
<g id="Frame">
<path id="Vector" d="M13.1439 8.06095C12.8324 8.06095 12.5555 7.9225 12.3824 7.68017C12.2093 7.40327 12.1401 7.05711 12.2439 6.78018C12.5555 5.7417 12.417 4.8763 11.7593 4.28782C10.9285 3.52627 9.43999 3.49165 7.95154 4.14936C6.98229 4.59937 3.69376 6.50325 3.69376 11.9726C3.69376 16.5419 6.56689 20.2805 10.1323 20.2805C13.9401 20.2805 16.5709 16.0919 16.5709 12.3188C16.5709 11.1072 16.294 10.1033 15.7748 9.37637C15.1863 8.51095 14.2517 8.06095 13.1439 8.06095ZM7.2246 7.85327C7.88232 7.85327 8.43619 8.40715 8.43619 9.06482C8.43619 9.72257 7.91689 10.2764 7.2246 10.2764C6.53227 10.2764 6.01303 9.72257 6.01303 9.06482C6.01303 8.40715 6.56689 7.85327 7.2246 7.85327ZM5.35533 12.111C5.35533 11.4533 5.90919 10.8995 6.56689 10.8995C7.2246 10.8995 7.77844 11.4533 7.77844 12.111C7.77844 12.7688 7.2246 13.3226 6.56689 13.3226C5.90919 13.3226 5.35533 12.8033 5.35533 12.111ZM7.57077 16.5765C6.91306 16.5765 6.3592 16.0226 6.3592 15.365C6.3592 14.7073 6.91306 14.1534 7.57077 14.1534C8.22844 14.1534 8.78232 14.7073 8.78232 15.365C8.78232 16.0226 8.26309 16.5765 7.57077 16.5765ZM10.3401 18.4112C9.68232 18.4112 9.12852 17.8573 9.12852 17.1996C9.12852 16.5419 9.68232 15.9881 10.3401 15.9881C10.9977 15.9881 11.5516 16.5419 11.5516 17.1996C11.5516 17.8573 11.0324 18.4112 10.3401 18.4112ZM14.4594 12.9419C14.2863 13.288 13.9747 13.4957 13.6286 13.5995C13.5247 13.6342 13.4208 13.6342 13.317 13.6342C12.5901 13.6342 11.8977 13.0457 11.6208 12.1803C11.4477 11.6264 11.517 11.0726 11.7593 10.6226C11.9324 10.2764 12.2439 10.0687 12.5901 9.96482C13.4208 9.75715 14.2863 10.3802 14.5978 11.3841C14.7709 11.938 14.7017 12.4918 14.4594 12.9419ZM20.3094 6.91864C20.3094 5.81093 18.6479 4.01089 18.4748 3.8032C18.371 3.69934 18.2325 3.66473 18.094 3.69934C17.9556 3.73396 17.8863 3.87243 17.8863 4.01089C17.8171 5.60323 17.5056 5.88016 17.194 6.19171C17.1248 6.26094 17.0556 6.29555 16.9863 6.36478C16.5363 6.84941 16.3979 7.57637 16.6748 8.16482C16.8132 8.44172 16.9863 8.64947 17.2287 8.8225C17.1248 10.3802 17.0556 11.3149 17.0556 12.9764C17.0556 14.8457 17.1248 16.6112 17.2979 17.9266C17.5402 19.9343 17.8171 20.315 18.2325 20.315C18.6479 20.315 18.9249 19.9343 19.1325 17.9612C19.271 16.6457 19.3749 14.8803 19.3749 13.0111C19.3749 11.3149 19.3056 10.3802 19.2018 8.8225C19.8594 8.44172 20.3094 7.7494 20.3094 6.91864Z" fill="currentColor"/>
</g>
</svg>
