<svg width="24" height="24" viewBox="0 0 24 24" fill="none" xmlns="http://www.w3.org/2000/svg">
<g id="Frame">
<path id="Vector" d="M3.98907 7.21542C4.07906 6.97751 4.08892 6.72111 4.17398 6.48074C4.66458 5.08966 5.63902 4.23727 7.08802 4.03758C9.133 3.75591 10.7565 5.12726 11.0943 6.91773C11.1417 7.16919 11.1663 7.42312 11.1663 7.68014C11.1663 8.77169 11.1633 9.86256 11.1713 10.9535C11.1725 11.1187 11.1251 11.1625 10.9617 11.1619C9.83133 11.155 8.7004 11.1619 7.57 11.1569C5.83563 11.1495 4.35456 9.88971 4.05872 8.18369C4.04393 8.09804 4.06119 7.99814 3.98969 7.92546L3.98907 7.21542Z" fill="currentColor"/>
<path id="Vector_2" d="M14.7798 11.1578C14.195 11.1578 13.61 11.1541 13.0251 11.1609C12.8852 11.1621 12.8291 11.1344 12.8303 10.9784C12.8378 9.80865 12.8069 8.6376 12.8427 7.46841C12.8951 5.74143 14.1444 4.33062 15.8085 4.05389C17.6452 3.7488 19.3512 4.81199 19.8609 6.60738C20.137 7.58122 20.0168 8.5353 19.488 9.39015C18.77 10.552 17.6927 11.1393 16.3188 11.1565C15.806 11.1628 15.2933 11.1578 14.7811 11.1578H14.7798Z" fill="currentColor"/>
<path id="Vector_3" d="M3.98969 16.0141C4.08152 15.8859 4.0692 15.7287 4.10063 15.5857C4.39092 14.2587 5.55642 13.1358 6.89572 12.8991C7.17431 12.8497 7.45413 12.8245 7.73763 12.8251C8.80945 12.8276 9.88128 12.8288 10.9524 12.8227C11.109 12.8221 11.1669 12.8529 11.1663 13.0248C11.1589 14.1428 11.1688 15.2602 11.1614 16.3783C11.1565 17.0884 10.9815 17.7583 10.5808 18.3493C9.97375 19.2449 9.14043 19.8021 8.0569 19.958C8.01438 19.9642 7.96195 19.9463 7.93488 19.9993H7.26429C7.16075 19.9327 7.03871 19.9512 6.92531 19.926C5.49417 19.606 4.55733 18.7555 4.13021 17.3472C4.07166 17.1549 4.07536 16.9484 3.98907 16.7635L3.98969 16.0141Z" fill="currentColor"/>
<path id="Vector_4" d="M16.0258 20.0006C15.9549 19.9266 15.8551 19.9457 15.7694 19.9297C14.199 19.6339 13.0254 18.3575 12.8634 16.7722C12.8436 16.5818 12.8369 16.3926 12.8369 16.2021C12.8369 15.1568 12.8424 14.1115 12.8344 13.0668C12.8331 12.8838 12.8689 12.8209 13.0674 12.8227C14.1583 12.8332 15.2499 12.8259 16.3407 12.8283C18.2434 12.8326 19.7189 14.1263 19.9728 16.011C19.9771 16.0437 19.9765 16.077 20.0117 16.0949V16.7654C19.9605 16.8104 19.9432 16.8659 19.9359 16.9356C19.9211 17.0767 19.9014 17.219 19.865 17.3559C19.6659 18.0998 19.2437 18.689 18.6539 19.1834C18.2132 19.5531 17.7183 19.7738 17.1716 19.91C17.0144 19.9488 16.8486 19.9377 16.697 20.0019H16.0264L16.0258 20.0006Z" fill="currentColor"/>
</g>
</svg>
