<svg width="16" height="16" viewBox="0 0 16 16" fill="none" xmlns="http://www.w3.org/2000/svg">
<g id="Frame" clip-path="url(#clip0_5238_31065)">
<path id="Vector" d="M1.60379 0C0.972612 0 0.460938 0.511674 0.460938 1.14286V4.57143C0.460938 5.20261 0.972613 5.71429 1.60379 5.71429H15.3181C15.9493 5.71429 16.4609 5.20261 16.4609 4.57143V1.14286C16.4609 0.511674 15.9493 0 15.3181 0H1.60379Z" fill="currentColor" />
<path id="Vector_2" d="M0.460938 9.14286C0.460938 8.51167 0.972612 8 1.60379 8H15.3181C15.9493 8 16.4609 8.51168 16.4609 9.14286V10.2857C16.4609 10.9169 15.9493 11.4286 15.3181 11.4286H1.60379C0.972613 11.4286 0.460938 10.9169 0.460938 10.2857V9.14286Z" fill="currentColor" />
<path id="Vector_3" d="M0.460938 14.8577C0.460938 14.2265 0.972612 13.7148 1.60379 13.7148H15.3181C15.9493 13.7148 16.4609 14.2265 16.4609 14.8577C16.4609 15.4889 15.9493 16.0006 15.3181 16.0006H1.60379C0.972613 16.0006 0.460938 15.4889 0.460938 14.8577Z" fill="currentColor" />
</g>
<defs>
<clipPath id="clip0_5238_31065">
<rect width="16" height="16" fill="white" transform="translate(0.460938)"/>
</clipPath>
</defs>
</svg>
