<svg width="17" height="16" viewBox="0 0 17 16" fill="none" xmlns="http://www.w3.org/2000/svg">
<g id="Frame" clip-path="url(#clip0_5217_44390)">
<path id="Vector" fill-rule="evenodd" clip-rule="evenodd" d="M10.0166 0.378732C9.96091 0.156149 9.76092 0 9.53148 0H8.31226C8.08282 0 7.88284 0.156149 7.8272 0.378732L7.44277 1.9164C7.39867 2.0928 7.26173 2.22974 7.08857 2.28525C6.77277 2.38647 6.46837 2.51315 6.17777 2.66286C6.01609 2.74616 5.82238 2.74618 5.66642 2.6526L4.30689 1.83689C4.11016 1.71885 3.85833 1.74985 3.69608 1.91208L2.83396 2.7742C2.67173 2.93644 2.64074 3.18827 2.75877 3.385L3.57449 4.74452C3.66807 4.90049 3.66805 5.0942 3.58474 5.25589C3.43502 5.54649 3.30835 5.8509 3.20712 6.1667C3.15161 6.33986 3.01468 6.4768 2.83827 6.5209L1.30061 6.90532C1.07802 6.96096 0.921875 7.16095 0.921875 7.39039V8.60961C0.921875 8.83905 1.07802 9.03904 1.30061 9.09468L2.83827 9.4791C3.01468 9.5232 3.15161 9.66014 3.20712 9.8333C3.30835 10.1491 3.43502 10.4535 3.58474 10.7441C3.66805 10.9058 3.66807 11.0995 3.57449 11.2555L2.75877 12.615C2.64074 12.8117 2.67173 13.0636 2.83397 13.2258L3.69609 14.0879C3.85833 14.2501 4.11016 14.2811 4.3069 14.1631L5.66641 13.3474C5.82237 13.2538 6.01608 13.2538 6.17777 13.3371C6.46837 13.4868 6.77277 13.6135 7.08857 13.7148C7.26173 13.7703 7.39867 13.9072 7.44277 14.0836L7.8272 15.6213C7.88284 15.8439 8.08282 16 8.31226 16H9.53148C9.76092 16 9.96091 15.8439 10.0166 15.6213L10.401 14.0836C10.4451 13.9072 10.582 13.7703 10.7552 13.7148C11.071 13.6135 11.3754 13.4868 11.666 13.3371C11.8277 13.2538 12.0214 13.2538 12.1774 13.3474L13.5369 14.1631C13.7336 14.2811 13.9855 14.2501 14.1477 14.0879L15.0098 13.2258C15.1721 13.0636 15.2031 12.8117 15.085 12.615L14.2693 11.2555C14.1757 11.0995 14.1757 10.9058 14.259 10.7441C14.4087 10.4535 14.5354 10.1491 14.6367 9.8333C14.6922 9.66014 14.8291 9.5232 15.0055 9.4791L16.5432 9.09468C16.7658 9.03904 16.9219 8.83904 16.9219 8.60961V7.39039C16.9219 7.16095 16.7658 6.96096 16.5432 6.90532L15.0055 6.5209C14.8291 6.4768 14.6922 6.33986 14.6367 6.1667C14.5354 5.8509 14.4087 5.5465 14.259 5.2559C14.1757 5.09421 14.1757 4.9005 14.2693 4.74453L15.085 3.385C15.2031 3.18826 15.1721 2.93643 15.0098 2.7742L14.1477 1.91208C13.9855 1.74984 13.7336 1.71884 13.5369 1.83688L12.1774 2.6526C12.0214 2.74618 11.8277 2.74617 11.666 2.66287C11.3754 2.51315 11.071 2.38647 10.7552 2.28525C10.582 2.22974 10.4451 2.09281 10.401 1.9164L10.0166 0.378732ZM8.92188 10C10.0264 10 10.9219 9.10457 10.9219 8C10.9219 6.89543 10.0264 6 8.92188 6C7.81731 6 6.92188 6.89543 6.92188 8C6.92188 9.10457 7.81731 10 8.92188 10Z" fill="currentColor"/>
</g>
<defs>
<clipPath id="clip0_5217_44390">
<rect width="16" height="16" fill="white" transform="translate(0.921875)"/>
</clipPath>
</defs>
</svg>
