<svg width="47" height="48" viewBox="0 0 47 48" fill="none" xmlns="http://www.w3.org/2000/svg">
<g id="Group">
<path id="Vector" d="M2.61133 3.42516L29.4863 10.0959C32.7231 10.8998 35.3696 14.2704 35.3696 17.5887V41.707C35.3696 45.0233 32.713 47.1135 29.4661 46.3538L6.90348 41.0799C3.65657 40.3182 1 36.9838 1 33.6675V7.53935C1 4.22107 3.72935 1.50977 7.06522 1.50977H39.9348C43.2707 1.50977 46 4.22107 46 7.53935V29.6478C46 32.9641 43.2707 35.6774 39.9348 35.6774H35.3696" stroke="currentColor" stroke-width="2" stroke-linecap="round" stroke-linejoin="round"/>
<path id="Vector_2" d="M25 31.5098C26.6569 31.5098 28 30.1666 28 28.5098C28 26.8529 26.6569 25.5098 25 25.5098C23.3431 25.5098 22 26.8529 22 28.5098C22 30.1666 23.3431 31.5098 25 31.5098Z" fill="currentColor"/>
<path id="Vector_3" d="M41.5 16.5098H46" stroke="currentColor" stroke-width="2" stroke-linecap="round" stroke-linejoin="round"/>
</g>
</svg>
