<svg width="16" height="16" viewBox="0 0 16 16" fill="none" xmlns="http://www.w3.org/2000/svg">
<g id="Frame">
<path id="Vector" d="M9.16665 2.0217C9.05175 1.9732 8.91675 2.0082 8.8437 2.1047L3.54932 9.10425C3.49214 9.18025 3.48367 9.28025 3.5292 9.36425C3.57421 9.44675 3.66527 9.49975 3.7648 9.49975H7.6699L6.68305 13.695C6.6555 13.811 6.71855 13.9295 6.8334 13.978C6.94775 14.0275 7.08435 13.991 7.15635 13.895L12.4508 6.8954C12.5085 6.8199 12.5159 6.7194 12.4709 6.6359C12.4253 6.5519 12.3343 6.4999 12.2353 6.4999H8.3296L9.317 2.30418C9.34455 2.18819 9.281 2.0702 9.16665 2.0217Z" fill="currentColor"/>
</g>
</svg>
