<svg width="24" height="25" viewBox="0 0 24 25" fill="none" xmlns="http://www.w3.org/2000/svg">
<g id="Frame">
<path id="Vector" fill-rule="evenodd" clip-rule="evenodd" d="M17.7071 8.2071C18.0976 7.8166 18.0976 7.1834 17.7071 6.7929C17.3166 6.4024 16.6834 6.4024 16.2929 6.7929L12 11.0858L7.7071 6.7928C7.3166 6.4024 6.6834 6.4024 6.2929 6.7928C5.9024 7.1834 5.9024 7.8166 6.2929 8.2071L10.5858 12.5L6.2928 16.7929C5.9024 17.1834 5.9024 17.8166 6.2928 18.2071C6.6834 18.5976 7.3166 18.5976 7.7071 18.2071L12 13.9142L16.2929 18.2071C16.6834 18.5976 17.3166 18.5976 17.7071 18.2071C18.0976 17.8166 18.0976 17.1834 17.7071 16.7929L13.4142 12.5L17.7071 8.2071Z" fill="currentColor"/>
</g>
</svg>
