<svg width="14" height="16" viewBox="0 0 14 16" fill="none" xmlns="http://www.w3.org/2000/svg">
<g id="Frame" clip-path="url(#clip0_5217_44387)">
<path id="Vector" d="M9 0C9.55228 0 10 0.447716 10 1H13C13.5523 1 14 1.44772 14 2V3H0V2C0 1.44772 0.447715 1 1 1H4C4 0.447716 4.44772 0 5 0H9Z" fill="currentColor"/>
<path id="Vector_2" fill-rule="evenodd" clip-rule="evenodd" d="M1 4H13L11.6095 15.124C11.5469 15.6245 11.1215 16 10.6172 16H3.38278C2.87846 16 2.45306 15.6245 2.3905 15.124L1 4ZM7 5.60708C6.72386 5.60708 6.5 5.83094 6.5 6.10708V13.1071C6.5 13.3832 6.72386 13.6071 7 13.6071C7.27614 13.6071 7.5 13.3832 7.5 13.1071V6.10708C7.5 5.83094 7.27614 5.60708 7 5.60708ZM3.59981 6.19335C3.56639 5.91923 3.76152 5.66993 4.03563 5.63652C4.30975 5.60311 4.55905 5.79823 4.59246 6.07234L5.43948 13.0209C5.4729 13.295 5.27777 13.5443 5.00366 13.5777C4.72955 13.6112 4.48025 13.416 4.44683 13.1419L3.59981 6.19335ZM9.96435 5.63652C10.2385 5.66993 10.4336 5.91923 10.4002 6.19335L9.55315 13.1419C9.51974 13.416 9.27044 13.6112 8.99633 13.5777C8.72221 13.5443 8.52709 13.295 8.5605 13.0209L9.40752 6.07234C9.44094 5.79823 9.69024 5.60311 9.96435 5.63652Z" fill="currentColor"/>
</g>
<defs>
<clipPath id="clip0_5217_44387">
<rect width="14" height="16" fill="white"/>
</clipPath>
</defs>
</svg>
