<svg width="18" height="17" viewBox="0 0 18 17" fill="none" xmlns="http://www.w3.org/2000/svg">
<g id="Frame">
<path id="Vector" d="M9.29644 2.80469C7.55618 2.80469 6.16797 4.16683 6.16797 5.82056C6.16797 6.63113 6.50092 7.5726 7.0251 8.31369C7.53993 9.04159 8.3282 9.69358 9.29644 9.69358C10.2647 9.69358 11.0529 9.04159 11.5678 8.31369C12.092 7.5726 12.4249 6.63113 12.4249 5.82056C12.4249 4.16683 11.0367 2.80469 9.29644 2.80469Z" fill="currentColor"/>
<path id="Vector_2" d="M3.45312 12.25C3.45312 12.25 4.51562 10.25 6.64062 9.75C6.64062 9.75 7.51967 10.75 9.29688 10.75C11.0741 10.75 11.9531 9.75 11.9531 9.75C14.0781 10.25 15.1406 12.25 15.1406 12.25C15.1406 12.25 13.5469 14.25 9.29688 14.25C5.04688 14.25 3.45312 12.25 3.45312 12.25Z" fill="currentColor"/>
</g>
</svg>
