<svg width="24" height="24" viewBox="0 0 24 24" fill="none" xmlns="http://www.w3.org/2000/svg">
<g id="Frame">
<path id="Vector" d="M6.0047 10.4452L7.15689 7.10967C7.2678 6.78835 7.61824 6.61787 7.93962 6.72878C8.02707 6.7592 8.10627 6.808 8.17152 6.87327L10.4873 9.16625L9.93342 11.3869H6.83367L6.0047 10.4452Z" fill="currentColor"/>
<path id="Vector_2" d="M18.0576 10.4452L16.9055 7.10967C16.7945 6.78835 16.4441 6.61787 16.1228 6.72878C16.0353 6.7592 15.956 6.808 15.8908 6.87327L13.575 9.16625L14.1289 11.3869H17.2286L18.0576 10.4452Z" fill="currentColor"/>
<path id="Vector_3" d="M12.3591 4.59047C12.5037 4.66272 12.6209 4.77996 12.6925 4.9251L15.1097 9.82666C15.2903 10.1924 15.7326 10.3425 16.0983 10.1625C16.1034 10.16 16.1085 10.1575 16.113 10.1549L20.2736 7.98489C20.6355 7.79671 21.081 7.93801 21.268 8.29989C21.3675 8.49196 21.3776 8.71756 21.2958 8.91721C20.233 11.5442 19.5581 13.4898 19.2723 14.7548C18.9585 16.1415 18.6924 17.551 18.4731 18.9833C18.4293 19.271 18.1828 19.484 17.8913 19.4858H6.04176C5.73818 19.4871 5.48342 19.259 5.45109 18.9573C5.3237 17.7975 5.08985 16.3969 4.75078 14.7554C4.4396 13.2503 3.76211 11.3243 2.71829 8.97804C2.55098 8.60604 2.71703 8.16931 3.08905 8.00266C3.29249 7.91139 3.52571 7.91709 3.72408 8.01849L7.92845 10.1645C8.2916 10.3502 8.7365 10.2056 8.9216 9.84249L8.92542 9.83551L11.3679 4.92256C11.5492 4.55751 11.9928 4.40858 12.3579 4.59047H12.3591ZM11.9319 11.3496L9.91407 14.2997L11.9319 17.1536L14.0202 14.2997L11.9319 11.3496Z" fill="currentColor"/>
</g>
</svg>
