<svg width="24" height="24" viewBox="0 0 24 24" fill="none" xmlns="http://www.w3.org/2000/svg">
<g id="Frame">
<path id="Vector" d="M14.1207 5.23314C14.1183 5.22643 14.1152 5.21971 14.1122 5.21301L16.6021 4.04185C17.1462 3.78566 17.7587 4.03453 17.9709 4.59693L18.2576 5.35879C18.0221 5.63633 17.9587 6.11638 18.1283 6.56594C18.2978 7.01549 18.6486 7.30096 18.9914 7.30645L19.627 8.9949H15.5371C15.5359 8.98935 15.534 8.98447 15.5316 8.9796L15.2876 8.33182C15.2474 8.2257 15.1315 8.17875 15.029 8.2269C14.9265 8.27512 14.8753 8.40075 14.9155 8.50687L15.0998 8.9955H6.07144L13.742 5.38746C13.7438 5.39478 13.7462 5.40149 13.7486 5.4082L13.9926 6.05599C14.0329 6.16213 14.1482 6.2091 14.2513 6.16091C14.3543 6.11272 14.405 5.98707 14.3647 5.88094L14.1207 5.23314ZM14.7038 6.78248C14.6636 6.67634 14.5483 6.62938 14.4452 6.67756C14.3421 6.72575 14.2915 6.85141 14.3318 6.95755L14.5757 7.60537C14.616 7.7115 14.7313 7.75845 14.8344 7.71022C14.9375 7.66207 14.9881 7.53645 14.9479 7.43028L14.7038 6.78248ZM16.5167 9.83295H19.3854C19.9869 9.83295 20.4743 10.3204 20.4743 10.9218V11.6458C20.1449 11.7904 19.9094 12.1795 19.9094 12.6376C19.9094 13.0957 20.1449 13.4849 20.4743 13.6294V16.3786C20.1449 16.5232 19.9094 16.9124 19.9094 17.3704C19.9094 17.8285 20.1449 18.2177 20.4743 18.3623V18.9112C20.4743 19.5127 19.9869 20.0001 19.3854 20.0001H16.5173C16.5191 19.9885 16.5204 19.9757 16.5204 19.9635V19.3352C16.5204 19.2181 16.4258 19.1236 16.3087 19.1236C16.1916 19.1236 16.097 19.2187 16.097 19.3352V19.9635C16.097 19.9757 16.0982 19.9879 16.1001 20.0001H4.61848C4.01704 20.0001 3.52966 19.5127 3.52966 18.9112V18.4075C3.93042 18.3238 4.23541 17.8914 4.23541 17.3704C4.23541 16.8496 3.93042 16.417 3.52966 16.3335V13.6746C3.93042 13.591 4.23541 13.1586 4.23541 12.6376C4.23541 12.1168 3.93042 11.6842 3.52966 11.6007V10.9218C3.52966 10.3204 4.01704 9.83295 4.61848 9.83295H16.1001C16.0982 9.84457 16.097 9.8574 16.097 9.86955V10.4978C16.097 10.615 16.1922 10.7095 16.3087 10.7095C16.4252 10.7095 16.5204 10.615 16.5204 10.4978V9.86955C16.5204 9.8574 16.5185 9.84457 16.5167 9.83295ZM16.3081 11.2353C16.191 11.2353 16.0964 11.3299 16.0964 11.4469V12.0752C16.0964 12.1924 16.1916 12.2869 16.3081 12.2869C16.4246 12.2869 16.5197 12.1924 16.5197 12.0752V11.4469C16.5197 11.3299 16.4252 11.2353 16.3081 11.2353ZM16.5204 13.0243C16.5204 12.9073 16.4258 12.8127 16.3087 12.8127C16.1916 12.8127 16.097 12.9073 16.097 13.0243V13.6527C16.097 13.7698 16.1922 13.8643 16.3087 13.8643C16.4252 13.8643 16.5204 13.7692 16.5204 13.6527V13.0243ZM16.3087 14.3901C16.1916 14.3901 16.097 14.4847 16.097 14.6018V15.2301C16.097 15.3472 16.1916 15.4417 16.3087 15.4417C16.4258 15.4417 16.5204 15.3472 16.5204 15.2301V14.6018C16.5204 14.4847 16.4258 14.3901 16.3087 14.3901ZM16.5204 16.1798C16.5204 16.0627 16.4258 15.9682 16.3087 15.9682C16.1916 15.9682 16.097 16.0633 16.097 16.1798V16.8081C16.097 16.9252 16.1922 17.0197 16.3087 17.0197C16.4252 17.0197 16.5204 16.9246 16.5204 16.8081V16.1798ZM16.3081 17.5456C16.191 17.5456 16.0964 17.6401 16.0964 17.7572V18.3855C16.0964 18.5026 16.1916 18.5971 16.3081 18.5971C16.4246 18.5971 16.5197 18.5026 16.5197 18.3855V17.7572C16.5197 17.6401 16.4252 17.5456 16.3081 17.5456ZM10.4444 11.7514C10.384 11.6501 10.2376 11.6501 10.1772 11.7514L9.23543 13.3318C9.21346 13.3684 9.17806 13.3946 9.13658 13.4038L7.34264 13.8112C7.22797 13.8375 7.18222 13.9765 7.26029 14.0656L8.47231 15.4496C8.50036 15.482 8.51378 15.5241 8.51011 15.5662L8.34301 17.3986C8.33206 17.5156 8.45101 17.6023 8.55893 17.5553L10.2498 16.8307C10.2888 16.8136 10.3334 16.8136 10.3724 16.8307L12.0632 17.5553C12.1712 17.6017 12.2902 17.5156 12.2792 17.3986L12.1121 15.5662C12.1084 15.5235 12.1218 15.4813 12.1499 15.4496L13.3619 14.0656C13.4394 13.9771 13.3943 13.8375 13.2796 13.8112L11.4856 13.4038C11.4441 13.3946 11.4081 13.3684 11.3868 13.3318L10.4444 11.7514Z" fill="currentColor"/>
</g>
</svg>
