<svg width="15" height="15" viewBox="0 0 15 15" fill="none" xmlns="http://www.w3.org/2000/svg">
<path d="M2.59785 1.75918C2.41833 1.75918 2.24616 1.83057 2.11922 1.95765C1.99228 2.08472 1.92097 2.25708 1.92097 2.43679V10.5624C1.92097 10.9367 2.22395 11.2392 2.59785 11.2392H10.7237C10.8126 11.2394 10.9007 11.2219 10.9829 11.1879C11.0652 11.1539 11.1399 11.104 11.2028 11.0411C11.2657 10.9781 11.3157 10.9034 11.3497 10.8211C11.3838 10.7389 11.4013 10.6507 11.4013 10.5616V2.43679C11.4011 2.25722 11.3297 2.08507 11.2028 1.95817C11.0759 1.83127 10.9038 1.75999 10.7245 1.75999H2.59785V1.75918ZM2.43427 0.86377H10.8888C11.6673 0.86377 12.2974 1.49459 12.2974 2.27223V10.7278C12.2974 11.5055 11.6673 12.1363 10.8888 12.1363H2.43427C2.24933 12.1365 2.06616 12.1002 1.89523 12.0295C1.7243 11.9589 1.56896 11.8552 1.43808 11.7244C1.3072 11.5936 1.20334 11.4382 1.13245 11.2672C1.06155 11.0962 1.02501 10.9129 1.0249 10.7278V2.27223C1.0249 1.49378 1.65585 0.86377 2.43427 0.86377ZM9.50043 6.95579H3.83396C3.71399 6.95537 3.59904 6.90747 3.51421 6.82254C3.42937 6.73761 3.38152 6.62255 3.3811 6.50244C3.3811 6.25237 3.58497 6.04828 3.83396 6.04828H9.50043C9.74943 6.04828 9.9533 6.25318 9.9533 6.50244C9.9533 6.75251 9.74943 6.9566 9.50043 6.9566V6.95579ZM6.21353 9.33872V3.66616C6.21353 3.4169 6.4182 3.21281 6.6672 3.21281C6.917 3.21281 7.12087 3.4169 7.12087 3.66616V9.33872C7.12087 9.58798 6.91619 9.79207 6.6672 9.79207C6.54708 9.79186 6.43193 9.74405 6.34692 9.6591C6.26191 9.57415 6.21395 9.45896 6.21353 9.33872Z" fill="white"/>
</svg>
