<svg width="57" height="47" viewBox="0 0 57 47" fill="none" xmlns="http://www.w3.org/2000/svg">
<g clip-path="url(#clip0_310_2993)">
<g clip-path="url(#clip1_310_2993)">
<path d="M47.834 1.71094H7.99609V19.1258H47.834V1.71094Z" fill="url(#paint0_linear_310_2993)"/>
<path d="M42.2697 2.14844H13.196C13.196 2.14844 12.4844 3.12843 12.1054 3.80317C11.6312 4.64752 11.0879 6.06431 11.0879 6.06431L44.1436 6.25278C43.7206 4.52913 43.3155 3.6292 42.2697 2.14844Z" fill="url(#paint1_linear_310_2993)"/>
<path d="M52.1447 46.5539L55.0509 25.0625H2.15137L3.97999 46.5539H52.1447Z" fill="url(#paint2_linear_310_2993)"/>
<path d="M52.0479 40.7549C52.1545 40.1226 52.8936 31.3214 53.5 27H4.48802H4C4.22182 29.7509 4.75421 36.0308 5.10915 39.1422C5.54926 43.0006 7.91038 43.0002 9.98368 43H10.0337H48.5429C50.8943 43 51.9149 41.5454 52.0479 40.7549Z" fill="#FFD37E"/>
<path d="M50.8305 41.6029C50.964 41.1504 52.5 32.5 53.5 27H4C4.40314 30.1711 5.0852 37.3052 5.58562 39.6736C6.21119 42.634 7.12867 43 8.21295 43H48.4535C50.3717 43 50.6636 42.1684 50.8305 41.6029Z" fill="#1667AC"/>
<path d="M2.24921 44.8254C2.24921 44.1731 2.14036 40.6837 2.08594 39.0205C7.2061 40.4554 8.87798 44.9885 9.07391 47.0755C8.44261 47.0212 6.76201 46.9127 5.09012 46.9127C3.00025 46.9127 2.24921 45.6406 2.24921 44.8254Z" fill="url(#paint3_linear_310_2993)"/>
<path d="M9.53053 46.7168L9.07337 47.0429C8.25701 41.7923 4.40383 39.6398 2.05273 38.9877C2.13982 38.9115 2.34662 38.7332 2.47723 38.6289C7.91087 40.3509 9.44344 44.7383 9.53053 46.7168Z" fill="url(#paint4_linear_310_2993)"/>
<path d="M53.3529 44.8254C53.3529 44.1731 53.4618 40.6837 53.5162 39.0205C48.3961 40.4554 46.7243 44.9885 46.5283 47.0755C47.1596 47.0212 48.8402 46.9127 50.512 46.9127C52.602 46.9127 53.3529 45.6406 53.3529 44.8254Z" fill="url(#paint5_linear_310_2993)"/>
<path d="M46.0703 46.7168L46.5275 47.0429C47.3438 41.7923 51.1971 39.6398 53.5481 38.9877C53.461 38.9115 53.2543 38.7332 53.1237 38.6289C47.69 40.3509 46.1575 44.7383 46.0703 46.7168Z" fill="url(#paint6_linear_310_2993)"/>
<path d="M9.46542 17.9209H45.6135H46.5277L46.3971 18.9971L8.77967 19.1602L8.45312 18.1166L9.46542 17.9209Z" fill="#FFE58E"/>
<path d="M42.0857 1.90793C41.746 1.56877 42.2115 1.46567 42.5817 1.31348L44.5674 1.90793L46.9837 14.6267L46.0694 18.4423C45.9932 18.3879 45.6907 18.2596 45.2205 17.9205C45.6449 4.94087 42.5101 2.33188 42.0857 1.90793Z" fill="url(#paint7_linear_310_2993)"/>
<path d="M13.1876 1.8749C13.1876 1.8749 9.46503 5.16871 9.98753 17.8874C10.1443 18.1484 8.94258 18.5506 8.25684 18.6049L9.23647 2.20103L12.2406 1.22266C12.3758 1.26124 12.7128 1.2161 12.8611 1.32049C13.1305 1.51023 13.1876 1.8749 13.1876 1.8749Z" fill="url(#paint8_linear_310_2993)"/>
<path d="M50.2825 1.22232C54.619 5.5532 55.8122 15.8978 55.8665 20.5287C38.3531 20.5721 2.82321 20.6592 0.811697 20.6592C0.6158 5.26622 5.25266 1.77673 5.6445 1.22232C6.069 1.25494 12.4039 1.05926 12.8611 1.32016C9.33445 3.64215 8.82283 13.865 9.04053 18.6372H24.0287C24.0723 13.2997 24.1593 2.42246 24.1593 1.61367C24.1593 0.602693 24.7472 0.341797 25.335 0.341797H30.9188C31.376 0.341797 31.9963 0.733142 31.9963 1.418V18.6372H46.0702C46.3968 6.30982 44.5742 4.44348 42.5825 1.31271C43.9649 1.31271 47.3307 1.22232 50.2825 1.22232Z" fill="url(#paint9_linear_310_2993)"/>
<path d="M0.426758 21.3122V22.2838H56.5453V21.4427C56.5453 21.0869 56.3751 20.8643 56.1114 20.7193C55.8353 20.5671 55.4578 20.5039 55.0828 20.5039H1.59538C1.03597 20.5039 0.754573 20.6755 0.60958 20.842C0.458595 21.0152 0.426758 21.2156 0.426758 21.3122Z" stroke="#FFF500" stroke-width="0.4088"/>
<path d="M0.223633 22.6158H56.7479V21.5722C56.7479 20.6916 55.8663 20.4307 55.0825 20.4307H1.5951C0.386902 20.4307 0.223633 21.1808 0.223633 21.4418V22.6158Z" fill="url(#paint10_linear_310_2993)"/>
<path d="M56.7232 22.8432V22.6406H56.5204H0.48605H0.283203V22.8432V23.9998C0.283203 24.1622 0.332811 24.4639 0.564106 24.7275C0.801258 24.9979 1.2025 25.1983 1.84564 25.1983H54.8696C55.2747 25.1983 55.726 25.132 56.0839 24.9363C56.4541 24.7339 56.7232 24.3902 56.7232 23.8711V22.8432Z" stroke="#CA6604" stroke-width="0.4088"/>
<path d="M0.223633 22.8447H56.7479V23.8882C56.7479 24.7689 55.8663 25.0298 55.0825 25.0298H1.5951C0.386902 25.0298 0.223633 24.2796 0.223633 24.0187V22.8447Z" fill="url(#paint11_linear_310_2993)"/>
<path d="M56.7153 22.6484H0.223633V22.8441H56.7153V22.6484Z" fill="#894700"/>
<g filter="url(#filter0_d_310_2993)">
<path d="M33.7269 21.7339C33.7269 18.7441 31.3 16.3203 28.3063 16.3203C25.3126 16.3203 22.8857 18.7441 22.8857 21.7339V23.7559C22.8857 26.7457 25.3126 29.1695 28.3063 29.1695C31.3 29.1695 33.7269 26.7457 33.7269 23.7559V21.7339Z" fill="url(#paint12_linear_310_2993)"/>
</g>
<g filter="url(#filter1_i_310_2993)">
<path d="M30.5808 22.8935C30.5808 24.0977 29.5818 25.074 28.3495 25.074C27.1172 25.074 26.1182 24.0977 26.1182 22.8935C26.1182 21.6892 27.1172 20.7129 28.3495 20.7129C29.5818 20.7129 30.5808 21.6892 30.5808 22.8935Z" fill="#912D16"/>
<path d="M27.791 19.6233C27.791 19.3222 28.0407 19.0781 28.3488 19.0781C28.657 19.0781 28.9067 19.3222 28.9067 19.6233V20.9862C28.9067 21.2872 28.657 21.5312 28.3488 21.5312C28.0407 21.5312 27.791 21.2872 27.791 20.9862V19.6233Z" fill="#912D16"/>
<path d="M27.791 24.6643C27.791 24.3633 28.0407 24.1191 28.3488 24.1191C28.657 24.1191 28.9067 24.3633 28.9067 24.6643V26.0271C28.9067 26.3283 28.657 26.5723 28.3488 26.5723C28.0407 26.5723 27.791 26.3283 27.791 26.0271V24.6643Z" fill="#912D16"/>
</g>
</g>
</g>
<defs>
<filter id="filter0_d_310_2993" x="21.2505" y="14.6851" width="14.1117" height="16.1195" filterUnits="userSpaceOnUse" color-interpolation-filters="sRGB">
<feFlood flood-opacity="0" result="BackgroundImageFix"/>
<feColorMatrix in="SourceAlpha" type="matrix" values="0 0 0 0 0 0 0 0 0 0 0 0 0 0 0 0 0 0 127 0" result="hardAlpha"/>
<feOffset/>
<feGaussianBlur stdDeviation="0.817599"/>
<feComposite in2="hardAlpha" operator="out"/>
<feColorMatrix type="matrix" values="0 0 0 0 0 0 0 0 0 0 0 0 0 0 0 0 0 0 0.25 0"/>
<feBlend mode="normal" in2="BackgroundImageFix" result="effect1_dropShadow_310_2993"/>
<feBlend mode="normal" in="SourceGraphic" in2="effect1_dropShadow_310_2993" result="shape"/>
</filter>
<filter id="filter1_i_310_2993" x="26.1182" y="19.0781" width="4.4624" height="8.31174" filterUnits="userSpaceOnUse" color-interpolation-filters="sRGB">
<feFlood flood-opacity="0" result="BackgroundImageFix"/>
<feBlend mode="normal" in="SourceGraphic" in2="BackgroundImageFix" result="shape"/>
<feColorMatrix in="SourceAlpha" type="matrix" values="0 0 0 0 0 0 0 0 0 0 0 0 0 0 0 0 0 0 127 0" result="hardAlpha"/>
<feOffset dy="0.817599"/>
<feGaussianBlur stdDeviation="0.4088"/>
<feComposite in2="hardAlpha" operator="arithmetic" k2="-1" k3="1"/>
<feColorMatrix type="matrix" values="0 0 0 0 0 0 0 0 0 0 0 0 0 0 0 0 0 0 0.25 0"/>
<feBlend mode="normal" in2="shape" result="effect1_innerShadow_310_2993"/>
</filter>
<linearGradient id="paint0_linear_310_2993" x1="27.9151" y1="1.71094" x2="27.9151" y2="19.1258" gradientUnits="userSpaceOnUse">
<stop stop-color="#42BBFE"/>
<stop offset="1" stop-color="#105A9F"/>
</linearGradient>
<linearGradient id="paint1_linear_310_2993" x1="27.6158" y1="2.14844" x2="27.6158" y2="6.25278" gradientUnits="userSpaceOnUse">
<stop stop-color="white" stop-opacity="0.35"/>
<stop offset="1" stop-color="#D9D9D9" stop-opacity="0"/>
</linearGradient>
<linearGradient id="paint2_linear_310_2993" x1="28.6013" y1="25.0625" x2="28.6013" y2="46.5539" gradientUnits="userSpaceOnUse">
<stop stop-color="#F08032"/>
<stop offset="1" stop-color="#F8C33E"/>
</linearGradient>
<linearGradient id="paint3_linear_310_2993" x1="5.57994" y1="38.9879" x2="5.57994" y2="47.0755" gradientUnits="userSpaceOnUse">
<stop stop-color="#FB9722"/>
<stop offset="1" stop-color="#FCC33E"/>
</linearGradient>
<linearGradient id="paint4_linear_310_2993" x1="2.05273" y1="38.7268" x2="9.74847" y2="47.0202" gradientUnits="userSpaceOnUse">
<stop stop-color="#FED83F"/>
<stop offset="0.557292" stop-color="#F5DD80"/>
<stop offset="1" stop-color="#FED83F"/>
</linearGradient>
<linearGradient id="paint5_linear_310_2993" x1="50.0224" y1="38.9879" x2="50.0224" y2="47.0755" gradientUnits="userSpaceOnUse">
<stop stop-color="#FB9722"/>
<stop offset="1" stop-color="#FCC33E"/>
</linearGradient>
<linearGradient id="paint6_linear_310_2993" x1="53.5481" y1="38.7268" x2="45.8523" y2="47.0202" gradientUnits="userSpaceOnUse">
<stop stop-color="#FED83F"/>
<stop offset="0.557292" stop-color="#F5DD80"/>
<stop offset="1" stop-color="#FED83F"/>
</linearGradient>
<linearGradient id="paint7_linear_310_2993" x1="44.4874" y1="1.0274" x2="44.4874" y2="18.4097" gradientUnits="userSpaceOnUse">
<stop stop-color="#DA9B08"/>
<stop offset="1" stop-color="#E9A622"/>
</linearGradient>
<linearGradient id="paint8_linear_310_2993" x1="10.1508" y1="9.73442" x2="13.2203" y2="9.73442" gradientUnits="userSpaceOnUse">
<stop stop-color="#E0A035"/>
<stop offset="1" stop-color="#FAC05E"/>
</linearGradient>
<linearGradient id="paint9_linear_310_2993" x1="28.3361" y1="0.341797" x2="28.3361" y2="20.6592" gradientUnits="userSpaceOnUse">
<stop stop-color="#FAC23C"/>
<stop offset="0.526042" stop-color="#FCDB8F"/>
<stop offset="1" stop-color="#FCBE41"/>
</linearGradient>
<linearGradient id="paint10_linear_310_2993" x1="28.4858" y1="22.6158" x2="28.4858" y2="20.4307" gradientUnits="userSpaceOnUse">
<stop stop-color="#FEC940"/>
<stop offset="1" stop-color="#F9BA35"/>
</linearGradient>
<linearGradient id="paint11_linear_310_2993" x1="28.4858" y1="22.8447" x2="28.4858" y2="25.0298" gradientUnits="userSpaceOnUse">
<stop stop-color="#FEC940"/>
<stop offset="1" stop-color="#F9BA35"/>
</linearGradient>
<linearGradient id="paint12_linear_310_2993" x1="28.3064" y1="16.3203" x2="28.3064" y2="29.1694" gradientUnits="userSpaceOnUse">
<stop stop-color="#FACC5E"/>
<stop offset="1" stop-color="#F9B93D"/>
</linearGradient>
<clipPath id="clip0_310_2993">
<rect width="57" height="47" fill="white"/>
</clipPath>
<clipPath id="clip1_310_2993">
<rect width="57" height="48" fill="white"/>
</clipPath>
</defs>
</svg>
