<svg width="19" height="25" viewBox="0 0 19 25" fill="none" xmlns="http://www.w3.org/2000/svg">
<path d="M6.27849 25L0.010634 17.1097C0.010634 17.1097 -0.306088 14.1657 2.51747 15.4059C4.14657 16.1426 4.72802 17.6893 4.72802 17.6893L4.78639 5.67041C4.78639 5.67041 6.47063 3.13927 7.93602 5.67041L7.9627 13.2797C7.9627 13.2797 9.78418 10.7819 11.927 13.4543C11.927 13.4543 13.5341 10.7326 15.792 13.5861C15.792 13.5861 17.3929 10.4388 19 13.8592V23.4121C19 23.4121 18.907 24.1568 17.6039 25H6.27849Z" fill="#AF1414"/>
<path d="M6.14705 0C2.75303 0 5.35896e-09 2.73195 5.35896e-09 6.09991C5.35896e-09 8.35989 1.25267 10.3102 3.09263 11.3636V9.47858C2.14131 8.64225 1.52951 7.43557 1.52951 6.07569C1.52951 3.55922 3.58659 1.51775 6.12253 1.51775C8.65852 1.51775 10.7157 3.5592 10.7157 6.07569C10.7157 7.40824 10.1284 8.5967 9.21058 9.43V11.359C11.0445 10.3027 12.2941 8.35538 12.2941 6.09991C12.2941 2.73195 9.54106 0 6.14705 0Z" fill="#AF1414"/>
</svg>
